<svg width="108" height="36" viewBox="0 0 108 36" fill="none" xmlns="http://www.w3.org/2000/svg">
<g clip-path="url(#clip0_33_579)">
<path fill-rule="evenodd" clip-rule="evenodd" d="M11.8923 36.0254C11.8923 36.0254 8.48455 36.1101 5.23933 32.9829C2.07535 29.8552 1.58789 26.3067 1.58789 26.3067V12.6997H6.05007C6.05007 12.6997 4.9956 13.9674 5.07628 15.9955C5.07628 15.9955 4.50814 16.2494 4.58938 17.0939C4.67063 18.0237 5.07628 18.4462 5.40069 18.4462C5.40069 18.4462 5.72566 21.0662 5.88759 21.658C5.96883 22.3338 6.05007 23.6861 6.86082 24.6159L5.07572 27.1512C5.07572 27.1512 6.86082 31.5454 11.9724 32.2218L11.8923 36.0254ZM12.2979 0.0224609H17.4907C17.4907 0.0224609 20.0059 0.0224623 20.8172 0.36039C22.521 1.12087 20.249 1.54343 22.1961 1.79731C24.1436 2.13524 26.9832 1.29013 30.1472 1.29013C34.1225 1.29013 36.6376 2.81109 36.6376 2.81109C36.6376 2.81109 30.6335 1.2055 26.577 4.24801C22.4392 7.20589 18.8696 6.78334 18.8696 5.34642H14.2449C14.2449 5.34642 12.2979 5.43105 12.2979 4.92387V0.0224609Z" fill="white"/>
<path fill-rule="evenodd" clip-rule="evenodd" d="M27.5508 12.6997H30.2284V18.0237L35.015 12.6997H38.5034L33.068 18.6155L38.9903 25.461H35.2582L30.2284 19.4606V25.461H27.5508V12.6997ZM42.0736 12.6997H45.8057L50.998 21.574V12.6997H53.7563V25.461H50.1867L44.8319 16.4181V25.461H42.0736V12.6997ZM58.4622 12.6997H61.1398V25.461H58.4622V12.6997ZM76.9603 24.6165C75.3377 25.461 73.6333 25.7995 71.8487 25.7995C67.9552 25.7995 65.1964 23.179 65.1964 19.1227C65.1964 14.9812 67.9552 12.3618 71.8487 12.3618C73.7969 12.3618 75.5007 12.869 76.7171 14.052L74.769 16.1648C74.0389 15.4043 73.1464 14.9818 71.8482 14.9818C69.4955 14.9818 68.0354 16.7566 68.0354 19.1233C68.0354 21.4894 69.4949 23.2648 71.8482 23.2648C72.9839 23.2648 73.877 22.8416 74.3639 22.5878V20.4756H72.1731V17.9402H76.9597V24.6165H76.9603ZM81.5043 12.6997H84.1819V17.5171H89.4554V12.6997H92.1325V25.461H89.4554V19.9678H84.1819V25.461H81.5043V12.6997ZM99.1905 15.2351H95.7021V12.6997H105.357V15.2351H101.868V25.461H99.1905V15.2351Z" fill="white"/>
<path fill-rule="evenodd" clip-rule="evenodd" d="M27.5507 31.7999H30.2284V32.645H28.4433V33.4049H30.1471V34.2506H28.4433V35.0957H30.3903V35.9414H27.5507V31.7999ZM32.9867 33.8281L31.6885 31.7999H32.743L33.6355 33.2363L34.4468 31.7999H35.5019L34.2037 33.7435L35.6638 35.9414H34.5281L33.5543 34.2506L32.5811 35.9414H31.6073L32.9867 33.8281ZM36.962 31.7999H39.7209V32.645H37.8545V33.4049H39.6396V34.2506H37.8545V35.0957H39.8021V35.9414H36.962V31.7999ZM44.0206 32.8978C43.8581 32.6445 43.6149 32.5604 43.2905 32.5604C42.6411 32.5604 42.0736 33.0676 42.0736 33.9121C42.1548 34.6726 42.6417 35.2638 43.2093 35.2638C43.6149 35.2638 43.8581 35.0952 44.1018 34.7578L44.8319 35.3496C44.5075 35.8556 43.9393 36.1101 43.3718 36.1101C42.0736 36.1101 41.181 35.1798 41.181 33.9121C41.181 32.5604 42.0736 31.7153 43.3718 31.7153C43.7774 31.7153 44.3455 31.884 44.67 32.3059L44.0206 32.8978ZM49.5378 34.3353C49.5378 35.3496 48.9697 36.1101 47.8339 36.1101C46.7795 36.1101 46.2113 35.3496 46.2113 34.3353V31.7999H47.1039V34.3353C47.1039 34.8424 47.4283 35.2644 47.8339 35.2644C48.3208 35.2644 48.6452 34.8424 48.6452 34.3353V31.7999H49.5378V34.3353ZM52.053 32.645H50.9167V31.7999H54.0812V32.645H52.9455V35.9414H52.053V32.645ZM55.3794 31.7999H56.2714V35.9414H55.3794V31.7999ZM59.9228 31.7159C61.1398 31.7159 62.1136 32.5604 62.1136 33.9127C62.1136 35.1804 61.1398 36.1107 59.9228 36.1107C58.7059 36.1107 57.8128 35.1804 57.8128 33.9127C57.8133 32.5604 58.7059 31.7159 59.9228 31.7159ZM59.9228 35.2644C60.6529 35.2644 61.1398 34.6726 61.1398 33.9127C61.1398 33.0682 60.6529 32.561 59.9228 32.561C59.1916 32.561 58.7059 33.0682 58.7059 33.9127C58.7059 34.6726 59.1922 35.2644 59.9228 35.2644ZM63.5737 31.7999H64.7907L66.4945 34.6726V31.7999H67.3871V35.9414H66.2514L64.4668 32.9836V35.9414H63.5737V31.7999ZM71.6868 31.7999H73.1463C73.9582 31.7999 74.6883 32.0532 74.6883 33.0676C74.6883 34.0808 74.0394 34.3353 73.2287 34.3353H72.5788V35.9414H71.6868V31.7999ZM72.5788 33.5748H73.1469C73.4719 33.5748 73.715 33.4896 73.715 33.0676C73.715 32.6445 73.3099 32.5604 72.985 32.5604H72.5788V33.5748ZM76.9603 31.7999H77.6903L79.3942 35.9414H78.4215L78.0153 35.0957H76.4734L76.1495 35.9414H75.1757L76.9603 31.7999ZM77.2858 32.9836L76.7989 34.3353H77.7716L77.2858 32.9836ZM80.6924 31.7999H82.2343C83.0462 31.7999 83.7762 32.1373 83.7762 33.0676C83.7762 33.6594 83.4512 34.0808 82.8831 34.2506L83.9381 35.9409H82.8831L81.9911 34.3347H81.5849V35.9409H80.6918V31.7999H80.6924ZM81.5849 33.4896H82.0718C82.3957 33.4896 82.8019 33.4896 82.8019 33.0676C82.8019 32.6445 82.478 32.5604 82.1531 32.5604H81.5849V33.4896ZM85.967 32.645H84.75V31.7999H87.9134V32.645H86.7777V35.9414H85.967V32.645ZM89.2923 31.7999H90.5093L92.2131 34.6726V31.7999H93.1062V35.9414H91.97L90.1854 32.9836V35.9414H89.2923V31.7999ZM94.8101 31.7999H97.569V32.645H95.7021V33.4049H97.4866V34.2506H95.7021V35.0957H97.6497V35.9414H94.8101V31.7999ZM99.2717 31.7999H100.814C101.625 31.7999 102.274 32.1373 102.274 33.0676C102.274 33.6594 102.03 34.0808 101.462 34.2506L102.436 35.9409H101.381L100.57 34.3347H100.164V35.9409H99.2711V31.7999H99.2717ZM100.164 33.4896H100.651C100.975 33.4896 101.381 33.4896 101.381 33.0676C101.381 32.6445 101.057 32.5604 100.732 32.5604H100.164V33.4896ZM105.763 32.8137C105.681 32.645 105.357 32.5604 105.195 32.5604C104.951 32.5604 104.546 32.645 104.546 32.9836C104.546 33.744 106.412 33.2369 106.412 34.6732C106.412 35.6035 105.681 36.1107 104.87 36.1107C104.614 36.1143 104.36 36.0637 104.123 35.9619C103.886 35.8602 103.671 35.7095 103.491 35.5189L104.14 34.843C104.302 35.0963 104.627 35.265 104.951 35.265C105.195 35.265 105.519 35.0963 105.519 34.759C105.519 33.9973 103.653 34.4205 103.653 33.0688C103.653 32.1384 104.383 31.7171 105.195 31.7171C105.6 31.7171 106.087 31.8017 106.412 32.139L105.763 32.8137ZM18.2207 16.0802C18.2207 14.0515 17.9776 12.7844 17.085 11.6854C16.1118 10.3337 14.5699 9.91054 13.8398 9.65724C12.7041 9.06543 12.2984 7.71313 12.2984 7.71313V16.5027H15.9493C16.193 16.5027 16.5174 16.7566 16.5174 17.1792C16.5174 17.6017 16.193 17.771 15.9493 17.771H9.53898C9.13332 17.771 8.8896 17.4325 8.8896 17.0946C8.8896 16.8407 8.97084 16.672 9.13332 16.5027H6.61816L7.42947 22.673C7.42947 22.673 7.42947 23.4335 7.99761 23.9406C8.56575 24.6165 11.4866 26.2215 11.8922 26.2215C12.1359 26.2215 13.1904 25.9682 14.5699 25.0385C15.7868 24.1939 16.4362 23.3488 16.6794 22.9263L16.8418 22.7576V22.673C18.0588 20.5596 18.14 18.4468 18.14 18.4468C18.3832 18.4468 18.6269 18.1089 18.7076 17.1792C18.7071 16.2494 18.2207 16.0802 18.2207 16.0802ZM9.37705 19.7986C9.37705 20.1365 9.13332 20.3904 8.89016 20.3904C8.81504 20.3923 8.74034 20.3783 8.67058 20.3492C8.60081 20.3202 8.53744 20.2766 8.48432 20.2213C8.43119 20.166 8.38941 20.1 8.36151 20.0273C8.33361 19.9546 8.32017 19.8768 8.32202 19.7986C8.32202 19.5447 8.56574 19.2914 8.89016 19.2914C9.13332 19.292 9.37705 19.5453 9.37705 19.7986ZM10.9184 19.7986C10.9203 19.8768 10.9068 19.9546 10.8789 20.0273C10.851 20.1 10.8092 20.166 10.7561 20.2213C10.703 20.2766 10.6396 20.3202 10.5699 20.3492C10.5001 20.3783 10.4254 20.3923 10.3503 20.3904C10.1071 20.3904 9.86339 20.1365 9.86339 19.7986C9.86339 19.5447 10.1071 19.2914 10.3503 19.2914C10.6753 19.292 10.9184 19.5453 10.9184 19.7986ZM10.9184 21.4047C10.9202 21.4829 10.9067 21.5607 10.8788 21.6333C10.8508 21.7059 10.809 21.7718 10.7559 21.8271C10.7028 21.8824 10.6395 21.9258 10.5697 21.9549C10.5 21.9839 10.4253 21.9979 10.3503 21.996C10.1071 21.996 9.86339 21.7427 9.86339 21.4047C9.86339 21.1508 10.1071 20.8975 10.3503 20.8975C10.6753 20.8975 10.9184 21.1508 10.9184 21.4047ZM12.4598 21.4047C12.4616 21.4829 12.4481 21.5607 12.4201 21.6333C12.3922 21.7059 12.3504 21.7718 12.2973 21.8271C12.2442 21.8824 12.1808 21.9258 12.1111 21.9549C12.0414 21.9839 11.9667 21.9979 11.8916 21.996C11.6485 21.996 11.4048 21.7427 11.4048 21.4047C11.4048 21.1508 11.6485 20.8975 11.8916 20.8975C12.2166 20.8975 12.4598 21.1508 12.4598 21.4047ZM10.9184 23.0103C10.9184 23.2648 10.6753 23.5175 10.3503 23.5175C10.1071 23.5175 9.86339 23.2642 9.86339 23.0103C9.86339 22.673 10.1071 22.4185 10.3503 22.4185C10.4254 22.4166 10.5001 22.4306 10.5699 22.4596C10.6396 22.4887 10.703 22.5322 10.7561 22.5876C10.8092 22.6429 10.851 22.7089 10.8789 22.7816C10.9068 22.8543 10.9203 22.9321 10.9184 23.0103ZM12.4598 23.0103C12.4598 23.2648 12.2166 23.5175 11.8916 23.5175C11.6485 23.5175 11.4048 23.2642 11.4048 23.0103C11.4048 22.673 11.6485 22.4185 11.8916 22.4185C11.9668 22.4166 12.0415 22.4306 12.1112 22.4596C12.181 22.4887 12.2444 22.5322 12.2975 22.5876C12.3506 22.6429 12.3924 22.7089 12.4203 22.7816C12.4482 22.8543 12.4616 22.9321 12.4598 23.0103ZM12.4598 24.6165C12.4598 24.8698 12.2166 25.1237 11.8916 25.1237C11.6485 25.1237 11.4048 24.8692 11.4048 24.6165C11.4048 24.278 11.6485 24.0247 11.8916 24.0247C11.9668 24.0228 12.0415 24.0368 12.1112 24.0658C12.181 24.0949 12.2444 24.1384 12.2975 24.1937C12.3506 24.2491 12.3924 24.3151 12.4203 24.3878C12.4482 24.4604 12.4616 24.5383 12.4598 24.6165ZM9.37705 21.4047C9.37705 21.7427 9.13332 21.996 8.89016 21.996C8.81509 21.9979 8.74043 21.9839 8.67071 21.9549C8.60098 21.9258 8.53764 21.8824 8.48452 21.8271C8.4314 21.7718 8.38961 21.7059 8.36168 21.6333C8.33374 21.5607 8.32025 21.4829 8.32202 21.4047C8.32202 21.1508 8.56574 20.8975 8.89016 20.8975C9.13332 20.8975 9.37705 21.1508 9.37705 21.4047ZM12.4598 19.7986C12.4616 19.8768 12.4482 19.9546 12.4203 20.0273C12.3924 20.1 12.3506 20.166 12.2975 20.2213C12.2444 20.2766 12.181 20.3202 12.1112 20.3492C12.0415 20.3783 11.9668 20.3923 11.8916 20.3904C11.6485 20.3904 11.4048 20.1365 11.4048 19.7986C11.4048 19.5447 11.6485 19.2914 11.8916 19.2914C12.2166 19.292 12.4598 19.5453 12.4598 19.7986ZM17.0038 24.278C16.5981 24.7852 16.03 25.377 15.2187 26.0528C13.4336 27.4045 12.1359 27.4045 11.9735 27.4045V32.2219C16.9225 32.1373 19.032 27.4045 19.032 27.4045C18.7071 26.3913 17.4094 24.7005 17.0038 24.278ZM14.1636 31.0389C14.1636 31.3774 13.9199 31.6307 13.5955 31.6307C13.2711 31.6307 13.0274 31.3774 13.0274 31.0389C13.0274 30.7015 13.2711 30.4471 13.5955 30.4471C13.9199 30.4471 14.1636 30.7009 14.1636 31.0389ZM16.1112 29.941C16.1112 30.2784 15.8675 30.4471 15.6243 30.4471C15.2999 30.4471 15.1374 30.2784 15.1374 29.941C15.1374 29.6866 15.2999 29.4339 15.6243 29.4339C15.8675 29.4339 16.1112 29.6866 16.1112 29.941ZM17.7338 28.5035C17.7338 28.758 17.5713 28.9267 17.3282 28.9267C17.085 28.9267 16.8413 28.758 16.8413 28.5035C16.8413 28.2502 17.0845 27.9964 17.3282 27.9964C17.5719 27.9964 17.7338 28.2502 17.7338 28.5035Z" fill="white"/>
</g>
<defs>
<clipPath id="clip0_33_579">
<rect width="108" height="36" fill="white"/>
</clipPath>
</defs>
</svg>
