<svg width="93" height="40" viewBox="0 0 93 40" fill="none" xmlns="http://www.w3.org/2000/svg">
<g style="mix-blend-mode:luminosity" clip-path="url(#clip0_295_77)">
<path fill-rule="evenodd" clip-rule="evenodd" d="M23.0924 24.1134C23.0924 24.7292 22.8549 25.4311 22.3762 26.2208C21.9007 27.0046 21.3006 27.6804 20.5753 28.2403C19.8501 28.7989 19.1326 29.0763 18.4249 29.0763H5.63411C4.6059 29.0763 3.65163 28.7768 2.77133 28.1752C1.88972 27.573 1.1943 26.8139 0.688945 25.8953C0.18424 24.976 -0.0713501 24.088 -0.0713501 23.2214V10.8699H5.06324V21.8731C5.06324 22.3764 5.2105 22.8315 5.49983 23.252C5.78916 23.6713 6.13492 24.0014 6.52351 24.2436C6.91598 24.4818 7.26564 24.6042 7.56794 24.6042H15.4278C15.756 24.6042 16.1057 24.4597 16.4729 24.1785C16.84 23.8933 17.1417 23.5548 17.3882 23.1654C17.6347 22.7703 17.7554 22.433 17.7554 22.1544V10.8699H23.0924V24.1134Z" fill="#009FE3"/>
<path fill-rule="evenodd" clip-rule="evenodd" d="M50.5843 25.1015C50.5843 25.6256 50.4202 26.2454 50.0965 26.9596C49.7721 27.6751 49.246 28.304 48.5149 28.8411C47.7864 29.3789 46.862 29.6471 45.739 29.6471C44.5817 29.6471 43.7267 29.4863 43.1701 29.1706C42.6122 28.8541 42.0206 28.2695 41.3862 27.4108L32.5805 16.7448C32.3002 16.373 32.0797 16.1347 31.9162 16.0306C31.7514 15.9219 31.5484 15.8704 31.3025 15.8704C31.1423 15.8704 30.9788 15.9297 30.8108 16.0521C30.6421 16.1771 30.5552 16.3463 30.5552 16.567V29.0495H25.4206V14.5605C25.4206 14.3092 25.503 13.9629 25.6665 13.5293C25.8312 13.0911 26.103 12.6413 26.4832 12.1686C26.8633 11.7005 27.3687 11.3021 27.9947 10.9772C28.6246 10.6517 29.3804 10.4876 30.2665 10.4876C31.3894 10.4876 32.2659 10.6731 32.9048 11.0501C33.5393 11.4271 34.0537 11.8398 34.4416 12.2767L43.3077 22.7513C43.5886 23.1334 43.826 23.3763 44.0161 23.4798C44.21 23.5885 44.439 23.6406 44.7024 23.6406C45.0047 23.6406 45.1909 23.5501 45.2642 23.3671C45.3375 23.1855 45.3719 22.9303 45.3719 22.6002C45.3719 19.9121 45.3719 17.2233 45.3719 14.5338C45.3719 -4.85161 73.4016 -3.06124 77.9141 14.1868C71.51 -1.24354 50.5843 -1.5378 50.5843 16.7389V25.1015Z" fill="#009FE3"/>
<path d="M59.4029 10.8699H54.1892V29.0502H59.4029V10.8699Z" fill="#009FE3"/>
<path fill-rule="evenodd" clip-rule="evenodd" d="M93.0902 29.0501H87.8524V17.7604C87.8524 17.5781 87.7759 17.4141 87.6183 17.2747C87.4632 17.1315 87.3172 17.0625 87.1836 17.0625C86.8119 17.0625 86.5485 17.2272 86.3967 17.5612L80.1087 29.0501H75.1525L68.6744 17.5091C68.6401 17.3665 68.5655 17.2363 68.4571 17.1276C68.3501 17.0195 68.2327 16.9375 68.1081 16.8809C67.9868 16.8236 67.8914 16.7982 67.8266 16.7982C67.6624 16.7982 67.521 16.8809 67.3952 17.0501C67.27 17.2187 67.2064 17.4004 67.2064 17.5827V29.0501H62.0705V15.0345C62.0705 14.3587 62.2353 13.7344 62.5635 13.1621C62.8918 12.5898 63.307 12.1094 63.8026 11.7194C64.2995 11.3294 64.8301 11.0306 65.3828 10.8131C65.9394 10.5963 66.4286 10.4883 66.8386 10.4883C68.0212 10.4883 69.0111 10.7917 69.8051 11.3939C70.605 12.0007 71.4328 13.041 72.3066 14.5143L77.4931 23.8971L82.8288 14.4889C83.5197 13.1842 84.2767 12.1914 85.0928 11.5111C85.9128 10.8314 86.9241 10.4883 88.1314 10.4883C88.8417 10.4883 89.5028 10.627 90.1243 10.9082C90.7457 11.1862 91.2764 11.5631 91.7253 12.0352C92.1716 12.513 92.5115 13.0319 92.7399 13.6003C92.9741 14.168 93.0902 14.7174 93.0902 15.2507V29.0501Z" fill="#009FE3"/>
<path fill-rule="evenodd" clip-rule="evenodd" d="M54.1834 9.72013C55.9064 9.72013 57.6787 9.72013 59.4017 9.72013C59.4017 7.82755 59.4017 6.76896 59.4017 4.87573C57.2038 5.40763 54.9755 7.36271 54.1834 9.72013Z" fill="white"/>
<path fill-rule="evenodd" clip-rule="evenodd" d="M1.81316 35.0214V35.5195C1.81316 35.5481 1.80992 35.5709 1.80278 35.5878C1.79564 35.6034 1.77748 35.6113 1.74894 35.6113C1.6659 35.5937 1.58027 35.5768 1.49205 35.5598C1.40382 35.5442 1.32403 35.5364 1.25138 35.5364C1.00746 35.5364 0.847224 35.6132 0.771323 35.7695C0.724617 35.8671 0.70061 36.0416 0.70061 36.2942V37.2102C0.70061 37.5214 0.741477 37.7278 0.822566 37.83C0.903655 37.9335 1.05935 37.985 1.28965 37.985C1.41939 37.985 1.50762 37.9732 1.55432 37.9498C1.60103 37.9257 1.67823 37.914 1.78591 37.914C1.8404 37.914 1.867 37.9478 1.867 38.0116V38.4941C1.867 38.5774 1.82289 38.6373 1.73466 38.6757C1.64708 38.7135 1.44469 38.733 1.12747 38.733C0.630547 38.733 0.287377 38.5989 0.0966544 38.3313C-0.0324429 38.1471 -0.0979614 37.8678 -0.0979614 37.4915V35.953C-0.0979614 35.6321 -0.0227111 35.3847 0.129091 35.2109C0.334083 34.9726 0.681146 34.8534 1.17093 34.8534C1.4408 34.8534 1.62439 34.871 1.72105 34.9075C1.78267 34.9296 1.81316 34.9667 1.81316 35.0214ZM2.20239 34.8971H4.59356C4.63638 34.8971 4.66687 34.9107 4.68244 34.9374C4.6993 34.9641 4.70709 34.9947 4.70709 35.026V35.509C4.70709 35.5846 4.66881 35.6223 4.59356 35.6223H3.89165C3.82678 35.6223 3.79435 35.6549 3.79435 35.72V38.4993C3.79435 38.5644 3.78721 38.608 3.77294 38.6295C3.74439 38.6692 3.68861 38.69 3.60557 38.69H3.1839C3.10216 38.69 3.04962 38.6738 3.02756 38.6432C3.0068 38.6126 2.99513 38.5644 2.99513 38.4993V35.72C2.99513 35.6549 2.96334 35.6223 2.89847 35.6223H2.21796C2.12779 35.6223 2.08303 35.5865 2.08303 35.5149V34.9993C2.08303 34.9303 2.1226 34.8971 2.20239 34.8971ZM5.79239 34.8971H6.47225C6.51896 34.8971 6.55594 34.9055 6.58253 34.9238C6.60978 34.9426 6.63184 34.9836 6.65 35.0481L7.52512 38.5266C7.53161 38.5487 7.5355 38.5722 7.5355 38.5969C7.5355 38.6581 7.49593 38.69 7.41678 38.69H6.88743C6.83423 38.69 6.79531 38.6751 6.77196 38.6464C6.7486 38.6178 6.73109 38.5813 6.72071 38.5377L6.61237 38.1249C6.5981 38.0722 6.56241 38.0442 6.50468 38.0442H5.76514C5.70352 38.0442 5.66784 38.0722 5.65681 38.1249L5.55431 38.5533C5.54717 38.5898 5.5316 38.6217 5.50824 38.6484C5.48489 38.6757 5.44791 38.69 5.39796 38.69H4.87381C4.80569 38.69 4.77131 38.6555 4.77131 38.5859C4.77131 38.5754 4.77131 38.5644 4.77131 38.5533C4.77844 38.5396 4.78233 38.5299 4.78233 38.5266L5.61334 35.0481C5.62826 34.9837 5.64837 34.9426 5.67562 34.9238C5.70287 34.9055 5.74179 34.8971 5.79239 34.8971ZM5.91046 37.3176H6.35937C6.39829 37.3176 6.41062 37.2916 6.39634 37.2369L6.15891 36.2779C6.15502 36.2636 6.14918 36.2519 6.13945 36.2434C6.13166 36.2343 6.12518 36.2271 6.12129 36.2245C6.09988 36.246 6.0869 36.2636 6.08301 36.2779L5.87282 37.2369C5.85856 37.2916 5.87088 37.3176 5.91046 37.3176ZM7.97856 34.8971H8.39893C8.48262 34.8971 8.53451 34.9127 8.55592 34.9426C8.57798 34.9739 8.58771 35.0214 8.58771 35.0865V36.1327C8.58771 36.164 8.5929 36.19 8.60198 36.2076C8.61041 36.2265 8.63312 36.235 8.66944 36.235H9.25783C9.27534 36.235 9.28832 36.233 9.2948 36.2291C9.32788 36.2115 9.34345 36.1751 9.34345 36.121V35.0865C9.34345 35.0214 9.35124 34.9778 9.36551 34.9563C9.3947 34.9166 9.45049 34.8971 9.53287 34.8971H9.95389C10.0369 34.8971 10.0895 34.9127 10.1109 34.9426C10.1323 34.9739 10.1427 35.0214 10.1427 35.0865V38.4993C10.1427 38.5644 10.1362 38.608 10.1213 38.6295C10.0927 38.6692 10.0369 38.69 9.95389 38.69H9.53287C9.45049 38.69 9.39794 38.6738 9.37653 38.6432C9.35513 38.6126 9.34345 38.5644 9.34345 38.4993V37.08C9.34345 37.0227 9.31556 36.9934 9.25782 36.9934H8.66943C8.61494 36.9934 8.58769 37.0208 8.58769 37.0754V38.4993C8.58769 38.5833 8.57277 38.6353 8.54228 38.6575C8.51179 38.679 8.46379 38.69 8.39892 38.69H7.97855C7.91368 38.69 7.87021 38.6822 7.84816 38.6679C7.80859 38.6386 7.78912 38.5833 7.78912 38.4993V35.0865C7.78912 35.0214 7.79626 34.9778 7.81053 34.9563C7.83974 34.9166 7.89553 34.8971 7.97856 34.8971ZM11.2714 34.8971H12.8751C12.9575 34.8971 13.0094 34.9127 13.0314 34.9426C13.0528 34.9739 13.0639 35.0214 13.0639 35.0865V37.9088C13.0639 37.9459 13.0658 37.9674 13.0723 37.9745C13.0775 37.981 13.0956 37.985 13.1287 37.985H13.2468C13.3117 37.985 13.3545 37.9921 13.3765 38.0071C13.4161 38.0357 13.4362 38.0917 13.4362 38.1738V39.1939C13.4362 39.276 13.4206 39.328 13.3901 39.3502C13.3597 39.3717 13.3117 39.3827 13.2468 39.3827H12.853C12.77 39.3827 12.7181 39.3671 12.696 39.3372C12.6746 39.3066 12.6636 39.259 12.6636 39.1952V38.7695C12.6636 38.7167 12.635 38.69 12.5773 38.69H11.2656C11.2007 38.69 11.1683 38.7232 11.1683 38.7916V39.1952C11.1683 39.2773 11.1534 39.3281 11.1229 39.3502C11.0924 39.3717 11.0444 39.3827 10.9795 39.3827H10.5858C10.5027 39.3827 10.4508 39.3671 10.4288 39.3372C10.4074 39.3059 10.3963 39.259 10.3963 39.1939V38.1738C10.3963 38.0917 10.4119 38.0396 10.4424 38.0175C10.4735 37.996 10.5202 37.985 10.5858 37.985H10.6338C10.6883 37.985 10.735 37.927 10.7745 37.8111C10.7927 37.761 10.8141 37.6692 10.8394 37.5351C10.9218 37.1451 10.9834 36.7493 11.023 36.3489C11.0515 36.0488 11.0658 35.7597 11.0658 35.4824L11.0827 35.054C11.0827 34.9778 11.0969 34.9322 11.1255 34.9185C11.154 34.9036 11.2027 34.8971 11.2714 34.8971ZM12.2646 37.9088V35.6659C12.2646 35.6223 12.2432 35.6008 12.1998 35.6008H11.9299C11.8832 35.6008 11.8592 35.6223 11.8592 35.6659L11.8326 36.0025C11.8326 36.5579 11.8001 36.9426 11.7353 37.1562C11.66 37.4055 11.601 37.6542 11.5569 37.9042V37.9478C11.5647 37.9726 11.5893 37.9849 11.6328 37.9849H12.1894C12.2393 37.985 12.2646 37.9596 12.2646 37.9088ZM14.5481 34.8971H15.2286C15.2753 34.8971 15.3123 34.9055 15.3395 34.9238C15.3655 34.9426 15.3882 34.9836 15.4064 35.0481L16.2815 38.5266C16.288 38.5487 16.2925 38.5722 16.2925 38.5969C16.2925 38.6581 16.2523 38.69 16.1731 38.69H15.6444C15.5899 38.69 15.551 38.6751 15.5283 38.6464C15.5043 38.6178 15.4875 38.5813 15.4771 38.5377L15.3687 38.1249C15.3538 38.0722 15.3188 38.0442 15.2604 38.0442H14.5215C14.4599 38.0442 14.4242 38.0722 14.4132 38.1249L14.3113 38.5533C14.3035 38.5898 14.288 38.6217 14.2646 38.6484C14.2413 38.6757 14.2043 38.69 14.1543 38.69H13.6302C13.5614 38.69 13.5277 38.6555 13.5277 38.5859C13.5277 38.5754 13.5277 38.5644 13.5277 38.5533C13.5355 38.5396 13.5387 38.5299 13.5387 38.5266L14.3704 35.0481C14.3846 34.9836 14.4047 34.9426 14.432 34.9238C14.4592 34.9055 14.4982 34.8971 14.5481 34.8971ZM14.6668 37.3176H15.1151C15.1547 37.3176 15.167 37.2916 15.1527 37.2369L14.9153 36.2779C14.9114 36.2636 14.9056 36.2519 14.8965 36.2434C14.888 36.2343 14.8809 36.2271 14.8777 36.2245C14.8563 36.246 14.8433 36.2636 14.8394 36.2779L14.6292 37.2369C14.6149 37.2916 14.6273 37.3176 14.6668 37.3176ZM16.7349 34.8971H17.7164C18.2568 34.8971 18.637 35.0403 18.8562 35.3254C19.0003 35.5129 19.0723 35.7564 19.0723 36.0566C19.0723 36.4244 18.9523 36.7011 18.7135 36.8853C18.4742 37.0689 18.1595 37.1607 17.7716 37.1607H17.4258C17.3713 37.1607 17.3447 37.1887 17.3447 37.2428V38.4993C17.3447 38.5833 17.3292 38.6353 17.2987 38.6575C17.2682 38.679 17.2202 38.69 17.156 38.69H16.7349C16.6701 38.69 16.6266 38.6822 16.6052 38.6679C16.565 38.6386 16.5455 38.5833 16.5455 38.4993V35.0865C16.5455 35.0214 16.5527 34.9778 16.5669 34.9563C16.5961 34.9166 16.6519 34.8971 16.7349 34.8971ZM17.4038 36.457H17.7164C17.854 36.457 17.9701 36.4166 18.0655 36.3352C18.1608 36.2538 18.2082 36.1484 18.2082 36.0182C18.2082 35.8958 18.1738 35.7981 18.1057 35.7258C18.0194 35.6353 17.8877 35.5898 17.7119 35.5898H17.4148C17.3681 35.5898 17.3447 35.6132 17.3447 35.6607V36.4029C17.3447 36.4394 17.3642 36.457 17.4038 36.457ZM19.3259 34.8971H21.7177C21.7605 34.8971 21.7904 34.9107 21.8066 34.9374C21.8228 34.9641 21.8306 34.9947 21.8306 35.026V35.509C21.8306 35.5846 21.793 35.6223 21.7177 35.6223H21.0158C20.9509 35.6223 20.9185 35.6549 20.9185 35.72V38.4993C20.9185 38.5644 20.9114 38.608 20.8965 38.6295C20.8679 38.6692 20.8128 38.69 20.7297 38.69H20.3087C20.2257 38.69 20.1731 38.6738 20.1517 38.6432C20.1303 38.6126 20.1193 38.5644 20.1193 38.4993V35.72C20.1193 35.6549 20.0875 35.6223 20.0226 35.6223H19.3421C19.252 35.6223 19.2072 35.5865 19.2072 35.5149V34.9993C19.2072 34.9303 19.2461 34.8971 19.3259 34.8971ZM23.6658 37.3079V36.2779C23.6658 35.9172 23.7125 35.6353 23.8066 35.4329C23.9863 35.0468 24.3321 34.8534 24.8433 34.8534C25.3214 34.8534 25.6548 35.026 25.8416 35.3736C25.961 35.5937 26.02 35.8958 26.02 36.2779V37.3079C26.02 37.6653 25.9733 37.9459 25.8799 38.1471C25.6996 38.5377 25.3544 38.733 24.8432 38.733C24.4436 38.733 24.1472 38.6158 23.9552 38.3827C23.7625 38.1497 23.6658 37.7916 23.6658 37.3079ZM25.2208 37.2154V36.3704C25.2208 36.0885 25.2052 35.8977 25.1721 35.7961C25.1222 35.6373 25.0126 35.5579 24.8433 35.5579C24.6733 35.5579 24.5643 35.6353 24.5137 35.7909C24.4813 35.8919 24.4651 36.0852 24.4651 36.3704V37.2154C24.4651 37.4973 24.4813 37.6887 24.5137 37.7896C24.5643 37.9485 24.6733 38.0286 24.8433 38.0286C25.0126 38.0286 25.1222 37.9504 25.1721 37.7955C25.2052 37.6939 25.2208 37.5012 25.2208 37.2154ZM26.6136 34.8971H27.0346C27.1177 34.8971 27.1702 34.9127 27.1916 34.9426C27.213 34.9739 27.2234 35.0214 27.2234 35.0865V36.1327C27.2234 36.164 27.2286 36.19 27.237 36.2076C27.2461 36.2265 27.2688 36.235 27.3045 36.235H27.8935C27.911 36.235 27.924 36.233 27.9311 36.2291C27.9636 36.2115 27.9791 36.1751 27.9791 36.121V35.0865C27.9791 35.0214 27.9869 34.9778 28.0012 34.9563C28.0297 34.9166 28.0862 34.8971 28.1686 34.8971H28.5902C28.6726 34.8971 28.7245 34.9127 28.7466 34.9426C28.768 34.9739 28.779 35.0214 28.779 35.0865V38.4993C28.779 38.5644 28.7712 38.608 28.757 38.6295C28.7284 38.6692 28.6726 38.69 28.5902 38.69H28.1686C28.0862 38.69 28.0336 38.6738 28.0116 38.6432C27.9908 38.6126 27.9791 38.5644 27.9791 38.4993V37.08C27.9791 37.0227 27.9506 36.9934 27.8935 36.9934H27.3045C27.2506 36.9934 27.2234 37.0208 27.2234 37.0754V38.4993C27.2234 38.5833 27.2085 38.6353 27.178 38.6575C27.1475 38.679 27.0995 38.69 27.0346 38.69H26.6136C26.5487 38.69 26.5059 38.6822 26.4845 38.6679C26.4443 38.6386 26.4242 38.5833 26.4242 38.4993V35.0865C26.4242 35.0214 26.4319 34.9778 26.4462 34.9563C26.4754 34.9166 26.5312 34.8971 26.6136 34.8971ZM29.2098 38.4993V35.0865C29.2098 35.0214 29.2175 34.9778 29.2318 34.9563C29.261 34.9166 29.3168 34.8971 29.3992 34.8971H29.8202C29.9032 34.8971 29.9558 34.9127 29.9772 34.9426C29.9986 34.9739 30.009 35.0201 30.009 35.0852V36.2512C30.009 36.3014 30.0343 36.3267 30.0849 36.3267H30.3437C30.4268 36.3267 30.4916 36.3014 30.5383 36.2512C30.6 36.1868 30.6304 36.08 30.6304 35.9335V35.5338C30.6304 35.3281 30.683 35.1711 30.7894 35.0605C30.8958 34.9524 31.0333 34.8971 31.2026 34.8971H31.564C31.6113 34.8971 31.6502 34.9107 31.6827 34.9374C31.7151 34.9641 31.7313 35.0038 31.7313 35.054V35.3951C31.7313 35.4498 31.7177 35.485 31.6911 35.5038C31.6645 35.5214 31.6379 35.5305 31.6126 35.5305H31.5049C31.4582 35.5305 31.4264 35.5514 31.4102 35.593C31.394 35.634 31.3862 35.6803 31.3862 35.731V36.1751C31.3862 36.2942 31.3609 36.388 31.3103 36.457C31.2415 36.5143 31.1754 36.5709 31.1105 36.6249V36.6471C31.2474 36.7122 31.357 36.7948 31.44 36.8958C31.5224 36.9973 31.5639 37.1471 31.5639 37.3456V38.4993C31.5639 38.5644 31.5568 38.608 31.5425 38.6295C31.514 38.6692 31.4582 38.69 31.3752 38.69H30.9542C30.8718 38.69 30.8192 38.6738 30.7972 38.6432C30.7764 38.6126 30.7647 38.5644 30.7647 38.4986V37.6021C30.7647 37.4277 30.731 37.2955 30.6629 37.2024C30.5941 37.1099 30.4858 37.0644 30.3385 37.0644H30.0738C30.031 37.0644 30.009 37.093 30.009 37.1503V38.4986C30.009 38.5833 29.994 38.6353 29.9636 38.6575C29.9331 38.679 29.8851 38.69 29.8202 38.69H29.3992C29.3343 38.69 29.2915 38.6822 29.2701 38.6679C29.2299 38.6386 29.2098 38.5833 29.2098 38.4993ZM32.0018 37.3079V36.2779C32.0018 35.9172 32.0485 35.6353 32.142 35.4329C32.3217 35.0468 32.6674 34.8534 33.1786 34.8534C33.6574 34.8534 33.9902 35.026 34.1776 35.3736C34.2963 35.5937 34.3554 35.8958 34.3554 36.2779V37.3079C34.3554 37.6653 34.3087 37.9459 34.2153 38.1471C34.0356 38.5377 33.6898 38.733 33.1786 38.733C32.779 38.733 32.4832 38.6158 32.2899 38.3827C32.0978 38.1497 32.0018 37.7916 32.0018 37.3079ZM33.5562 37.2154V36.3704C33.5562 36.0885 33.5399 35.8977 33.5075 35.7961C33.4576 35.6373 33.3479 35.5579 33.1786 35.5579C33.0093 35.5579 32.8997 35.6353 32.8491 35.7909C32.8166 35.8919 32.8004 36.0852 32.8004 36.3704V37.2154C32.8004 37.4973 32.8166 37.6887 32.8491 37.7896C32.8997 37.9485 33.0093 38.0286 33.1786 38.0286C33.3479 38.0286 33.4576 37.9504 33.5075 37.7955C33.5399 37.6939 33.5562 37.5012 33.5562 37.2154ZM35.3596 34.8971H37.2169C37.2993 34.8971 37.3512 34.9127 37.3732 34.9426C37.3946 34.9739 37.4056 35.0214 37.4056 35.0865V38.4993C37.4056 38.5644 37.3979 38.608 37.3836 38.6295C37.355 38.6692 37.2993 38.69 37.2169 38.69H36.7958C36.7128 38.69 36.6603 38.6738 36.6389 38.6432C36.6174 38.6126 36.6064 38.5644 36.6064 38.4993V35.6718C36.6064 35.6171 36.574 35.5898 36.5078 35.5898H36.0407C36.0265 35.5898 36.0102 35.5937 35.994 35.6008C35.9778 35.6086 35.9694 35.6262 35.9694 35.6549L35.9584 36.2896V36.804C35.9584 37.2304 35.9428 37.5481 35.9103 37.7571C35.863 38.0722 35.7715 38.3027 35.6346 38.4511C35.4764 38.6249 35.2441 38.7115 34.9379 38.7115C34.7907 38.7115 34.6927 38.6998 34.644 38.679C34.5954 38.6575 34.5714 38.608 34.5714 38.5318V38.0663C34.5714 38.0266 34.5785 37.9967 34.5928 37.9771C34.6071 37.9576 34.644 37.9478 34.7018 37.9478H34.7563C34.9379 37.9478 35.0488 37.8658 35.0884 37.703C35.1436 37.483 35.1708 36.8997 35.1708 35.953V35.0865C35.1708 35.0214 35.1773 34.9778 35.1922 34.9563C35.2208 34.9166 35.2766 34.8971 35.3596 34.8971ZM37.8104 37.3079V36.2779C37.8104 35.9172 37.8572 35.6353 37.9512 35.4329C38.1309 35.0468 38.4767 34.8534 38.9879 34.8534C39.466 34.8534 39.7994 35.026 39.9862 35.3736C40.105 35.5937 40.1646 35.8958 40.1646 36.2779V37.3079C40.1646 37.6653 40.1179 37.9459 40.0245 38.1471C39.8442 38.5377 39.4984 38.733 38.9879 38.733C38.5882 38.733 38.2918 38.6158 38.0991 38.3827C37.9071 38.1497 37.8104 37.7916 37.8104 37.3079ZM39.3654 37.2154V36.3704C39.3654 36.0885 39.3492 35.8977 39.3168 35.7961C39.2668 35.6373 39.1565 35.5579 38.9879 35.5579C38.8179 35.5579 38.7083 35.6353 38.6583 35.7909C38.6259 35.8919 38.6097 36.0852 38.6097 36.3704V37.2154C38.6097 37.4973 38.6259 37.6887 38.6583 37.7896C38.7083 37.9485 38.8179 38.0286 38.9879 38.0286C39.1565 38.0286 39.2668 37.9504 39.3168 37.7955C39.3492 37.6939 39.3654 37.5012 39.3654 37.2154ZM40.742 34.8971H42.5175C42.5759 34.8971 42.6207 34.9055 42.6531 34.9238C42.6855 34.9426 42.7011 34.9648 42.7011 34.9947V35.4824C42.7011 35.5683 42.6602 35.6113 42.5772 35.6113H41.4387C41.392 35.6113 41.368 35.6353 41.368 35.6822V38.4882C41.368 38.5794 41.3576 38.6353 41.3356 38.6575C41.3142 38.679 41.2765 38.69 41.222 38.69H40.7199C40.6771 38.69 40.6414 38.677 40.6122 38.651C40.5837 38.6256 40.5694 38.5833 40.5694 38.5221V35.0598C40.5694 35.0058 40.5889 34.9641 40.6285 34.9374C40.668 34.9107 40.7057 34.8971 40.742 34.8971ZM43.5438 38.69H43.1338C43.0683 38.69 43.0255 38.6822 43.0041 38.6679C42.9645 38.6386 42.9444 38.5833 42.9444 38.4993V35.0865C42.9444 35.0214 42.9515 34.9778 42.9664 34.9563C42.995 34.9166 43.0508 34.8971 43.1338 34.8971H43.5548C43.6372 34.8971 43.6898 34.9127 43.7112 34.9426C43.7326 34.9739 43.7436 35.0214 43.7436 35.0865V36.858L44.4669 35.0865C44.4994 35.0064 44.5292 34.955 44.5558 34.9322C44.583 34.9088 44.6239 34.8971 44.6777 34.8971H45.115C45.1974 34.8971 45.2499 34.9127 45.2713 34.9426C45.2934 34.9739 45.3038 35.0214 45.3038 35.0865V38.4993C45.3038 38.5644 45.2966 38.608 45.2823 38.6295C45.2538 38.6692 45.1974 38.69 45.115 38.69H44.694C44.6109 38.69 44.559 38.6738 44.537 38.6432C44.5156 38.6126 44.5045 38.5644 44.5045 38.4993V36.6406L43.7922 38.4993C43.7631 38.5794 43.7306 38.6308 43.6923 38.6542C43.6547 38.6777 43.6048 38.69 43.5438 38.69ZM45.682 36.5598V35.0865C45.682 35.0214 45.6891 34.9778 45.7034 34.9563C45.7319 34.9166 45.7884 34.8971 45.8707 34.8971H46.2924C46.3748 34.8971 46.4267 34.9127 46.4488 34.9426C46.4702 34.9739 46.4812 35.0214 46.4812 35.0865V36.3704C46.4812 36.5116 46.5169 36.6119 46.5889 36.6744C46.6427 36.7206 46.7167 36.7447 46.8101 36.7447C46.9398 36.7447 47.03 36.6939 47.0806 36.5924C47.1156 36.5208 47.1344 36.427 47.1344 36.3111V35.0865C47.1344 35.0214 47.1416 34.9778 47.1559 34.9563C47.1844 34.9166 47.2408 34.8971 47.3232 34.8971H47.7442C47.8279 34.8971 47.8785 34.9127 47.9006 34.9426C47.922 34.9739 47.933 35.0214 47.933 35.0865V38.4993C47.933 38.5833 47.9181 38.6353 47.887 38.6575C47.8565 38.679 47.8078 38.69 47.7442 38.69H47.3232C47.2408 38.69 47.1876 38.6737 47.1656 38.6431C47.1455 38.6125 47.1344 38.5644 47.1344 38.4993V37.4218C47.1344 37.3853 47.1234 37.3671 47.102 37.3671C47.03 37.3997 46.9437 37.4303 46.8425 37.4589C46.742 37.4889 46.6414 37.5025 46.5402 37.5025C46.3028 37.5025 46.1121 37.4433 45.968 37.3241C45.7773 37.1646 45.682 36.9101 45.682 36.5598ZM48.3644 38.4993V35.0865C48.3644 35.0214 48.3728 34.9778 48.3865 34.9563C48.4157 34.9166 48.4708 34.8971 48.5532 34.8971H50.3248C50.4072 34.8971 50.4591 34.9127 50.4812 34.9426C50.5039 34.9739 50.5136 35.0214 50.5136 35.0865V35.4713C50.5136 35.511 50.5 35.5422 50.4734 35.5663C50.4455 35.5898 50.4033 35.6008 50.3462 35.6008H49.2616C49.1954 35.6008 49.1643 35.6301 49.1643 35.6874V36.2571C49.1643 36.3222 49.1837 36.3534 49.2233 36.3534H50.0757C50.1121 36.3534 50.1419 36.3632 50.1652 36.3814C50.1893 36.399 50.1996 36.4244 50.1996 36.457V36.9498C50.1996 37.0227 50.1633 37.0585 50.0926 37.0585H49.2343C49.187 37.0585 49.1643 37.0891 49.1643 37.1503V37.9199C49.1643 37.9635 49.1837 37.985 49.2233 37.985H50.4377C50.4987 37.985 50.5383 37.9967 50.5564 38.0195C50.5746 38.0436 50.583 38.0768 50.583 38.1204V38.4993C50.583 38.5644 50.5765 38.608 50.5616 38.6295C50.5331 38.6692 50.4773 38.69 50.3943 38.69H48.5532C48.4896 38.69 48.4455 38.6822 48.4248 38.6679C48.3845 38.6386 48.3644 38.5833 48.3644 38.4993ZM52.9534 35.0214V35.5195C52.9534 35.5481 52.9502 35.5709 52.9437 35.5878C52.9359 35.6034 52.9171 35.6113 52.8886 35.6113C52.8055 35.5937 52.7205 35.5768 52.6317 35.5598C52.5441 35.5442 52.4636 35.5364 52.3929 35.5364C52.1477 35.5364 51.9875 35.6132 51.9116 35.7695C51.8649 35.8671 51.8409 36.0416 51.8409 36.2942V37.2102C51.8409 37.5214 51.8811 37.7278 51.9628 37.83C52.0439 37.9335 52.2003 37.985 52.4293 37.985C52.5596 37.985 52.6485 37.9732 52.6946 37.9498C52.7406 37.9257 52.8185 37.914 52.9268 37.914C52.9807 37.914 53.0073 37.9478 53.0073 38.0116V38.4941C53.0073 38.5774 52.9631 38.6373 52.8756 38.6757C52.7873 38.7135 52.5843 38.733 52.269 38.733C51.7715 38.733 51.4283 38.5989 51.2376 38.3313C51.1072 38.1471 51.0416 37.8678 51.0416 37.4915V35.953C51.0416 35.6321 51.1175 35.3847 51.27 35.2109C51.4743 34.9726 51.8214 34.8534 52.3112 34.8534C52.5817 34.8534 52.7646 34.871 52.8619 34.9075C52.9229 34.9296 52.9534 34.9667 52.9534 35.0214ZM53.4127 38.4993V35.0865C53.4127 35.0214 53.4192 34.9778 53.4335 34.9563C53.4627 34.9166 53.5178 34.8971 53.6015 34.8971H54.0225C54.1049 34.8971 54.1581 34.9127 54.1789 34.9426C54.2016 34.9739 54.2113 35.0201 54.2113 35.0852V36.2512C54.2113 36.3014 54.2359 36.3267 54.2872 36.3267H54.5467C54.6291 36.3267 54.6933 36.3014 54.7394 36.2512C54.8023 36.1868 54.8328 36.08 54.8328 35.9335V35.5338C54.8328 35.3281 54.886 35.1711 54.9911 35.0605C55.0975 34.9524 55.235 34.8971 55.4043 34.8971H55.7663C55.813 34.8971 55.8526 34.9107 55.885 34.9374C55.9174 34.9641 55.933 35.0038 55.933 35.054V35.3951C55.933 35.4498 55.9207 35.485 55.8928 35.5038C55.8655 35.5214 55.8396 35.5305 55.8143 35.5305H55.7072C55.6599 35.5305 55.6294 35.5514 55.6119 35.593C55.5957 35.634 55.5879 35.6803 55.5879 35.731V36.1751C55.5879 36.2942 55.5626 36.388 55.512 36.457C55.4432 36.5143 55.3777 36.5709 55.3128 36.6249V36.6471C55.4491 36.7122 55.5593 36.7948 55.6424 36.8958C55.7248 36.9973 55.7663 37.1471 55.7663 37.3456V38.4993C55.7663 38.5644 55.7591 38.608 55.7442 38.6295C55.7157 38.6692 55.6599 38.69 55.5769 38.69H55.1565C55.0728 38.69 55.0203 38.6738 55.0002 38.6432C54.9781 38.6126 54.9677 38.5644 54.9677 38.4986V37.6021C54.9677 37.4277 54.9327 37.2955 54.8639 37.2024C54.7965 37.1099 54.6881 37.0644 54.5409 37.0644H54.2762C54.2327 37.0644 54.2113 37.093 54.2113 37.1503V38.4986C54.2113 38.5833 54.1964 38.6353 54.1659 38.6575C54.1348 38.679 54.0874 38.69 54.0225 38.69H53.6015C53.5366 38.69 53.4932 38.6822 53.4718 38.6679C53.4315 38.6386 53.4127 38.5833 53.4127 38.4993ZM56.2029 37.3079V36.2779C56.2029 35.9172 56.2496 35.6353 56.3443 35.4329C56.524 35.0468 56.8691 34.8534 57.3796 34.8534C57.8584 34.8534 58.1918 35.026 58.3787 35.3736C58.498 35.5937 58.557 35.8958 58.557 36.2779V37.3079C58.557 37.6653 58.511 37.9459 58.4176 38.1471C58.2372 38.5377 57.8921 38.733 57.3796 38.733C56.9807 38.733 56.6855 38.6158 56.4915 38.3827C56.3002 38.1497 56.2029 37.7916 56.2029 37.3079ZM57.7572 37.2154V36.3704C57.7572 36.0885 57.7429 35.8977 57.7092 35.7961C57.6592 35.6373 57.5489 35.5579 57.3796 35.5579C57.2103 35.5579 57.1013 35.6353 57.0514 35.7909C57.0189 35.8919 57.0021 36.0852 57.0021 36.3704V37.2154C57.0021 37.4973 57.0189 37.6887 57.0514 37.7896C57.1013 37.9485 57.2103 38.0286 57.3796 38.0286C57.5489 38.0286 57.6592 37.9504 57.7092 37.7955C57.7429 37.6939 57.7572 37.5012 57.7572 37.2154ZM60.5973 34.6471H59.68C59.5729 34.6471 59.4873 34.6106 59.4231 34.5364C59.3615 34.4628 59.329 34.3814 59.329 34.2948V34.2187C59.329 34.2011 59.3329 34.1842 59.34 34.1672C59.3465 34.1516 59.3653 34.1438 59.3939 34.1438H59.7234C59.7734 34.1438 59.7993 34.1685 59.7993 34.2187C59.7993 34.2877 59.861 34.3222 59.9816 34.3222H60.2956C60.4189 34.3222 60.4785 34.2877 60.4785 34.2187C60.4785 34.1685 60.5038 34.1438 60.5551 34.1438H60.884C60.9106 34.1438 60.9249 34.1516 60.9326 34.1672C60.9398 34.1842 60.945 34.2011 60.9489 34.2187V34.2948C60.9489 34.3814 60.9184 34.4628 60.8561 34.5364C60.7964 34.6106 60.7095 34.6471 60.5973 34.6471ZM59.5541 38.69H59.1487C59.0838 38.69 59.0416 38.6822 59.0209 38.6679C58.982 38.6386 58.9618 38.5833 58.9618 38.4993V35.0865C58.9618 35.0214 58.969 34.9778 58.9839 34.9563C59.0124 34.9166 59.0682 34.8971 59.1519 34.8971H59.5729C59.6553 34.8971 59.7072 34.9127 59.728 34.9426C59.7507 34.9739 59.7604 35.0214 59.7604 35.0865V36.858L60.4785 35.0865C60.511 35.0064 60.5415 34.955 60.5687 34.9322C60.5966 34.9088 60.6368 34.8971 60.6907 34.8971H61.1318C61.2142 34.8971 61.2674 34.9127 61.2888 34.9426C61.3108 34.9739 61.3212 35.0214 61.3212 35.0865V38.4993C61.3212 38.5644 61.3134 38.608 61.2998 38.6295C61.2713 38.6692 61.2148 38.69 61.1325 38.69H60.7114C60.629 38.69 60.5771 38.6738 60.5551 38.6432C60.5337 38.6126 60.522 38.5644 60.522 38.4993V36.6406L59.7993 38.4993C59.7695 38.5794 59.7384 38.6308 59.7007 38.6542C59.6631 38.6777 59.6151 38.69 59.5541 38.69ZM64.0692 34.8971H65.6728C65.7558 34.8971 65.8077 34.9127 65.8292 34.9426C65.8512 34.9739 65.8616 35.0214 65.8616 35.0865V37.9088C65.8616 37.9459 65.8648 37.9674 65.87 37.9745C65.8759 37.981 65.8934 37.985 65.9265 37.985H66.0445C66.1094 37.985 66.1522 37.9921 66.1743 38.0071C66.2138 38.0357 66.2333 38.0917 66.2333 38.1738V39.1939C66.2333 39.276 66.219 39.328 66.1885 39.3502C66.1581 39.3717 66.1094 39.3827 66.0445 39.3827H65.6514C65.569 39.3827 65.5158 39.3671 65.4951 39.3372C65.4724 39.3066 65.4626 39.259 65.4626 39.1952V38.7695C65.4626 38.7167 65.4328 38.69 65.3757 38.69H64.064C63.9985 38.69 63.966 38.7232 63.966 38.7916V39.1952C63.966 39.2773 63.9511 39.3281 63.9206 39.3502C63.8908 39.3717 63.8421 39.3827 63.7779 39.3827H63.3835C63.3011 39.3827 63.2492 39.3671 63.2271 39.3372C63.2057 39.3059 63.1947 39.259 63.1947 39.1939V38.1738C63.1947 38.0917 63.2096 38.0396 63.2401 38.0175C63.2713 37.996 63.3186 37.985 63.3835 37.985H63.4328C63.486 37.985 63.5333 37.927 63.5723 37.8111C63.5904 37.761 63.6118 37.6692 63.6384 37.5351C63.7208 37.1451 63.7812 36.7493 63.8214 36.3489C63.8499 36.0488 63.8642 35.7597 63.8642 35.4824L63.8804 35.054C63.8804 34.9778 63.8947 34.9322 63.9232 34.9185C63.9518 34.9036 64.0004 34.8971 64.0692 34.8971ZM65.063 37.9088V35.6659C65.063 35.6223 65.041 35.6008 64.9975 35.6008H64.7289C64.6809 35.6008 64.6582 35.6223 64.6582 35.6659L64.6303 36.0025C64.6303 36.5579 64.5979 36.9426 64.533 37.1562C64.4578 37.4055 64.3987 37.6542 64.3553 37.9042V37.9478C64.3631 37.9726 64.3864 37.9849 64.4299 37.9849H64.9878C65.0377 37.985 65.063 37.9596 65.063 37.9088ZM67.1032 38.69H66.6926C66.629 38.69 66.5856 38.6822 66.5629 38.6679C66.5239 38.6386 66.5038 38.5833 66.5038 38.4993V35.0865C66.5038 35.0214 66.511 34.9778 66.5259 34.9563C66.5544 34.9166 66.6102 34.8971 66.6926 34.8971H67.1136C67.1967 34.8971 67.2492 34.9127 67.2713 34.9426C67.2927 34.9739 67.3037 35.0214 67.3037 35.0865V36.858L68.0264 35.0865C68.0588 35.0064 68.0893 34.955 68.1146 34.9322C68.1425 34.9088 68.1827 34.8971 68.2365 34.8971H68.6744C68.7581 34.8971 68.8094 34.9127 68.8308 34.9426C68.8522 34.9739 68.8632 35.0214 68.8632 35.0865V38.4993C68.8632 38.5644 68.8567 38.608 68.8418 38.6295C68.8133 38.6692 68.7581 38.69 68.6744 38.69H68.2534C68.171 38.69 68.1178 38.6738 68.0971 38.6432C68.0744 38.6126 68.064 38.5644 68.064 38.4993V36.6406L67.3517 38.4993C67.3225 38.5794 67.2901 38.6308 67.2524 38.6542C67.2142 38.6777 67.1649 38.69 67.1032 38.69Z" fill="white"/>
<path fill-rule="evenodd" clip-rule="evenodd" d="M70.1367 34.8971H70.8185C70.8645 34.8971 70.9021 34.9056 70.9294 34.9238C70.9553 34.9427 70.9787 34.9837 70.9962 35.0482L71.8713 38.5267C71.8778 38.5488 71.8817 38.5723 71.8817 38.597C71.8817 38.6582 71.8421 38.6901 71.7636 38.6901H71.2343C71.1792 38.6901 71.1422 38.6751 71.1182 38.6465C71.0948 38.6178 71.0773 38.5814 71.0669 38.5378L70.9592 38.125C70.945 38.0723 70.908 38.0443 70.8496 38.0443H70.1114C70.0491 38.0443 70.0128 38.0723 70.0024 38.125L69.9005 38.5534C69.8927 38.5898 69.8772 38.6217 69.8545 38.6484C69.8311 38.6758 69.7935 38.6901 69.7435 38.6901H69.22C69.1513 38.6901 69.1169 38.6556 69.1169 38.5859C69.1169 38.5755 69.1169 38.5644 69.1169 38.5534C69.124 38.5397 69.1279 38.5299 69.1279 38.5267L69.9589 35.0482C69.9745 34.9837 69.9939 34.9427 70.0218 34.9238C70.0484 34.9056 70.0867 34.8971 70.1367 34.8971ZM70.256 37.3177H70.7043C70.7445 37.3177 70.7562 37.2917 70.7426 37.237L70.5045 36.278C70.5006 36.2637 70.4947 36.252 70.4857 36.2435C70.4772 36.2344 70.4701 36.2272 70.4662 36.2246C70.4454 36.2461 70.4318 36.2637 70.4292 36.278L70.2184 37.237C70.2035 37.2917 70.2165 37.3177 70.256 37.3177ZM72.3086 34.8971H74.0841C74.1412 34.8971 74.1866 34.9056 74.2203 34.9238C74.2515 34.9427 74.267 34.9648 74.267 34.9948V35.4824C74.267 35.5684 74.2262 35.6113 74.1431 35.6113H73.0046C72.9573 35.6113 72.9339 35.6354 72.9339 35.6823V38.4883C72.9339 38.5794 72.9242 38.6354 72.9021 38.6576C72.8807 38.679 72.8431 38.6901 72.788 38.6901H72.2865C72.243 38.6901 72.208 38.6771 72.1782 38.6511C72.149 38.6257 72.1354 38.5833 72.1354 38.5221V35.0599C72.1354 35.0059 72.1548 34.9642 72.1944 34.9375C72.2333 34.9108 72.2709 34.8971 72.3086 34.8971ZM74.6997 34.8971H75.1207C75.2038 34.8971 75.2544 34.9128 75.2784 34.9427C75.2978 34.974 75.3095 35.0215 75.3095 35.0866V36.1328C75.3095 36.1641 75.3154 36.1901 75.3231 36.2077C75.3316 36.2266 75.3549 36.235 75.3906 36.235H75.9803C75.9978 36.235 76.0101 36.2331 76.0179 36.2292C76.0491 36.2116 76.0672 36.1751 76.0672 36.1211V35.0866C76.0672 35.0215 76.0731 34.9779 76.0867 34.9564C76.1159 34.9167 76.171 34.8971 76.2541 34.8971H76.6744C76.7594 34.8971 76.8107 34.9128 76.8321 34.9427C76.8535 34.974 76.8658 35.0215 76.8658 35.0866V38.4993C76.8658 38.5645 76.8574 38.6081 76.8437 38.6296C76.8145 38.6693 76.7594 38.6901 76.6744 38.6901H76.2541C76.171 38.6901 76.1198 38.6738 76.0984 38.6432C76.077 38.6126 76.0672 38.5645 76.0672 38.4993V37.0801C76.0672 37.0228 76.0374 36.9935 75.9803 36.9935H75.3906C75.3374 36.9935 75.3095 37.0208 75.3095 37.0755V38.4993C75.3095 38.5833 75.2939 38.6354 75.2648 38.6575C75.233 38.679 75.1856 38.6901 75.1207 38.6901H74.6997C74.6348 38.6901 74.592 38.6823 74.57 38.668C74.5311 38.6387 74.5109 38.5833 74.5109 38.4993V35.0866C74.5109 35.0215 74.5187 34.9779 74.533 34.9564C74.5622 34.9167 74.6173 34.8971 74.6997 34.8971ZM77.2686 37.3079V36.278C77.2686 35.9173 77.316 35.6354 77.4101 35.4329C77.5891 35.0469 77.9355 34.8535 78.4467 34.8535C78.9248 34.8535 79.2589 35.026 79.4438 35.3737C79.5638 35.5937 79.6228 35.8958 79.6228 36.278V37.3079C79.6228 37.6654 79.5761 37.946 79.4834 38.1471C79.3024 38.5378 78.9579 38.7331 78.4467 38.7331C78.0478 38.7331 77.7506 38.6159 77.558 38.3828C77.3673 38.1497 77.2686 37.7917 77.2686 37.3079ZM78.8243 37.2155V36.3704C78.8243 36.0885 78.8087 35.8978 78.7756 35.7962C78.7263 35.6374 78.616 35.5579 78.4467 35.5579C78.2774 35.5579 78.1678 35.6354 78.1185 35.791C78.0847 35.8919 78.0672 36.0853 78.0672 36.3704V37.2155C78.0672 37.4974 78.0847 37.6888 78.1185 37.7897C78.1678 37.9486 78.2774 38.0286 78.4467 38.0286C78.616 38.0286 78.7263 37.9505 78.7756 37.7956C78.8087 37.694 78.8243 37.5013 78.8243 37.2155ZM81.9932 35.0215V35.5195C81.9932 35.5482 81.9894 35.571 81.9835 35.5879C81.9751 35.6035 81.9576 35.6113 81.9284 35.6113C81.8453 35.5938 81.7591 35.5768 81.6728 35.5599C81.5839 35.5443 81.5035 35.5365 81.4328 35.5365C81.1869 35.5365 81.0273 35.6133 80.9508 35.7695C80.9053 35.8672 80.88 36.0417 80.88 36.2943V37.2103C80.88 37.5215 80.9209 37.7279 81.002 37.8301C81.0824 37.9336 81.2394 37.985 81.4697 37.985C81.5995 37.985 81.6883 37.9733 81.7337 37.9499C81.7805 37.9258 81.8596 37.9141 81.9653 37.9141C82.0205 37.9141 82.0464 37.9479 82.0464 38.0117V38.4941C82.0464 38.5775 82.003 38.6374 81.9141 38.6758C81.8259 38.7135 81.6235 38.7331 81.3088 38.7331C80.8113 38.7331 80.4668 38.599 80.2761 38.3314C80.1463 38.1471 80.0815 37.8678 80.0815 37.4915V35.9531C80.0815 35.6322 80.158 35.3848 80.3092 35.2109C80.5141 34.9727 80.8619 34.8535 81.3517 34.8535C81.6215 34.8535 81.8045 34.8711 81.9005 34.9075C81.9615 34.9297 81.9932 34.9668 81.9932 35.0215ZM82.3825 34.8971H84.7724C84.8158 34.8971 84.847 34.9108 84.8625 34.9375C84.8787 34.9642 84.8865 34.9948 84.8865 35.026V35.5091C84.8865 35.5846 84.8489 35.6224 84.7723 35.6224H84.0717C84.0069 35.6224 83.9738 35.6549 83.9738 35.72V38.4993C83.9738 38.5645 83.9679 38.6081 83.9524 38.6296C83.9245 38.6693 83.8693 38.6901 83.785 38.6901H83.364C83.2816 38.6901 83.2284 38.6738 83.2083 38.6432C83.1849 38.6126 83.1752 38.5645 83.1752 38.4993V35.72C83.1752 35.6549 83.1415 35.6224 83.0785 35.6224H82.398C82.3079 35.6224 82.2625 35.5866 82.2625 35.515V34.9993C82.2625 34.9303 82.302 34.8971 82.3825 34.8971ZM85.7279 38.6901H85.3192C85.2543 38.6901 85.2109 38.6823 85.1895 38.668C85.1499 38.6387 85.1304 38.5833 85.1304 38.4994V35.0866C85.1304 35.0215 85.1363 34.9779 85.1519 34.9564C85.1791 34.9167 85.2362 34.8971 85.3192 34.8971H85.7402C85.8226 34.8971 85.8758 34.9128 85.8953 34.9427C85.9186 34.974 85.929 35.0215 85.929 35.0866V36.8581L86.6523 35.0866C86.6841 35.0065 86.7133 34.9551 86.7412 34.9323C86.7685 34.9089 86.808 34.8971 86.8632 34.8971H87.2998C87.3821 34.8971 87.4353 34.9128 87.4567 34.9427C87.4788 34.974 87.4885 35.0215 87.4885 35.0866V38.4994C87.4885 38.5645 87.4827 38.6081 87.4671 38.6296C87.4392 38.6693 87.3821 38.6901 87.2998 38.6901H86.8787C86.7964 38.6901 86.7432 38.6738 86.7237 38.6432C86.6997 38.6126 86.69 38.5645 86.69 38.4994V36.6406L85.9777 38.4994C85.9485 38.5794 85.9147 38.6309 85.8778 38.6543C85.8401 38.6777 85.7889 38.6901 85.7279 38.6901ZM87.9212 38.4993V35.0866C87.9212 35.0215 87.9271 34.9779 87.9426 34.9564C87.9705 34.9167 88.0276 34.8971 88.11 34.8971H88.531C88.6134 34.8971 88.6666 34.9128 88.688 34.9427C88.7101 34.974 88.7198 35.0202 88.7198 35.0853V36.2513C88.7198 36.3014 88.7451 36.3268 88.7944 36.3268H89.0539C89.1369 36.3268 89.2018 36.3014 89.2491 36.2513C89.3095 36.1868 89.3413 36.0801 89.3413 35.9336V35.5339C89.3413 35.3281 89.3945 35.1712 89.5008 35.0605C89.6066 34.9525 89.7448 34.8971 89.9134 34.8971H90.2735C90.3208 34.8971 90.3604 34.9108 90.3935 34.9375C90.4253 34.9642 90.4408 35.0039 90.4408 35.054V35.3952C90.4408 35.4499 90.4291 35.485 90.4013 35.5039C90.374 35.5215 90.3481 35.5306 90.3247 35.5306H90.2144C90.169 35.5306 90.1379 35.5514 90.1204 35.5931C90.1041 35.6341 90.0964 35.6803 90.0964 35.7311V36.1751C90.0964 36.2943 90.0711 36.388 90.0198 36.457C89.953 36.5143 89.8862 36.571 89.8213 36.625V36.6471C89.9588 36.7122 90.0672 36.7949 90.1496 36.8958C90.2319 36.9974 90.2735 37.1471 90.2735 37.3457V38.4993C90.2735 38.5645 90.2676 38.6081 90.254 38.6296C90.2242 38.6693 90.169 38.6901 90.0866 38.6901H89.6656C89.5813 38.6901 89.53 38.6738 89.5086 38.6432C89.4866 38.6126 89.4749 38.5645 89.4749 38.4987V37.6022C89.4749 37.4277 89.4418 37.2956 89.373 37.2025C89.3036 37.11 89.1979 37.0644 89.048 37.0644H88.7847C88.7412 37.0644 88.7198 37.0931 88.7198 37.1504V38.4987C88.7198 38.5833 88.7042 38.6354 88.6744 38.6575C88.6432 38.679 88.5959 38.6901 88.531 38.6901H88.11C88.0451 38.6901 88.0016 38.6823 87.9802 38.668C87.9407 38.6387 87.9212 38.5833 87.9212 38.4993ZM91.3374 38.6901H90.9287C90.8638 38.6901 90.8203 38.6823 90.7989 38.668C90.7594 38.6387 90.7379 38.5833 90.7379 38.4994V35.0866C90.7379 35.0215 90.7457 34.9779 90.7613 34.9564C90.7911 34.9167 90.8456 34.8971 90.9287 34.8971H91.3497C91.4321 34.8971 91.4833 34.9128 91.5067 34.9427C91.5268 34.974 91.5385 35.0215 91.5385 35.0866V36.8581L92.2618 35.0866C92.2936 35.0065 92.3228 34.9551 92.3507 34.9323C92.376 34.9089 92.4175 34.8971 92.4726 34.8971H92.9092C92.9916 34.8971 93.0428 34.9128 93.0668 34.9427C93.0883 34.974 93.098 35.0215 93.098 35.0866V38.4994C93.098 38.5645 93.0902 38.6081 93.0766 38.6296C93.0467 38.6693 92.9916 38.6901 92.9092 38.6901H92.4882C92.4058 38.6901 92.3546 38.6738 92.3312 38.6432C92.3111 38.6126 92.2994 38.5645 92.2994 38.4994V36.6406L91.5871 38.4994C91.5579 38.5794 91.5242 38.6309 91.4872 38.6543C91.4496 38.6777 91.3983 38.6901 91.3374 38.6901Z" fill="white"/>
</g>
<defs>
<clipPath id="clip0_295_77">
<rect width="93" height="40" fill="white"/>
</clipPath>
</defs>
</svg>
