<svg width="123" height="16" viewBox="0 0 123 16" fill="none" xmlns="http://www.w3.org/2000/svg">
<g clip-path="url(#clip0_33_573)">
<path d="M0.182931 1.62657C0.0422149 1.77092 0 3.27224 0 8.13709V14.4744L1.94188 14.4311L3.86969 14.3878L3.91191 12.9586C3.92598 12.1647 4.02448 11.4284 4.10891 11.3274C4.30592 11.082 10.1456 11.0531 10.8211 11.2985C11.4262 11.5151 11.595 11.8904 11.6794 13.2329L11.7498 14.3878H15.5491L15.5914 12.872C15.6195 11.5295 15.5914 11.2841 15.3099 10.7067C15.0988 10.3025 14.8174 9.97044 14.5219 9.81164C13.8605 9.47962 13.8605 9.49406 14.4938 9.06098C15.4084 8.44025 15.6195 7.83394 15.6195 5.82737C15.6195 3.92185 15.4084 3.17119 14.6908 2.43497C13.8887 1.61213 13.4665 1.55439 6.61366 1.49664C1.71674 1.46777 0.309576 1.49665 0.182931 1.62657ZM10.9618 4.93236C11.6232 5.12002 11.8061 5.45204 11.8202 6.41924C11.8202 7.11216 11.7639 7.31426 11.4684 7.60297L11.1306 7.96387H7.61275C5.16428 7.96387 4.0667 7.92056 3.99634 7.80507C3.89784 7.61741 3.91191 5.09115 4.02448 4.90348C4.12298 4.74469 10.3849 4.75913 10.9618 4.93236ZM21.8814 1.55439C20.038 1.7998 19.3766 2.21843 18.7997 3.48878C18.5323 4.10952 18.5182 4.39823 18.5042 9.26308V14.3878L20.4461 14.4311L22.3739 14.4744V12.9731C22.3739 12.0059 22.4302 11.4284 22.5427 11.313C22.6694 11.183 23.6544 11.1397 26.1169 11.1397C30.2258 11.1397 30.0007 11.0387 29.9725 12.8576C29.9585 13.5361 29.9585 14.1857 29.9585 14.2723C29.9725 14.4167 30.451 14.46 31.8722 14.46H33.7719V9.49406C33.7719 3.84967 33.7156 3.45991 32.7587 2.49271C31.9285 1.641 31.5767 1.58326 26.6657 1.53995C24.2735 1.51108 22.1206 1.52552 21.8814 1.55439ZM29.5504 5.22107C29.9163 5.71189 29.9585 7.73289 29.6067 7.87725C29.3253 7.99274 22.8805 7.99274 22.599 7.87725C22.4161 7.80507 22.3739 7.55966 22.3739 6.67908C22.3739 5.69745 22.4161 5.52422 22.6975 5.26438C22.8664 5.09115 23.1337 4.93236 23.2885 4.88905C23.4433 4.84574 24.8505 4.81687 26.4265 4.83131L29.283 4.86018L29.5504 5.22107ZM35.0805 1.56882C34.982 1.5977 34.8976 1.74205 34.8976 1.85754C34.8976 2.05964 35.7701 3.7775 37.6838 7.38644C37.9652 7.90612 38.4437 8.81558 38.7532 9.40744C39.0769 10.0137 39.8086 11.3996 40.3855 12.4823L41.4268 14.46H46.366L46.7318 13.767C47.2384 12.7998 48.1531 11.082 48.7441 9.98487C49.0255 9.46518 49.4195 8.71453 49.6165 8.32476C49.8135 7.92056 50.109 7.34313 50.2779 7.02554C50.4608 6.70795 50.9111 5.85624 51.277 5.14889C51.6569 4.4271 52.1776 3.44547 52.4309 2.95466C52.9656 1.97302 53.0219 1.68431 52.6841 1.55439C52.5575 1.51108 51.7273 1.46777 50.8126 1.46777C49.2788 1.46777 49.1381 1.49664 48.8848 1.78536C48.5893 2.14625 48.6174 2.10295 47.6324 3.99403C47.2666 4.70138 46.76 5.68302 46.5067 6.1594C46.2534 6.63578 45.7328 7.64628 45.3528 8.39694C44.2412 10.5623 44.1005 10.7788 43.9035 10.7788C43.7064 10.7788 43.6502 10.6778 42.5666 8.61347C42.2008 7.89169 41.6661 6.85231 41.3706 6.30375C41.0891 5.74076 40.5403 4.70138 40.1745 3.99403C39.1895 2.10295 39.2176 2.14625 38.9221 1.78536C38.6688 1.48221 38.5422 1.46777 36.9521 1.48221C36.0093 1.48221 35.165 1.52552 35.0805 1.56882ZM56.385 1.61213C55.5125 1.78536 54.7104 2.44941 54.429 3.25781C54.1898 3.87855 54.1757 4.45598 54.2039 9.16203L54.2461 14.3878L61.2678 14.4311C65.3627 14.4455 68.3318 14.4022 68.374 14.33C68.4162 14.2579 68.4303 13.5938 68.3881 12.8576L68.3177 11.5006L63.3223 11.4284L58.3269 11.3563V9.33526L62.5202 9.29196C64.8139 9.27752 66.6995 9.20534 66.6995 9.1476C66.7135 8.93106 66.7276 7.01111 66.7135 6.83788C66.6995 6.70795 65.7567 6.66465 62.478 6.66465H58.2424L58.2846 5.61084L58.3269 4.57146L63.2519 4.49928L68.177 4.4271L68.2192 3.12789C68.2473 2.03077 68.2192 1.7998 68.0222 1.65544C67.8252 1.51108 66.5306 1.46777 62.3513 1.48221C59.3682 1.49665 56.6805 1.55439 56.385 1.61213ZM71.5823 1.641C71.3572 1.81423 71.3431 2.2473 71.3712 8.10822L71.4135 14.3878H75.2128L75.255 9.78277C75.2691 6.57803 75.3394 5.10559 75.452 4.97566C75.5787 4.81687 76.2541 4.788 79.0262 4.81687C82.3753 4.86018 82.4597 4.87461 82.7693 5.1922C83.0929 5.50979 83.0929 5.55309 83.1351 9.98487L83.1773 14.46H85.0629C86.4842 14.46 86.9626 14.4167 86.9626 14.2723V9.1476C86.9485 3.69088 86.9204 3.44547 86.0761 2.52158C85.2037 1.56882 85.0489 1.55439 78.0975 1.49664C73.1302 1.46777 71.7793 1.49664 71.5823 1.641ZM92.535 1.72762C91.5218 2.07408 90.579 3.07014 90.2554 4.15282C89.8754 5.36543 89.8754 10.519 90.2413 11.746C90.6071 12.9153 91.367 13.7526 92.4787 14.1857C93.3511 14.5321 93.4215 14.5321 98.5013 14.5321C103.215 14.5321 103.708 14.5033 104.44 14.2579C105.79 13.7815 106.578 12.8432 106.888 11.3563C107.141 10.2014 107.141 5.72632 106.888 4.55703C106.593 3.15676 105.959 2.4061 104.58 1.82867C103.722 1.46777 103.666 1.46777 99.6411 1.46777C96.8972 1.46777 95.5322 1.52552 95.4759 1.62657C95.4196 1.71318 95.49 2.2473 95.6166 2.83917C95.8136 3.70532 95.9403 3.95072 96.3062 4.23944C96.7142 4.54259 96.9112 4.57146 99.1346 4.65808C100.457 4.70138 101.696 4.81687 101.893 4.90348C102.09 4.97566 102.427 5.26438 102.624 5.50979C102.99 5.95729 103.004 6.0006 103.004 7.99274C103.004 10.288 102.835 10.8221 101.991 11.1253C101.386 11.3418 95.9544 11.3418 95.2508 11.1109C94.2376 10.8077 94.2236 10.7355 94.1391 5.87068L94.0688 1.53995L93.6466 1.51108C93.4215 1.49664 92.9149 1.5977 92.535 1.72762ZM112.728 1.62657C111.701 1.82867 111.138 2.21843 110.645 3.05571L110.181 3.83524V14.46H122.845V12.9731C122.845 12.0059 122.789 11.4284 122.676 11.313C122.55 11.183 121.396 11.1397 118.328 11.1397C114.656 11.1397 114.135 11.1109 114.065 10.9088C114.022 10.7788 113.98 8.64235 113.98 6.1594C113.98 2.17513 113.952 1.62657 113.755 1.55439C113.628 1.51108 113.488 1.46777 113.445 1.48221C113.389 1.49665 113.065 1.55439 112.728 1.62657ZM120.242 1.7998C119.651 2.17513 119.482 2.53602 119.468 3.37329C119.468 4.10952 119.51 4.225 119.904 4.55703C120.298 4.90348 120.439 4.93236 121.199 4.87461C121.945 4.83131 122.114 4.75913 122.451 4.36936C122.972 3.77749 123 2.85361 122.522 2.29061C122.212 1.91528 121.86 1.77092 121.86 2.01633C121.86 2.08851 121.987 2.29061 122.142 2.47828C122.311 2.68038 122.423 3.0124 122.423 3.32999C122.423 4.26831 121.227 4.9901 120.552 4.45598C120.34 4.29718 120.34 4.25388 120.594 3.95072C120.791 3.70532 120.946 3.64757 121.227 3.71975C121.593 3.80637 121.593 3.80637 121.551 3.11345C121.508 2.46384 121.48 2.4061 121.114 2.36279C120.523 2.29061 120.312 2.55046 120.312 3.35886C120.312 3.89298 120.256 4.06621 120.101 4.06621C119.932 4.06621 119.89 3.87855 119.89 3.27224C119.89 2.69481 119.946 2.44941 120.101 2.39166C120.214 2.33392 120.312 2.21843 120.312 2.10295C120.312 1.91528 120.509 1.82867 121.297 1.71318C121.508 1.66987 121.424 1.641 121.086 1.641C120.777 1.641 120.397 1.71318 120.242 1.7998Z" fill="white"/>
</g>
<defs>
<clipPath id="clip0_33_573">
<rect width="123" height="16" fill="white"/>
</clipPath>
</defs>
</svg>
