<svg width="137" height="18" viewBox="0 0 137 18" fill="none" xmlns="http://www.w3.org/2000/svg">
<g style="mix-blend-mode:luminosity" clip-path="url(#clip0_295_51)">
<path d="M11.7153 6.29066H6.50395C6.44648 6.29073 6.3896 6.2794 6.33676 6.25732C6.28393 6.23525 6.23623 6.20287 6.1966 6.16223C6.15697 6.12159 6.12623 6.07354 6.10622 6.02093C6.08622 5.96831 6.07736 5.91218 6.08023 5.85613V0.456158C6.07662 0.362581 6.04216 0.272698 5.98196 0.19981C5.92177 0.126922 5.83906 0.0749424 5.74618 0.0516837C5.6533 0.028425 5.55526 0.0351465 5.46657 0.070752C5.3779 0.106358 5.30335 0.168979 5.25407 0.249312L0.0215052 9.89062C-0.0163546 9.9546 -0.0359969 10.0273 -0.0353866 10.1011C-0.0347762 10.175 -0.0139153 10.2473 0.0249963 10.3106C0.063908 10.374 0.119466 10.426 0.18591 10.4613C0.252353 10.4965 0.327224 10.5138 0.40281 10.5113H5.59303C5.65042 10.5085 5.70776 10.5172 5.76164 10.5367C5.81551 10.5562 5.86477 10.5863 5.90639 10.625C5.948 10.6637 5.98115 10.7102 6.00375 10.7618C6.02636 10.8134 6.03796 10.869 6.03789 10.9251V16.3458C6.03107 16.4419 6.05877 16.5373 6.11624 16.6155C6.17372 16.6938 6.25736 16.75 6.35273 16.7745C6.4481 16.799 6.54927 16.7904 6.63874 16.7499C6.72822 16.7094 6.80041 16.6397 6.84291 16.5528L12.0967 6.91133C12.1282 6.84662 12.1428 6.77529 12.1393 6.70372C12.1357 6.63214 12.1141 6.5626 12.0764 6.50116C12.0386 6.43972 11.986 6.38837 11.9229 6.35165C11.86 6.31493 11.7886 6.29394 11.7153 6.29066Z" fill="#FFC34F"/>
<path d="M23.0274 6.49535H26.65C29.7641 6.49535 31.5011 8.15055 31.5011 10.6333C31.5011 13.1161 29.5522 14.8954 26.3534 14.8954H19.998V1.46777H30.5902V4.13682H23.0698L23.0274 6.49535ZM23.0274 8.9574V12.2471H26.3534C27.7727 12.2471 28.4718 11.7092 28.4718 10.5506C28.4718 9.39195 27.7727 8.9574 26.3534 8.9574H23.0274Z" fill="white"/>
<path d="M32.6663 9.78555C32.6351 9.0963 32.7464 8.40795 32.9936 7.76167C33.2409 7.1154 33.6191 6.52444 34.1056 6.0242C34.5921 5.52395 35.1769 5.12462 35.825 4.85017C36.4732 4.57573 37.1713 4.43177 37.8777 4.42689C38.6059 4.42176 39.3269 4.56822 39.9926 4.85649C40.6583 5.14476 41.2535 5.56822 41.7386 6.09871C42.2237 6.62919 42.5874 7.25452 42.8057 7.93305C43.0239 8.61157 43.0917 9.32775 43.0044 10.0338V10.7993H35.5686C35.6529 11.3989 35.9661 11.9453 36.4454 12.3289C36.9246 12.7126 37.5346 12.9052 38.1531 12.8683C38.6316 12.8731 39.106 12.7819 39.5469 12.6004C39.9878 12.4189 40.3858 12.151 40.7164 11.8131L42.4112 13.2821C41.9059 13.9015 41.2601 14.3977 40.5249 14.7316C39.7896 15.0656 38.9849 15.2281 38.1743 15.2062C37.4393 15.2359 36.706 15.1156 36.0211 14.8531C35.3364 14.5906 34.715 14.1916 34.1969 13.6816C33.6787 13.1717 33.275 12.5618 33.0115 11.891C32.7479 11.2202 32.6305 10.5031 32.6663 9.78555ZM40.1021 8.95792C40.0699 8.40165 39.8219 7.87822 39.4088 7.49397C38.9957 7.10969 38.4482 6.89332 37.8777 6.88896C37.3057 6.9019 36.7586 7.12 36.3405 7.50157C35.9225 7.8831 35.6628 8.40142 35.611 8.95792H40.1021Z" fill="white"/>
<path d="M44.7412 4.63408H47.7282V6.10297C48.0902 5.5795 48.5799 5.1523 49.1532 4.85974C49.7264 4.56719 50.3651 4.41847 51.0118 4.42711C52.3442 4.58945 53.57 5.22151 54.4587 6.2045C55.3474 7.18749 55.8379 8.4537 55.8379 9.76507C55.8379 11.0764 55.3474 12.3427 54.4587 13.3257C53.57 14.3086 52.3442 14.9407 51.0118 15.103C50.3804 15.1144 49.7549 14.9818 49.185 14.7161C48.615 14.4504 48.1163 14.0587 47.7282 13.572V17.9168H44.7412V4.63408ZM52.8125 9.76507C52.7435 9.28575 52.5347 8.8359 52.2112 8.46922C51.8877 8.10247 51.4631 7.83435 50.9879 7.69672C50.5128 7.55917 50.0071 7.55797 49.5312 7.6932C49.0553 7.82842 48.6293 8.09437 48.3039 8.45947C47.9785 8.82457 47.7674 9.27337 47.6958 9.75232C47.6243 10.2313 47.6952 10.7203 47.9002 11.161C48.1053 11.6017 48.4357 11.9755 48.8521 12.2379C49.2687 12.5003 49.7535 12.6402 50.2492 12.641C50.6142 12.6257 50.9721 12.5381 51.3013 12.3834C51.6304 12.2287 51.9238 12.01 52.1637 11.7409C52.4035 11.4719 52.5847 11.158 52.6962 10.8182C52.8078 10.4785 52.8474 10.1202 52.8125 9.76507Z" fill="white"/>
<path d="M67.3453 14.9181H64.4642V8.93872L60.3545 14.9181H57.5369V4.57324H60.4392V10.5733L64.5489 4.57324H67.3453V14.9181Z" fill="white"/>
<path d="M75.3318 6.10289C76.5547 5.03867 78.1429 4.46266 79.7807 4.48916C82.0474 4.48916 83.7848 5.68911 83.7848 7.28221C83.8074 7.79138 83.6634 8.29448 83.3738 8.71853C83.0843 9.14258 82.6647 9.4656 82.1743 9.64088C82.7169 9.77633 83.1971 10.0874 83.5358 10.5232C83.8736 10.959 84.0511 11.4939 84.0386 12.0408C84.0386 13.8201 82.2802 15.1857 79.8017 15.1857C78.0526 15.2454 76.3442 14.6622 75.014 13.5512L76.391 11.6891C77.2664 12.4358 78.385 12.8539 79.5472 12.8684C80.4587 12.8684 81.1149 12.3719 81.1149 11.7719C81.1149 11.1719 80.5007 10.7168 79.3572 10.7168H78.1281V8.89605H79.3355C80.289 8.89605 80.8611 8.42018 80.8611 7.84088C80.8611 7.26156 80.289 6.8684 79.4841 6.8684C78.4232 6.84691 77.396 7.23332 76.6241 7.9443L75.3318 6.10289Z" fill="white"/>
<path d="M85.14 11.9165C85.14 9.68198 86.8774 8.64758 89.3769 8.64758C90.2565 8.63813 91.1307 8.778 91.9612 9.06128V8.89583C91.9612 7.67513 91.1991 7.01303 89.6945 7.01303C88.6989 7.01029 87.7127 7.20019 86.7926 7.5717L86.0508 5.33717C87.3312 4.76012 88.73 4.4771 90.1397 4.50965C90.7788 4.464 91.4202 4.54285 92.0274 4.74176C92.6353 4.94067 93.1958 5.25567 93.6776 5.66827C94.0855 6.11295 94.3969 6.63358 94.5938 7.19891C94.79 7.76423 94.8678 8.3625 94.8211 8.95785V14.9165H91.9402V13.7786C91.5417 14.2109 91.0497 14.5519 90.5009 14.7772C89.9514 15.0026 89.3574 15.1067 88.7627 15.0821C88.3066 15.1315 87.845 15.0865 87.4083 14.95C86.9716 14.8135 86.5692 14.5885 86.2275 14.2898C85.885 13.991 85.6117 13.6253 85.4241 13.2164C85.2373 12.8075 85.14 12.3644 85.14 11.9165ZM92.004 11.2958V10.7786C91.4039 10.5184 90.7539 10.3844 90.0969 10.3855C88.8048 10.3855 87.9789 10.8821 87.9789 11.8544C87.9789 12.8269 88.6569 13.0958 89.6096 13.0958C91.0505 13.0958 92.004 12.351 92.004 11.2958Z" fill="white"/>
<path d="M97.0038 4.63426H99.9913V6.10314C100.352 5.57834 100.841 5.15012 101.415 4.85739C101.988 4.56467 102.628 4.41677 103.275 4.42728C104.607 4.58963 105.833 5.22168 106.721 6.20467C107.61 7.18766 108.101 8.45393 108.101 9.76523C108.101 11.0766 107.61 12.3428 106.721 13.3259C105.833 14.3088 104.607 14.9409 103.275 15.1032C102.643 15.1178 102.016 14.9867 101.445 14.7207C100.875 14.4548 100.377 14.0613 99.9913 13.5722V17.917H97.0038V4.63426ZM105.075 9.76523C105.007 9.2868 104.798 8.8377 104.476 8.4714C104.153 8.10503 103.73 7.83683 103.256 7.69853C102.782 7.5603 102.277 7.55783 101.802 7.69133C101.326 7.8249 100.9 8.08898 100.574 8.45205C100.247 8.8152 100.035 9.26213 99.961 9.73988C99.887 10.2176 99.9547 10.706 100.156 11.1471C100.359 11.5883 100.686 11.9635 101.1 12.2283C101.513 12.4931 101.997 12.6365 102.491 12.6412C102.85 12.6179 103.201 12.5243 103.523 12.366C103.844 12.2078 104.131 11.988 104.364 11.7198C104.597 11.4516 104.772 11.1404 104.881 10.8047C104.988 10.4689 105.025 10.1154 104.99 9.76523H105.075Z" fill="white"/>
<path d="M119.036 14.9168H116.07V11.7099H114.439L112.321 14.9996H108.846L111.537 11.2134C110.89 10.998 110.333 10.5824 109.951 10.0296C109.569 9.47693 109.381 8.81745 109.418 8.15138C109.418 6.08239 110.944 4.7168 113.655 4.7168H119.036V14.9168ZM116.07 9.49613V6.9099H113.951C112.871 6.9099 112.215 7.36508 112.215 8.21333C112.215 9.06165 112.893 9.49613 113.973 9.49613H116.07Z" fill="white"/>
<path d="M122.785 14.9175L122.574 17.3381H120.052V12.4141H121.197C122.006 10.2003 122.351 7.8504 122.213 5.50369V4.63477H130.899V12.4141H132.34L131.979 17.3381H129.48V14.9175H122.785ZM127.827 12.4141V7.11755H125.031V7.36582C125.093 9.08325 124.82 10.7965 124.226 12.4141H127.827Z" fill="white"/>
<path d="M133.505 1.86069V1.48828L137 1.48829V1.86069L136.068 10.3436H134.416L133.505 1.86069ZM133.653 11.8538H136.83V14.9159H133.653V11.8538Z" fill="white"/>
</g>
<defs>
<clipPath id="clip0_295_51">
<rect width="137" height="18" fill="white"/>
</clipPath>
</defs>
</svg>
