<svg width="90" height="30" viewBox="0 0 90 30" fill="none" xmlns="http://www.w3.org/2000/svg">
<path d="M71.0155 23.7256C80.8035 23.7256 86.5522 20.0317 86.5522 20.0317L86.5478 25.4697C86.5478 25.4697 80.9728 30 71.0192 30H71.0155C61.0621 30 55.487 25.4697 55.487 25.4697L55.4824 20.0317C55.4824 20.0317 61.2278 23.7244 71.0155 23.7244V23.7256Z" fill="white"/>
<path d="M24.4448 1.07259C23.3564 1.06001 22.2762 1.25808 21.2669 1.65532C20.2575 2.05256 19.3391 2.64107 18.5648 3.38676C17.7906 4.13246 17.1759 5.0205 16.7563 5.99943C16.3368 6.97836 16.1207 8.0287 16.1207 9.08961C16.1207 10.6875 16.6106 12.249 17.5275 13.5736C18.4445 14.8982 19.7466 15.9256 21.2668 16.5239C22.7716 17.1161 24.4225 17.2614 26.0118 16.9413C27.6012 16.6213 29.0578 15.8502 30.1986 14.7252C31.3335 13.6059 32.1053 12.1859 32.418 10.642C32.7306 9.0982 32.5702 7.49883 31.9567 6.04322C31.3433 4.58762 30.3039 3.34015 28.9681 2.45627C27.6323 1.57238 26.0592 1.09117 24.4448 1.07259ZM24.4448 12.0761C22.7965 12.0761 21.4644 10.6955 21.4644 9.08906C21.4644 7.48256 22.8011 6.10302 24.4448 6.10302C26.0931 6.10302 27.4264 7.48256 27.4264 9.08906C27.4264 10.6955 26.0943 12.0761 24.4448 12.0761ZM17.4427 1.453H11.7402L9.28452 6.63702L6.46283 1.453H0.817139L6.55899 11.5455L3.8855 16.7296H9.6031L17.4427 1.453ZM80.2381 1.07259C79.1497 1.05999 78.0696 1.25808 77.0604 1.65536C76.051 2.05243 75.1325 2.64089 74.3583 3.38659C73.584 4.1323 72.9694 5.02042 72.55 5.99944C72.1302 6.97829 71.914 8.02866 71.914 9.08961C71.914 10.1505 72.1302 11.2009 72.55 12.1798C72.9694 13.1587 73.584 14.0468 74.3582 14.7924C75.1324 15.5382 76.0509 16.1268 77.0604 16.5239C78.5651 17.1162 80.216 17.2614 81.8053 16.9414C83.3945 16.6213 84.8512 15.8502 85.9918 14.7252C87.5137 13.2245 88.3672 11.1996 88.3672 9.08961C88.3672 6.9796 87.5137 4.95468 85.9918 3.45405C84.4702 1.9532 82.4028 1.09752 80.2381 1.07259ZM80.2381 12.0761C78.5899 12.0761 77.2578 10.6955 77.2578 9.08906C77.2578 7.48256 78.5949 6.10302 80.2381 6.10302C81.8832 6.10302 83.2196 7.48256 83.2196 9.08906C83.2234 10.6955 81.8875 12.0761 80.2381 12.0761ZM43.9338 1.4801V10.0384C43.9157 10.568 43.6871 11.07 43.2963 11.4384C42.9055 11.8068 42.3832 12.0128 41.8395 12.0128C41.2958 12.0128 40.7734 11.8069 40.3827 11.4385C39.9919 11.07 39.7633 10.568 39.7452 10.0384V1.4801H34.498V10.5657C34.498 14.5541 37.5803 17.1066 41.6345 17.1066H42.0364C46.0906 17.1066 49.1741 14.5553 49.1741 10.5657V1.4801H43.9338ZM62.0883 1.4801H55.4476V16.7296H62.1671C67.0643 16.7296 70.4757 13.3168 70.4757 9.10483V8.90838C70.4794 4.69754 66.92 1.4801 62.0883 1.4801ZM65.3424 9.10483C65.3424 10.6537 64.2253 11.8718 62.3443 11.926C61.3597 11.9565 60.4713 11.926 60.4713 11.926V6.2837C60.4713 6.2837 61.2636 6.25319 62.3443 6.2837C64.2646 6.3379 65.3411 7.55594 65.3411 9.10599L65.3424 9.10483Z" fill="white"/>
</svg>
