<svg width="137" height="40" viewBox="0 0 137 40" fill="none" xmlns="http://www.w3.org/2000/svg">
<g style="mix-blend-mode:luminosity" clip-path="url(#clip0_295_20)">
<path d="M34.4908 0H11.2974L20.0385 8.6733C20.235 8.66188 20.4329 8.65617 20.6321 8.65617C22.623 8.65538 24.5746 9.20553 26.2673 10.2447C27.9601 11.2839 29.3268 12.771 30.2138 14.5385C30.3845 14.5274 30.5573 14.5214 30.7311 14.5214C32.1673 14.5218 33.5746 14.9204 34.7944 15.6722C36.0141 16.424 36.9975 17.499 37.6336 18.7759L40.3779 16.0544V6.14136C40.3517 4.57221 39.732 3.07009 38.6416 1.93264C37.5513 0.795193 36.0698 0.105419 34.4908 0Z" fill="#00B4FF"/>
<path d="M26.4724 29.842L36.3103 39.5989H36.3174L26.4816 29.8451H26.4724V29.842Z" fill="#00B4FF"/>
<path d="M37.6377 18.7758L26.4816 29.8419L36.3174 39.5957C37.4994 39.1527 38.5195 38.3669 39.2447 37.3407C39.9699 36.3145 40.3666 35.0954 40.383 33.8424V16.0503L37.6377 18.7758Z" fill="#FF6E6E"/>
<path d="M4.48033 26.2448C4.18344 25.5211 4.0312 24.7471 4.03209 23.9658C4.03209 20.7193 6.60666 18.0875 9.78193 18.0875C9.85613 18.0875 9.92931 18.0875 10.0025 18.0926C10.2811 15.5982 11.443 13.2826 13.2814 11.5579C15.1199 9.83318 17.5156 8.81106 20.0426 8.67339L11.3015 0.00512695H5.92973C4.33196 0.106118 2.83302 0.806967 1.73786 1.96508C0.642711 3.12319 0.0336309 4.65156 0.0345469 6.23922V30.6545L4.48033 26.2448Z" fill="#23D3FF"/>
<path d="M26.4724 29.842H9.78193C8.91402 29.8431 8.05784 29.6433 7.28156 29.2584C6.01023 28.6234 5.01477 27.552 4.48033 26.2437L0.0345459 30.6544V33.7498C0.0345459 35.4072 0.698478 36.9967 1.88029 38.1686C2.46546 38.7489 3.16016 39.2092 3.92472 39.5233C4.68928 39.8373 5.50874 39.999 6.33629 39.999H34.0843C34.8457 39.9987 35.6008 39.8621 36.3133 39.5958L26.4724 29.842Z" fill="#00F5D0"/>
<path d="M40.3515 6.14136C40.3251 4.57091 39.7043 3.0677 38.6122 1.93005C37.5202 0.792407 36.0368 0.103481 34.4563 0L5.89518 0C4.29794 0.102402 2.79983 0.803683 1.70497 1.96149C0.610106 3.11929 0.000537832 4.64685 0 6.23409H0V33.7508C0 35.4082 0.663932 36.9977 1.84574 38.1696C3.02755 39.3416 4.63042 40 6.30175 40H34.0498C34.8112 39.9997 35.5663 39.8632 36.2788 39.5968H36.2859C37.4679 39.1538 38.488 38.368 39.2132 37.3418C39.9384 36.3156 40.3351 35.0965 40.3515 33.8435V16.256V6.14136Z" fill="url(#paint0_radial_295_20)"/>
<path d="M37.6631 18.7879C37.027 17.5111 36.0436 16.436 34.8239 15.6842C33.6042 14.9324 32.1968 14.5338 30.7607 14.5334C30.5868 14.5334 30.4151 14.5395 30.2443 14.5505C29.3573 12.7829 27.9904 11.2957 26.2974 10.2565C24.6045 9.2173 22.6526 8.66724 20.6616 8.66821C20.4583 8.66821 20.2652 8.67426 20.068 8.68535C17.5411 8.82302 15.1453 9.84514 13.3068 11.5699C11.4684 13.2946 10.3065 15.6101 10.0279 18.1045C9.95472 18.1045 9.88153 18.0995 9.80734 18.0995C6.63207 18.0995 4.0575 20.7312 4.0575 23.9778C4.05661 24.7591 4.20885 25.533 4.50574 26.2567C5.04018 27.5651 6.03564 28.6364 7.30696 29.2715C8.08325 29.6563 8.93943 29.8562 9.80734 29.8551H26.507L37.6641 18.7889L37.6631 18.7879Z" fill="white"/>
<path fill-rule="evenodd" clip-rule="evenodd" d="M34.2236 18.023C35.4197 18.0056 36.6032 18.2662 37.6794 18.784L26.5182 29.8502V25.3215H26.5284C26.6176 23.3568 27.4672 21.5017 28.9004 20.1424C30.3337 18.783 32.2403 18.0239 34.2236 18.023Z" fill="#FFD12F"/>
<path fill-rule="evenodd" clip-rule="evenodd" d="M98.2392 14.2221C97.651 13.5765 96.9249 13.0693 96.1139 12.7374C95.2068 12.3723 94.2347 12.1923 93.2558 12.2082C92.1858 12.2082 91.2318 12.3846 90.3936 12.7374C89.5835 13.071 88.8577 13.578 88.2682 14.2221C87.673 14.8862 87.2212 15.6642 86.9408 16.5081C86.4455 18.0284 86.3496 19.6489 86.6623 21.2162C86.778 21.7973 86.9611 22.3632 87.2081 22.9025C87.4534 23.4356 87.7651 23.9361 88.1361 24.3922C88.5097 24.8539 88.9506 25.2578 89.4442 25.5906C89.9677 25.9421 90.5431 26.2107 91.1498 26.3869C92.526 26.7689 93.9815 26.7689 95.3577 26.3869C95.9638 26.2091 96.5389 25.9406 97.0632 25.5906C97.558 25.2592 97.999 24.8551 98.3714 24.3922C98.739 23.9351 99.0483 23.4347 99.2922 22.9025C99.5402 22.3633 99.7244 21.7974 99.8411 21.2162C100.152 19.6487 100.056 18.0285 99.5616 16.5081C99.282 15.6649 98.832 14.8871 98.2392 14.2221ZM97.8662 21.7312C97.6863 22.3785 97.375 22.9825 96.9514 23.5062C96.5391 24.0044 96.013 24.398 95.4167 24.6543C94.7317 24.9373 93.9945 25.0747 93.2527 25.0574C92.4213 25.0574 91.6986 24.923 91.0847 24.6543C90.4879 24.3969 89.9606 24.0036 89.5459 23.5062C89.1211 22.9832 88.8097 22.379 88.6311 21.7312C88.4218 20.9855 88.3191 20.2143 88.3262 19.4402C88.3183 18.6739 88.4297 17.911 88.6565 17.1784C88.855 16.5284 89.1807 15.9235 89.615 15.3984C90.0387 14.8991 90.5711 14.5018 91.1721 14.2362C91.8318 13.9613 92.5402 13.8197 93.2558 13.8197C93.9713 13.8197 94.6797 13.9613 95.3394 14.2362C95.9361 14.5032 96.4643 14.9004 96.8844 15.3984C97.3187 15.9235 97.6444 16.5284 97.8428 17.1784C98.0696 17.911 98.1811 18.6739 98.1732 19.4402C98.1807 20.2143 98.0781 20.9856 97.8682 21.7312H97.8662ZM115.731 18.7286C115.601 18.3494 115.431 17.9852 115.222 17.642C115.025 17.3145 114.777 17.0205 114.486 16.7712C114.193 16.5234 113.858 16.3283 113.498 16.1946C113.098 16.0489 112.676 15.9775 112.25 15.984C111.931 15.9785 111.614 16.0276 111.311 16.1291C111.052 16.2175 110.807 16.3421 110.584 16.499C110.383 16.6401 110.199 16.8034 110.036 16.9859C109.881 17.1613 109.747 17.3269 109.634 17.4828H109.597V12.555H107.858V17.4828H107.82C107.694 17.31 107.558 17.1441 107.413 16.9859C107.25 16.8034 107.066 16.6401 106.866 16.499C106.64 16.342 106.394 16.2175 106.134 16.1291C105.833 16.0286 105.516 15.9796 105.199 15.984C104.773 15.9775 104.351 16.0489 103.951 16.1946C103.591 16.3283 103.256 16.5234 102.964 16.7712C102.672 17.02 102.423 17.3141 102.227 17.642C102.019 17.9852 101.848 18.3494 101.718 18.7286C101.588 19.1269 101.494 19.5361 101.438 19.9512C101.375 20.3778 101.343 20.8083 101.343 21.2394C101.33 22.0292 101.441 22.8162 101.674 23.5717C101.861 24.1828 102.157 24.7556 102.548 25.2631C102.881 25.6916 103.305 26.042 103.79 26.2891C104.234 26.515 104.726 26.6338 105.226 26.6359C105.468 26.6361 105.71 26.6155 105.949 26.5744C106.186 26.5342 106.415 26.4584 106.629 26.3496C106.86 26.2307 107.071 26.0759 107.253 25.891C107.476 25.6591 107.668 25.3992 107.824 25.1179H107.862V30.2796H109.601V25.1179H109.638C109.788 25.4014 109.979 25.6618 110.204 25.891C110.389 26.0752 110.601 26.2299 110.834 26.3496C111.047 26.4584 111.277 26.5342 111.514 26.5744C111.752 26.6155 111.994 26.6361 112.236 26.6359C112.736 26.6336 113.228 26.5149 113.672 26.2891C114.157 26.0418 114.581 25.6914 114.914 25.2631C115.305 24.7556 115.601 24.1828 115.789 23.5717C116.021 22.8161 116.132 22.0291 116.119 21.2394C116.119 20.8083 116.087 20.3778 116.024 19.9512C115.964 19.5357 115.866 19.1264 115.731 18.7286ZM107.861 22.3169C107.861 23.2529 107.67 23.9759 107.289 24.4859C106.909 24.996 106.356 25.2503 105.632 25.2489C105.34 25.258 105.05 25.2051 104.781 25.0936C104.512 24.9822 104.271 24.8148 104.072 24.6029C103.88 24.3975 103.721 24.1635 103.601 23.9094C103.471 23.6423 103.369 23.3631 103.296 23.0758C103.22 22.7799 103.165 22.4792 103.13 22.1757C103.097 21.8836 103.079 21.5898 103.078 21.2958C103.075 20.7988 103.123 20.3027 103.221 19.8152C103.302 19.3896 103.455 18.9807 103.674 18.6056C103.87 18.2712 104.146 17.9895 104.477 17.7852C104.837 17.5755 105.25 17.4707 105.667 17.4828C105.956 17.4838 106.241 17.5529 106.499 17.6844C106.771 17.8221 107.01 18.0171 107.198 18.2559C107.413 18.5324 107.576 18.8452 107.68 19.1791C107.805 19.5873 107.865 20.0124 107.859 20.4391L107.861 22.3169ZM114.332 22.1757C114.301 22.4794 114.248 22.7802 114.171 23.0758C114.098 23.3629 113.995 23.6421 113.867 23.9094C113.745 24.1642 113.584 24.3983 113.389 24.6029C113.195 24.804 112.962 24.9648 112.705 25.0756C112.415 25.1957 112.104 25.2548 111.79 25.2489C111.085 25.2489 110.543 24.9946 110.164 24.4859C109.785 23.9773 109.596 23.2542 109.598 22.3169V20.434C109.59 20.0074 109.651 19.5822 109.777 19.1741C109.88 18.8401 110.043 18.5274 110.258 18.2508C110.446 18.0118 110.685 17.8167 110.958 17.6793C111.215 17.5479 111.5 17.4788 111.789 17.4777C112.203 17.4667 112.613 17.5715 112.97 17.7801C113.301 17.9845 113.577 18.2662 113.773 18.6006C113.991 18.9763 114.146 19.3848 114.231 19.8101C114.331 20.2974 114.38 20.7935 114.378 21.2908C114.378 21.586 114.363 21.8811 114.332 22.1747V22.1757ZM119.733 23.989H119.696V16.2924H117.958V26.3264H119.951L124.911 18.6349H124.948V26.3264H126.696V16.2924H124.703L119.733 23.989ZM135.063 23.8398C134.926 24.1262 134.74 24.3872 134.515 24.6119C134.307 24.8177 134.06 24.9801 133.788 25.0897C133.515 25.1998 133.223 25.2557 132.928 25.254C132.535 25.2606 132.144 25.1858 131.781 25.0343C131.44 24.8841 131.145 24.6482 130.925 24.3499C130.671 23.9945 130.488 23.5937 130.387 23.1696C130.251 22.6086 130.188 22.0329 130.198 21.4561C130.193 20.9136 130.252 20.3724 130.373 19.8434C130.471 19.3966 130.65 18.9713 130.902 18.5885C131.132 18.2386 131.449 17.9535 131.823 17.7607C132.197 17.5679 132.615 17.4739 133.036 17.4878C133.735 17.4878 134.277 17.6813 134.662 18.0684C135.047 18.4554 135.284 18.9897 135.374 19.671H137C136.979 19.3993 136.937 19.1297 136.873 18.8647C136.805 18.5792 136.707 18.3015 136.58 18.0361C136.445 17.7563 136.274 17.4948 136.072 17.258C135.854 17.002 135.595 16.7821 135.307 16.6069C134.976 16.4074 134.619 16.256 134.245 16.1573C133.787 16.039 133.315 15.9824 132.842 15.989C132.262 15.9875 131.688 16.1156 131.165 16.364C130.627 16.6169 130.15 16.9808 129.766 17.4314C129.345 17.932 129.02 18.5053 128.808 19.1227C128.559 19.8446 128.438 20.6036 128.449 21.3664C128.441 21.9696 128.504 22.5718 128.637 23.1605C128.747 23.6374 128.918 24.0984 129.145 24.5323C129.335 24.8992 129.584 25.2331 129.882 25.5211C130.148 25.776 130.446 25.9949 130.769 26.1722C131.071 26.3368 131.394 26.4583 131.729 26.5331C132.036 26.6027 132.349 26.6388 132.664 26.6409C133.152 26.6481 133.639 26.5863 134.109 26.4575C134.499 26.3505 134.87 26.1864 135.21 25.9706C135.509 25.7793 135.776 25.5441 136.004 25.2731C136.213 25.0211 136.392 24.7458 136.538 24.4527C136.673 24.1787 136.778 23.8916 136.854 23.5959C136.921 23.3342 136.97 23.0681 137 22.7997H135.374C135.323 23.1576 135.221 23.5063 135.069 23.8348L135.063 23.8398ZM56.9587 25.4183H56.9191L51.6693 13.0025H50.4832V26.3325H51.3115V14.0104H51.3491L56.5257 26.3315H57.3541L62.4748 14.0104H62.5093V26.3325H63.3377V13.0025H62.1546L56.9587 25.4183ZM73.0668 18.0069C72.689 17.5455 72.2132 17.1724 71.6733 16.9143C71.075 16.6497 70.4272 16.5129 69.7721 16.5129C69.117 16.5129 68.4692 16.6497 67.8709 16.9143C67.3298 17.1723 66.8526 17.5454 66.4733 18.0069C66.0898 18.4809 65.7995 19.0222 65.6175 19.6025C65.4192 20.2275 65.3208 20.8795 65.3258 21.5347C65.3218 22.1928 65.4202 22.8476 65.6175 23.476C65.7965 24.0578 66.0871 24.5999 66.4733 25.0726C66.8533 25.5292 67.3288 25.8986 67.8668 26.1551C68.4651 26.4197 69.1129 26.5565 69.768 26.5565C70.4231 26.5565 71.0709 26.4197 71.6692 26.1551C72.2078 25.8994 72.6835 25.5299 73.0627 25.0726C73.4489 24.5997 73.7397 24.0577 73.9196 23.476C74.3085 22.2136 74.3085 20.8648 73.9196 19.6025C73.7382 19.0225 73.449 18.4813 73.0668 18.0069ZM73.2548 23.1827C73.1035 23.691 72.8626 24.1687 72.5433 24.5938C72.2324 25.002 71.8338 25.3367 71.3765 25.5735C70.8775 25.8128 70.3304 25.9372 69.7762 25.9372C69.2219 25.9372 68.6748 25.8128 68.1758 25.5735C67.7173 25.3368 67.3174 25.0022 67.0049 24.5938C66.6859 24.1686 66.445 23.6909 66.2934 23.1827C65.9672 22.1051 65.9672 20.9562 66.2934 19.8787C66.445 19.3704 66.6859 18.8927 67.0049 18.4675C67.3159 18.059 67.7144 17.724 68.1718 17.4868C68.6707 17.2475 69.2178 17.1232 69.7721 17.1232C70.3264 17.1232 70.8735 17.2475 71.3724 17.4868C71.83 17.7237 72.2286 18.0588 72.5393 18.4675C72.8596 18.892 73.1006 19.3699 73.2508 19.8787C73.577 20.9562 73.577 22.1051 73.2508 23.1827H73.2548ZM78.2078 14.5396C78.6821 14.9314 79.2781 15.1272 79.9957 15.1272C80.3029 15.1292 80.6073 15.0688 80.8901 14.9498C81.1683 14.8341 81.4234 14.6699 81.6433 14.465C81.8642 14.2572 82.0486 14.0143 82.1891 13.7464C82.3313 13.4786 82.4239 13.1878 82.4625 12.8876H81.8415C81.7721 13.3404 81.5499 13.7565 81.2113 14.0679C80.8728 14.3679 80.4312 14.5278 79.9774 14.5144C79.7811 14.5138 79.5854 14.4918 79.3939 14.4489C79.1876 14.4035 78.9924 14.3178 78.8197 14.1969C78.6244 14.0597 78.4554 13.889 78.3206 13.6929C78.1561 13.4485 78.0411 13.1746 77.9822 12.8866H77.3601C77.4482 13.5989 77.7308 14.1512 78.2078 14.5436V14.5396ZM76.8143 25.4001H76.796V16.7369H76.0845V26.3325H76.9698L83.0124 17.7076H83.0307V26.3325H83.7422V16.7369H82.8376L76.8143 25.4001Z" fill="white"/>
</g>
<defs>
<radialGradient id="paint0_radial_295_20" cx="0" cy="0" r="1" gradientUnits="userSpaceOnUse" gradientTransform="translate(20.1758 20.0005) scale(20.1717 20.0035)">
<stop stop-color="#261C38" stop-opacity="0.6"/>
<stop offset="0.28" stop-color="#261C38" stop-opacity="0.3"/>
<stop offset="0.86" stop-color="#302640" stop-opacity="0.05"/>
<stop offset="1" stop-color="#302640" stop-opacity="0"/>
</radialGradient>
<clipPath id="clip0_295_20">
<rect width="137" height="40" fill="white"/>
</clipPath>
</defs>
</svg>
