<svg width="133" height="20" viewBox="0 0 133 20" fill="none" xmlns="http://www.w3.org/2000/svg">
<g clip-path="url(#clip0_33_575)">
<path fill-rule="evenodd" clip-rule="evenodd" d="M0.0396729 1.07301V20.0003L13.1299 19.7611C17.39 17.5924 15.6767 12.7878 14.0791 10.8214C16.293 7.25058 16.5368 3.6475 13.6178 1.87562C12.6878 1.31111 11.7555 1.02445 10.6722 1.02886C7.12822 1.04321 3.58394 1.05811 0.0396729 1.07301ZM3.68686 1.83368V18.9046C5.43899 18.9046 7.2004 19.0622 8.94732 18.9637C9.65292 18.924 10.9983 18.9764 11.0815 18.9046C11.9521 18.3865 12.0936 16.7771 12.0309 14.8629C11.8428 13.1801 11.7735 11.3922 9.68249 11.3917H6.33448V10.7243L9.83237 10.5355C11.1647 10.2345 11.9808 9.29947 11.9808 6.96915C12.4304 3.40249 11.5143 1.67504 9.03312 1.78595C7.1343 1.78623 5.58539 1.83368 3.68686 1.83368ZM19.5251 19.9512V0.930085H29.3679C31.1618 0.871317 32.3675 1.34091 33.0803 2.25306C34.0648 3.51258 34.0915 6.56219 33.8761 8.16245C33.5923 10.2704 32.339 11.2993 30.1173 11.2488L34.6139 19.7131H30.8652L25.4207 10.3454H28.8185C30.0564 10.2563 30.8719 9.70754 30.9962 8.75345C31.1287 7.73894 31.0557 5.58686 31.018 4.4846C30.9965 3.85305 30.7252 3.31972 30.4107 2.89262C29.7059 1.93604 28.7898 1.88114 27.703 1.88114H22.5226V19.9032L19.5251 19.9512ZM38.7159 19.5765H37.0803L44.241 0.177685H47.5853L55.8946 19.5321H51.8085L44.3802 3.49161L38.7159 19.5765ZM61.0889 19.7092L53.0159 0.398687H57.2884L63.9267 16.4391L70.1018 0.266251H71.8203L64.5303 19.7092H61.0889ZM81.7093 1.41513C79.066 1.41679 77.2796 2.40978 77.0199 5.17106V13.9204C77.1193 16.1985 77.9206 18.0386 81.6162 18.0742H84.8201C87.4202 17.6912 89.0141 16.542 89.1378 14.2741V6.31994C89.1413 4.59138 88.7082 3.14673 87.4402 2.26051C86.0873 1.3147 84.5413 1.28325 82.9555 1.37043L81.7093 1.41513ZM79.5269 0.0452489C75.6324 0.328882 73.5742 2.39102 73.3518 6.23165V13.8354C73.5246 15.5485 74.1691 16.8627 75.2851 17.7773C77.4597 19.5599 80.2734 19.2672 82.9161 19.2672C85.4414 19.2672 88.118 19.5279 90.276 17.9817C91.6162 17.0213 92.3386 15.5744 92.5734 13.7438V6.50701C92.5734 5.13795 92.5215 4.22994 91.7649 2.9776C91.3625 2.31211 90.8436 1.72304 90.2566 1.28821C88.4818 -0.0259353 87.0399 0.0910496 84.9367 0.0780819L79.5269 0.0452489ZM93.1152 0.0430416H97.2807L101.944 7.06738L106.744 0H108.425L102.85 8.31724L109.687 19.0906H105.565L100.179 11.0752L94.5192 19.22H93.1146L99.3639 9.91171L93.1152 0.0430416Z" fill="white"/>
<path fill-rule="evenodd" clip-rule="evenodd" d="M115.256 0H116.75L111.86 7.71383L119.196 19.0042H115.664L109.099 9.56682L115.256 0ZM129.021 0H130.515L125.625 7.71383L132.96 19.0042H129.429L122.863 9.56682L129.021 0ZM122.184 0H123.678L118.788 7.71383L126.123 19.0042H122.591L116.026 9.56682L122.184 0Z" fill="white"/>
</g>
<defs>
<clipPath id="clip0_33_575">
<rect width="133" height="20" fill="white"/>
</clipPath>
</defs>
</svg>
