<svg width="60" height="60" viewBox="0 0 60 60" fill="none" xmlns="http://www.w3.org/2000/svg">
<path d="M27.2293 17.1277C27.2346 17.1235 27.2403 17.1202 27.246 17.1164C27.3137 17.0721 27.3856 17.0324 27.4589 16.9973C27.4609 16.9964 27.4628 16.9955 27.4642 16.9945C27.4647 16.9945 27.4647 16.9941 27.4647 16.9941C27.4704 16.9917 27.4756 16.9894 27.4813 16.9866C27.5175 16.9698 27.5547 16.9544 27.5923 16.9399C27.6419 16.9161 27.69 16.889 27.7353 16.8596C28.1016 16.6228 28.3431 16.216 28.3431 15.7536V6.98586C28.3431 5.88925 27.4361 5 26.3175 5C26.0088 5 25.7177 5.06725 25.4557 5.18728L25.2037 5.32833L5 16.606V43.3207L27.3013 30.9161C27.307 30.9128 27.3132 30.9096 27.3194 30.9063C27.3575 30.8848 27.3946 30.8619 27.4313 30.8386C27.9811 30.4832 28.3431 29.8737 28.3431 29.1801V21.8158C28.3431 21.2965 28.0378 20.8467 27.5933 20.63C27.5795 20.6249 27.5657 20.6193 27.5518 20.6136C27.5299 20.6043 27.5085 20.595 27.4871 20.5852C27.4832 20.5833 27.479 20.5814 27.4751 20.5796C27.4456 20.5665 27.417 20.552 27.3889 20.5371C27.3861 20.5352 27.3832 20.5338 27.3803 20.5324L27.2708 20.4698C27.2689 20.4689 27.2674 20.4679 27.266 20.467C27.2627 20.4651 27.2593 20.4628 27.256 20.4609C27.2379 20.4497 27.2198 20.438 27.2022 20.4264C27.1822 20.4128 27.1622 20.3993 27.1426 20.3853C26.6424 20.0233 26.3175 19.4414 26.3175 18.7852C26.3175 18.0921 26.68 17.4812 27.2293 17.1277ZM23.1028 27.8911L10.2403 35.0714V29.7107L23.1028 22.5565V27.8911ZM23.1028 17.1958L10.2403 24.3761V19.0154L23.1028 11.8613V17.1958Z" fill="#219653"/>
<path d="M37.0877 11.9683V17.2818L53.8991 26.6413L54.0496 26.7253C54.0682 26.7366 54.0863 26.7482 54.1044 26.7604C54.1053 26.7608 54.1058 26.7613 54.1068 26.7618C54.1244 26.7734 54.1425 26.7856 54.1596 26.7982C54.1601 26.7982 54.1601 26.7987 54.1601 26.7987C54.2125 26.8356 54.2625 26.8748 54.3107 26.9168C54.7332 27.2802 55 27.814 55 28.4086V39.8249C55 40.5185 54.6379 41.128 54.0882 41.4834C54.0515 41.5067 54.0143 41.5296 53.9762 41.5511C53.97 41.5544 53.9638 41.5576 53.9581 41.5609C53.92 41.5819 53.8814 41.6015 53.8419 41.6197C53.5794 41.7426 53.285 41.8108 52.9744 41.8108C52.6938 41.8108 52.4261 41.7547 52.1831 41.6534L51.7739 41.425L31.8474 30.2903V28.2778C31.8474 27.5847 32.2099 26.9738 32.7592 26.6203C32.7645 26.6161 32.7702 26.6128 32.7759 26.6091C32.8435 26.5647 32.9155 26.525 32.9888 26.49C32.9908 26.489 32.9927 26.4881 32.9941 26.4872C32.9998 26.4844 33.0055 26.482 33.0112 26.4792C33.2732 26.3592 33.5643 26.2919 33.873 26.2919C34.1817 26.2919 34.4742 26.3596 34.7358 26.4806L35.003 26.6296C35.004 26.6301 35.0045 26.6305 35.0054 26.631L49.7597 34.8453V29.7905L33.017 20.4352L32.7321 20.2764C32.198 19.9187 31.8474 19.3171 31.8474 18.6353V6.98586C31.8474 6.29277 32.2099 5.68188 32.7592 5.32833C32.7645 5.32413 32.7702 5.32086 32.7759 5.31712C32.8435 5.27275 32.9155 5.23305 32.9888 5.19803C32.9908 5.19709 32.9927 5.19616 32.9941 5.19522C32.9998 5.19242 33.0055 5.19009 33.0112 5.18728C33.2732 5.06725 33.5643 5 33.873 5C34.0884 5 34.2961 5.03316 34.4909 5.09434L35.2093 5.49413L53.7723 15.8293L54.1596 16.0446C54.1601 16.0446 54.1601 16.0451 54.1601 16.0451C54.2125 16.0819 54.2625 16.1212 54.3107 16.1632C54.7332 16.5266 55 17.0604 55 17.6549V21.9769L37.0877 11.9683Z" fill="#C3363A"/>
<path d="M53.6278 47.2252L49.9272 49.3292C49.9262 49.3297 49.9258 49.3301 49.9253 49.3306L49.8372 49.3806C49.8033 49.3993 49.769 49.4165 49.7343 49.4324C49.7204 49.439 49.7066 49.445 49.6923 49.4516C49.4408 49.5623 49.1612 49.6234 48.8668 49.6234C48.5862 49.6234 48.3184 49.5674 48.0755 49.4661C48.0536 49.4567 48.0321 49.4474 48.0107 49.4376C47.9773 49.4226 47.9445 49.4063 47.9125 49.3895L47.7796 49.3133L30.5891 39.4676L25.8738 42.1302L44.1476 52.5962L40.5861 54.6213L40.2226 54.8282C39.9711 54.9388 39.6915 55 39.3971 55C39.1165 55 38.8487 54.944 38.6058 54.8426C38.5839 54.8333 38.5624 54.8239 38.541 54.8141C38.5048 54.7978 38.4691 54.78 38.4343 54.7614L38.3247 54.6988C38.3228 54.6978 38.3214 54.6969 38.3199 54.696L22.2942 45.5177L21.0989 44.8335L21.0927 44.8297L16.3531 47.5059L16.365 47.5129L11.5906 50.2152L6.36987 47.2252L11.1338 44.5164L11.1404 44.5201L25.7642 36.2637L30.1418 33.7744L53.6278 47.2252Z" fill="#1096C9"/>
</svg>
