<?xml version="1.0" encoding="utf-8"?><svg xmlns="http://www.w3.org/2000/svg" xmlns:xlink="http://www.w3.org/1999/xlink"><symbol viewBox="0 0 20 20" id="arrow-right" xmlns="http://www.w3.org/2000/svg"><path d="M15.707 10.707a1 1 0 000-1.414L9.343 2.929A1 1 0 007.93 4.343L13.586 10l-5.657 5.657a1 1 0 101.414 1.414l6.364-6.364zM14 11h1V9h-1v2z"/></symbol><symbol viewBox="0 0 60 60" id="bag" xmlns="http://www.w3.org/2000/svg"><path fill-rule="evenodd" clip-rule="evenodd" d="M22.505 3.955c-1.37.275-2.781 1.46-3.3 2.77-.25.633-.271.884-.313 3.75l-.045 3.07-7.05.037c-6.97.036-7.059.04-7.745.299-1.97.744-3.514 2.498-3.923 4.456C.04 18.773 0 23.705 0 34.865 0 48.763.023 50.86.18 51.471c.578 2.253 2.358 3.978 4.595 4.452 1.187.252 49.263.252 50.45 0 2.237-.474 4.017-2.199 4.596-4.452.156-.61.179-2.708.179-16.606 0-11.16-.039-16.092-.13-16.528-.206-.99-.765-2.032-1.525-2.845-.759-.81-1.376-1.223-2.423-1.62-.653-.248-.823-.254-7.719-.29l-7.05-.036-.045-3.071c-.042-2.895-.06-3.112-.322-3.775-.381-.97-1.547-2.138-2.524-2.53l-.703-.282-7.266-.02c-3.996-.01-7.5.03-7.788.087zM37.051 7.89c.196.178.215.429.215 2.93v2.736H22.734V10.84c0-2.363.026-2.744.194-2.93.184-.203.557-.215 7.052-.215 6.216 0 6.877.019 7.071.194zm18.021 9.778c.24.135.577.462.749.727.31.479.312.493.312 2.73 0 1.913-.035 2.363-.233 3.003-.468 1.515-1.692 2.938-3.09 3.593-.638.299-19.437 5.84-21.31 6.282-.931.22-2.06.222-2.965.007-.387-.091-3.524-.989-6.973-1.993a5335.36 5335.36 0 00-9.96-2.892c-2.03-.586-4.016-1.217-4.411-1.403-1.4-.657-2.623-2.08-3.091-3.594-.198-.64-.233-1.09-.233-2.98 0-2.55.082-2.836.972-3.413l.481-.312h49.316l.436.245zM6.12 31.422c.405.16 4.006 1.246 8.002 2.412 14.437 4.216 14.829 4.314 16.582 4.155 1.378-.126 1.741-.226 17.402-4.802 5.317-1.554 5.427-1.588 6.134-1.9.345-.152.911-.46 1.26-.682l.634-.406v10.259c0 8.602-.027 10.309-.166 10.574-.221.425-.756.918-1.16 1.071-.464.175-49.15.175-49.614 0-.404-.153-.939-.646-1.16-1.07-.14-.266-.166-1.972-.166-10.57V30.212l.758.46a11.8 11.8 0 001.494.751z"/></symbol><symbol viewBox="0 0 60 60" id="bank" xmlns="http://www.w3.org/2000/svg"><g clip-path="url(#ca)"><path fill-rule="evenodd" clip-rule="evenodd" d="M15.024 7.295C-1.242 15.49.023 14.742.023 16.167c0 2.086 1.288 4.899 3.348 7.313.447.524.948.985 1.173 1.079.239.1.81.164 1.452.164h1.058V49.45H5.996c-.643 0-1.213.064-1.452.164-.225.094-.728.557-1.178 1.084-2.128 2.493-3.436 5.42-3.322 7.436.051.914.283 1.33.925 1.657.38.194 2.007.205 29.054.205 27.047 0 28.675-.011 29.054-.205.641-.327.874-.743.925-1.657.114-2.016-1.194-4.943-3.322-7.436-.45-.527-.953-.99-1.178-1.084-.239-.1-.81-.164-1.452-.164h-1.058V24.723h1.058c.639 0 1.213-.064 1.448-.163.448-.187 1.542-1.414 2.417-2.71 1.99-2.948 2.699-6.224 1.563-7.22-.12-.105-6.682-3.44-14.583-7.412C32.301.888 30.465-.002 30.012 0c-.447.003-2.47.988-14.988 7.295zm25.333 1.637l10.295 5.186-10.315.03c-5.673.016-14.949.016-20.614 0l-10.3-.03 10.27-5.183c5.65-2.85 10.293-5.184 10.32-5.185.026-.002 4.681 2.33 10.344 5.182zm15.68 8.906c-.003.248-.925 1.863-1.502 2.634l-.547.73H6.058l-.547-.73c-.578-.77-1.5-2.386-1.502-2.634-.001-.116 5.279-.146 26.014-.146s26.015.03 26.014.146zM14.085 37.086V49.45H10.57V24.723h3.515v12.364zm10.665 0V49.45H17.6V24.723h7.149v12.364zm7.03 0V49.45h-3.514V24.723h3.516v12.364zm10.665 0V49.45h-7.149V24.723h7.149v12.364zm7.031 0V49.45H45.96V24.723h3.516v12.364zm5.059 16.615c.578.77 1.5 2.386 1.502 2.633.001.117-5.292.147-26.082.147H3.87l.545-1.025c.3-.564.792-1.354 1.093-1.755l.55-.73h47.929l.547.73z"/></g><defs><clipPath id="ca"><path d="M0 0h60v60H0z"/></clipPath></defs></symbol><symbol viewBox="0 0 22 24" id="basket" xmlns="http://www.w3.org/2000/svg"><g clip-path="url(#da)"><path d="M10.363 18.443a2.046 2.046 0 00-2.045 2.042 2.046 2.046 0 004.09 0 2.046 2.046 0 00-2.045-2.042zm6.134 0a2.046 2.046 0 00-2.045 2.042 2.046 2.046 0 004.089 0 2.046 2.046 0 00-2.044-2.042zm3.978-8.199L7.413 6.891a.614.614 0 00-.75.73L8.67 16.4h-.786L5.482 5.895a.613.613 0 00-.474-.464l-4.27-.882A.614.614 0 00.489 5.75l3.885.802L6.797 17.15a.613.613 0 00.598.477h12.07a.615.615 0 00.607-.53l.858-6.175a.613.613 0 00-.455-.678zm-8.14 3.91a.613.613 0 01-1.227 0v-2.696a.613.613 0 011.227 0v2.696zm2.625 0a.613.613 0 01-1.227 0v-1.88a.613.613 0 011.227 0v1.88zm2.625 0a.613.613 0 01-1.227 0v-1.226a.613.613 0 011.227 0v1.226z"/></g><path fill-rule="evenodd" clip-rule="evenodd" d="M16.268 4.568a2.996 2.996 0 00-1.693-.523c-.627 0-1.21.193-1.693.523-.28-.843-.492-1.752-.492-2.383C12.39.98 13.37 0 14.575 0s2.185.98 2.185 2.185c0 .631-.212 1.54-.492 2.383zm-4.722 2.274l.024.006v-.011l-.024.005zm4.972 1.217c-1.333-.33-2.766-.681-4.129-1.013a2.185 2.185 0 114.129 1.013zm4.436 1.103c-.866-.217-2.155-.538-3.618-.9a2.995 2.995 0 00.243-1.425c.87.18 1.762.45 2.308.765.596.344.969.928 1.067 1.56zM9.869 6.439c-.36-.086-.706-.167-1.03-.243a2.19 2.19 0 01-.376-2.667 2.188 2.188 0 013.147-.7c.098.738.338 1.599.61 2.353a3.01 3.01 0 00-.449.774c-.628.113-1.305.278-1.902.483zm10.124.075a3.43 3.43 0 01-.217.114c-.696-.295-1.587-.526-2.397-.672a3.01 3.01 0 00-.449-.774c.262-.727.494-1.553.599-2.273.095-.067.189-.128.278-.18a2.188 2.188 0 012.986.8 2.188 2.188 0 01-.8 2.985z"/><defs><clipPath id="da"><path transform="translate(0 3.064)" d="M0 0h20.936v20.936H0z"/></clipPath></defs></symbol><symbol viewBox="0 0 344.96 344.96" id="check" xmlns="http://www.w3.org/2000/svg"><g data-name="Слой 2"><path class="ecls-1" d="M321.85 86.24l-40-23.11-23.1-40H212.5L172.48 0l-40 23.11H86.24l-23.11 40-40 23.1v46.21L0 172.48l23.11 40v46.21l40 23.11 23.11 40h46.21l40 23.1 40-23.11h46.21l23.11-40 40-23.11V212.5l23.11-40-23.11-40V86.24zM156.91 243.07a16.79 16.79 0 01-23.34 0l-50.45-50.44a16.19 16.19 0 010-22.89l13.35-13.35a16.19 16.19 0 0122.89 0l25.87 25.87 80.34-80.35a16.19 16.19 0 0122.89 0l13.35 13.35a16.19 16.19 0 010 22.89z" data-name="Capa 1"/></g></symbol><symbol viewBox="0 0 20 20" id="chevron-left" xmlns="http://www.w3.org/2000/svg"><path d="M5.293 10.707a1 1 0 010-1.414l6.364-6.364a1 1 0 111.414 1.414L7.414 10l5.657 5.657a1 1 0 01-1.414 1.414l-6.364-6.364zM7 11H6V9h1v2z"/></symbol><symbol viewBox="0 0 20 20" id="chevron-right" xmlns="http://www.w3.org/2000/svg"><path d="M15.707 10.707a1 1 0 000-1.414L9.343 2.929A1 1 0 007.93 4.343L13.586 10l-5.657 5.657a1 1 0 101.414 1.414l6.364-6.364zM14 11h1V9h-1v2z"/></symbol><symbol viewBox="0 0 60 60" id="diagram" xmlns="http://www.w3.org/2000/svg"><g clip-path="url(#ha)"><path fill-rule="evenodd" clip-rule="evenodd" d="M49.342 1.497c-2.997.815-5.575 1.57-5.73 1.678-.73.512-.952 1.636-.478 2.414.233.383 1.01.835 1.443.84.118.002 1.785-.419 3.703-.935 1.92-.515 3.527-.937 3.574-.937.177 0-1.55 2.647-2.966 4.543-7.146 9.577-18.218 17.682-29.977 21.946-5.272 1.912-11.766 3.16-16.442 3.16-.835 0-1.111.048-1.524.266-1.454.77-1.174 2.778.454 3.245.504.145 4.21-.052 6.517-.345 11.592-1.476 23.443-6.907 33.575-15.386 5.134-4.297 10.031-9.856 12.948-14.698l.393-.653.121.455c1.223 4.601 1.693 6.215 1.89 6.49.3.423 1.144.757 1.664.659.882-.167 1.5-.873 1.5-1.715 0-.548-2.914-11.356-3.179-11.793-.284-.466-.873-.748-1.527-.73-.28.008-2.962.68-5.959 1.496zm-1.816 18.808c-.704.333-1.135.77-1.456 1.479-.236.522-.238.677-.24 17.607l-.003 17.08H42.31l-.003-11.22c-.002-11.036-.006-11.23-.24-11.749-.321-.708-.752-1.145-1.456-1.478-.569-.269-.675-.277-3.575-.276-2.753.002-3.03.02-3.515.24-.708.32-1.146.752-1.479 1.456l-.277.586v11.22l-.002 11.221h-3.516v-7.998l-.002-7.998-.277-.586c-.333-.704-.77-1.135-1.478-1.455-.486-.22-.762-.24-3.516-.24-2.9-.002-3.006.006-3.574.275-.704.333-1.135.77-1.456 1.479-.232.514-.238.732-.24 8.525l-.003 7.998h-3.516l-.003-5.889c-.002-5.67-.011-5.908-.24-6.416-.321-.708-.752-1.145-1.456-1.478-.569-.269-.676-.277-3.574-.277-2.899 0-3.006.008-3.575.277-.704.333-1.135.77-1.455 1.478-.23.508-.239.746-.241 6.416l-.003 5.889H2.497c-1.79 0-2.432.464-2.432 1.758 0 .795.246 1.226.887 1.552.38.194 2.007.205 29.054.205 27.047 0 28.675-.011 29.054-.205.642-.326.888-.757.888-1.552 0-1.294-.642-1.758-2.432-1.758h-1.142l-.002-17.08V22.31l-.278-.586c-.333-.704-.77-1.135-1.478-1.455-.486-.22-.762-.24-3.516-.24-2.9-.002-3.006.006-3.574.275zm5.332 19.701v16.465h-3.516v-32.93h3.516v16.465zm-14.063 5.86V56.47H35.28V35.26h3.515v10.606zm-14.062 3.222v7.383h-3.516V41.705h3.516v7.383zm-14.063 2.11v5.273H7.155V45.924h3.515v5.274z"/></g><defs><clipPath id="ha"><path d="M0 0h60v60H0z"/></clipPath></defs></symbol><symbol viewBox="0 0 24 24" id="fb" xmlns="http://www.w3.org/2000/svg"><path fill-rule="evenodd" clip-rule="evenodd" d="M13.287 2.532c-1.692.346-2.81 1.342-3.307 2.946-.183.588-.232 1.123-.232 2.526v1.324H8.47c-1.414.002-1.475.012-1.568.283-.078.227-.078 3.144 0 3.373.087.255.207.276 1.615.279l1.23.003v8.057l.114.131.113.132 1.68.014c1.81.016 1.978 0 2.07-.203.04-.089.055-1.183.055-4.147v-4.028l1.568-.013c1.433-.012 1.576-.021 1.653-.097.077-.078.083-.217.083-1.839V9.518l-.106-.107c-.107-.106-.115-.106-1.657-.12l-1.55-.013.017-1.252c.017-1.347.028-1.41.285-1.654.197-.186.31-.202 1.621-.229l1.281-.026.113-.131.114-.132V2.668l-.116-.115-.114-.115-1.632.003c-1.39.004-1.693.017-2.053.09z"/></symbol><symbol viewBox="0 0 60 60" id="flag" xmlns="http://www.w3.org/2000/svg"><path fill-rule="evenodd" clip-rule="evenodd" d="M6.3.216c-.268.141-.53.41-.674.693-.234.46-.235.641-.235 29.065 0 28.436.001 28.606.236 29.066.265.52.94.934 1.521.934.582 0 1.257-.414 1.522-.934.233-.456.236-.664.236-13.885V31.732H22.97v2.24c0 2.551.096 2.898.938 3.371l.441.248H38.78c14.12 0 14.442-.005 14.884-.23.587-.3 1.006-1.106.903-1.74-.039-.237-1.069-2.924-2.288-5.97l-2.218-5.536 2.218-5.537c1.22-3.046 2.25-5.732 2.288-5.97.103-.633-.316-1.44-.903-1.74-.439-.223-.742-.23-10.886-.23H32.344V8.407c0-2.59-.104-2.969-.935-3.392-.453-.232-.669-.236-11.482-.236H8.907V3.075c0-1.477-.032-1.766-.237-2.166C8.238.06 7.18-.248 6.3.216zm22.528 18.04v9.96H8.906V8.294h19.922v9.961zm19.5.702c-1.057 2.643-1.922 4.963-1.922 5.157 0 .194.865 2.514 1.923 5.156l1.922 4.805H29.015l1.474-1.495c.81-.821 1.56-1.662 1.664-1.869.17-.335.19-1.223.19-8.466v-8.092h17.908l-1.922 4.804z"/></symbol><symbol viewBox="0 0 60 60" id="graphic" xmlns="http://www.w3.org/2000/svg"><path fill-rule="evenodd" clip-rule="evenodd" d="M3.46 5.107c-.612.225-.933.497-1.213 1.027L2 6.601l.028 23.508.027 23.509.296.447c.163.246.501.557.753.69L3.56 55h25.965c25.772 0 25.968-.002 26.33-.215.201-.118.516-.401.7-.628.304-.377.333-.481.333-1.19 0-.89-.221-1.329-.901-1.79l-.39-.263-24.7-.027-24.7-.028-.028-22.174L6.14 6.51l-.285-.485c-.489-.832-1.54-1.234-2.397-.919zm35.372 5.447c-.993.237-1.63 1.15-1.541 2.213.053.64.247.967.88 1.478l.405.33 5.695.053 5.695.054-6.139 6.12-6.138 6.119-2.496-2.48c-2.177-2.164-2.557-2.497-2.975-2.609-.525-.14-1.159-.079-1.602.156-.156.084-4.598 4.473-9.87 9.755-9.375 9.392-9.587 9.614-9.693 10.128-.205.999.246 1.96 1.113 2.372.455.216 1.365.213 1.802-.005.19-.095 4.24-4.062 9-8.817l8.656-8.644 2.364 2.377c1.484 1.491 2.525 2.451 2.795 2.578a2.01 2.01 0 001.63.044c.256-.107 2.76-2.508 7.415-7.109l7.028-6.947v5.308c.001 3.372.043 5.456.114 5.714.132.475.643 1.094 1.097 1.329.835.432 2.053.084 2.631-.75l.298-.429.029-8.4.03-8.401-.253-.479a2.115 2.115 0 00-.774-.8l-.52-.323-8.127-.018c-4.753-.01-8.301.024-8.549.083z"/></symbol><symbol viewBox="0 0 30 30" id="instagram" xmlns="http://www.w3.org/2000/svg"><path fill-rule="evenodd" clip-rule="evenodd" d="M11.235 5.033c-2.026.07-3.284.483-4.33 1.42-1.083.968-1.595 2.056-1.837 3.901-.06.466-.068.942-.068 4.547 0 4.216.008 4.473.178 5.417.223 1.238.662 2.138 1.432 2.932.933.963 1.984 1.437 3.69 1.664.41.054 1.008.067 3.828.081 5.041.025 6.055-.039 7.251-.46 1.931-.678 3.141-2.256 3.477-4.532.111-.75.149-2.514.126-5.883-.021-3.25-.037-3.639-.185-4.476-.31-1.763-1.266-3.137-2.688-3.865-.973-.497-1.84-.684-3.486-.749-1.051-.041-6.188-.04-7.388.003zm7.408 1.797c1.183.077 1.9.234 2.582.565 1.068.518 1.637 1.42 1.838 2.912.133.987.171 7.334.053 8.741-.141 1.675-.513 2.545-1.386 3.24-.625.499-1.385.734-2.714.84-.672.053-7.117.054-7.918 0-1.608-.106-2.418-.382-3.142-1.07-.623-.594-.967-1.393-1.123-2.608-.057-.448-.068-.987-.078-3.806-.014-4.214.025-5.115.264-6.059.46-1.817 1.629-2.634 3.942-2.754.853-.044 7.01-.045 7.682-.001zm1.481 1.642a1.22 1.22 0 00-.868.641c-.09.172-.105.245-.105.55 0 .317.011.373.115.56.22.396.542.596 1.003.624.263.016.325.005.54-.09a1.2 1.2 0 00.719-1.134c-.006-.71-.713-1.29-1.404-1.151zm-5.566 1.392c-2.156.201-4.006 1.754-4.534 3.806a4.747 4.747 0 00-.16 1.348 4.958 4.958 0 001.437 3.541 5.054 5.054 0 004.1 1.555 5.142 5.142 0 004.477-3.524c.341-1.044.33-2.275-.028-3.281a5.188 5.188 0 00-3.911-3.367c-.332-.063-1.085-.106-1.381-.078zm1.327 1.93a3.41 3.41 0 012.315 2.328c.118.415.127 1.262.018 1.678a3.336 3.336 0 01-4.45 2.282c-1.307-.504-2.17-1.85-2.09-3.259.084-1.49 1.155-2.757 2.6-3.072.449-.099 1.181-.08 1.607.042z"/></symbol><symbol viewBox="0 0 30 30" id="mouse" xmlns="http://www.w3.org/2000/svg"><path d="M15 1.875a8.447 8.447 0 00-8.438 8.438v9.374a8.437 8.437 0 1016.875 0v-9.375A8.447 8.447 0 0015 1.876zm6.563 17.813a6.563 6.563 0 11-13.125 0v-9.375a6.563 6.563 0 0113.124 0v9.374z"/><path d="M15 7.5a.937.937 0 00-.938.938v3.75a.938.938 0 001.876 0v-3.75A.938.938 0 0015 7.5z"/></symbol><symbol viewBox="0 0 60 60" id="partnership" xmlns="http://www.w3.org/2000/svg"><path fill-rule="evenodd" clip-rule="evenodd" d="M42.308 3.985c-.159.063-1.582 1.429-3.164 3.035-1.741 1.768-2.99 2.945-3.167 2.987-.162.037-2.968.052-6.237.033l-5.945-.033-2.845-2.829c-1.564-1.555-3.013-2.913-3.22-3.017-.464-.234-1.117-.243-1.535-.021-.28.15-12.875 12.716-15.174 15.14l-.904.954v.75c0 .499.064.845.193 1.038.106.16 1.29 1.397 2.63 2.75 2.836 2.864 2.981 3.09 3.163 4.949.165 1.669.318 2.325.786 3.353.41.898.414.925.215 1.23-.737 1.129-1.1 2.72-.897 3.938.367 2.208 2.132 4.02 4.321 4.435.663.126.722.162.722.44 0 .456.313 1.42.664 2.049.663 1.185 2.267 2.395 3.421 2.58.944.15.902.115 1.047.892.358 1.925 1.79 3.504 3.757 4.142.484.157.873.19 1.7.142.589-.033 1.177-.094 1.306-.135.195-.062.292.04.582.604.491.958 1.443 1.853 2.508 2.359.752.357 1.03.425 1.915.467 1.186.056 1.822-.08 2.835-.608.812-.424 2.408-1.953 2.762-2.646.133-.262.273-.476.31-.476.037 0 .371.188.742.417.371.229.96.493 1.307.586.776.21 2.124.233 2.814.05 1.926-.512 3.513-2.231 3.89-4.213l.13-.686.65-.128c2.235-.44 3.986-2.245 4.32-4.453l.078-.517.755-.154a5.456 5.456 0 003.462-2.383c1.098-1.74 1.093-4.117-.012-5.787-.297-.45-.301-.478-.111-.77.87-1.33 1.526-3.279 1.65-4.9.135-1.776-.084-1.445 3.041-4.6 1.565-1.58 2.932-3.04 3.036-3.247.26-.512.239-1.185-.054-1.666-.316-.519-15.534-15.8-15.95-16.017-.362-.188-1.07-.204-1.497-.034zm7.057 10.504c3.464 3.464 6.3 6.347 6.3 6.407 0 .06-1.003 1.123-2.228 2.363-1.984 2.007-2.273 2.35-2.646 3.135-.366.77-.44 1.085-.585 2.467-.157 1.5-.432 2.56-.79 3.05-.138.189-.55-.195-4.335-4.038-2.3-2.336-4.183-4.28-4.183-4.323 0-.041.28-.245.621-.452 1.183-.716 3.065-2.855 3.485-3.96a1.751 1.751 0 00-1.645-2.392c-.737 0-1.175.31-1.798 1.273-1.293 2-3.064 3.083-5.322 3.257-1.147.088-2.016-.074-3.424-.64-.832-.334-1.194-.41-2.17-.46-1.936-.097-3.055.383-4.803 2.062-1.29 1.237-2.479 1.773-3.938 1.773-.578 0-1.63-.226-1.63-.35 0-.053 1.794-2.25 3.988-4.883 2.731-3.277 4.09-4.82 4.307-4.89.175-.057 2.005-.143 4.068-.19 5.11-.116 4.947-.05 8.144-3.29 1.193-1.207 2.194-2.2 2.227-2.207.031-.006 2.892 2.824 6.357 6.288zm-30.033-3.914c2.38 2.357 2.809 2.672 4.015 2.943l.564.127-4 4.8c-2.2 2.641-4.047 4.924-4.104 5.074-.427 1.124.24 2.083 2.133 3.068 1.243.647 2.463.947 3.88.953 2.551.013 4.445-.753 6.31-2.55 1.523-1.469 1.942-1.578 3.603-.936 1.52.587 2.588.794 4.066.79l1.287-.002 6.037 6.104c3.32 3.357 6.101 6.216 6.18 6.352.078.136.144.517.146.846.01 1.367-1.344 2.205-2.55 1.578-.239-.124-1.225-1.024-2.192-2-.967-.976-1.9-1.85-2.074-1.942-1.281-.68-2.82.639-2.431 2.082.109.406.48.845 2.103 2.494 1.636 1.66 1.985 2.075 2.053 2.437.234 1.243-.546 2.214-1.78 2.214-.285 0-.643-.082-.796-.181-.152-.1-1.006-.927-1.898-1.838-.892-.911-1.771-1.764-1.953-1.894-1.34-.958-3.139.139-2.84 1.73.067.36.424.79 2.025 2.443 2.364 2.439 2.55 2.795 2.025 3.88a1.753 1.753 0 01-2.19.874c-.181-.068-1.174-.956-2.205-1.974-2.588-2.554-3.039-2.87-4.54-3.174-.591-.12-.682-.175-.737-.45-.154-.766-.457-1.643-.73-2.112-.386-.661-1.364-1.62-1.96-1.92a7.68 7.68 0 01-.508-.27c-.021-.019.053-.21.164-.425.313-.605.515-1.493.517-2.272.007-3.796-3.93-6.45-7.373-4.968-.331.142-.617.238-.635.213a46.974 46.974 0 01-.418-.66c-.995-1.585-2.614-2.486-4.471-2.49-1.414-.001-2.367.352-3.532 1.31l-.552.453-.11-.442c-.061-.244-.145-.89-.186-1.436-.104-1.367-.242-1.88-.855-3.162-.5-1.047-.638-1.219-2.506-3.115-1.088-1.103-1.978-2.054-1.978-2.113 0-.107 12.546-12.706 12.652-12.706.03 0 1.085 1.02 2.344 2.267zm-4.645 22.62c.503.21.988.798 1.085 1.319.154.822-.104 1.27-1.622 2.818-1.863 1.9-2.413 2.17-3.427 1.679-.82-.397-1.206-1.415-.873-2.307.157-.421 2.985-3.29 3.45-3.501.455-.206.909-.209 1.387-.009zm7.814 2.681c.648.44.879.849.872 1.54-.004.434-.079.714-.256.958-.137.19-1.488 1.578-3.002 3.087l-2.752 2.744-.635.052c-1.292.108-2.152-.86-1.91-2.151.068-.358.53-.89 2.777-3.198 1.482-1.523 2.89-2.887 3.126-3.031.569-.347 1.271-.347 1.78 0zm2.456 7.617c.32.164.595.419.728.672.255.488.277 1.298.047 1.736-.091.174-.869 1.011-1.728 1.86-1.295 1.278-1.64 1.556-2.013 1.626-.95.177-1.964-.496-2.137-1.42-.153-.817.097-1.254 1.608-2.807 1.888-1.94 2.445-2.205 3.495-1.667zm5.317 5.244c.84.737.896 1.835.14 2.758-.666.812-1.272 1.168-1.988 1.168-1.035 0-1.707-.715-1.707-1.818 0-.616.2-.984.899-1.653.744-.712.92-.798 1.646-.803.514-.003.674.052 1.01.348z"/></symbol><symbol viewBox="0 0 24 24" id="telegram" xmlns="http://www.w3.org/2000/svg"><path d="M4.02 10.892l15.608-6.018c.724-.262 1.357.176 1.122 1.272l.002-.002-2.658 12.52c-.197.889-.724 1.104-1.462.686l-4.048-2.983-1.951 1.881c-.216.216-.398.398-.817.398l.288-4.119 7.5-6.776c.327-.287-.072-.449-.503-.163l-9.27 5.836-3.995-1.247c-.867-.275-.886-.867.184-1.285z"/></symbol><symbol viewBox="0 0 60 60" id="trophy" xmlns="http://www.w3.org/2000/svg"><g clip-path="url(#pa)"><path fill-rule="evenodd" clip-rule="evenodd" d="M10.313.217c-.239.129-.514.425-.672.722-.235.446-.266.672-.266 1.95v1.447H5.29c-4.052 0-4.088.002-4.483.266C.154 5.039 0 5.493 0 6.986c0 2.509.552 6.73 1.239 9.465 1.125 4.484 3 8.552 5.434 11.794 3.389 4.513 7.386 7.075 12.077 7.74l.996.142 1.058 1.009c.582.554 1.44 1.268 1.905 1.586l.846.577v7.66l-2.022.066c-1.399.046-2.22.128-2.666.264-2.122.652-3.707 2.155-4.432 4.203-.26.736-.3 1.072-.348 2.912-.051 1.98-.065 2.08-.287 2.08-.128 0-.438.116-.689.256-.48.27-.924.992-.924 1.502s.445 1.232.924 1.502l.456.256h32.866l.455-.256c.48-.27.924-.992.924-1.502s-.444-1.232-.924-1.502c-.25-.14-.56-.256-.688-.256-.223 0-.236-.1-.287-2.08-.048-1.84-.088-2.176-.349-2.912-.725-2.048-2.31-3.551-4.431-4.203-.446-.136-1.268-.218-2.666-.264l-2.022-.067V39.3l.846-.577c.465-.318 1.322-1.032 1.904-1.586l1.059-1.01.996-.14c4.69-.666 8.688-3.228 12.076-7.741 2.435-3.242 4.31-7.31 5.435-11.794.687-2.735 1.239-6.956 1.238-9.465 0-1.493-.154-1.947-.808-2.384-.395-.264-.431-.266-4.482-.266h-4.084V2.889c0-1.278-.031-1.504-.267-1.95-.157-.297-.433-.593-.672-.722C49.296.008 48.556 0 30 0S10.704.008 10.313.217zm36.631 4.969c-.4 8.326-2.103 15.793-4.97 21.796-1.592 3.338-3.089 5.516-5.132 7.472-3.794 3.633-7.89 4.134-11.942 1.46-.385-.254-1.17-.911-1.742-1.46-2.044-1.956-3.54-4.134-5.133-7.472-2.866-6.003-4.569-13.47-4.97-21.796l-.08-1.67h34.05l-.08 1.67zM9.653 8.29c.035.242.096.782.135 1.201.496 5.328 1.95 11.621 3.71 16.055.65 1.638 1.95 4.39 2.59 5.482l.421.718-.307-.117c-1.489-.566-3.235-1.78-4.78-3.326-4.325-4.322-7.25-11.579-7.744-19.21l-.08-1.242h5.991l.064.439zm46.668.802c-.493 7.632-3.418 14.889-7.743 19.211-1.546 1.545-3.292 2.76-4.78 3.326l-.308.117.42-.718c.64-1.092 1.941-3.844 2.592-5.482 1.76-4.434 3.214-10.727 3.71-16.055.039-.419.1-.96.135-1.201l.064-.44h5.99l-.08 1.242zM30 41.143c.741 0 1.703-.074 2.138-.166l.791-.167v6.182H27.07V40.81l.791.167c.435.092 1.398.167 2.139.167zm10.605 9.761c.704.333 1.135.77 1.456 1.479.206.455.239.77.24 2.314l.003 1.787H17.695l.003-1.787c.002-1.543.035-1.859.24-2.314.322-.708.752-1.146 1.456-1.479l.586-.277h20.04l.585.277z"/></g><defs><clipPath id="pa"><path d="M0 0h60v60H0z"/></clipPath></defs></symbol><symbol viewBox="0 0 16 16" id="viber" xmlns="http://www.w3.org/2000/svg"><path d="M8 1.335c-1.071.013-3.374.19-4.662 1.37-.958.948-1.292 2.35-1.331 4.084-.033 1.728-.072 4.973 3.058 5.856v1.346s-.02.538.337.648c.438.14.688-.275 1.105-.72l.778-.879c2.142.178 3.782-.232 3.97-.293.435-.139 2.883-.451 3.283-3.696.41-3.351-.2-5.463-1.301-6.418h-.007c-.332-.306-1.668-1.279-4.652-1.29 0 0-.222-.014-.578-.008zm.037.942a7.02 7.02 0 01.488.011c2.527.007 3.732.767 4.017 1.023.927.794 1.405 2.697 1.055 5.495-.332 2.713-2.317 2.885-2.685 3.002-.156.05-1.6.406-3.42.289 0 0-1.356 1.634-1.78 2.055-.067.074-.146.095-.196.085-.071-.018-.093-.107-.089-.229l.013-2.233c-2.655-.733-2.498-3.5-2.47-4.946.033-1.446.304-2.628 1.113-3.43 1.088-.982 3.043-1.115 3.953-1.122zm.2 1.446a.166.166 0 100 .332 3.136 3.136 0 012.242.883c.606.588.9 1.378.912 2.411 0 .092.074.167.167.167V7.51a.167.167 0 00.168-.165 3.588 3.588 0 00-1.009-2.646c-.66-.645-1.496-.977-2.48-.977zm-2.198.382a.523.523 0 00-.342.067H5.69a2.61 2.61 0 00-.637.523 1.003 1.003 0 00-.256.525.71.71 0 00.026.302l.01.006c.172.504.396.988.67 1.444a8.48 8.48 0 001.29 1.762l.015.022.024.017.015.018.017.015c.532.505 1.127.94 1.769 1.295.734.4 1.18.588 1.447.667v.004c.078.024.15.034.221.034.228-.016.444-.109.613-.262a2.53 2.53 0 00.517-.638v-.004c.128-.241.085-.469-.1-.623-.37-.323-.77-.61-1.195-.857-.285-.155-.574-.061-.69.095l-.25.315c-.129.156-.361.134-.361.134l-.007.004C7.093 8.527 6.63 6.772 6.63 6.772s-.022-.239.139-.36l.312-.252c.15-.122.254-.41.094-.695a7.498 7.498 0 00-.856-1.194.475.475 0 00-.28-.167zm2.486.495c-.221 0-.221.334.003.334A2.098 2.098 0 0110 5.572 1.94 1.94 0 0110.5 7a.168.168 0 00.167.165l.007.009a.169.169 0 00.167-.167c.015-.662-.191-1.218-.595-1.663C9.84 4.9 9.273 4.65 8.549 4.6h-.024zm.274.898c-.228-.006-.236.335-.01.341.55.029.816.306.851.877a.166.166 0 00.165.163h.007a.168.168 0 00.16-.178c-.039-.744-.445-1.164-1.166-1.202H8.8z"/></symbol><symbol viewBox="0 0 24 24" id="vk" xmlns="http://www.w3.org/2000/svg"><path d="M21.579 6.855c.14-.465 0-.806-.662-.806h-2.193c-.558 0-.813.295-.953.619 0 0-1.115 2.719-2.695 4.482-.51.513-.743.675-1.021.675-.139 0-.341-.162-.341-.627V6.855c0-.558-.161-.806-.626-.806H9.642c-.348 0-.558.258-.558.504 0 .528.79.65.871 2.138v3.228c0 .707-.127.836-.407.836-.743 0-2.551-2.73-3.624-5.853-.209-.607-.42-.852-.98-.852H2.752c-.627 0-.752.295-.752.619 0 .582.743 3.462 3.461 7.27 1.812 2.602 4.363 4.012 6.687 4.012 1.393 0 1.565-.313 1.565-.853v-1.966c0-.626.133-.752.574-.752.324 0 .882.164 2.183 1.417 1.486 1.486 1.732 2.153 2.567 2.153h2.192c.626 0 .939-.313.759-.931-.197-.615-.907-1.51-1.849-2.57-.512-.603-1.277-1.253-1.51-1.578-.325-.42-.231-.604 0-.976.001 0 2.672-3.761 2.95-5.04z"/></symbol><symbol viewBox="0 0 16 16" id="whatsapp" xmlns="http://www.w3.org/2000/svg"><path fill-rule="evenodd" clip-rule="evenodd" d="M12.269 3.755A5.947 5.947 0 008.035 2 5.994 5.994 0 002.05 7.985a5.98 5.98 0 00.799 2.992L2 14.077l3.173-.832c.877.477 1.86.728 2.86.728h.002a5.993 5.993 0 005.533-8.276 5.953 5.953 0 00-1.3-1.942zm-4.234 9.208h-.002c-.89 0-1.765-.24-2.532-.694l-.181-.108-1.883.494.502-1.835-.118-.188a4.965 4.965 0 01-.76-2.647 4.982 4.982 0 016.88-4.597c.604.25 1.152.618 1.613 1.081a4.946 4.946 0 011.455 3.52 4.982 4.982 0 01-4.974 4.974zm2.729-3.726c-.15-.075-.885-.436-1.022-.486-.137-.05-.236-.075-.336.074-.1.15-.387.486-.474.586-.087.1-.175.112-.324.038-.15-.075-.631-.233-1.203-.742a4.505 4.505 0 01-.832-1.036c-.087-.15-.009-.231.066-.306.068-.066.15-.174.224-.262.075-.087.1-.149.15-.249.05-.1.025-.187-.013-.262-.037-.075-.337-.811-.461-1.11-.121-.29-.244-.252-.336-.256a6.418 6.418 0 00-.286-.005.55.55 0 00-.4.186c-.137.15-.523.512-.523 1.248s.536 1.447.61 1.547c.075.1 1.055 1.61 2.555 2.258.358.154.636.246.853.315.358.114.684.098.942.06.287-.043.885-.362 1.01-.711.124-.35.124-.649.087-.711-.038-.063-.138-.101-.287-.176z"/></symbol></svg>