<?xml version="1.0" encoding="utf-8"?><svg xmlns="http://www.w3.org/2000/svg" xmlns:xlink="http://www.w3.org/1999/xlink"><symbol viewBox="0 0 20 20" id="arrow-right" xmlns="http://www.w3.org/2000/svg"><path d="M15.707 10.707a1 1 0 000-1.414L9.343 2.929A1 1 0 007.93 4.343L13.586 10l-5.657 5.657a1 1 0 101.414 1.414l6.364-6.364zM14 11h1V9h-1v2z"/></symbol><symbol viewBox="0 0 60 60" id="bag" xmlns="http://www.w3.org/2000/svg"><path fill-rule="evenodd" clip-rule="evenodd" d="M22.505 3.955c-1.37.275-2.781 1.46-3.3 2.77-.25.633-.271.884-.313 3.75l-.045 3.07-7.05.037c-6.97.036-7.059.04-7.745.299-1.97.744-3.514 2.498-3.923 4.456C.04 18.773 0 23.705 0 34.865 0 48.763.023 50.86.18 51.471c.578 2.253 2.358 3.978 4.595 4.452 1.187.252 49.263.252 50.45 0 2.237-.474 4.017-2.199 4.596-4.452.156-.61.179-2.708.179-16.606 0-11.16-.039-16.092-.13-16.528-.206-.99-.765-2.032-1.525-2.845-.759-.81-1.376-1.223-2.423-1.62-.653-.248-.823-.254-7.719-.29l-7.05-.036-.045-3.071c-.042-2.895-.06-3.112-.322-3.775-.381-.97-1.547-2.138-2.524-2.53l-.703-.282-7.266-.02c-3.996-.01-7.5.03-7.788.087zM37.051 7.89c.196.178.215.429.215 2.93v2.736H22.734V10.84c0-2.363.026-2.744.194-2.93.184-.203.557-.215 7.052-.215 6.216 0 6.877.019 7.071.194zm18.021 9.778c.24.135.577.462.749.727.31.479.312.493.312 2.73 0 1.913-.035 2.363-.233 3.003-.468 1.515-1.692 2.938-3.09 3.593-.638.299-19.437 5.84-21.31 6.282-.931.22-2.06.222-2.965.007-.387-.091-3.524-.989-6.973-1.993a5335.36 5335.36 0 00-9.96-2.892c-2.03-.586-4.016-1.217-4.411-1.403-1.4-.657-2.623-2.08-3.091-3.594-.198-.64-.233-1.09-.233-2.98 0-2.55.082-2.836.972-3.413l.481-.312h49.316l.436.245zM6.12 31.422c.405.16 4.006 1.246 8.002 2.412 14.437 4.216 14.829 4.314 16.582 4.155 1.378-.126 1.741-.226 17.402-4.802 5.317-1.554 5.427-1.588 6.134-1.9.345-.152.911-.46 1.26-.682l.634-.406v10.259c0 8.602-.027 10.309-.166 10.574-.221.425-.756.918-1.16 1.071-.464.175-49.15.175-49.614 0-.404-.153-.939-.646-1.16-1.07-.14-.266-.166-1.972-.166-10.57V30.212l.758.46a11.8 11.8 0 001.494.751z"/></symbol><symbol viewBox="0 0 60 60" id="bank" xmlns="http://www.w3.org/2000/svg"><g clip-path="url(#aca)"><path fill-rule="evenodd" clip-rule="evenodd" d="M15.024 7.295C-1.242 15.49.023 14.742.023 16.167c0 2.086 1.288 4.899 3.348 7.313.447.524.948.985 1.173 1.079.239.1.81.164 1.452.164h1.058V49.45H5.996c-.643 0-1.213.064-1.452.164-.225.094-.728.557-1.178 1.084-2.128 2.493-3.436 5.42-3.322 7.436.051.914.283 1.33.925 1.657.38.194 2.007.205 29.054.205 27.047 0 28.675-.011 29.054-.205.641-.327.874-.743.925-1.657.114-2.016-1.194-4.943-3.322-7.436-.45-.527-.953-.99-1.178-1.084-.239-.1-.81-.164-1.452-.164h-1.058V24.723h1.058c.639 0 1.213-.064 1.448-.163.448-.187 1.542-1.414 2.417-2.71 1.99-2.948 2.699-6.224 1.563-7.22-.12-.105-6.682-3.44-14.583-7.412C32.301.888 30.465-.002 30.012 0c-.447.003-2.47.988-14.988 7.295zm25.333 1.637l10.295 5.186-10.315.03c-5.673.016-14.949.016-20.614 0l-10.3-.03 10.27-5.183c5.65-2.85 10.293-5.184 10.32-5.185.026-.002 4.681 2.33 10.344 5.182zm15.68 8.906c-.003.248-.925 1.863-1.502 2.634l-.547.73H6.058l-.547-.73c-.578-.77-1.5-2.386-1.502-2.634-.001-.116 5.279-.146 26.014-.146s26.015.03 26.014.146zM14.085 37.086V49.45H10.57V24.723h3.515v12.364zm10.665 0V49.45H17.6V24.723h7.149v12.364zm7.03 0V49.45h-3.514V24.723h3.516v12.364zm10.665 0V49.45h-7.149V24.723h7.149v12.364zm7.031 0V49.45H45.96V24.723h3.516v12.364zm5.059 16.615c.578.77 1.5 2.386 1.502 2.633.001.117-5.292.147-26.082.147H3.87l.545-1.025c.3-.564.792-1.354 1.093-1.755l.55-.73h47.929l.547.73z"/></g><defs><clipPath id="aca"><path d="M0 0h60v60H0z"/></clipPath></defs></symbol><symbol viewBox="0 0 22 24" id="basket" xmlns="http://www.w3.org/2000/svg"><g clip-path="url(#ada)"><path d="M10.363 18.443a2.046 2.046 0 00-2.045 2.042 2.046 2.046 0 004.09 0 2.046 2.046 0 00-2.045-2.042zm6.134 0a2.046 2.046 0 00-2.045 2.042 2.046 2.046 0 004.089 0 2.046 2.046 0 00-2.044-2.042zm3.978-8.199L7.413 6.891a.614.614 0 00-.75.73L8.67 16.4h-.786L5.482 5.895a.613.613 0 00-.474-.464l-4.27-.882A.614.614 0 00.489 5.75l3.885.802L6.797 17.15a.613.613 0 00.598.477h12.07a.615.615 0 00.607-.53l.858-6.175a.613.613 0 00-.455-.678zm-8.14 3.91a.613.613 0 01-1.227 0v-2.696a.613.613 0 011.227 0v2.696zm2.625 0a.613.613 0 01-1.227 0v-1.88a.613.613 0 011.227 0v1.88zm2.625 0a.613.613 0 01-1.227 0v-1.226a.613.613 0 011.227 0v1.226z"/></g><path fill-rule="evenodd" clip-rule="evenodd" d="M16.268 4.568a2.996 2.996 0 00-1.693-.523c-.627 0-1.21.193-1.693.523-.28-.843-.492-1.752-.492-2.383C12.39.98 13.37 0 14.575 0s2.185.98 2.185 2.185c0 .631-.212 1.54-.492 2.383zm-4.722 2.274l.024.006v-.011l-.024.005zm4.972 1.217c-1.333-.33-2.766-.681-4.129-1.013a2.185 2.185 0 114.129 1.013zm4.436 1.103c-.866-.217-2.155-.538-3.618-.9a2.995 2.995 0 00.243-1.425c.87.18 1.762.45 2.308.765.596.344.969.928 1.067 1.56zM9.869 6.439c-.36-.086-.706-.167-1.03-.243a2.19 2.19 0 01-.376-2.667 2.188 2.188 0 013.147-.7c.098.738.338 1.599.61 2.353a3.01 3.01 0 00-.449.774c-.628.113-1.305.278-1.902.483zm10.124.075a3.43 3.43 0 01-.217.114c-.696-.295-1.587-.526-2.397-.672a3.01 3.01 0 00-.449-.774c.262-.727.494-1.553.599-2.273.095-.067.189-.128.278-.18a2.188 2.188 0 012.986.8 2.188 2.188 0 01-.8 2.985z"/><defs><clipPath id="ada"><path transform="translate(0 3.064)" d="M0 0h20.936v20.936H0z"/></clipPath></defs></symbol><symbol viewBox="0 0 344.96 344.96" id="check" xmlns="http://www.w3.org/2000/svg"><g data-name="Слой 2"><path class="aecls-1" d="M321.85 86.24l-40-23.11-23.1-40H212.5L172.48 0l-40 23.11H86.24l-23.11 40-40 23.1v46.21L0 172.48l23.11 40v46.21l40 23.11 23.11 40h46.21l40 23.1 40-23.11h46.21l23.11-40 40-23.11V212.5l23.11-40-23.11-40V86.24zM156.91 243.07a16.79 16.79 0 01-23.34 0l-50.45-50.44a16.19 16.19 0 010-22.89l13.35-13.35a16.19 16.19 0 0122.89 0l25.87 25.87 80.34-80.35a16.19 16.19 0 0122.89 0l13.35 13.35a16.19 16.19 0 010 22.89z" data-name="Capa 1"/></g></symbol><symbol viewBox="0 0 20 20" id="chevron-left" xmlns="http://www.w3.org/2000/svg"><path d="M5.293 10.707a1 1 0 010-1.414l6.364-6.364a1 1 0 111.414 1.414L7.414 10l5.657 5.657a1 1 0 01-1.414 1.414l-6.364-6.364zM7 11H6V9h1v2z"/></symbol><symbol viewBox="0 0 20 20" id="chevron-right" xmlns="http://www.w3.org/2000/svg"><path d="M15.707 10.707a1 1 0 000-1.414L9.343 2.929A1 1 0 007.93 4.343L13.586 10l-5.657 5.657a1 1 0 101.414 1.414l6.364-6.364zM14 11h1V9h-1v2z"/></symbol><symbol viewBox="0 0 60 60" id="diagram" xmlns="http://www.w3.org/2000/svg"><g clip-path="url(#aha)"><path fill-rule="evenodd" clip-rule="evenodd" d="M49.342 1.497c-2.997.815-5.575 1.57-5.73 1.678-.73.512-.952 1.636-.478 2.414.233.383 1.01.835 1.443.84.118.002 1.785-.419 3.703-.935 1.92-.515 3.527-.937 3.574-.937.177 0-1.55 2.647-2.966 4.543-7.146 9.577-18.218 17.682-29.977 21.946-5.272 1.912-11.766 3.16-16.442 3.16-.835 0-1.111.048-1.524.266-1.454.77-1.174 2.778.454 3.245.504.145 4.21-.052 6.517-.345 11.592-1.476 23.443-6.907 33.575-15.386 5.134-4.297 10.031-9.856 12.948-14.698l.393-.653.121.455c1.223 4.601 1.693 6.215 1.89 6.49.3.423 1.144.757 1.664.659.882-.167 1.5-.873 1.5-1.715 0-.548-2.914-11.356-3.179-11.793-.284-.466-.873-.748-1.527-.73-.28.008-2.962.68-5.959 1.496zm-1.816 18.808c-.704.333-1.135.77-1.456 1.479-.236.522-.238.677-.24 17.607l-.003 17.08H42.31l-.003-11.22c-.002-11.036-.006-11.23-.24-11.749-.321-.708-.752-1.145-1.456-1.478-.569-.269-.675-.277-3.575-.276-2.753.002-3.03.02-3.515.24-.708.32-1.146.752-1.479 1.456l-.277.586v11.22l-.002 11.221h-3.516v-7.998l-.002-7.998-.277-.586c-.333-.704-.77-1.135-1.478-1.455-.486-.22-.762-.24-3.516-.24-2.9-.002-3.006.006-3.574.275-.704.333-1.135.77-1.456 1.479-.232.514-.238.732-.24 8.525l-.003 7.998h-3.516l-.003-5.889c-.002-5.67-.011-5.908-.24-6.416-.321-.708-.752-1.145-1.456-1.478-.569-.269-.676-.277-3.574-.277-2.899 0-3.006.008-3.575.277-.704.333-1.135.77-1.455 1.478-.23.508-.239.746-.241 6.416l-.003 5.889H2.497c-1.79 0-2.432.464-2.432 1.758 0 .795.246 1.226.887 1.552.38.194 2.007.205 29.054.205 27.047 0 28.675-.011 29.054-.205.642-.326.888-.757.888-1.552 0-1.294-.642-1.758-2.432-1.758h-1.142l-.002-17.08V22.31l-.278-.586c-.333-.704-.77-1.135-1.478-1.455-.486-.22-.762-.24-3.516-.24-2.9-.002-3.006.006-3.574.275zm5.332 19.701v16.465h-3.516v-32.93h3.516v16.465zm-14.063 5.86V56.47H35.28V35.26h3.515v10.606zm-14.062 3.222v7.383h-3.516V41.705h3.516v7.383zm-14.063 2.11v5.273H7.155V45.924h3.515v5.274z"/></g><defs><clipPath id="aha"><path d="M0 0h60v60H0z"/></clipPath></defs></symbol><symbol viewBox="0 0 24 24" id="fb" xmlns="http://www.w3.org/2000/svg"><path fill-rule="evenodd" clip-rule="evenodd" d="M13.287 2.532c-1.692.346-2.81 1.342-3.307 2.946-.183.588-.232 1.123-.232 2.526v1.324H8.47c-1.414.002-1.475.012-1.568.283-.078.227-.078 3.144 0 3.373.087.255.207.276 1.615.279l1.23.003v8.057l.114.131.113.132 1.68.014c1.81.016 1.978 0 2.07-.203.04-.089.055-1.183.055-4.147v-4.028l1.568-.013c1.433-.012 1.576-.021 1.653-.097.077-.078.083-.217.083-1.839V9.518l-.106-.107c-.107-.106-.115-.106-1.657-.12l-1.55-.013.017-1.252c.017-1.347.028-1.41.285-1.654.197-.186.31-.202 1.621-.229l1.281-.026.113-.131.114-.132V2.668l-.116-.115-.114-.115-1.632.003c-1.39.004-1.693.017-2.053.09z"/></symbol><symbol viewBox="0 0 60 60" id="flag" xmlns="http://www.w3.org/2000/svg"><path fill-rule="evenodd" clip-rule="evenodd" d="M6.3.216c-.268.141-.53.41-.674.693-.234.46-.235.641-.235 29.065 0 28.436.001 28.606.236 29.066.265.52.94.934 1.521.934.582 0 1.257-.414 1.522-.934.233-.456.236-.664.236-13.885V31.732H22.97v2.24c0 2.551.096 2.898.938 3.371l.441.248H38.78c14.12 0 14.442-.005 14.884-.23.587-.3 1.006-1.106.903-1.74-.039-.237-1.069-2.924-2.288-5.97l-2.218-5.536 2.218-5.537c1.22-3.046 2.25-5.732 2.288-5.97.103-.633-.316-1.44-.903-1.74-.439-.223-.742-.23-10.886-.23H32.344V8.407c0-2.59-.104-2.969-.935-3.392-.453-.232-.669-.236-11.482-.236H8.907V3.075c0-1.477-.032-1.766-.237-2.166C8.238.06 7.18-.248 6.3.216zm22.528 18.04v9.96H8.906V8.294h19.922v9.961zm19.5.702c-1.057 2.643-1.922 4.963-1.922 5.157 0 .194.865 2.514 1.923 5.156l1.922 4.805H29.015l1.474-1.495c.81-.821 1.56-1.662 1.664-1.869.17-.335.19-1.223.19-8.466v-8.092h17.908l-1.922 4.804z"/></symbol><symbol viewBox="0 0 60 60" id="graphic" xmlns="http://www.w3.org/2000/svg"><path fill-rule="evenodd" clip-rule="evenodd" d="M3.46 5.107c-.612.225-.933.497-1.213 1.027L2 6.601l.028 23.508.027 23.509.296.447c.163.246.501.557.753.69L3.56 55h25.965c25.772 0 25.968-.002 26.33-.215.201-.118.516-.401.7-.628.304-.377.333-.481.333-1.19 0-.89-.221-1.329-.901-1.79l-.39-.263-24.7-.027-24.7-.028-.028-22.174L6.14 6.51l-.285-.485c-.489-.832-1.54-1.234-2.397-.919zm35.372 5.447c-.993.237-1.63 1.15-1.541 2.213.053.64.247.967.88 1.478l.405.33 5.695.053 5.695.054-6.139 6.12-6.138 6.119-2.496-2.48c-2.177-2.164-2.557-2.497-2.975-2.609-.525-.14-1.159-.079-1.602.156-.156.084-4.598 4.473-9.87 9.755-9.375 9.392-9.587 9.614-9.693 10.128-.205.999.246 1.96 1.113 2.372.455.216 1.365.213 1.802-.005.19-.095 4.24-4.062 9-8.817l8.656-8.644 2.364 2.377c1.484 1.491 2.525 2.451 2.795 2.578a2.01 2.01 0 001.63.044c.256-.107 2.76-2.508 7.415-7.109l7.028-6.947v5.308c.001 3.372.043 5.456.114 5.714.132.475.643 1.094 1.097 1.329.835.432 2.053.084 2.631-.75l.298-.429.029-8.4.03-8.401-.253-.479a2.115 2.115 0 00-.774-.8l-.52-.323-8.127-.018c-4.753-.01-8.301.024-8.549.083z"/></symbol><symbol viewBox="0 0 30 30" id="instagram" xmlns="http://www.w3.org/2000/svg"><path fill-rule="evenodd" clip-rule="evenodd" d="M11.235 5.033c-2.026.07-3.284.483-4.33 1.42-1.083.968-1.595 2.056-1.837 3.901-.06.466-.068.942-.068 4.547 0 4.216.008 4.473.178 5.417.223 1.238.662 2.138 1.432 2.932.933.963 1.984 1.437 3.69 1.664.41.054 1.008.067 3.828.081 5.041.025 6.055-.039 7.251-.46 1.931-.678 3.141-2.256 3.477-4.532.111-.75.149-2.514.126-5.883-.021-3.25-.037-3.639-.185-4.476-.31-1.763-1.266-3.137-2.688-3.865-.973-.497-1.84-.684-3.486-.749-1.051-.041-6.188-.04-7.388.003zm7.408 1.797c1.183.077 1.9.234 2.582.565 1.068.518 1.637 1.42 1.838 2.912.133.987.171 7.334.053 8.741-.141 1.675-.513 2.545-1.386 3.24-.625.499-1.385.734-2.714.84-.672.053-7.117.054-7.918 0-1.608-.106-2.418-.382-3.142-1.07-.623-.594-.967-1.393-1.123-2.608-.057-.448-.068-.987-.078-3.806-.014-4.214.025-5.115.264-6.059.46-1.817 1.629-2.634 3.942-2.754.853-.044 7.01-.045 7.682-.001zm1.481 1.642a1.22 1.22 0 00-.868.641c-.09.172-.105.245-.105.55 0 .317.011.373.115.56.22.396.542.596 1.003.624.263.016.325.005.54-.09a1.2 1.2 0 00.719-1.134c-.006-.71-.713-1.29-1.404-1.151zm-5.566 1.392c-2.156.201-4.006 1.754-4.534 3.806a4.747 4.747 0 00-.16 1.348 4.958 4.958 0 001.437 3.541 5.054 5.054 0 004.1 1.555 5.142 5.142 0 004.477-3.524c.341-1.044.33-2.275-.028-3.281a5.188 5.188 0 00-3.911-3.367c-.332-.063-1.085-.106-1.381-.078zm1.327 1.93a3.41 3.41 0 012.315 2.328c.118.415.127 1.262.018 1.678a3.336 3.336 0 01-4.45 2.282c-1.307-.504-2.17-1.85-2.09-3.259.084-1.49 1.155-2.757 2.6-3.072.449-.099 1.181-.08 1.607.042z"/></symbol><symbol viewBox="0 0 60 60" id="invest" xmlns="http://www.w3.org/2000/svg"><g clip-path="url(#ama)"><path fill-rule="evenodd" clip-rule="evenodd" d="M43.214.237c-.495.261-.91.953-.91 1.516 0 .527.415 1.254.852 1.492.293.16.753.221 2.02.266l1.64.059-8.402 8.437-8.403 8.438-2.965-2.946c-1.63-1.62-3.133-3.03-3.339-3.135a1.606 1.606 0 00-1.477-.001c-.486.244-14.298 14.005-14.743 14.689-.407.626-.434 1.152-.09 1.763.458.816 1.453 1.148 2.248.75.206-.103 3.288-3.095 6.848-6.648l6.474-6.46 2.96 2.944c1.628 1.619 3.128 3.028 3.335 3.132.478.241 1 .24 1.476-.002.207-.105 4.473-4.31 9.48-9.346l9.106-9.154.006 1.557c.005 1.322.042 1.628.242 2.02.265.52.94.934 1.522.934.581 0 1.256-.414 1.522-.934.222-.436.236-.685.236-4.339 0-3.654-.014-3.903-.236-4.339a1.615 1.615 0 00-.699-.699c-.437-.222-.68-.235-4.364-.23-3.652.005-3.929.02-4.339.236zm.117 21.328c-.267.142-.53.411-.674.694-.233.457-.235.66-.235 18.4 0 17.748.002 17.945.236 18.402.152.298.4.547.698.699.45.229.678.236 7.855.236 7.177 0 7.406-.007 7.855-.236a1.62 1.62 0 00.698-.699c.233-.457.236-.654.236-18.401 0-17.748-.002-17.944-.236-18.402a1.616 1.616 0 00-.699-.698c-.449-.23-.671-.236-7.879-.231-7.152.005-7.432.013-7.855.236zm13.153 5.032v1.758H45.938v-3.516h10.546v1.758zm0 7.031v1.758H45.938v-3.515h10.546v1.757zm-34.364 2a1.69 1.69 0 00-.673.693c-.232.453-.236.674-.236 11.37 0 10.7.004 10.916.236 11.37.152.298.4.547.698.699.45.229.678.236 7.855.236 7.177 0 7.406-.007 7.855-.236a1.62 1.62 0 00.698-.699c.232-.453.236-.67.236-11.37s-.004-10.917-.236-11.37a1.616 1.616 0 00-.698-.699c-.45-.23-.672-.236-7.88-.23-7.152.004-7.432.013-7.855.236zm13.153 5.032v1.758H24.727v-3.516h10.546v1.758zm21.211 0v1.758H45.938v-3.516h10.546v1.758zm-55.575 2c-.267.14-.53.41-.673.692-.23.449-.236.68-.236 7.855 0 7.177.007 7.405.236 7.854.152.298.4.547.698.699.45.229.678.236 7.855.236 7.177 0 7.406-.007 7.855-.236a1.62 1.62 0 00.698-.699c.23-.449.236-.677.236-7.855 0-7.177-.007-7.405-.236-7.854a1.615 1.615 0 00-.698-.699c-.45-.229-.672-.235-7.88-.23-7.152.005-7.432.013-7.855.236zm13.153 5.03v1.759H3.517v-3.516h10.547v1.758zm21.211 0v1.759H24.727v-3.516h10.546v1.758zm21.211 0v1.759H45.938v-3.516h10.546v1.758zm-42.422 7.032v1.758H3.517v-3.516h10.547v1.758zm21.211 0v1.758H24.727v-3.516h10.546v1.758zm21.211 0v1.758H45.938v-3.516h10.546v1.758z"/></g><defs><clipPath id="ama"><path d="M0 0h60v60H0z"/></clipPath></defs></symbol><symbol viewBox="0 0 60 60" id="money" xmlns="http://www.w3.org/2000/svg"><g clip-path="url(#ana)"><path fill-rule="evenodd" clip-rule="evenodd" d="M.91.238C.641.379.38.648.235.93.002 1.391 0 1.572 0 29.996c0 28.436.001 28.606.236 29.066.152.297.4.546.698.698.46.235.63.236 29.066.236 28.435 0 28.606-.001 29.066-.236.297-.152.546-.4.698-.698.234-.46.236-.642.235-23.465 0-19.694-.025-23.169-.174-24.152A13.459 13.459 0 0050.788.708c-2.225-.745-.972-.711-26.354-.706C1.68.006 1.34.01.909.238zm43.856 8.435c0 4.94.01 5.18.236 5.623.397.78.862.934 2.806.934h1.645v3.516h-1.06c-.83 0-1.159.051-1.521.236-.52.265-.934.94-.934 1.522 0 .581.414 1.256.934 1.522.413.21.689.236 2.581.236 2.466 0 2.86-.113 3.28-.935.217-.425.236-.687.236-3.28V15.23h3.515v10.547H3.516V3.512h41.25v5.16zm5.826-4.284c2.685 1.22 4.738 3.636 5.535 6.512l.225.814h-8.071V3.644l.85.234c.467.128 1.124.358 1.46.511zM7.94 7.269c-.268.141-.53.41-.674.693-.227.446-.236.682-.236 6.683 0 6.002.008 6.236.236 6.682.42.822.814.935 3.28.935 2.466 0 2.86-.113 3.28-.935.298-.586.298-1.06 0-1.647-.357-.7-.915-.934-2.22-.934h-1.06v-8.203h1.06c1.305 0 1.863-.235 2.22-.935.298-.585.298-1.06 0-1.646-.422-.826-.812-.935-3.305-.93-1.901.005-2.192.032-2.581.237zm20.008-.07c-2.246.354-4.416 1.391-5.791 2.768-4.078 4.082-1.997 9.89 4.21 11.75 5.568 1.668 11.615-.677 13.267-5.147.365-.989.365-2.862 0-3.851-1.471-3.98-6.475-6.343-11.686-5.52zm4.518 3.674c1.668.49 3.11 1.489 3.659 2.53.347.66.349 1.82.004 2.475-.369.7-1.336 1.54-2.294 1.993-1.35.637-2.172.811-3.836.811-1.663 0-2.486-.174-3.835-.811-.959-.452-1.927-1.293-2.295-1.993-.343-.651-.343-1.816 0-2.467.684-1.298 2.585-2.398 4.84-2.8.676-.12 3.011.043 3.757.262zM7.031 32.755c0 3.238.015 3.491.236 3.924.42.822.814.934 3.28.934 2.466 0 2.86-.112 3.28-.934.298-.586.298-1.061 0-1.647-.357-.7-.915-.934-2.22-.934h-1.06v-4.805h9.459l.062.967c.034.531.163 1.263.286 1.626 1.34 3.935 6.397 6.348 11.646 5.557 4.48-.675 7.702-3.594 7.932-7.183l.062-.967h9.46v4.805h-1.06c-1.306 0-1.864.235-2.22.934-.3.586-.3 1.061 0 1.647.419.822.813.934 3.28.934 2.465 0 2.86-.112 3.279-.934.22-.433.236-.686.236-3.924v-3.462h3.515v11.836H3.516V29.293H7.03v3.462zM36.4 29.59c.307 1.225-.806 2.801-2.563 3.631-1.35.638-2.172.812-3.836.812-1.663 0-2.486-.174-3.835-.812-1.758-.83-2.87-2.406-2.564-3.63l.075-.3h12.648l.075.3zM7.03 48.106c0 3.238.015 3.492.236 3.924.42.822.814.935 3.28.935 2.466 0 2.86-.113 3.28-.935.298-.585.298-1.06 0-1.646-.357-.7-.915-.935-2.22-.935h-1.06v-4.804h9.459l.062.966c.034.532.163 1.264.286 1.627 1.34 3.934 6.397 6.348 11.646 5.556 4.48-.675 7.702-3.593 7.932-7.183l.062-.966h9.46v4.804h-1.06c-1.306 0-1.864.235-2.22.935-.3.585-.3 1.06 0 1.646.419.822.813.935 3.28.935 2.465 0 2.86-.113 3.279-.935.22-.432.236-.686.236-3.924v-3.462h3.516V56.48H3.516V44.644H7.03v3.462zm29.37-3.163c.307 1.225-.806 2.8-2.563 3.631-1.35.638-2.172.811-3.836.811-1.663 0-2.486-.173-3.835-.811-1.758-.83-2.87-2.406-2.564-3.631l.075-.298h12.648l.075.298z"/></g><defs><clipPath id="ana"><path d="M0 0h60v60H0z"/></clipPath></defs></symbol><symbol viewBox="0 0 30 30" id="mouse" xmlns="http://www.w3.org/2000/svg"><path d="M15 1.875a8.447 8.447 0 00-8.438 8.438v9.374a8.437 8.437 0 1016.875 0v-9.375A8.447 8.447 0 0015 1.876zm6.563 17.813a6.563 6.563 0 11-13.125 0v-9.375a6.563 6.563 0 0113.124 0v9.374z"/><path d="M15 7.5a.937.937 0 00-.938.938v3.75a.938.938 0 001.876 0v-3.75A.938.938 0 0015 7.5z"/></symbol><symbol viewBox="0 0 60 60" id="partnership" xmlns="http://www.w3.org/2000/svg"><path fill-rule="evenodd" clip-rule="evenodd" d="M42.308 3.985c-.159.063-1.582 1.429-3.164 3.035-1.741 1.768-2.99 2.945-3.167 2.987-.162.037-2.968.052-6.237.033l-5.945-.033-2.845-2.829c-1.564-1.555-3.013-2.913-3.22-3.017-.464-.234-1.117-.243-1.535-.021-.28.15-12.875 12.716-15.174 15.14l-.904.954v.75c0 .499.064.845.193 1.038.106.16 1.29 1.397 2.63 2.75 2.836 2.864 2.981 3.09 3.163 4.949.165 1.669.318 2.325.786 3.353.41.898.414.925.215 1.23-.737 1.129-1.1 2.72-.897 3.938.367 2.208 2.132 4.02 4.321 4.435.663.126.722.162.722.44 0 .456.313 1.42.664 2.049.663 1.185 2.267 2.395 3.421 2.58.944.15.902.115 1.047.892.358 1.925 1.79 3.504 3.757 4.142.484.157.873.19 1.7.142.589-.033 1.177-.094 1.306-.135.195-.062.292.04.582.604.491.958 1.443 1.853 2.508 2.359.752.357 1.03.425 1.915.467 1.186.056 1.822-.08 2.835-.608.812-.424 2.408-1.953 2.762-2.646.133-.262.273-.476.31-.476.037 0 .371.188.742.417.371.229.96.493 1.307.586.776.21 2.124.233 2.814.05 1.926-.512 3.513-2.231 3.89-4.213l.13-.686.65-.128c2.235-.44 3.986-2.245 4.32-4.453l.078-.517.755-.154a5.456 5.456 0 003.462-2.383c1.098-1.74 1.093-4.117-.012-5.787-.297-.45-.301-.478-.111-.77.87-1.33 1.526-3.279 1.65-4.9.135-1.776-.084-1.445 3.041-4.6 1.565-1.58 2.932-3.04 3.036-3.247.26-.512.239-1.185-.054-1.666-.316-.519-15.534-15.8-15.95-16.017-.362-.188-1.07-.204-1.497-.034zm7.057 10.504c3.464 3.464 6.3 6.347 6.3 6.407 0 .06-1.003 1.123-2.228 2.363-1.984 2.007-2.273 2.35-2.646 3.135-.366.77-.44 1.085-.585 2.467-.157 1.5-.432 2.56-.79 3.05-.138.189-.55-.195-4.335-4.038-2.3-2.336-4.183-4.28-4.183-4.323 0-.041.28-.245.621-.452 1.183-.716 3.065-2.855 3.485-3.96a1.751 1.751 0 00-1.645-2.392c-.737 0-1.175.31-1.798 1.273-1.293 2-3.064 3.083-5.322 3.257-1.147.088-2.016-.074-3.424-.64-.832-.334-1.194-.41-2.17-.46-1.936-.097-3.055.383-4.803 2.062-1.29 1.237-2.479 1.773-3.938 1.773-.578 0-1.63-.226-1.63-.35 0-.053 1.794-2.25 3.988-4.883 2.731-3.277 4.09-4.82 4.307-4.89.175-.057 2.005-.143 4.068-.19 5.11-.116 4.947-.05 8.144-3.29 1.193-1.207 2.194-2.2 2.227-2.207.031-.006 2.892 2.824 6.357 6.288zm-30.033-3.914c2.38 2.357 2.809 2.672 4.015 2.943l.564.127-4 4.8c-2.2 2.641-4.047 4.924-4.104 5.074-.427 1.124.24 2.083 2.133 3.068 1.243.647 2.463.947 3.88.953 2.551.013 4.445-.753 6.31-2.55 1.523-1.469 1.942-1.578 3.603-.936 1.52.587 2.588.794 4.066.79l1.287-.002 6.037 6.104c3.32 3.357 6.101 6.216 6.18 6.352.078.136.144.517.146.846.01 1.367-1.344 2.205-2.55 1.578-.239-.124-1.225-1.024-2.192-2-.967-.976-1.9-1.85-2.074-1.942-1.281-.68-2.82.639-2.431 2.082.109.406.48.845 2.103 2.494 1.636 1.66 1.985 2.075 2.053 2.437.234 1.243-.546 2.214-1.78 2.214-.285 0-.643-.082-.796-.181-.152-.1-1.006-.927-1.898-1.838-.892-.911-1.771-1.764-1.953-1.894-1.34-.958-3.139.139-2.84 1.73.067.36.424.79 2.025 2.443 2.364 2.439 2.55 2.795 2.025 3.88a1.753 1.753 0 01-2.19.874c-.181-.068-1.174-.956-2.205-1.974-2.588-2.554-3.039-2.87-4.54-3.174-.591-.12-.682-.175-.737-.45-.154-.766-.457-1.643-.73-2.112-.386-.661-1.364-1.62-1.96-1.92a7.68 7.68 0 01-.508-.27c-.021-.019.053-.21.164-.425.313-.605.515-1.493.517-2.272.007-3.796-3.93-6.45-7.373-4.968-.331.142-.617.238-.635.213a46.974 46.974 0 01-.418-.66c-.995-1.585-2.614-2.486-4.471-2.49-1.414-.001-2.367.352-3.532 1.31l-.552.453-.11-.442c-.061-.244-.145-.89-.186-1.436-.104-1.367-.242-1.88-.855-3.162-.5-1.047-.638-1.219-2.506-3.115-1.088-1.103-1.978-2.054-1.978-2.113 0-.107 12.546-12.706 12.652-12.706.03 0 1.085 1.02 2.344 2.267zm-4.645 22.62c.503.21.988.798 1.085 1.319.154.822-.104 1.27-1.622 2.818-1.863 1.9-2.413 2.17-3.427 1.679-.82-.397-1.206-1.415-.873-2.307.157-.421 2.985-3.29 3.45-3.501.455-.206.909-.209 1.387-.009zm7.814 2.681c.648.44.879.849.872 1.54-.004.434-.079.714-.256.958-.137.19-1.488 1.578-3.002 3.087l-2.752 2.744-.635.052c-1.292.108-2.152-.86-1.91-2.151.068-.358.53-.89 2.777-3.198 1.482-1.523 2.89-2.887 3.126-3.031.569-.347 1.271-.347 1.78 0zm2.456 7.617c.32.164.595.419.728.672.255.488.277 1.298.047 1.736-.091.174-.869 1.011-1.728 1.86-1.295 1.278-1.64 1.556-2.013 1.626-.95.177-1.964-.496-2.137-1.42-.153-.817.097-1.254 1.608-2.807 1.888-1.94 2.445-2.205 3.495-1.667zm5.317 5.244c.84.737.896 1.835.14 2.758-.666.812-1.272 1.168-1.988 1.168-1.035 0-1.707-.715-1.707-1.818 0-.616.2-.984.899-1.653.744-.712.92-.798 1.646-.803.514-.003.674.052 1.01.348z"/></symbol><symbol viewBox="0 0 60 60" id="rocket" xmlns="http://www.w3.org/2000/svg"><g clip-path="url(#aqa)"><path fill-rule="evenodd" clip-rule="evenodd" d="M53.905.06c-2.18.136-5.437.66-7.824 1.26-7.556 1.897-14.277 5.354-20.434 10.51l-1.39 1.164-1.537-.557c-3.117-1.131-5.682-1.55-7.326-1.198-1.442.31-3.682 1.568-6.047 3.399-2.965 2.295-8.682 7.756-9.1 8.693-.515 1.153-.205 2.56.754 3.425.437.393.904.584 3.326 1.361a2583.44 2583.44 0 016.499 2.09c.017.008-.493 1.042-1.133 2.3l-1.164 2.286.006 1.04c.013 1.899-.221 1.601 6.782 8.633 6.678 6.705 6.831 6.834 8.319 7.02 1.034.13 1.803-.112 4.068-1.274 2.036-1.044 2.052-1.05 2.162-.758.062.161.718 2.185 1.46 4.497.74 2.312 1.42 4.345 1.51 4.518.666 1.293 2.483 1.904 3.843 1.293.877-.395 5.921-5.627 8.346-8.659 1.951-2.44 3.37-4.898 3.736-6.471.372-1.606-.047-4.198-1.188-7.342l-.557-1.536 1.165-1.391c2-2.39 3.379-4.325 4.983-6.995.931-1.55 2.663-5.023 3.337-6.695 2.094-5.186 3.438-11.3 3.482-15.839.014-1.415-.006-1.539-.362-2.292-.709-1.497-1.925-2.347-3.623-2.528-.277-.03-1.219-.01-2.093.045zm2.29 3.77c.237.237.252.357.18 1.479-.369 5.71-1.847 11.294-4.391 16.585-4.16 8.651-11.015 16.062-20.224 21.866-2.85 1.797-7.172 4.132-7.646 4.132-.294 0-11.997-11.701-11.997-11.995 0-.274.851-1.984 2.115-4.248 8.265-14.81 20.134-24.195 34.4-27.199 1.653-.348 4.262-.713 5.667-.793 1.621-.093 1.63-.092 1.895.172zm-17.007 7.86c-4.061.917-6.587 5.1-5.543 9.18.364 1.423.922 2.389 2.013 3.48 1.09 1.09 2.057 1.65 3.48 2.013 3.988 1.02 8.015-1.326 9.187-5.354.27-.928.303-2.757.066-3.715-.655-2.653-2.535-4.662-5.14-5.49-.875-.278-3.063-.34-4.063-.114zm-19.622 3.52c.578.168 1.21.366 1.406.44l.356.136-1.049 1.165c-2.403 2.666-4.193 4.98-6.241 8.065-.727 1.095-1.386 1.968-1.464 1.941-.078-.027-1.996-.64-4.263-1.361s-4.117-1.34-4.112-1.374c.018-.117 4.572-4.39 5.715-5.36 2.816-2.395 5.15-3.895 6.331-4.067.787-.115 2.031.04 3.321.415zm23.1.217c.785.369 1.545 1.129 1.932 1.932.417.864.44 2.379.05 3.226a4.196 4.196 0 01-1.913 1.964c-.612.301-.864.35-1.783.347-1.254-.003-1.952-.278-2.76-1.087-.826-.825-1.081-1.491-1.078-2.813.002-.98.048-1.22.336-1.77.331-.633 1.066-1.4 1.633-1.704 1.046-.562 2.506-.6 3.583-.095zm1.919 24.282c.442 1.367.66 2.5.663 3.445.002.82-.048.997-.573 2.031-.613 1.21-1.942 3.064-3.521 4.912-.983 1.151-5.25 5.696-5.365 5.715-.034.006-.653-1.844-1.375-4.111-.722-2.268-1.335-4.187-1.362-4.265-.026-.078.848-.736 1.943-1.462 3.093-2.053 5.848-4.196 8.35-6.496.45-.414.853-.716.896-.67.044.045.198.45.344.9zM6.892 41.912c-.633.225-.83.469-1.572 1.951-1.503 3-2.416 6.408-2.778 10.366-.158 1.731-.104 2.092.402 2.668.57.648.992.735 2.786.574 3.945-.355 7.333-1.253 10.373-2.75 1.44-.709 1.774-.975 1.981-1.582.362-1.057-.286-2.202-1.36-2.403-.412-.078-.676.008-2.082.674-2.438 1.155-5.008 1.91-7.91 2.327l-.536.077.077-.537c.416-2.902 1.172-5.472 2.327-7.909.661-1.397.751-1.672.675-2.076-.114-.611-.714-1.28-1.292-1.44-.555-.154-.474-.159-1.09.06z"/></g><defs><clipPath id="aqa"><path d="M0 0h60v60H0z"/></clipPath></defs></symbol><symbol viewBox="0 0 48 48" id="sHowWeWork-icon-1" xmlns="http://www.w3.org/2000/svg"><path fill-rule="evenodd" clip-rule="evenodd" d="M2.921 4.758c-1.091.217-2.28 1.2-2.658 2.2C-.762 9.668 1.35 12.35 4.2 11.96c1.113-.152 2.232-.968 2.729-1.991l.21-.431h16.055l.215.46c.271.579 1.029 1.33 1.658 1.643.933.465 2.254.46 3.217-.011.642-.314 1.318-.979 1.639-1.611l.243-.481h2.476c1.362 0 2.804.045 3.204.101a6.985 6.985 0 014.58 2.664c.596.785.894 1.36 1.189 2.3.185.59.22.9.22 1.966 0 1.384-.16 2.113-.702 3.185-.856 1.695-2.525 3.053-4.454 3.623-.506.15-1.143.17-6.34.199l-5.778.032-.065-.355c-.191-1.054-.998-2.09-2.012-2.583-.568-.276-.693-.3-1.555-.302-.86-.002-.988.022-1.547.29-1.01.486-1.736 1.351-2 2.382l-.13.513-4.256.052-4.255.05-.797.247c-1.137.352-1.63.58-2.494 1.155-1.907 1.27-3.296 3.386-3.694 5.632-.193 1.09-.08 2.996.235 3.974C3 37.786 5.373 39.946 8.537 40.62c.388.082 1.164.136 1.974.136h1.335l.209.43c.298.614 1.05 1.37 1.66 1.669 1.464.716 3.09.449 4.23-.697.26-.262.571-.685.69-.94l.217-.463h18.503l.288.463c.544.874 1.374 1.284 2.432 1.2 2.504-.2 3.113-3.613.851-4.767l-.358-.183.025-1.848.025-1.849 3.5-.047 3.502-.047.178-.221c.316-.39.23-.657-.607-1.879l-.787-1.148.787-1.131c.868-1.248.946-1.516.556-1.906l-.23-.23h-3.429c-2.661 0-3.437-.026-3.465-.117a6.414 6.414 0 01-.093-.378c-.084-.38-.59-.608-.987-.444-.16.066-.336.205-.391.308-.069.127-.097 1.91-.09 5.563l.01 5.376-.352.181c-.457.236-.93.707-1.158 1.154l-.182.357H19.03l-.112-.446c-.554-2.202-3.027-3.38-5.102-2.43-.976.446-1.673 1.27-1.98 2.337l-.154.539h-1.244c-1.49 0-2.33-.184-3.41-.746-2.368-1.232-3.773-3.532-3.782-6.192-.005-1.24.178-2.047.715-3.152.697-1.437 2.103-2.759 3.569-3.354 1.183-.481 1.684-.525 5.97-.525h3.97l.12.33c.193.534 1.073 1.408 1.757 1.745 1.743.858 3.99.089 4.839-1.657l.203-.418h5.547c6.017 0 6.444-.029 7.837-.524 2.61-.928 4.693-3.186 5.439-5.898.29-1.057.294-3.318.006-4.368a8.695 8.695 0 00-6.204-6.156c-.848-.225-1.058-.24-3.826-.281l-2.93-.043v-.258c0-.412-.615-1.535-1.07-1.955-1.346-1.24-3.276-1.346-4.752-.26-.563.415-1.165 1.323-1.311 1.978l-.116.515H7.311l-.109-.433c-.487-1.935-2.353-3.134-4.28-2.752zM4.7 6.572c.609.356.934.909.979 1.66.045.75-.154 1.21-.74 1.711-1.342 1.15-3.372.14-3.365-1.672.003-.76.627-1.593 1.417-1.893.456-.173 1.233-.085 1.71.194zm22.919-.043c1.34.683 1.499 2.595.289 3.471-1.53 1.108-3.607-.176-3.264-2.016.26-1.39 1.71-2.1 2.974-1.455zm-5.912 15.528c.775.324 1.248 1.046 1.252 1.912.009 1.85-2.211 2.766-3.513 1.45-.437-.44-.571-.78-.575-1.452-.002-.526.04-.684.28-1.074.519-.839 1.658-1.211 2.556-.836zm23.444 7.396c-.63.905-.629 1.07.004 1.977l.489.7H40.57v-3.375h5.065l-.485.698zm-28.86 8.305c1.76.9 1.327 3.602-.623 3.895-1.206.18-2.37-.823-2.376-2.049a2.055 2.055 0 012.998-1.846zm24 1.372c.825.488.489 1.72-.47 1.72-.305 0-.448-.06-.663-.275-.771-.771.193-2 1.133-1.445z"/></symbol><symbol viewBox="0 0 48 48" id="sHowWeWork-icon-2" xmlns="http://www.w3.org/2000/svg"><path fill-rule="evenodd" clip-rule="evenodd" d="M31.922 3.102c-1.932.342-4.146 1.3-5.719 2.476-1.594 1.19-3.21 3.112-4.093 4.864-.447.887-1.021 2.642-1.218 3.72-.113.62-.162 1.362-.16 2.438.004 1.708.182 2.825.686 4.294l.266.779-1.068 2.19c-1.166 2.39-1.238 2.655-.843 3.115l.226.263 2.963.027 2.964.027.756.515c5.271 3.59 12.354 3.017 16.993-1.374a16.26 16.26 0 001.515-1.667c.5-.667.607-.872.607-1.168a.9.9 0 00-.907-.904c-.447.004-.501.048-1.272 1.041-3.073 3.963-8.4 5.555-13.085 3.91a13.308 13.308 0 01-3.215-1.68l-.769-.555h-2.282c-1.255 0-2.283-.015-2.283-.033 0-.017.386-.83.857-1.804.966-2.001.928-1.676.376-3.246-.466-1.322-.617-2.281-.61-3.87.008-1.535.135-2.325.6-3.725 1.987-5.976 8.585-9.322 14.637-7.423 1.872.588 3.324 1.479 4.777 2.932 1.92 1.92 2.945 3.969 3.36 6.716.201 1.34.23 1.42.573 1.597.346.179.606.173.935-.022.39-.23.498-.57.42-1.317-.501-4.805-3.405-8.948-7.714-11.004-2.464-1.176-5.56-1.592-8.273-1.112zm-22.05 2.6c-.89.923-7.308 8.532-7.355 8.718-.077.308.037.664.295.922.223.223.255.227 1.918.227h1.692v5.493c0 5.982 0 5.973.524 6.213.162.073 1.322.106 3.753.106h3.519l.274-.274.274-.274V15.57h1.68c1.655 0 1.684-.004 1.958-.234.35-.294.434-.615.264-1.008-.126-.289-6.929-8.318-7.428-8.766-.165-.149-.352-.21-.633-.21-.336 0-.449.053-.736.35zm3.307 4.968l2.553 2.977-1.125.047c-.807.033-1.173.086-1.295.187-.414.344-.421.458-.421 6.185v5.44H8.297v-5.581c0-4.899-.018-5.609-.146-5.805-.217-.33-.359-.368-1.552-.423l-1.089-.05 2.542-2.973a379.805 379.805 0 012.558-2.977c.01-.002 1.165 1.336 2.57 2.973zm16.37-1.017c-1.952.646-2.887 2.905-1.939 4.685.61 1.143 1.667 1.8 2.902 1.804.748.003 1.033-.06 1.63-.359 1.166-.582 1.979-2.07 1.796-3.289-.255-1.699-1.504-2.88-3.151-2.98-.52-.03-.83.004-1.237.139zm9.184.408c-.126.116-2.035 2.363-4.242 4.992l-4.978 5.932c-.878 1.045-.966 1.185-.966 1.53 0 .727.809 1.187 1.382.785.192-.134 9.824-11.532 10.176-12.041.415-.6-.024-1.409-.764-1.409-.26 0-.449.065-.608.211zm-7.464 1.5c.819.413 1.06 1.464.492 2.14-.33.392-.69.555-1.227.555-1.315 0-1.915-1.593-.941-2.502.476-.445 1.047-.51 1.676-.193zm5.52 5.817c-1.04.436-1.745 1.246-2.016 2.313-.295 1.162.058 2.343.953 3.19.735.694 1.206.876 2.29.884.794.006.948-.021 1.428-.257a3.706 3.706 0 001.636-1.636c.23-.469.264-.646.264-1.381 0-.718-.037-.921-.246-1.36-.365-.764-.846-1.26-1.56-1.613-.537-.264-.742-.312-1.426-.334-.665-.022-.887.01-1.322.194zm9.188 1.84c-.707.707.036 1.884.95 1.505.38-.158.557-.434.557-.87a.908.908 0 00-.89-.91c-.254 0-.414.072-.617.275zm-7.212.018c1.22.686.825 2.523-.577 2.681-.545.061-1.015-.143-1.355-.589-.219-.286-.27-.448-.27-.847 0-1.126 1.203-1.807 2.202-1.245zM13.284 30.343c-1.036.516-1.364 1.276-1.315 3.042L12 34.507H6.864c-5.62 0-5.44-.017-6.103.565-.673.59-.761.883-.761 2.528 0 1.307.02 1.491.201 1.829l.201.375-.2.375c-.182.337-.202.52-.202 1.827 0 1.321.019 1.489.208 1.842.262.491.855 1.002 1.326 1.143.256.077 1.858.108 5.461.107 4.91-.002 5.114-.009 5.516-.191l.416-.19.445.192c.429.184.62.191 5.519.191 4.953 0 5.085-.005 5.533-.197l.46-.198.408.198c.4.193.51.197 5.558.195 5.778-.002 5.553.023 6.255-.7.562-.578.648-.936.613-2.549-.03-1.377-.036-1.415-.314-1.864-.348-.562-.935-.942-1.662-1.076-.349-.065-2.202-.09-5.25-.072l-4.71.029v-1.313c0-1.164-.024-1.359-.207-1.724l-.206-.412.203-.385c.275-.522.352-2.492.128-3.26a2.287 2.287 0 00-1.225-1.449L24 30.102l-5.114-.001H13.77l-.487.242zm10.522 1.78c.2.2.211 1.884.014 2.155-.129.176-.29.181-4.93.181s-4.8-.005-4.929-.181c-.197-.27-.186-1.955.014-2.156.13-.13.706-.147 4.916-.147 4.209 0 4.785.017 4.915.147zm-11.965 4.37c.154.155.154 2.059 0 2.213-.163.162-9.738.162-9.9 0-.155-.154-.155-2.058 0-2.212.162-.162 9.737-.162 9.9 0zm12.015.07c.126.235.126 1.839 0 2.075-.094.175-.248.18-4.965.18-5.652 0-5.063.143-5.063-1.218 0-1.36-.59-1.219 5.063-1.219 4.717 0 4.871.006 4.965.182zM11.745 40.84c.193.135.208.218.208 1.153 0 .658-.039 1.046-.112 1.12-.085.084-1.316.112-4.966.112-4.757 0-4.855-.004-4.953-.187-.058-.11-.09-.59-.074-1.146.026-.916.037-.964.261-1.077.18-.09 1.319-.119 4.831-.12 4.01-.001 4.623.017 4.805.145zm12.075.083c.16.218.187 1.839.036 2.12-.094.176-.248.182-4.915.182-4.255 0-4.835-.017-4.966-.147-.113-.114-.147-.356-.147-1.06 0-.916.07-1.148.375-1.26.078-.029 2.243-.044 4.812-.035 4.506.017 4.677.024 4.805.2zm11.831-.083c.193.135.208.218.208 1.153 0 .658-.039 1.046-.112 1.12-.178.178-9.669.16-9.817-.019-.071-.086-.1-.477-.082-1.145.026-.977.036-1.02.261-1.134.18-.09 1.309-.119 4.784-.12 3.968-.001 4.576.017 4.758.145z"/></symbol><symbol viewBox="0 0 48 48" id="sHowWeWork-icon-3" xmlns="http://www.w3.org/2000/svg"><g clip-path="url(#ata)"><path fill-rule="evenodd" clip-rule="evenodd" d="M20.773 1.314c-.148.723-.316 1.371-.372 1.44-.057.07-.335.199-.619.288a14 14 0 00-1.378.567l-.862.406-1.2-.786-1.2-.786-2.054 2.052-2.054 2.051.39.906c.214.498.39.938.39.978 0 .04-.306.1-.68.131a5.296 5.296 0 00-3.794 2.08c-.943 1.236-1.19 2.204-1.123 4.406.03.97.095 1.652.187 1.93.299.908.746 1.63 1.438 2.323.38.38.69.76.69.848 0 .123-.234.214-1.072.419l-1.072.261-1.94-1.133-1.939-1.133H0l.024 8.032.024 8.03 3.75 1.253 3.75 1.252.793-.026c.76-.024.795-.035.848-.26.03-.128.096-.234.147-.234.05 0 .578.29 1.171.642 1.076.64 1.08.644 1.188 1.102.221.93 1.038 1.724 1.889 1.839.343.046.367.07.414.422.113.84.91 1.66 1.823 1.876.436.103.493.145.493.357 0 .133.111.466.248.74.29.583.836 1.014 1.55 1.227.46.136.483.16.593.593a2.38 2.38 0 001.166 1.501c.645.362 1.514.399 2.114.088l.375-.194.422.375c.578.513 1.062.741 1.69.798 1.218.11 2.271-.652 2.556-1.85.104-.437.122-.456.5-.512.845-.127 1.635-.937 1.837-1.885.078-.365.12-.416.339-.418.86-.007 1.976-1.125 1.982-1.988.002-.203.056-.267.26-.311.587-.126 1.053-.35 1.372-.66.45-.436.625-.797.69-1.415l.052-.513 6.97-3.484 6.971-3.485V20.156h-1.797l-1.262.666-1.262.666-.44-.185c-.244-.102-1.191-.369-2.106-.593-1.327-.325-1.664-.44-1.664-.564 0-.086.31-.467.69-.846a5.626 5.626 0 001.438-2.323c.088-.268.158-.959.187-1.836.056-1.714-.077-2.464-.638-3.602-.87-1.766-2.785-3.008-4.636-3.008h-.403l.431-.991.431-.992-2.055-2.052-2.055-2.053-1.2.786-1.2.786-.862-.406a14.01 14.01 0 00-1.378-.567c-.284-.089-.562-.218-.618-.287-.057-.07-.225-.718-.373-1.44L26.96 0h-5.916l-.27 1.314zm5.2 1.524c.138.659.267 1.21.288 1.225.02.015.459.15.974.298.517.149 1.46.534 2.1.857 1.323.668 1.1.684 2.373-.17.45-.301.87-.548.937-.548.172 0 2.42 2.267 2.415 2.436-.002.078-.184.564-.406 1.08-.37.86-.437.956-.817 1.162-.228.123-.62.393-.87.6-.4.33-.468.358-.545.22-.24-.429-1.29-1.623-1.829-2.08-1.489-1.263-3.085-2.019-4.94-2.337-3.512-.604-7.19.785-9.42 3.557-.31.387-.606.776-.655.864-.08.144-.123.133-.436-.116a12.254 12.254 0 00-.873-.61c-.496-.315-.548-.385-.928-1.257-.221-.508-.402-.99-.402-1.071 0-.178 2.24-2.448 2.416-2.448.067 0 .49.247.939.548 1.274.854 1.05.838 2.373.17.64-.323 1.584-.708 2.1-.857.515-.149.953-.282.972-.296.018-.013.136-.501.26-1.084.125-.582.25-1.134.278-1.225.046-.153.192-.164 1.747-.14l1.697.025.251 1.197zm-.378 4.303c2.285.431 4.32 1.837 5.658 3.908l.264.408-.266.81c-.25.764-.266.905-.263 2.405.002 1.828.12 2.422.672 3.419.187.336.629.897.981 1.245.353.349.641.709.641.8 0 .136-.275.234-1.547.55l-1.546.383-1.547-.384c-1.288-.32-1.547-.412-1.547-.553 0-.093.264-.417.586-.718a5.636 5.636 0 001.503-2.398c.18-.571.208-.864.207-2.25 0-1.28-.034-1.705-.172-2.157-.609-1.988-2.163-3.5-4.057-3.945-.84-.198-2.11-.133-2.916.148-1.584.553-2.886 1.883-3.41 3.485-.204.622-.226.847-.226 2.375 0 1.483.026 1.767.208 2.344.29.916.816 1.755 1.503 2.398.323.301.586.625.586.718 0 .141-.259.234-1.547.553l-1.546.384-1.547-.384c-1.23-.305-1.547-.416-1.547-.54 0-.086.288-.446.64-.8.352-.353.794-.918.981-1.254.554-.995.672-1.593.667-3.372-.004-1.46-.02-1.592-.28-2.353l-.275-.805.282-.466a8.53 8.53 0 018.86-3.954zm-12.677 3.193c.95.35 1.878 1.28 2.283 2.29.2.501.22.688.22 2.188l.002 1.641-.318.65c-.35.717-.966 1.393-1.583 1.74l-.401.226.026 1.218.026 1.217 1.264.317c.695.174 1.28.332 1.298.35.02.02-.07.175-.198.346-.508.678-.79 1.518-.842 2.512l-.022.42-1.125.255c-.619.14-1.146.258-1.172.26-.026.003-.034-.365-.017-.817l.03-.822-2.014-1.17c-1.107-.644-1.964-1.197-1.905-1.23.06-.032.436-.135.836-.228l.726-.169V19.05l-.463-.297c-.636-.408-1.097-.943-1.446-1.679-.287-.607-.294-.656-.325-2.19-.026-1.292-.003-1.657.13-2.063.238-.729.562-1.234 1.105-1.725 1.085-.98 2.524-1.263 3.885-.762zm12.252-.051c1.27.442 2.281 1.592 2.58 2.936.071.322.101 1.024.08 1.875-.03 1.251-.054 1.403-.293 1.915-.343.735-.822 1.305-1.439 1.715l-.503.334v2.462l2.226.55c2.37.586 2.944.806 3.343 1.28.508.604.556.836.564 2.712l.007 1.735-.35.029c-.226.019-1.224-.22-2.813-.67-1.354-.385-2.673-.729-2.93-.764-.258-.035-1.334-.332-2.391-.66-2.35-.729-2.481-.762-3.44-.88-.723-.09-1.886-.037-3.15.142l-.448.064.066-.412c.138-.872.541-1.46 1.242-1.809.238-.119 1.435-.464 2.66-.767l2.226-.55v-2.47l-.463-.298c-.636-.408-1.097-.943-1.446-1.679l-.294-.62v-3.48l.353-.714c.867-1.754 2.832-2.596 4.613-1.977zm12.377.006c.973.306 1.756 1.019 2.276 2.07l.35.71v3.384l-.294.621c-.349.736-.81 1.271-1.445 1.68l-.464.297v2.471l1.875.462c1.422.35 1.846.488 1.758.568-.125.113-8.18 4.354-8.269 4.354-.028 0-.052-.559-.053-1.242-.001-1.603-.182-2.3-.816-3.147-.128-.17-.217-.326-.198-.345.019-.02.603-.177 1.298-.351l1.264-.317.026-1.218.026-1.217-.4-.226c-.62-.348-1.235-1.024-1.58-1.74-.307-.632-.316-.688-.353-2.052-.055-2.085.194-2.912 1.162-3.857 1.058-1.034 2.413-1.353 3.837-.905zM4.9 21.756a328.85 328.85 0 012.757 1.62c.028.027-2.754 11.128-2.8 11.174-.021.022-.764-.201-1.65-.496l-1.612-.535V20.156h.283c.198 0 1.114.485 3.022 1.6zm41.507 4.424v4.336l-6.495 3.247-6.495 3.248-3.419-3.084c-3.924-3.54-4.146-3.693-5.339-3.693-.873 0-1.093.088-2.807 1.121-1.87 1.127-2.015 1.195-2.398 1.123-.68-.127-1.048-.888-.762-1.572.131-.315.3-.416 2.654-1.594 2.624-1.313 3.262-1.54 3.995-1.418.217.035 1.566.397 2.997.804 1.78.505 2.758.739 3.094.737.464-.002.884-.209 7.663-3.789 3.944-2.083 7.203-3.79 7.242-3.795.039-.004.07 1.944.07 4.329zm-35.597-.962c.055.048-2.777 10.256-2.88 10.381-.043.052-1.554-.49-1.554-.558 0-.08 2.602-10.54 2.67-10.733.027-.076.324.05.865.364.453.264.858.51.9.546zm9.207 1.218c.645.105 2.203.565 2.203.65 0 .032-.895.5-1.988 1.04-2.808 1.389-3.117 1.71-3.12 3.233-.002.992.148 1.379.769 1.983.471.46 1.074.69 1.8.688.635 0 .992-.16 2.773-1.23.722-.433 1.43-.84 1.575-.903.337-.149.923-.148 1.256.001.393.177 6.894 6.027 7.085 6.376.314.573-.085 1.195-.767 1.195-.325 0-.547-.16-2.55-1.826-1.206-1.004-2.214-1.825-2.24-1.823-.057.004-.937 1.08-.937 1.148 0 .026.897.791 1.992 1.7 2.016 1.673 2.32 1.984 2.32 2.378 0 .335-.485.767-.862.767-.396 0-.377.013-2.791-2l-2.014-1.679-.492.55c-.27.303-.493.573-.494.6-.002.026.909.806 2.023 1.732 1.114.926 2.084 1.768 2.156 1.87a.78.78 0 01-.11.994c-.335.316-.862.292-1.328-.059-.704-.53-1.9-1.562-1.9-1.64 0-.044-.175-.249-.39-.455-.367-.353-1.026-.663-1.408-.663-.125 0-.17-.072-.17-.263 0-.145-.113-.488-.25-.762-.29-.583-.835-1.014-1.55-1.227-.457-.136-.482-.161-.589-.58a3.209 3.209 0 00-.362-.818c-.265-.401-1.09-.942-1.438-.943-.286-.002-.463-.21-.534-.628-.157-.93-1.245-1.752-2.305-1.742-.843.008-1.307.269-2.374 1.337l-.934.933-1.117-.668c-.614-.367-1.137-.7-1.162-.742-.043-.07 1.95-7.171 2.037-7.258.036-.036 5.256-1.2 5.796-1.293.46-.078 1.837-.063 2.39.027zm-4.236 9.298c.316.169.433.374.436.77.003.33-.069.436-.77 1.157-.426.436-.893.856-1.039.932-.553.288-1.207-.132-1.207-.775 0-.322.08-.431.932-1.273.975-.962 1.177-1.061 1.648-.811zm2.482 2.425a.9.9 0 01.267.864c-.03.116-.45.606-.935 1.088-.794.789-.917.877-1.228.877-.6 0-.99-.534-.802-1.102.06-.182.437-.629.937-1.111.755-.728.871-.806 1.197-.806.232 0 .433.067.564.19zm2.41 2.453c.434.515.296.836-.824 1.927-.728.71-.825.773-1.172.773-.307 0-.424-.054-.62-.288-.432-.512-.351-.75.577-1.704 1.124-1.156 1.541-1.3 2.04-.708zm2.265 2.248c.494.46.367.88-.557 1.833-.995 1.029-1.393 1.177-1.935.72-.232-.195-.289-.314-.289-.611 0-.334.072-.444.753-1.153 1.063-1.107 1.504-1.279 2.028-.79zm2.397 2.28c.089.104.163.333.164.51.005.765-.83 1.013-1.573.467-.217-.16-.394-.32-.394-.357 0-.038.126-.19.28-.336.153-.148.392-.431.53-.63l.251-.363.29.261c.16.144.363.346.452.449z"/></g><defs><clipPath id="ata"><path d="M0 0h48v48H0z"/></clipPath></defs></symbol><symbol viewBox="0 0 48 48" id="sHowWeWork-icon-4" xmlns="http://www.w3.org/2000/svg"><g clip-path="url(#aua)"><path fill-rule="evenodd" clip-rule="evenodd" d="M7.042.133C4.366.62 2.094 2.321.907 4.73.327 5.905.075 6.88.01 8.198c-.195 3.932 2.466 7.537 6.342 8.591 1.07.291 2.722.335 3.846.102 1.773-.367 3.193-1.156 4.464-2.48 1.678-1.748 2.463-3.837 2.351-6.26-.078-1.706-.483-2.942-1.428-4.366-1.84-2.771-5.283-4.243-8.543-3.652zM37.76.176c-3.36.71-5.986 3.316-6.667 6.616-.337 1.63-.16 3.51.47 5.025.86 2.068 2.705 3.862 4.81 4.68 2.041.791 4.597.72 6.59-.183 1.824-.827 3.555-2.596 4.311-4.405.325-.779.62-1.934.546-2.142-.114-.32-.34-.49-.653-.49-.435 0-.63.235-.82.987-.179.713-.746 2.012-.879 2.012-.046 0-.128-.095-.18-.21-.321-.702-1.45-1.709-2.49-2.22l-.727-.356.191-.243c.105-.133.306-.487.446-.786.223-.475.254-.658.252-1.435-.003-.774-.037-.96-.26-1.418-.564-1.165-1.702-1.985-2.926-2.11-1.074-.108-2.242.36-3.004 1.203-1.055 1.167-1.18 3.032-.292 4.34l.318.468-.713.338a5.69 5.69 0 00-2.22 1.823c-.237.333-.449.606-.47.606-.084 0-.595-1.124-.788-1.734-.28-.888-.354-2.47-.158-3.392.807-3.79 4.358-6.258 8.125-5.65 2.587.419 4.864 2.362 5.628 4.803.248.792.443 1.036.83 1.036.637 0 .828-.451.56-1.32-1.285-4.163-5.61-6.734-9.83-5.843zM9.897 1.55c2.848.585 5.002 2.734 5.613 5.6.196.921.122 2.504-.158 3.392-.193.61-.704 1.734-.789 1.734-.02 0-.231-.273-.47-.606a5.691 5.691 0 00-2.219-1.823l-.713-.338.318-.468c.45-.663.625-1.329.574-2.196-.097-1.68-1.274-2.992-2.964-3.307-1.505-.28-3.11.576-3.816 2.035-.24.497-.272.666-.275 1.453-.003.777.029.96.251 1.435.14.299.34.653.446.786l.19.243-.726.357c-1.04.51-2.169 1.517-2.49 2.218-.052.116-.13.211-.17.211-.042 0-.222-.306-.4-.68-1.77-3.705-.049-8.128 3.767-9.679a7.198 7.198 0 014.03-.367zM22.15 3.988c-.154.022-.618.084-1.03.138-1.325.175-2.377.457-2.532.679-.32.456-.02 1.096.513 1.096.15 0 .56-.067.91-.148 2.345-.544 5.59-.544 7.934 0 .352.081.761.148.91.148.338 0 .655-.321.655-.663 0-.555-.416-.746-2.344-1.075-.85-.146-4.355-.268-5.016-.175zM9.52 5.14c1.032.527 1.439 1.824.907 2.891-.391.785-1.02 1.167-1.926 1.169a2.123 2.123 0 01-1.903-3.096A2.137 2.137 0 019.52 5.14zm31.04.079c1.156.715 1.385 2.353.461 3.298-.458.469-.958.684-1.586.684-1.32 0-2.224-1.008-2.125-2.373.084-1.166 1.114-2.02 2.314-1.918.335.028.65.133.935.308zm-29.59 5.73c.812.324 1.594.96 2.069 1.684.59.902.59.89.084 1.336-1.845 1.626-4.758 2.123-7.153 1.221-.632-.238-1.524-.77-2.099-1.254l-.423-.356.244-.48c.49-.966 1.584-1.895 2.64-2.24.462-.15.786-.171 2.318-.15 1.601.023 1.836.047 2.32.24zm30.625-.089c1.073.334 2.171 1.255 2.67 2.24l.244.48-.423.356c-2.328 1.957-5.509 2.262-8.163.783a6.986 6.986 0 01-1.104-.774l-.437-.403.26-.504c.502-.975 1.525-1.821 2.63-2.175.792-.253 3.513-.255 4.323-.003zm-20.007 3.608c-.679.308-.89.78-.89 1.985v.883l-.396.25-.395.25-.927-.494c-.815-.436-.975-.489-1.338-.448-.675.076-.933.364-2.05 2.286-.964 1.658-1.028 1.8-1.032 2.284-.005.703.23 1.006 1.218 1.566l.793.45v1.03l-.793.45c-.888.503-1.178.835-1.244 1.418-.053.464-.059.45 1.181 2.62 1.01 1.764 1.264 2.035 1.963 2.092.358.03.539-.017.957-.248.283-.157.688-.374.898-.483l.383-.199.382.241.383.242.031 1.029c.035 1.111.116 1.32.678 1.739.245.183.381.193 2.588.193 2.208 0 2.344-.01 2.59-.193.564-.422.642-.625.676-1.763l.031-1.052.405-.215.405-.215.885.477c.935.504 1.266.569 1.785.35.422-.18.49-.271 1.626-2.217.95-1.627 1.013-1.766 1.016-2.25.005-.703-.231-1.006-1.218-1.566l-.793-.45v-1.03l.793-.45c.987-.559 1.223-.862 1.218-1.565-.003-.484-.066-.623-1.016-2.25-1.136-1.946-1.204-2.038-1.626-2.216-.519-.22-.85-.155-1.785.349l-.885.477-.405-.215-.405-.215-.031-1.052c-.034-1.138-.111-1.341-.676-1.763-.242-.181-.402-.195-2.479-.216-1.71-.017-2.284.007-2.501.105zm4.28 2.348c.039 1.297.108 1.42 1.12 1.998.968.555 1.271.545 2.363-.075.459-.261.845-.462.858-.445.226.282 1.835 3.215 1.775 3.236-.046.015-.421.23-.834.478-1.046.63-1.171.841-1.171 1.987 0 1.146.125 1.358 1.172 1.986.412.248.787.463.833.479.06.02-1.549 2.953-1.775 3.236-.013.016-.4-.184-.858-.445-1.092-.62-1.395-.63-2.364-.076-1.011.58-1.08.702-1.118 1.998l-.032 1.072H22.12l-.03-1.072c-.039-1.296-.107-1.418-1.12-1.997-.968-.555-1.271-.546-2.363.075-.459.26-.845.461-.859.445-.214-.259-1.836-3.215-1.775-3.236.046-.015.421-.229.832-.473 1.046-.623 1.175-.841 1.175-1.992s-.13-1.37-1.175-1.992a14.41 14.41 0 00-.832-.474c-.061-.02 1.56-2.977 1.775-3.235.014-.017.4.184.86.445 1.09.62 1.394.63 2.363.075 1.012-.579 1.08-.701 1.118-1.998l.032-1.071h3.718l.03 1.071zm-21.08 1.788c-.144.101-.253.37-.39.961-.352 1.525-.435 2.369-.435 4.43 0 2.06.083 2.905.435 4.43.203.878.372 1.101.834 1.101.333 0 .653-.32.653-.654 0-.15-.067-.56-.148-.91-.563-2.425-.542-5.81.05-8.127.168-.652.173-.76.053-.993-.207-.4-.67-.505-1.052-.238zm37.49.05c-.253.236-.257.474-.024 1.548.25 1.161.38 2.456.38 3.793 0 1.336-.13 2.631-.38 3.792-.1.462-.182.956-.182 1.098 0 .52.647.816 1.097.5.217-.151.474-1.094.702-2.578.162-1.05.162-4.574 0-5.625-.229-1.483-.485-2.426-.702-2.578a.707.707 0 00-.891.05zm-19.633 1.708c-2.854 1.056-3.413 4.893-.98 6.732 1.313.993 3.307 1 4.608.015a3.889 3.889 0 000-6.228c-.965-.73-2.475-.946-3.628-.519zm2.318 1.37c.937.428 1.454 1.233 1.451 2.258-.005 1.434-1.01 2.442-2.436 2.442-1.423 0-2.433-1.01-2.433-2.437 0-1.005.459-1.762 1.33-2.196.603-.3 1.51-.33 2.088-.067zm12.703 9.382c-1.71.361-3.149 1.181-4.415 2.516-4.465 4.707-2.245 12.365 4.087 14.1 1.066.292 3.135.29 4.219-.003 2.475-.67 4.482-2.332 5.574-4.616 1.827-3.822.556-8.386-2.998-10.763a8.542 8.542 0 00-6.467-1.234zm-27.844-.018c-.31.106-.468.34-.468.692 0 .436.138.538 1.125.83 1.212.357 2.107.887 3.01 1.78.905.897 1.427 1.737 1.836 2.956.223.666.252.897.257 2.063.005 1.126-.025 1.412-.214 2.012-.197.628-.716 1.785-.8 1.785-.018 0-.146-.171-.284-.38-.608-.918-1.671-1.803-2.636-2.196l-.504-.204.31-.436c1.261-1.774.524-4.348-1.518-5.297-.73-.34-1.953-.354-2.762-.032-.75.298-1.49 1-1.873 1.777-.282.572-.307.697-.307 1.516 0 .784.033.963.269 1.473.147.32.348.653.445.741.245.222.227.264-.175.405-.908.319-1.99 1.162-2.617 2.04-.412.577-.435.594-.563.41-.468-.668-.866-2.018-.94-3.187-.202-3.23 1.839-6.178 4.972-7.18.84-.268 1.019-.425.982-.859a.665.665 0 00-.286-.53c-.239-.177-.294-.182-.75-.069-.743.185-1.844.682-2.517 1.136C2.108 33.495.917 35.13.294 37.174c-.228.752-.254.979-.253 2.243 0 1.63.162 2.391.778 3.68.64 1.338 1.465 2.348 2.617 3.202a8.51 8.51 0 0010.958-.684c1.643-1.56 2.52-3.512 2.618-5.823.079-1.865-.367-3.497-1.375-5.032-.603-.918-1.924-2.167-2.847-2.691-1.021-.58-2.6-1.098-2.968-.973zm31.049 1.379c3.46.733 5.895 3.896 5.669 7.362-.08 1.223-.457 2.511-.936 3.194-.128.184-.151.167-.563-.41a5.906 5.906 0 00-2.5-1.984 6.812 6.812 0 01-.461-.208c-.022-.016.05-.123.158-.24.11-.115.317-.463.462-.773.23-.492.263-.672.263-1.454 0-.82-.025-.945-.307-1.517-.382-.776-1.122-1.478-1.873-1.776-.81-.322-2.031-.307-2.762.032-2.042.949-2.78 3.523-1.518 5.297l.31.436-.504.204c-.965.393-2.028 1.279-2.636 2.196-.138.209-.266.38-.284.38-.084 0-.603-1.157-.8-1.785-.185-.59-.22-.9-.22-1.965s.035-1.378.22-1.97c.826-2.642 2.903-4.534 5.553-5.053.655-.129 2.044-.112 2.729.034zM9.179 35.916c.2.06.528.25.73.422 1.526 1.307.612 3.778-1.4 3.778-1.562 0-2.6-1.585-1.96-2.996.257-.567.512-.826 1.07-1.09a2.061 2.061 0 011.56-.114zm31.112.087c.567.257.826.511 1.09 1.07.38.806.26 1.672-.323 2.318a2.161 2.161 0 01-3.59-.537c-.805-1.752 1.07-3.646 2.823-2.851zm-30.281 5.62c1.334.208 2.745 1.207 3.313 2.345.295.594.29.604-.717 1.314-1.68 1.184-3.95 1.592-5.924 1.066-.82-.219-1.976-.812-2.651-1.358l-.588-.476.307-.577c.605-1.138 1.938-2.108 3.166-2.306.725-.117 2.37-.121 3.094-.008zm30.937 0c1.321.206 2.635 1.139 3.261 2.315l.308.579-.59.47c-.694.556-1.861 1.156-2.65 1.363-1.989.522-4.247.115-5.925-1.068-1.007-.71-1.012-.72-.716-1.314.548-1.1 1.976-2.137 3.218-2.337.726-.117 2.371-.121 3.094-.008zm-22.312.653c-.232.231-.243.665-.024.922.497.585 4.797 1.038 7.342.774 1.198-.124 2.825-.431 3.18-.6.497-.239.48-1.052-.025-1.23-.189-.067-.524-.036-1.264.114-2.614.533-5.485.526-7.832-.02-.843-.195-1.151-.186-1.377.04z"/></g><defs><clipPath id="aua"><path d="M0 0h48v48H0z"/></clipPath></defs></symbol><symbol viewBox="0 0 48 48" id="sHowWeWork-icon-5" xmlns="http://www.w3.org/2000/svg"><path fill-rule="evenodd" clip-rule="evenodd" d="M17.628 2.738c-1.648.31-3.362 1.658-4.123 3.243-.526 1.095-.643 1.764-.643 3.667v1.533H7.547c-3.86 0-5.436.035-5.756.13-.589.174-1.476 1.06-1.65 1.65-.188.638-.188 30.071 0 30.71.174.588 1.061 1.475 1.65 1.65.64.188 43.777.188 44.418 0 .588-.175 1.476-1.062 1.65-1.65.188-.639.188-30.072 0-30.71-.174-.59-1.062-1.476-1.65-1.65-.32-.095-1.896-.13-5.756-.13h-5.315V9.648c0-1.904-.117-2.572-.644-3.668-.785-1.637-2.473-2.937-4.222-3.252-.794-.143-11.876-.134-12.644.01zm13.245 1.981c.996.472 1.616 1.08 2.098 2.053l.4.81.037 1.8.038 1.799H31.71V9.72c0-.834-.056-1.65-.13-1.901-.174-.589-1.061-1.476-1.65-1.65-.627-.185-11.235-.185-11.862 0-.588.174-1.476 1.061-1.65 1.65-.074.251-.13 1.067-.13 1.9v1.46h-1.734l.038-1.793c.038-1.754.046-1.81.377-2.51.186-.393.535-.928.776-1.189.471-.512 1.441-1.084 2.11-1.244.236-.057 2.987-.092 6.36-.082l5.943.018.715.34zm-1.139 3.298c.253.253.263.316.263 1.713v1.45H18.003V9.73c0-1.397.01-1.46.263-1.713l.263-.263H29.47l.263.263zm16.278 5.14l.263.263v5.91c0 4.326-.035 6.027-.13 6.35-.174.588-1.061 1.475-1.65 1.649-.327.096-2.355.13-7.897.13H29.14v-1.021c0-1.209-.139-1.614-.703-2.044l-.404-.309h-4.044c-3.916 0-4.052.007-4.339.221-.64.479-.734.717-.773 1.982l-.036 1.17h-7.448c-5.535 0-7.561-.033-7.889-.13-.588-.173-1.475-1.06-1.649-1.649-.095-.322-.13-2.023-.13-6.35v-5.91l.263-.262.262-.263h43.5l.262.263zM27.427 28.316v2.57h-6.854v-5.14h6.854v2.57zm-24.178.704c.458.122 1.977.15 8.078.151l7.514.001.036 1.169c.035 1.119.05 1.185.365 1.58.22.273.492.464.818.57l.489.159.047 1.286c.038 1.036.093 1.382.28 1.772.363.755.8 1.212 1.536 1.609.621.335.754.365 1.588.363.773-.002.992-.045 1.457-.287.808-.42 1.144-.744 1.546-1.495.341-.64.363-.744.405-1.977l.044-1.303.36-.067c.454-.085.993-.535 1.182-.988.089-.211.146-.75.146-1.367V29.18l7.798-.03 7.798-.03.77-.382.77-.382V43.21l-.264.263-.263.263H2.25l-.262-.263-.263-.263V28.306l.48.282c.264.155.734.35 1.044.432zm22.447 4.75c-.03.98-.072 1.219-.257 1.466-.349.467-.735.703-1.243.76-.621.07-1.159-.164-1.547-.673-.29-.378-.311-.478-.345-1.564l-.036-1.16h3.464l-.036 1.17z"/></symbol><symbol viewBox="0 0 48 48" id="sHowWeWork-icon-6" xmlns="http://www.w3.org/2000/svg"><g clip-path="url(#awa)"><path fill-rule="evenodd" clip-rule="evenodd" d="M27.658.295c-.242.241-.294.413-.294.96v.665h-8.115c-6.02 0-8.242.037-8.608.146-.66.194-1.653 1.188-1.848 1.847-.084.285-.146 1.207-.146 2.18V7.78l-.39.082c-1.385.29-2.93 1.558-3.635 2.985-.99 2.002-.778 4.08.596 5.873.246.32.43.592.408.606-.02.013-.551.146-1.178.294-2.402.566-3.756 1.72-4.266 3.636-.215.807-.253 11.268-.043 12.021.17.615.965 1.458 1.605 1.702.347.133.776.184 1.31.156l.795-.04v4.987c0 5.794.013 5.896.942 6.825.358.357.781.639 1.152.765 1.095.373 2.453.206 3.312-.405l.352-.251.352.25c.86.612 2.218.779 3.312.406.371-.126.795-.408 1.152-.765.833-.833.943-1.318.943-4.161 0-2.307-.002-2.325-.294-2.618-.39-.39-.941-.39-1.331 0-.293.293-.294.309-.294 2.652v2.357l-.408.407c-.36.36-.483.408-1.032.408-.55 0-.673-.048-1.032-.407l-.408-.408V32.023l-.294-.294c-.39-.39-.942-.39-1.331 0l-.295.294v13.113l-.408.407c-.359.36-.482.408-1.031.408-.55 0-.673-.048-1.032-.407l-.408-.408V34.168c0-10.851-.003-10.97-.243-11.228a1.306 1.306 0 00-.527-.332c-.33-.083-.966.209-1.075.493-.041.107-.075 2.323-.075 4.924 0 4.569-.008 4.737-.24 4.969-.328.328-1.114.325-1.444-.005-.24-.24-.244-.346-.21-5.789.034-5.466.038-5.551.301-6.042.52-.974 1.211-1.354 3.389-1.863 1.372-.32 4.93-.428 6.274-.188.738.131 1.012.136 1.32.021.214-.079 2.366-1.068 4.783-2.197 2.418-1.13 4.48-2.054 4.583-2.054.303 0 .795.511.87.904.05.256.005.443-.15.627-.12.145-2.271 1.215-4.779 2.38-2.507 1.165-4.68 2.228-4.829 2.364l-.27.246v12.087l.295.294c.39.39.941.39 1.33 0 .284-.284.295-.354.295-1.92v-1.625h10.678l-.007 4.29-.007 4.289-4.365 3.779c-2.407 2.084-4.427 3.923-4.503 4.1-.251.585.224 1.299.864 1.299.357 0 .434-.062 5.434-4.419l2.524-2.199.06 1.64c.056 1.544.077 1.654.343 1.87.156.125.434.229.617.229s.46-.104.616-.23c.267-.215.287-.325.344-1.877l.06-1.648 3.694 3.227c2.033 1.775 3.82 3.275 3.973 3.334a.91.91 0 001.092-.366c.459-.7.364-.805-4.38-4.935l-4.38-3.812-.03-4.285-.032-4.286h8.776c6.54 0 8.901-.037 9.27-.146.659-.194 1.652-1.188 1.847-1.847.092-.313.146-1.34.146-2.795 0-2.283-.002-2.304-.294-2.596-.39-.39-.942-.39-1.331 0-.292.292-.295.313-.295 2.585s-.002 2.293-.294 2.585l-.295.295H15.366l.002-2.97.002-2.97 4.273-1.979c2.35-1.088 4.453-2.101 4.673-2.25 1.074-.73 1.392-2.355.706-3.613-.515-.945-1.465-1.575-2.374-1.575-.652 0-1.27.246-4.927 1.968-1.905.897-3.479 1.63-3.497 1.63-.02 0 .146-.357.366-.794.82-1.63.822-3.258.007-4.904-.703-1.421-2.308-2.745-3.655-3.014l-.375-.075v-1.67c0-1.614.01-1.68.294-1.965l.295-.295h34.335l.295.295.294.294v11.78l.295.294c.39.39.94.39 1.33 0l.295-.294v-5.9c0-4.282-.04-6.036-.146-6.395-.195-.659-1.188-1.653-1.847-1.847-.367-.109-2.589-.146-8.609-.146h-8.115v-.666c0-.8-.347-1.254-.96-1.254a.967.967 0 00-.665.295zM18.54 7.973a.967.967 0 00-.294.665c0 .234.108.48.294.666l.294.294h18.979l.294-.294a.967.967 0 00.295-.666.967.967 0 00-.295-.665l-.294-.294H18.834l-.294.294zm-7.323 2.035c1.775.869 2.558 3.012 1.735 4.75-.664 1.4-1.835 2.156-3.345 2.156-1.073 0-1.844-.31-2.565-1.031-.895-.894-1.284-2.143-1.037-3.33.483-2.326 3.074-3.591 5.212-2.545zm15.362 1.804a.967.967 0 00-.295.666c0 .233.109.48.295.665l.294.294h14.78l.294-.294a.966.966 0 00.294-.665.967.967 0 00-.294-.666l-.295-.294H26.873l-.294.294zm1.08 3.84a.967.967 0 00-.295.665c0 .234.109.48.294.665l.295.295h13.7l.294-.295a.966.966 0 00.294-.665.966.966 0 00-.294-.665l-.295-.295h-13.7l-.294.295zm18.716 3.359c-.595.595-.174 1.625.665 1.625.493 0 .96-.466.96-.96 0-.493-.467-.96-.96-.96a.967.967 0 00-.665.295zm-20.636.48a.966.966 0 00-.295.665c0 .234.109.48.295.666l.294.294h15.62l.294-.294a.967.967 0 00.294-.666.966.966 0 00-.294-.665l-.295-.295H26.033l-.294.295zM13.74 36.288c-.595.595-.173 1.625.665 1.625.493 0 .96-.467.96-.96 0-.493-.466-.96-.96-.96a.967.967 0 00-.665.295z"/></g><defs><clipPath id="awa"><path d="M0 0h48v48H0z"/></clipPath></defs></symbol><symbol viewBox="0 0 24 24" id="telegram" xmlns="http://www.w3.org/2000/svg"><path d="M4.02 10.892l15.608-6.018c.724-.262 1.357.176 1.122 1.272l.002-.002-2.658 12.52c-.197.889-.724 1.104-1.462.686l-4.048-2.983-1.951 1.881c-.216.216-.398.398-.817.398l.288-4.119 7.5-6.776c.327-.287-.072-.449-.503-.163l-9.27 5.836-3.995-1.247c-.867-.275-.886-.867.184-1.285z"/></symbol><symbol viewBox="0 0 60 60" id="trophy" xmlns="http://www.w3.org/2000/svg"><g clip-path="url(#aya)"><path fill-rule="evenodd" clip-rule="evenodd" d="M10.313.217c-.239.129-.514.425-.672.722-.235.446-.266.672-.266 1.95v1.447H5.29c-4.052 0-4.088.002-4.483.266C.154 5.039 0 5.493 0 6.986c0 2.509.552 6.73 1.239 9.465 1.125 4.484 3 8.552 5.434 11.794 3.389 4.513 7.386 7.075 12.077 7.74l.996.142 1.058 1.009c.582.554 1.44 1.268 1.905 1.586l.846.577v7.66l-2.022.066c-1.399.046-2.22.128-2.666.264-2.122.652-3.707 2.155-4.432 4.203-.26.736-.3 1.072-.348 2.912-.051 1.98-.065 2.08-.287 2.08-.128 0-.438.116-.689.256-.48.27-.924.992-.924 1.502s.445 1.232.924 1.502l.456.256h32.866l.455-.256c.48-.27.924-.992.924-1.502s-.444-1.232-.924-1.502c-.25-.14-.56-.256-.688-.256-.223 0-.236-.1-.287-2.08-.048-1.84-.088-2.176-.349-2.912-.725-2.048-2.31-3.551-4.431-4.203-.446-.136-1.268-.218-2.666-.264l-2.022-.067V39.3l.846-.577c.465-.318 1.322-1.032 1.904-1.586l1.059-1.01.996-.14c4.69-.666 8.688-3.228 12.076-7.741 2.435-3.242 4.31-7.31 5.435-11.794.687-2.735 1.239-6.956 1.238-9.465 0-1.493-.154-1.947-.808-2.384-.395-.264-.431-.266-4.482-.266h-4.084V2.889c0-1.278-.031-1.504-.267-1.95-.157-.297-.433-.593-.672-.722C49.296.008 48.556 0 30 0S10.704.008 10.313.217zm36.631 4.969c-.4 8.326-2.103 15.793-4.97 21.796-1.592 3.338-3.089 5.516-5.132 7.472-3.794 3.633-7.89 4.134-11.942 1.46-.385-.254-1.17-.911-1.742-1.46-2.044-1.956-3.54-4.134-5.133-7.472-2.866-6.003-4.569-13.47-4.97-21.796l-.08-1.67h34.05l-.08 1.67zM9.653 8.29c.035.242.096.782.135 1.201.496 5.328 1.95 11.621 3.71 16.055.65 1.638 1.95 4.39 2.59 5.482l.421.718-.307-.117c-1.489-.566-3.235-1.78-4.78-3.326-4.325-4.322-7.25-11.579-7.744-19.21l-.08-1.242h5.991l.064.439zm46.668.802c-.493 7.632-3.418 14.889-7.743 19.211-1.546 1.545-3.292 2.76-4.78 3.326l-.308.117.42-.718c.64-1.092 1.941-3.844 2.592-5.482 1.76-4.434 3.214-10.727 3.71-16.055.039-.419.1-.96.135-1.201l.064-.44h5.99l-.08 1.242zM30 41.143c.741 0 1.703-.074 2.138-.166l.791-.167v6.182H27.07V40.81l.791.167c.435.092 1.398.167 2.139.167zm10.605 9.761c.704.333 1.135.77 1.456 1.479.206.455.239.77.24 2.314l.003 1.787H17.695l.003-1.787c.002-1.543.035-1.859.24-2.314.322-.708.752-1.146 1.456-1.479l.586-.277h20.04l.585.277z"/></g><defs><clipPath id="aya"><path d="M0 0h60v60H0z"/></clipPath></defs></symbol><symbol viewBox="0 0 16 16" id="viber" xmlns="http://www.w3.org/2000/svg"><path d="M8 1.335c-1.071.013-3.374.19-4.662 1.37-.958.948-1.292 2.35-1.331 4.084-.033 1.728-.072 4.973 3.058 5.856v1.346s-.02.538.337.648c.438.14.688-.275 1.105-.72l.778-.879c2.142.178 3.782-.232 3.97-.293.435-.139 2.883-.451 3.283-3.696.41-3.351-.2-5.463-1.301-6.418h-.007c-.332-.306-1.668-1.279-4.652-1.29 0 0-.222-.014-.578-.008zm.037.942a7.02 7.02 0 01.488.011c2.527.007 3.732.767 4.017 1.023.927.794 1.405 2.697 1.055 5.495-.332 2.713-2.317 2.885-2.685 3.002-.156.05-1.6.406-3.42.289 0 0-1.356 1.634-1.78 2.055-.067.074-.146.095-.196.085-.071-.018-.093-.107-.089-.229l.013-2.233c-2.655-.733-2.498-3.5-2.47-4.946.033-1.446.304-2.628 1.113-3.43 1.088-.982 3.043-1.115 3.953-1.122zm.2 1.446a.166.166 0 100 .332 3.136 3.136 0 012.242.883c.606.588.9 1.378.912 2.411 0 .092.074.167.167.167V7.51a.167.167 0 00.168-.165 3.588 3.588 0 00-1.009-2.646c-.66-.645-1.496-.977-2.48-.977zm-2.198.382a.523.523 0 00-.342.067H5.69a2.61 2.61 0 00-.637.523 1.003 1.003 0 00-.256.525.71.71 0 00.026.302l.01.006c.172.504.396.988.67 1.444a8.48 8.48 0 001.29 1.762l.015.022.024.017.015.018.017.015c.532.505 1.127.94 1.769 1.295.734.4 1.18.588 1.447.667v.004c.078.024.15.034.221.034.228-.016.444-.109.613-.262a2.53 2.53 0 00.517-.638v-.004c.128-.241.085-.469-.1-.623-.37-.323-.77-.61-1.195-.857-.285-.155-.574-.061-.69.095l-.25.315c-.129.156-.361.134-.361.134l-.007.004C7.093 8.527 6.63 6.772 6.63 6.772s-.022-.239.139-.36l.312-.252c.15-.122.254-.41.094-.695a7.498 7.498 0 00-.856-1.194.475.475 0 00-.28-.167zm2.486.495c-.221 0-.221.334.003.334A2.098 2.098 0 0110 5.572 1.94 1.94 0 0110.5 7a.168.168 0 00.167.165l.007.009a.169.169 0 00.167-.167c.015-.662-.191-1.218-.595-1.663C9.84 4.9 9.273 4.65 8.549 4.6h-.024zm.274.898c-.228-.006-.236.335-.01.341.55.029.816.306.851.877a.166.166 0 00.165.163h.007a.168.168 0 00.16-.178c-.039-.744-.445-1.164-1.166-1.202H8.8z"/></symbol><symbol viewBox="0 0 24 24" id="vk" xmlns="http://www.w3.org/2000/svg"><path d="M21.579 6.855c.14-.465 0-.806-.662-.806h-2.193c-.558 0-.813.295-.953.619 0 0-1.115 2.719-2.695 4.482-.51.513-.743.675-1.021.675-.139 0-.341-.162-.341-.627V6.855c0-.558-.161-.806-.626-.806H9.642c-.348 0-.558.258-.558.504 0 .528.79.65.871 2.138v3.228c0 .707-.127.836-.407.836-.743 0-2.551-2.73-3.624-5.853-.209-.607-.42-.852-.98-.852H2.752c-.627 0-.752.295-.752.619 0 .582.743 3.462 3.461 7.27 1.812 2.602 4.363 4.012 6.687 4.012 1.393 0 1.565-.313 1.565-.853v-1.966c0-.626.133-.752.574-.752.324 0 .882.164 2.183 1.417 1.486 1.486 1.732 2.153 2.567 2.153h2.192c.626 0 .939-.313.759-.931-.197-.615-.907-1.51-1.849-2.57-.512-.603-1.277-1.253-1.51-1.578-.325-.42-.231-.604 0-.976.001 0 2.672-3.761 2.95-5.04z"/></symbol><symbol viewBox="0 0 16 16" id="whatsapp" xmlns="http://www.w3.org/2000/svg"><path fill-rule="evenodd" clip-rule="evenodd" d="M12.269 3.755A5.947 5.947 0 008.035 2 5.994 5.994 0 002.05 7.985a5.98 5.98 0 00.799 2.992L2 14.077l3.173-.832c.877.477 1.86.728 2.86.728h.002a5.993 5.993 0 005.533-8.276 5.953 5.953 0 00-1.3-1.942zm-4.234 9.208h-.002c-.89 0-1.765-.24-2.532-.694l-.181-.108-1.883.494.502-1.835-.118-.188a4.965 4.965 0 01-.76-2.647 4.982 4.982 0 016.88-4.597c.604.25 1.152.618 1.613 1.081a4.946 4.946 0 011.455 3.52 4.982 4.982 0 01-4.974 4.974zm2.729-3.726c-.15-.075-.885-.436-1.022-.486-.137-.05-.236-.075-.336.074-.1.15-.387.486-.474.586-.087.1-.175.112-.324.038-.15-.075-.631-.233-1.203-.742a4.505 4.505 0 01-.832-1.036c-.087-.15-.009-.231.066-.306.068-.066.15-.174.224-.262.075-.087.1-.149.15-.249.05-.1.025-.187-.013-.262-.037-.075-.337-.811-.461-1.11-.121-.29-.244-.252-.336-.256a6.418 6.418 0 00-.286-.005.55.55 0 00-.4.186c-.137.15-.523.512-.523 1.248s.536 1.447.61 1.547c.075.1 1.055 1.61 2.555 2.258.358.154.636.246.853.315.358.114.684.098.942.06.287-.043.885-.362 1.01-.711.124-.35.124-.649.087-.711-.038-.063-.138-.101-.287-.176z"/></symbol></svg>