<svg width="60" height="60" viewBox="0 0 60 60" fill="none" xmlns="http://www.w3.org/2000/svg">
<path fill-rule="evenodd" clip-rule="evenodd" d="M22.5053 3.95479C21.1342 4.23018 19.7235 5.41447 19.2049 6.72557C18.9546 7.35826 18.9338 7.60857 18.8919 10.4745L18.8471 13.5456L11.7967 13.5822C4.82789 13.6184 4.73801 13.6219 4.05246 13.8808C2.08172 14.6251 0.537891 16.3788 0.129492 18.337C0.0386719 18.7727 0 23.7047 0 34.8651C0 48.7631 0.0226172 50.8605 0.179297 51.4707C0.757969 53.7242 2.53828 55.4492 4.77457 55.923C5.96156 56.1746 54.0384 56.1746 55.2254 55.923C57.4617 55.4492 59.242 53.7242 59.8207 51.4707C59.9774 50.8605 60 48.7631 60 34.8651C60 23.7047 59.9613 18.7727 59.8705 18.337C59.664 17.3471 59.1054 16.3055 58.3446 15.4924C57.5864 14.6818 56.9688 14.2687 55.9221 13.872C55.2687 13.6244 55.0986 13.6181 48.2033 13.5822L41.1529 13.5456L41.1081 10.4745C41.0658 7.58045 41.0473 7.36295 40.7865 6.70037C40.4048 5.73088 39.2389 4.5624 38.2617 4.17018L37.5586 3.88787L30.293 3.86889C26.2969 3.85846 22.7924 3.89713 22.5053 3.95479ZM37.0513 7.89041C37.2472 8.06772 37.2656 8.31861 37.2656 10.8201V13.5558H30H22.7344V10.8405C22.7344 8.47822 22.7596 8.09725 22.9283 7.9108C23.112 7.70783 23.4852 7.69647 29.9796 7.69647C36.1961 7.69647 36.857 7.71463 37.0513 7.89041ZM55.0723 17.6682C55.3123 17.8031 55.6489 18.13 55.8206 18.3947C56.1312 18.8737 56.1328 18.888 56.1328 21.1256C56.1328 23.0383 56.098 23.4876 55.9002 24.1281C55.4323 25.6431 54.208 27.0663 52.8095 27.7211C52.1716 28.0198 33.373 33.5617 31.4999 34.0033C30.5688 34.2228 29.4409 34.2255 28.5352 34.0103C28.1484 33.9185 25.0107 33.0214 21.5625 32.017C18.1143 31.0124 13.6318 29.7111 11.6016 29.1251C9.57129 28.5392 7.58637 27.9077 7.19051 27.7219C5.79082 27.065 4.56762 25.6427 4.0998 24.1281C3.90234 23.4888 3.86719 23.0383 3.86719 21.1474C3.86719 18.5989 3.94875 18.3124 4.83891 17.7352L5.32031 17.423H29.9782H54.6361L55.0723 17.6682ZM6.11918 31.4224C6.52418 31.5822 10.125 32.6676 14.1211 33.8344C28.5585 38.0501 28.9499 38.1482 30.7031 37.9887C32.0815 37.8633 32.4443 37.7633 48.1055 33.1865C53.4224 31.6327 53.5323 31.5987 54.2393 31.2865C54.5836 31.1346 55.1504 30.8278 55.4991 30.6047L56.1328 30.1994V40.4576C56.1328 49.0599 56.1061 50.767 55.9675 51.0324C55.7455 51.4572 55.211 51.9503 54.8068 52.103C54.3429 52.2783 5.65711 52.2783 5.19316 52.103C4.78898 51.9503 4.25449 51.4572 4.03254 51.0324C3.89391 50.767 3.86719 49.0607 3.86719 40.4635V30.211L4.62504 30.6714C5.04187 30.9247 5.7143 31.2626 6.11918 31.4224Z" fill="#C3363A"/>
</svg>
