<svg width="60" height="60" viewBox="0 0 60 60" fill="none" xmlns="http://www.w3.org/2000/svg">
<g clip-path="url(#clip0_60_943)">
<path fill-rule="evenodd" clip-rule="evenodd" d="M15.0239 7.29493C-1.24223 15.4906 0.0229268 14.7423 0.0229268 16.1671C0.0229268 18.2529 1.31058 21.0656 3.37086 23.4803C3.81769 24.004 4.31902 24.4649 4.54414 24.5589C4.78285 24.6586 5.35308 24.7232 5.99574 24.7232H7.05418V37.0865V49.4497H5.99574C5.35308 49.4497 4.78285 49.5143 4.54414 49.614C4.31879 49.7081 3.81617 50.1706 3.36593 50.698C1.23769 53.1911 -0.0703545 56.1184 0.0435518 58.1337C0.0952315 59.0481 0.327497 59.4643 0.968747 59.7913C1.34808 59.9848 2.97605 59.9963 30.0229 59.9963C57.0698 59.9963 58.6978 59.9848 59.0771 59.7913C59.7184 59.4643 59.9506 59.0481 60.0023 58.1337C60.1162 56.1184 58.8082 53.1911 56.6799 50.698C56.2297 50.1706 55.7271 49.7081 55.5017 49.614C55.263 49.5143 54.6928 49.4497 54.0501 49.4497H52.9917V37.0865V24.7232H54.0501C54.6886 24.7232 55.2632 24.6586 55.4983 24.5603C55.9464 24.3731 57.0402 23.1464 57.9152 21.8496C59.9043 18.9019 60.6137 15.6257 59.4782 14.6299C59.3589 14.5252 52.7964 11.1899 44.8951 7.21805C32.3015 0.887703 30.4651 -0.0029225 30.0123 7.18425e-06C29.5653 0.00305406 27.5415 0.988132 15.0239 7.29493ZM40.3566 8.93216L50.6523 14.1177L40.3375 14.1476C34.6645 14.1641 25.388 14.1641 19.7232 14.1476L9.42347 14.1177L19.6939 8.9352C25.3426 6.08485 29.9861 3.75141 30.0127 3.74966C30.0393 3.74802 34.6941 6.08005 40.3566 8.93216ZM56.0369 17.8384C56.0341 18.0856 55.1125 19.7012 54.5346 20.4722L53.9878 21.2017H30.0229H6.05808L5.51129 20.4722C4.93332 19.7012 4.01175 18.0856 4.00894 17.8384C4.00765 17.7217 9.28765 17.6919 30.0229 17.6919C50.7582 17.6919 56.0382 17.7217 56.0369 17.8384ZM14.0854 37.0865V49.4497H12.3276H10.5698V37.0865V24.7232H12.3276H14.0854V37.0865ZM24.7495 37.0865V49.4497H21.1753H17.6011V37.0865V24.7232H21.1753H24.7495V37.0865ZM31.7807 37.0865V49.4497H30.0229H28.2651V37.0865V24.7232H30.0229H31.7807V37.0865ZM42.4448 37.0865V49.4497H38.8706H35.2964V37.0865V24.7232H38.8706H42.4448V37.0865ZM49.4761 37.0865V49.4497H47.7182H45.9604V37.0865V24.7232H47.7182H49.4761V37.0865ZM54.5346 53.7007C55.1125 54.4717 56.0341 56.0874 56.0369 56.3345C56.0382 56.4512 50.7445 56.481 29.9547 56.481H3.8709L4.41582 55.4556C4.71547 54.8917 5.20754 54.102 5.50941 53.7007L6.05808 52.9712H30.0229H53.9878L54.5346 53.7007Z" fill="#EEDA2A"/>
</g>
<defs>
<clipPath id="clip0_60_943">
<rect width="60" height="60" fill="white"/>
</clipPath>
</defs>
</svg>
