<svg width="60" height="60" viewBox="0 0 60 60" fill="none" xmlns="http://www.w3.org/2000/svg">
<g clip-path="url(#clip0_60_921)">
<path fill-rule="evenodd" clip-rule="evenodd" d="M49.3422 1.49673C46.3451 2.31165 43.7668 3.06704 43.6124 3.17532C42.8828 3.68743 42.6601 4.81149 43.1341 5.58915C43.3675 5.97188 44.144 6.42423 44.5767 6.42938C44.6949 6.43079 46.3615 6.01009 48.2804 5.49446C50.1992 4.97884 51.8075 4.55696 51.8542 4.55696C52.0314 4.55696 50.3035 7.20376 48.8883 9.1002C41.7415 18.6772 30.67 26.7825 18.9114 31.0458C13.6387 32.9575 7.14451 34.2054 2.46862 34.2054C1.63424 34.2054 1.35803 34.2537 0.945296 34.472C-0.509236 35.2411 -0.228572 37.2504 1.39858 37.717C1.90319 37.8618 5.60889 37.6654 7.91643 37.3717C19.5078 35.8963 31.3589 30.4654 41.4906 21.9858C46.625 17.6888 51.5223 12.1296 54.439 7.28766L54.8324 6.63458L54.9535 7.08985C56.1764 11.6913 56.6458 13.3045 56.8426 13.5809C57.1434 14.0033 57.9874 14.3367 58.5071 14.2385C59.389 14.0719 60.0063 13.3659 60.0063 12.5237C60.0063 11.9762 57.0932 1.16766 56.828 0.731492C56.5443 0.264734 55.9549 -0.0173366 55.3011 0.000827416C55.0208 0.00867898 52.3393 0.681804 49.3422 1.49673ZM47.5258 20.305C46.8216 20.6379 46.391 21.0754 46.0705 21.7835C45.8339 22.3062 45.8317 22.461 45.8292 39.3909L45.8266 56.471H44.0688H42.311L42.3084 45.2503C42.3058 34.2152 42.3018 34.0209 42.0671 33.5023C41.7466 32.7941 41.3159 32.3566 40.6117 32.0237C40.0431 31.755 39.9372 31.7468 37.0375 31.7482C34.2836 31.7495 34.0079 31.7684 33.5219 31.9883C32.8137 32.3088 32.3763 32.7395 32.0433 33.4437L31.7664 34.0296L31.7653 45.2503L31.7641 56.471H30.0063H28.2485L28.2473 48.473L28.2461 40.4749L27.9692 39.889C27.6363 39.1848 27.1988 38.7541 26.4906 38.4336C26.0047 38.2137 25.7289 38.1948 22.975 38.1935C20.0753 38.1921 19.9694 38.2003 19.4008 38.469C18.6966 38.802 18.266 39.2394 17.9455 39.9476C17.7128 40.4615 17.7066 40.6801 17.7042 48.473L17.7016 56.471H15.9438H14.186L14.1834 50.5824C14.1809 44.9116 14.172 44.6741 13.9421 44.1663C13.6216 43.4582 13.1909 43.0207 12.4867 42.6878C11.9185 42.4192 11.8107 42.4109 8.91252 42.4109C6.01436 42.4109 5.90655 42.4192 5.3383 42.6878C4.63412 43.0207 4.20346 43.4582 3.88295 44.1663C3.65303 44.6741 3.64412 44.9116 3.64166 50.5824L3.63908 56.471L2.49651 56.4713C0.706233 56.4715 0.0648659 56.9351 0.0648659 58.2288C0.0648659 59.0238 0.31096 59.4545 0.952092 59.7813C1.33143 59.9748 2.9594 59.9863 30.0063 59.9863C57.0531 59.9863 58.6811 59.9748 59.0605 59.7813C59.7016 59.4545 59.9477 59.0238 59.9477 58.2288C59.9477 56.9351 59.3063 56.4715 57.516 56.4713L56.3735 56.471L56.3723 39.3909L56.3711 22.3109L56.0942 21.7249C55.7613 21.0208 55.3238 20.5901 54.6156 20.2696C54.1297 20.0496 53.8539 20.0308 51.1 20.0295C48.2003 20.0281 48.0944 20.0363 47.5258 20.305ZM52.8578 40.0062V56.471H51.1H49.3422V40.0062V23.5413H51.1H52.8578V40.0062ZM38.7953 45.8656V56.471H37.0375H35.2797V45.8656V35.2601H37.0375H38.7953V45.8656ZM24.7328 49.0882V56.471H22.975H21.2172V49.0882V41.7054H22.975H24.7328V49.0882ZM10.6703 51.1976V56.471H8.91252H7.15471V51.1976V45.9241H8.91252H10.6703V51.1976Z" fill="#1096C9"/>
</g>
<defs>
<clipPath id="clip0_60_921">
<rect width="60" height="60" fill="white"/>
</clipPath>
</defs>
</svg>
