<svg width="24" height="24" viewBox="0 0 24 24" fill="none" xmlns="http://www.w3.org/2000/svg">
<path fill-rule="evenodd" clip-rule="evenodd" d="M13.2865 2.53177C11.5954 2.87794 10.4771 3.87422 9.97958 5.47786C9.7971 6.06614 9.74802 6.60084 9.74774 8.00391L9.74746 9.32812L8.47011 9.32883C7.05552 9.32958 6.99529 9.34041 6.90243 9.61059C6.82419 9.83841 6.82419 12.7549 6.90243 12.9844C6.98933 13.2392 7.10947 13.26 8.51699 13.263L9.74746 13.2656V17.2942V21.3229L9.86052 21.4544L9.97363 21.5859L11.6535 21.6004C13.4638 21.6161 13.6317 21.5995 13.7241 21.3967C13.7643 21.3084 13.7787 20.2143 13.7787 17.2496V13.2224L15.3474 13.2088C16.7802 13.1965 16.9234 13.188 16.9997 13.1116C17.0771 13.0342 17.0834 12.8947 17.0834 11.2731V9.51825L16.9767 9.41147C16.8705 9.30525 16.8619 9.30459 15.3204 9.29114L13.7708 9.27759L13.7867 8.02552C13.8039 6.67922 13.8148 6.61612 14.0722 6.37186C14.2686 6.18553 14.3821 6.1695 15.693 6.14302L16.9744 6.11719L17.0875 5.98566L17.2006 5.85412V4.26089V2.66761L17.0855 2.55258L16.9705 2.4375L15.3394 2.44144C13.9496 2.44481 13.646 2.45817 13.2865 2.53177Z" fill="#3E6AD6"/>
</svg>
