<svg width="60" height="60" viewBox="0 0 60 60" fill="none" xmlns="http://www.w3.org/2000/svg">
<path fill-rule="evenodd" clip-rule="evenodd" d="M6.30012 0.215737C6.03234 0.357182 5.77031 0.626713 5.62629 0.909018C5.39215 1.36816 5.39062 1.55003 5.39062 29.9741C5.39062 58.4096 5.39203 58.5799 5.62652 59.0396C5.89184 59.5596 6.56695 59.9741 7.14844 59.9741C7.72992 59.9741 8.40504 59.5596 8.67035 59.0396C8.90273 58.5841 8.90625 58.3758 8.90625 45.1546V31.7319H15.9375H22.9688V33.9718C22.9688 36.523 23.0653 36.8702 23.9067 37.3431L24.3483 37.5913H38.7804C52.8994 37.5913 53.2222 37.5862 53.6641 37.3608C54.2512 37.0614 54.6697 36.2548 54.5668 35.6214C54.5282 35.3836 53.4984 32.6973 52.2786 29.6518L50.0609 24.1147L52.2786 18.5776C53.4984 15.5321 54.5282 12.8459 54.5668 12.6081C54.6697 11.9747 54.2512 11.1681 53.6641 10.8687C53.225 10.6446 52.922 10.6382 42.7781 10.6382H32.3438V8.40691C32.3438 5.8166 32.2396 5.43831 31.4093 5.01468C30.9555 4.78324 30.7402 4.77878 19.9266 4.77878H8.90625V3.07488C8.90625 1.59843 8.87473 1.30921 8.67035 0.908549C8.23793 0.0609322 7.17938 -0.248443 6.30012 0.215737ZM28.8281 18.2553V28.2163H18.8672H8.90625V18.2553V8.29441H18.8672H28.8281V18.2553ZM48.3287 18.9581C47.2713 21.6005 46.4062 23.9209 46.4062 24.1147C46.4062 24.3085 47.2713 26.629 48.3287 29.2713L50.2511 34.0757H39.6333H29.0155L30.4889 32.5815C31.2993 31.7598 32.0481 30.9186 32.153 30.7124C32.3237 30.3766 32.3438 29.4886 32.3438 22.2456V14.1538H41.2975H50.2511L48.3287 18.9581Z" fill="#219653"/>
</svg>
