<svg width="60" height="60" viewBox="0 0 60 60" fill="none" xmlns="http://www.w3.org/2000/svg">
<path fill-rule="evenodd" clip-rule="evenodd" d="M3.45909 5.10712C2.8484 5.33161 2.52726 5.60373 2.24675 6.13411L2 6.60083L2.02752 30.1094L2.05516 53.618L2.35093 54.0649C2.5136 54.3108 2.85228 54.6218 3.10354 54.7559L3.56037 55H29.5254C55.297 55 55.493 54.9984 55.8553 54.785C56.056 54.6667 56.3705 54.384 56.5541 54.1568C56.8588 53.7798 56.8881 53.6755 56.8881 52.9662C56.8881 52.0765 56.667 51.638 55.9866 51.1775L55.5979 50.9144L30.8972 50.8867L6.19654 50.8588L6.16859 28.6847L6.14074 6.51052L5.85561 6.02552C5.36695 5.19442 4.31642 4.79189 3.45909 5.10712ZM38.8323 10.554C37.8386 10.7908 37.2024 11.7036 37.2906 12.7666C37.3437 13.4066 37.5383 13.7337 38.1704 14.2454L38.5764 14.5742L44.2712 14.6279L49.9661 14.6817L43.8274 20.8012L37.6887 26.9205L35.1928 24.4404C33.0155 22.2769 32.6359 21.944 32.2178 21.832C31.6932 21.6915 31.0593 21.7534 30.6161 21.9884C30.4597 22.0715 26.0183 26.4607 20.7463 31.7425C11.3712 41.135 11.1586 41.357 11.0529 41.871C10.8477 42.8699 11.2991 43.8319 12.1663 44.2435C12.6208 44.4592 13.5308 44.4562 13.9679 44.2377C14.1571 44.143 18.2071 40.1757 22.9678 35.4213L31.6237 26.7772L33.9881 29.1537C35.4718 30.645 36.5128 31.6053 36.7827 31.7317C37.3052 31.9765 37.895 31.9927 38.4127 31.7763C38.6688 31.6694 41.1738 29.2678 45.8278 24.6673L52.8562 17.7199L52.8569 23.028C52.8572 26.4003 52.8986 28.4843 52.9702 28.7422C53.102 29.2169 53.6132 29.8363 54.0667 30.0708C54.9018 30.5026 56.1201 30.1554 56.6984 29.321L56.9956 28.8922L57.0249 20.4916L57.0544 12.0909L56.8016 11.6123C56.6346 11.2962 56.3719 11.0241 56.0281 10.8111L55.5073 10.4886L47.3814 10.4709C42.6284 10.4605 39.0798 10.495 38.8323 10.554Z" fill="#1096C9"/>
</svg>
