<svg width="30" height="30" viewBox="0 0 30 30" fill="none" xmlns="http://www.w3.org/2000/svg">
<path fill-rule="evenodd" clip-rule="evenodd" d="M11.2349 5.03252C9.20949 5.1037 7.95073 5.51638 6.90489 6.4521C5.82224 7.42081 5.31011 8.5089 5.06825 10.3545C5.00719 10.8205 5.00004 11.2963 5 14.9013C4.99992 19.117 5.00837 19.3737 5.17814 20.318C5.40072 21.5561 5.84014 22.456 6.60988 23.2502C7.54266 24.2127 8.59405 24.6867 10.3 24.914C10.7094 24.9685 11.3081 24.9812 14.1276 24.9953C19.1692 25.0204 20.1833 24.9561 21.379 24.5358C23.3102 23.8568 24.5203 22.2793 24.8564 20.0027C24.9671 19.2523 25.0049 17.4893 24.9824 14.1195C24.9606 10.8693 24.9446 10.4813 24.7969 9.64362C24.4862 7.88102 23.5306 6.50745 22.1086 5.7795C21.136 5.28164 20.269 5.09529 18.6231 5.03029C17.572 4.98877 12.4347 4.99034 11.2349 5.03252ZM18.6426 6.82952C19.826 6.90684 20.5424 7.06371 21.2253 7.39512C22.2926 7.91308 22.8619 8.81525 23.0628 10.3073C23.1958 11.2942 23.2342 17.6409 23.1159 19.0482C22.975 20.7228 22.6027 21.5933 21.7297 22.2889C21.1049 22.7868 20.3449 23.0216 19.0159 23.1272C18.3435 23.1807 11.8985 23.182 11.0981 23.1289C9.49044 23.0221 8.68028 22.7458 7.95648 22.0572C7.33278 21.4639 6.98874 20.665 6.8334 19.4496C6.77613 19.0015 6.76507 18.463 6.75537 15.6441C6.74087 11.4298 6.78004 10.5287 7.01877 9.58499C7.47843 7.76805 8.6476 6.95136 10.9611 6.83128C11.8139 6.78699 17.9703 6.78558 18.6426 6.82952ZM20.1244 8.47168C19.7377 8.54936 19.4345 8.77335 19.2556 9.11344C19.1654 9.28501 19.1514 9.35818 19.1511 9.66317C19.1508 9.97992 19.1623 10.0357 19.2659 10.2229C19.4852 10.6187 19.8079 10.8195 20.2691 10.8471C20.5321 10.8628 20.5944 10.8523 20.8085 10.7562C21.2631 10.5522 21.5315 10.1294 21.5276 9.62337C21.5221 8.9129 20.8154 8.33287 20.1244 8.47168ZM14.5576 9.86402C12.4017 10.065 10.5515 11.6183 10.0242 13.67C9.90198 14.1456 9.86238 14.4774 9.86328 15.0176C9.86559 16.3813 10.3515 17.5782 11.3012 18.5593C12.3927 19.6869 13.841 20.2362 15.4017 20.1144C17.462 19.9536 19.2347 18.5578 19.8778 16.5902C20.219 15.5459 20.2085 14.3149 19.8496 13.309C19.2268 11.5636 17.7399 10.2833 15.9387 9.94157C15.6074 9.87876 14.8537 9.83642 14.5576 9.86402ZM15.8852 11.7934C16.9909 12.1091 17.8806 13.0042 18.1997 14.1222C18.318 14.5366 18.3272 15.3844 18.2178 15.8004C17.7046 17.7526 15.6485 18.807 13.7686 18.0821C12.4609 17.5778 11.5977 16.2324 11.6775 14.8232C11.7619 13.3326 12.8332 12.0665 14.2773 11.7507C14.7269 11.6523 15.4592 11.6718 15.8852 11.7934Z" fill="#E15494"/>
</svg>
