<svg width="60" height="60" viewBox="0 0 60 60" fill="none" xmlns="http://www.w3.org/2000/svg">
<g id="Frame 25" clip-path="url(#clip0_660_26)">
<path id="earnings (Traced)" fill-rule="evenodd" clip-rule="evenodd" d="M43.2142 0.237241C42.7194 0.498452 42.3047 1.18986 42.3047 1.75341C42.3047 2.28017 42.7189 3.00662 43.1555 3.24509C43.4486 3.40529 43.9093 3.46599 45.1758 3.51123L46.8164 3.56982L38.4136 12.0073L30.0109 20.4448L27.0464 17.499C25.416 15.8787 23.9133 14.4681 23.707 14.3642C23.2305 14.1242 22.7084 14.1238 22.2305 14.363C21.7438 14.6068 7.9316 28.3676 7.48699 29.0518C7.08 29.678 7.05305 30.2041 7.39664 30.8154C7.85508 31.6312 8.85035 31.9633 9.64453 31.5656C9.85078 31.4622 12.9327 28.4705 16.4933 24.9174L22.9671 18.4571L25.9269 21.4007C27.5548 23.0197 29.0555 24.4293 29.2617 24.5333C29.7402 24.7742 30.2624 24.7735 30.7383 24.5311C30.9445 24.4261 35.2106 20.2206 40.2185 15.1854L49.3237 6.03076L49.3298 7.58818C49.335 8.90994 49.3717 9.21556 49.5718 9.60802C49.8371 10.128 50.5123 10.5425 51.0938 10.5425C51.6752 10.5425 52.3504 10.128 52.6157 9.60802C52.838 9.17208 52.8516 8.92294 52.8516 5.26904C52.8516 1.61513 52.838 1.36599 52.6157 0.930053C52.4638 0.63228 52.2149 0.383374 51.9171 0.231499C51.4804 0.00872534 51.2378 -0.00416529 47.5535 0.000756587C43.9011 0.00567846 43.6243 0.0206785 43.2142 0.237241ZM43.3314 21.5654C43.0636 21.7068 42.8016 21.9763 42.6575 22.2586C42.4244 22.7156 42.4219 22.9191 42.4219 40.6597C42.4219 58.4074 42.4243 58.6036 42.6578 59.0611C42.8096 59.3589 43.0586 59.6078 43.3563 59.7597C43.8054 59.9887 44.0336 59.9956 51.2109 59.9956C58.3883 59.9956 58.6165 59.9887 59.0655 59.7597C59.3633 59.6078 59.6122 59.3589 59.7641 59.0611C59.9975 58.6036 60 58.4074 60 40.6597C60 22.912 59.9975 22.7157 59.7641 22.2582C59.6122 21.9604 59.3633 21.7115 59.0655 21.5596C58.6161 21.3304 58.3937 21.3238 51.1863 21.3289C44.0336 21.3339 43.7539 21.3424 43.3314 21.5654ZM56.4844 26.5972V28.355H51.2109H45.9375V26.5972V24.8394H51.2109H56.4844V26.5972ZM56.4844 33.6284V35.3862H51.2109H45.9375V33.6284V31.8706H51.2109H56.4844V33.6284ZM22.1204 35.6279C21.8527 35.7693 21.5906 36.0388 21.4466 36.3211C21.2155 36.7742 21.2109 36.9945 21.2109 47.6909C21.2109 58.3918 21.2154 58.6075 21.4468 59.0611C21.5987 59.3589 21.8476 59.6078 22.1454 59.7597C22.5945 59.9887 22.8226 59.9956 30 59.9956C37.1774 59.9956 37.4055 59.9887 37.8546 59.7597C38.1524 59.6078 38.4013 59.3589 38.5532 59.0611C38.7846 58.6075 38.7891 58.3918 38.7891 47.6909C38.7891 36.9901 38.7846 36.7743 38.5532 36.3207C38.4013 36.0229 38.1524 35.774 37.8546 35.6221C37.4052 35.3929 37.1828 35.3863 29.9754 35.3914C22.8226 35.3964 22.543 35.4049 22.1204 35.6279ZM35.2734 40.6597V42.4175H30H24.7266V40.6597V38.9019H30H35.2734V40.6597ZM56.4844 40.6597V42.4175H51.2109H45.9375V40.6597V38.9019H51.2109H56.4844V40.6597ZM0.909492 42.6591C0.641719 42.8006 0.379687 43.0701 0.235664 43.3524C0.00691405 43.8008 0 44.0322 0 51.2065C0 58.3839 0.00691406 58.6121 0.235898 59.0611C0.387773 59.3589 0.63668 59.6078 0.934453 59.7597C1.38352 59.9887 1.61168 59.9956 8.78906 59.9956C15.9664 59.9956 16.1946 59.9887 16.6437 59.7597C16.9414 59.6078 17.1904 59.3589 17.3422 59.0611C17.5712 58.6121 17.5781 58.3839 17.5781 51.2065C17.5781 44.0292 17.5712 43.801 17.3422 43.3519C17.1904 43.0542 16.9414 42.8052 16.6437 42.6534C16.1943 42.4242 15.9718 42.4176 8.76445 42.4226C1.61168 42.4277 1.33207 42.4361 0.909492 42.6591ZM14.0625 47.6909V49.4487H8.78906H3.51562V47.6909V45.9331H8.78906H14.0625V47.6909ZM35.2734 47.6909V49.4487H30H24.7266V47.6909V45.9331H30H35.2734V47.6909ZM56.4844 47.6909V49.4487H51.2109H45.9375V47.6909V45.9331H51.2109H56.4844V47.6909ZM14.0625 54.7222V56.48H8.78906H3.51562V54.7222V52.9644H8.78906H14.0625V54.7222ZM35.2734 54.7222V56.48H30H24.7266V54.7222V52.9644H30H35.2734V54.7222ZM56.4844 54.7222V56.48H51.2109H45.9375V54.7222V52.9644H51.2109H56.4844V54.7222Z" fill="#FFA801"/>
</g>
<defs>
<clipPath id="clip0_660_26">
<rect width="60" height="60" fill="white"/>
</clipPath>
</defs>
</svg>
