<svg width="60" height="60" viewBox="0 0 60 60" fill="none" xmlns="http://www.w3.org/2000/svg">
<g id="2" clip-path="url(#clip0_660_13)">
<path id="investment (Traced)" fill-rule="evenodd" clip-rule="evenodd" d="M0.909492 0.237708C0.641719 0.379153 0.379687 0.648685 0.235664 0.930989C0.00152342 1.39013 0 1.57201 0 29.9961C0 58.4316 0.00140626 58.6019 0.235898 59.0616C0.387773 59.3594 0.63668 59.6083 0.934453 59.7602C1.39418 59.9947 1.56445 59.9961 30 59.9961C58.4355 59.9961 58.6058 59.9947 59.0655 59.7602C59.3633 59.6083 59.6122 59.3594 59.7641 59.0616C59.9981 58.6027 60 58.4198 59.9993 35.5965C59.9987 15.9029 59.9737 12.4285 59.8255 11.4449C59.075 6.46646 55.5795 2.31357 50.7882 0.708333C48.5633 -0.0370966 49.8161 -0.00346382 24.4336 0.00169243C1.67965 0.00637993 1.34133 0.00977837 0.909492 0.237708ZM44.7656 8.67263C44.7656 13.6137 44.7757 13.8533 45.0015 14.296C45.3994 15.0758 45.864 15.2304 47.8078 15.2304H49.4531V16.9883V18.7461H48.3937C47.5634 18.7461 47.2345 18.797 46.872 18.982C46.352 19.2473 45.9375 19.9224 45.9375 20.5039C45.9375 21.0854 46.352 21.7605 46.872 22.0258C47.2849 22.2365 47.5609 22.2617 49.4531 22.2617C51.9189 22.2617 52.3134 22.1493 52.7329 21.3272C52.9499 20.9017 52.9688 20.6398 52.9688 18.0476V15.2304H54.7266H56.4844V20.5039V25.7773H30H3.51562V14.6445V3.51169H24.1406H44.7656V8.67263ZM50.5915 4.38896C53.2767 5.6097 55.3297 8.02493 56.1267 10.9009L56.3523 11.7148H52.3167H48.2812V7.67935V3.64376L49.1309 3.87755C49.5982 4.00599 50.2554 4.23615 50.5915 4.38896ZM7.94074 7.26896C7.67297 7.4104 7.41094 7.67993 7.26691 7.96224C7.03957 8.4079 7.03125 8.64415 7.03125 14.6445C7.03125 20.6473 7.03945 20.881 7.26715 21.3272C7.68656 22.1493 8.08113 22.2617 10.5469 22.2617C13.0126 22.2617 13.4072 22.1493 13.8266 21.3272C14.1254 20.7415 14.1254 20.2662 13.8266 19.6805C13.4696 18.9809 12.9116 18.7461 11.6062 18.7461H10.5469V14.6445V10.5429H11.6062C12.9116 10.5429 13.4696 10.3081 13.8266 9.60849C14.1254 9.02279 14.1254 8.54747 13.8266 7.96177C13.4053 7.13607 13.0155 7.0265 10.5223 7.03247C8.62055 7.03704 8.32957 7.06376 7.94074 7.26896ZM27.9492 7.19853C25.703 7.55302 23.5332 8.59036 22.1578 9.9672C18.0803 14.0493 20.1608 19.8562 26.3672 21.7163C31.9356 23.3852 37.9827 21.0397 39.6347 16.5701C40.0002 15.5812 40.0002 13.7078 39.6347 12.7189C38.164 8.73978 33.1603 6.37599 27.9492 7.19853ZM32.4674 10.8732C34.1346 11.3638 35.5779 12.3618 36.1255 13.4027C36.4726 14.0626 36.4746 15.2227 36.1298 15.8779C35.7615 16.5776 34.7936 17.4185 33.8355 17.8709C32.4858 18.5084 31.6635 18.6823 30 18.6823C28.3365 18.6823 27.5142 18.5084 26.1645 17.8709C25.2064 17.4185 24.2385 16.5776 23.8702 15.8779C23.5275 15.2267 23.5275 14.0623 23.8702 13.4111C24.5536 12.1127 26.4551 11.0127 28.7109 10.611C29.3864 10.4908 31.7215 10.6537 32.4674 10.8732ZM7.03125 32.7547C7.03125 35.9928 7.04648 36.2463 7.26715 36.6788C7.68656 37.5009 8.08113 37.6133 10.5469 37.6133C13.0126 37.6133 13.4072 37.5009 13.8266 36.6788C14.1254 36.0931 14.1254 35.6178 13.8266 35.0321C13.4696 34.3325 12.9116 34.0976 11.6062 34.0976H10.5469V31.6953V29.2929H15.2764H20.006L20.068 30.2597C20.1021 30.7915 20.231 31.5233 20.3544 31.886C21.6937 35.8205 26.7514 38.2341 31.9995 37.443C36.4793 36.7676 39.702 33.8494 39.932 30.2597L39.994 29.2929H44.7236H49.4531V31.6953V34.0976H48.3937C47.0884 34.0976 46.5303 34.3325 46.1734 35.0321C45.8746 35.6178 45.8746 36.0931 46.1734 36.6788C46.5928 37.5009 46.9874 37.6133 49.4531 37.6133C51.9189 37.6133 52.3134 37.5009 52.7329 36.6788C52.9535 36.2463 52.9688 35.9928 52.9688 32.7547V29.2929H54.7266H56.4844V35.2109V41.1289H30H3.51562V35.2109V29.2929H5.27344H7.03125V32.7547ZM36.3986 29.5914C36.7059 30.8161 35.5934 32.3923 33.8355 33.2225C32.4858 33.86 31.6635 34.0339 30 34.0339C28.3365 34.0339 27.5142 33.86 26.1645 33.2225C24.4066 32.3923 23.2941 30.8161 23.6014 29.5914L23.6763 29.2929H30H36.3237L36.3986 29.5914ZM7.03125 48.1062C7.03125 51.3443 7.04648 51.5978 7.26715 52.0304C7.68656 52.8524 8.08113 52.9648 10.5469 52.9648C13.0126 52.9648 13.4072 52.8524 13.8266 52.0304C14.1254 51.4447 14.1254 50.9693 13.8266 50.3836C13.4696 49.684 12.9116 49.4492 11.6062 49.4492H10.5469V47.0468V44.6445H15.2764H20.006L20.068 45.6113C20.1021 46.1431 20.231 46.8748 20.3544 47.2375C21.6937 51.1721 26.7514 53.5857 31.9995 52.7945C36.4793 52.1192 39.702 49.201 39.932 45.6113L39.994 44.6445H44.7236H49.4531V47.0468V49.4492H48.3937C47.0884 49.4492 46.5303 49.684 46.1734 50.3836C45.8746 50.9693 45.8746 51.4447 46.1734 52.0304C46.5928 52.8524 46.9874 52.9648 49.4531 52.9648C51.9189 52.9648 52.3134 52.8524 52.7329 52.0304C52.9535 51.5978 52.9688 51.3443 52.9688 48.1062V44.6445H54.7266H56.4844V50.5625V56.4804H30H3.51562V50.5625V44.6445H5.27344H7.03125V48.1062ZM36.3986 44.943C36.7059 46.1677 35.5934 47.7439 33.8355 48.574C32.4858 49.2115 31.6635 49.3854 30 49.3854C28.3365 49.3854 27.5142 49.2115 26.1645 48.574C24.4066 47.7439 23.2941 46.1677 23.6014 44.943L23.6763 44.6445H30H36.3237L36.3986 44.943Z" fill="#C3363A"/>
</g>
<defs>
<clipPath id="clip0_660_13">
<rect width="60" height="60" fill="white"/>
</clipPath>
</defs>
</svg>
