<svg width="30" height="30" viewBox="0 0 30 30" fill="none" xmlns="http://www.w3.org/2000/svg">
<path d="M15 1.875C12.763 1.87748 10.6183 2.76723 9.03653 4.34903C7.45473 5.93083 6.56498 8.0755 6.5625 10.3125V19.6875C6.5625 21.9253 7.45145 24.0714 9.03379 25.6537C10.6161 27.2361 12.7622 28.125 15 28.125C17.2378 28.125 19.3839 27.2361 20.9662 25.6537C22.5486 24.0714 23.4375 21.9253 23.4375 19.6875V10.3125C23.435 8.0755 22.5453 5.93083 20.9635 4.34903C19.3817 2.76723 17.237 1.87748 15 1.875ZM21.5625 19.6875C21.5625 21.428 20.8711 23.0972 19.6404 24.3279C18.4097 25.5586 16.7405 26.25 15 26.25C13.2595 26.25 11.5903 25.5586 10.3596 24.3279C9.1289 23.0972 8.4375 21.428 8.4375 19.6875V10.3125C8.4375 8.57202 9.1289 6.90282 10.3596 5.67211C11.5903 4.4414 13.2595 3.75 15 3.75C16.7405 3.75 18.4097 4.4414 19.6404 5.67211C20.8711 6.90282 21.5625 8.57202 21.5625 10.3125V19.6875Z" fill="white"/>
<path d="M15 7.5C14.7514 7.5 14.5129 7.59877 14.3371 7.77459C14.1613 7.9504 14.0625 8.18886 14.0625 8.4375V12.1875C14.0625 12.4361 14.1613 12.6746 14.3371 12.8504C14.5129 13.0262 14.7514 13.125 15 13.125C15.2486 13.125 15.4871 13.0262 15.6629 12.8504C15.8387 12.6746 15.9375 12.4361 15.9375 12.1875V8.4375C15.9375 8.18886 15.8387 7.9504 15.6629 7.77459C15.4871 7.59877 15.2486 7.5 15 7.5Z" fill="white"/>
</svg>
