<svg width="60" height="60" viewBox="0 0 60 60" fill="none" xmlns="http://www.w3.org/2000/svg">
<path fill-rule="evenodd" clip-rule="evenodd" d="M42.3084 3.9849C42.1494 4.0483 40.7256 5.414 39.1444 7.01959C37.4025 8.78841 36.1541 9.96545 35.9766 10.0065C35.8154 10.0436 33.0087 10.0588 29.7395 10.0404L23.7953 10.0069L20.9504 7.17838C19.3856 5.62259 17.9367 4.26474 17.7305 4.1608C17.2659 3.92666 16.6133 3.91787 16.1953 4.13994C15.9143 4.28935 3.31992 16.8557 1.02105 19.2806L0.117188 20.2339V20.9831C0.117188 21.4827 0.181406 21.8286 0.309961 22.0218C0.416016 22.1812 1.59961 23.419 2.94012 24.7726C5.77629 27.6364 5.92102 27.8627 6.10348 29.7207C6.26754 31.3895 6.42129 32.0456 6.88945 33.0738C7.29832 33.9718 7.30301 33.9991 7.10391 34.3042C6.36727 35.433 6.0048 37.0247 6.2073 38.2419C6.57445 40.4497 8.3393 42.2613 10.528 42.6773C11.1914 42.8033 11.25 42.8391 11.25 43.1179C11.25 43.5729 11.5625 44.5366 11.9143 45.166C12.5768 46.3512 14.1806 47.5605 15.3353 47.7452C16.2786 47.8961 16.2371 47.8607 16.3819 48.6385C16.7398 50.5628 18.1727 52.1423 20.1391 52.7797C20.623 52.9366 21.0116 52.9692 21.8384 52.9224C22.4278 52.889 23.0156 52.8282 23.1445 52.7872C23.3395 52.7251 23.4373 52.8264 23.727 53.391C24.2184 54.3488 25.1704 55.244 26.2354 55.7497C26.987 56.1067 27.2651 56.1746 28.15 56.2169C29.3355 56.2735 29.9719 56.1371 30.9852 55.6086C31.797 55.1853 33.3929 53.6561 33.7467 52.9626C33.8801 52.7013 34.0196 52.4874 34.057 52.4874C34.0943 52.4874 34.4283 52.6747 34.7992 52.9037C35.1701 53.1326 35.7581 53.3967 36.1059 53.4904C36.882 53.6997 38.2304 53.7235 38.9201 53.5401C40.8461 53.0276 42.4334 51.3085 42.8099 49.327L42.9403 48.641L43.5893 48.5132C45.825 48.0733 47.5764 46.2683 47.9101 44.0602L47.9883 43.5431L48.7426 43.3892C50.1495 43.1023 51.4445 42.211 52.2048 41.0064C53.3032 39.2665 53.2985 36.8892 52.1933 35.2191C51.8957 34.7694 51.8916 34.7406 52.0816 34.4498C52.9519 33.1181 53.6077 31.1701 53.7313 29.5485C53.8668 27.7733 53.6479 28.1042 56.7731 24.9496C58.3383 23.3698 59.7046 21.9085 59.8095 21.7022C60.0698 21.1898 60.0479 20.5167 59.7552 20.0364C59.4387 19.5174 44.2207 4.2358 43.8047 4.01924C43.4434 3.83127 42.7342 3.81498 42.3084 3.9849ZM49.3649 14.489C52.8294 17.9531 55.6641 20.8363 55.6641 20.8963C55.6641 20.9562 54.6619 22.0194 53.4369 23.2587C51.453 25.2661 51.1642 25.6085 50.7909 26.3944C50.4253 27.1642 50.3507 27.4789 50.2057 28.8613C50.0486 30.3608 49.774 31.4219 49.4169 31.9101C49.2783 32.0997 48.866 31.7159 45.0811 27.873C42.7806 25.5373 40.8984 23.5921 40.8984 23.5504C40.8984 23.5086 41.1779 23.305 41.5195 23.0981C42.7016 22.3816 44.5836 20.2426 45.0035 19.1384C45.4479 17.9696 44.607 16.746 43.3594 16.746C42.6219 16.746 42.1838 17.0562 41.5609 18.019C40.2676 20.0181 38.4969 21.1017 36.2386 21.2758C35.0917 21.3643 34.2226 21.202 32.8151 20.6367C31.9826 20.3023 31.6214 20.2257 30.6445 20.1766C28.7085 20.0793 27.5899 20.5593 25.8415 22.2379C24.5527 23.4753 23.3631 24.0108 21.9039 24.0108C21.3264 24.0108 20.2734 23.785 20.2734 23.6613C20.2734 23.6085 22.0684 21.4113 24.2623 18.7784C26.9931 15.501 28.3513 13.9586 28.5689 13.8876C28.7436 13.8305 30.5742 13.7453 32.6367 13.6983C37.7479 13.582 37.5845 13.6479 40.7812 10.4088C41.9736 9.20056 42.9754 8.20717 43.0075 8.20131C43.0395 8.19533 45.9002 11.0248 49.3649 14.489ZM19.3322 10.5752C21.7111 12.9317 22.1407 13.2466 23.3471 13.5183L23.9109 13.6454L19.9107 18.4457C17.7107 21.0861 15.8639 23.369 15.8068 23.519C15.3796 24.6428 16.0465 25.6021 17.9402 26.5873C19.1831 27.234 20.4027 27.5335 21.8196 27.5404C24.3711 27.5526 26.2651 26.7871 28.1292 24.9901C29.6531 23.521 30.072 23.4121 31.733 24.0535C33.2535 24.6405 34.3215 24.8484 35.7989 24.8447L37.0861 24.8416L43.1231 30.9458C46.4435 34.3032 49.2243 37.1616 49.3025 37.298C49.3808 37.4344 49.4467 37.8151 49.449 38.1439C49.4585 39.5111 48.105 40.349 46.8996 39.7223C46.6605 39.5979 45.6738 38.6978 44.707 37.722C43.7402 36.7463 42.8068 35.8724 42.6328 35.7802C41.3516 35.1009 39.8129 36.4188 40.2016 37.8625C40.3109 38.2682 40.6811 38.707 42.3053 40.3558C43.9406 42.0158 44.2903 42.4311 44.3583 42.7932C44.5915 44.0364 43.8115 45.007 42.5789 45.007C42.293 45.007 41.9346 44.9254 41.7825 44.8258C41.6304 44.7262 40.7761 43.899 39.8838 42.9877C38.9917 42.0765 38.1127 41.2243 37.9305 41.094C36.5914 40.1365 34.7923 41.2325 35.0907 42.8238C35.1582 43.1838 35.5153 43.6143 37.1162 45.2665C39.4798 47.7057 39.6659 48.0625 39.1406 49.1476C38.7485 49.9576 37.7984 50.3364 36.951 50.0207C36.7696 49.9532 35.7773 49.0652 34.7461 48.0474C32.1578 45.4928 31.707 45.1777 30.2052 44.8731C29.6149 44.7534 29.5237 44.6976 29.4686 44.4224C29.3152 43.6573 29.0118 42.7799 28.7384 42.3108C28.3532 41.6499 27.3745 40.6911 26.7786 40.3908C26.5201 40.2605 26.2915 40.1389 26.2706 40.1206C26.2498 40.1023 26.3239 39.9111 26.4354 39.6956C26.7484 39.0906 26.9502 38.2027 26.9517 37.4241C26.9592 33.6283 23.0215 30.9748 19.5789 32.4558C19.2479 32.5982 18.9625 32.6943 18.9444 32.6694C18.9264 32.6445 18.7378 32.3471 18.5255 32.0086C17.5311 30.4238 15.9121 29.5225 14.0545 29.5199C12.6409 29.5179 11.6877 29.871 10.5227 30.8285L9.97137 31.2816L9.86051 30.8396C9.79957 30.5964 9.7159 29.9507 9.67465 29.4045C9.57117 28.0373 9.43277 27.5247 8.82047 26.2422C8.32055 25.195 8.18203 25.023 6.31359 23.1274C5.22586 22.0238 4.33594 21.0726 4.33594 21.0135C4.33594 20.907 16.882 8.30771 16.9881 8.30771C17.0184 8.30771 18.0734 9.32806 19.3322 10.5752ZM14.687 33.1941C15.1904 33.4045 15.6745 33.9932 15.7723 34.5139C15.9264 35.3356 15.6684 35.7837 14.1505 37.3319C12.2875 39.2321 11.7368 39.5017 10.7227 39.0108C9.90211 38.6136 9.51691 37.596 9.84961 36.704C10.0065 36.2829 12.8346 33.4138 13.3008 33.2027C13.7546 32.9971 14.2088 32.9943 14.687 33.1941ZM22.5012 35.8761C23.1489 36.3168 23.3796 36.7245 23.3732 37.4159C23.3691 37.8502 23.2942 38.1303 23.1172 38.3738C22.9796 38.5631 21.6286 39.9524 20.1149 41.4613L17.3627 44.2048L16.7279 44.2574C15.4357 44.3647 14.5764 43.3962 14.8185 42.1055C14.8856 41.7478 15.3473 41.216 17.5948 38.9081C19.0773 37.3854 20.4844 36.0214 20.7213 35.8767C21.2895 35.5299 21.9922 35.5297 22.5012 35.8761ZM24.9567 43.4933C25.2762 43.6571 25.5519 43.9116 25.6847 44.1652C25.94 44.6531 25.9623 45.4634 25.7323 45.9015C25.6409 46.0755 24.8631 46.912 24.0038 47.7602C22.7087 49.0387 22.3643 49.3169 21.9907 49.3867C21.0405 49.564 20.0272 48.8908 19.8539 47.9669C19.7006 47.15 19.9511 46.713 21.4623 45.16C23.3502 43.22 23.9065 42.9547 24.9567 43.4933ZM30.2745 48.7368C31.1145 49.4744 31.1698 50.572 30.4136 51.4947C29.748 52.307 29.1423 52.6632 28.4265 52.6632C27.3905 52.6632 26.7188 51.948 26.7188 50.8447C26.7188 50.2292 26.9193 49.8605 27.6178 49.1917C28.3616 48.4797 28.538 48.3937 29.2635 48.3894C29.778 48.3864 29.9379 48.4414 30.2745 48.7368Z" fill="#C3363A"/>
</svg>
