<svg width="60" height="60" viewBox="0 0 60 60" fill="none" xmlns="http://www.w3.org/2000/svg">
<g id="3" clip-path="url(#clip0_660_19)">
<path id="rocket 1 (Traced)" fill-rule="evenodd" clip-rule="evenodd" d="M53.9046 0.0593723C51.7244 0.196115 48.4679 0.720924 46.0812 1.32015C38.5254 3.21717 31.8043 6.67375 25.6472 11.8293L24.2561 12.9941L22.72 12.4367C19.603 11.3057 17.0381 10.8865 15.3937 11.239C13.952 11.5483 11.7123 12.8073 9.34737 14.6378C6.38184 16.9333 0.665356 22.394 0.246692 23.3313C-0.268295 24.484 0.0418306 25.8917 1.00142 26.7559C1.43834 27.1495 1.9051 27.3405 4.3268 28.1171C7.74385 29.213 10.7844 30.1912 10.8258 30.2079C10.8426 30.2147 10.3326 31.2491 9.69262 32.5065L8.52893 34.7927L8.53547 35.8338C8.54756 37.7319 8.31361 37.4341 15.3171 44.4659C21.9953 51.1711 22.148 51.3 23.6359 51.486C24.6699 51.6152 25.4387 51.3744 27.7041 50.2122C29.7399 49.1678 29.7557 49.1622 29.8665 49.4537C29.928 49.6153 30.5845 51.639 31.3255 53.9508C32.0665 56.2627 32.7459 58.2959 32.8352 58.469C33.5023 59.7617 35.3186 60.3726 36.6785 59.7617C37.5565 59.3673 42.6005 54.1347 45.0249 51.1031C46.9763 48.663 48.3955 46.2047 48.7605 44.6316C49.1332 43.0261 48.7139 40.4339 47.573 37.2897L47.0156 35.7537L48.1805 34.3626C50.1815 31.9727 51.5597 30.0383 53.1637 27.3683C54.0955 25.8172 55.8266 22.3446 56.5015 20.6725C58.5947 15.4865 59.9385 9.37297 59.983 4.8344C59.9968 3.419 59.9773 3.29548 59.6207 2.54164C58.9123 1.04452 57.6959 0.195485 55.9984 0.0135396C55.7214 -0.0160502 54.7792 0.00447383 53.9046 0.0593723ZM56.1944 3.82948C56.4323 4.06746 56.4469 4.18708 56.3745 5.30897C56.0062 11.0192 54.5279 16.6033 51.9839 21.8937C47.8236 30.5451 40.9694 37.9562 31.76 43.7603C28.9091 45.5571 24.5879 47.8923 24.1138 47.8923C23.82 47.8923 12.1175 36.1907 12.1175 35.897C12.1175 35.6231 12.9685 33.9133 14.2319 31.6494C22.4969 16.8384 34.3656 7.45429 48.6325 4.45011C50.2851 4.10221 52.894 3.73681 54.2986 3.65673C55.9201 3.56418 55.9299 3.56507 56.1944 3.82948ZM39.1889 11.6913C35.1278 12.6079 32.602 16.7911 33.6456 20.8717C34.0095 22.294 34.5684 23.26 35.6591 24.3507C36.7497 25.4413 37.7158 26.0003 39.1381 26.3642C43.1275 27.3844 47.1536 25.0382 48.3261 21.0097C48.596 20.0824 48.6285 18.2529 48.3921 17.2952C47.7372 14.642 45.8566 12.6331 43.2527 11.8055C42.3767 11.5271 40.1888 11.4657 39.1889 11.6913ZM19.5663 15.2091C20.144 15.3767 20.7767 15.575 20.9724 15.6495L21.3281 15.7853L20.279 16.9495C17.8758 19.6163 16.0859 21.9293 14.0378 25.015C13.311 26.1099 12.6525 26.9834 12.5743 26.956C12.4962 26.9285 10.5777 26.3161 8.31097 25.5948C6.04414 24.8736 4.19396 24.2551 4.19925 24.2205C4.21713 24.1036 8.77144 19.8317 9.91398 18.8602C12.7298 16.4658 15.0645 14.9664 16.2453 14.7941C17.032 14.6794 18.2764 14.8349 19.5663 15.2091ZM42.6658 15.4262C43.4505 15.7948 44.2106 16.5548 44.5982 17.3582C45.0148 18.2219 45.0381 19.7369 44.6478 20.5843C44.2635 21.4189 43.5563 22.1449 42.7348 22.5483C42.1226 22.849 41.8709 22.898 40.9517 22.8952C39.6979 22.8917 38.9999 22.6167 38.1913 21.8081C37.3661 20.983 37.111 20.3169 37.1138 18.9951C37.1159 18.0157 37.1616 17.7752 37.4503 17.2243C37.7813 16.5922 38.5164 15.8255 39.0834 15.5208C40.1289 14.9588 41.5886 14.9202 42.6658 15.4262ZM44.5847 39.7079C45.0266 41.0749 45.2448 42.2088 45.2478 43.1525C45.2503 43.9721 45.2003 44.1495 44.6754 45.1844C44.0621 46.3933 42.7325 48.2475 41.1538 50.0958C40.1706 51.247 35.9045 55.7922 35.7893 55.8114C35.7546 55.8172 35.1357 53.9669 34.4137 51.6997C33.6917 49.4325 33.0791 47.5135 33.0524 47.4355C33.0258 47.3573 33.8998 46.699 34.9948 45.9726C38.0883 43.9202 40.8426 41.7773 43.3441 39.4768C43.7942 39.0628 44.198 38.7613 44.2414 38.8067C44.2848 38.8523 44.4393 39.2577 44.5847 39.7079ZM6.89205 41.9121C6.2587 42.1368 6.06215 42.3807 5.31963 43.863C3.81673 46.8631 2.90373 50.2707 2.54223 54.2289C2.38408 55.96 2.43847 56.3208 2.94414 56.8968C3.51315 57.545 3.93647 57.6321 5.73049 57.4708C9.6755 57.1162 13.0631 56.2183 16.103 54.7213C17.5433 54.0122 17.8768 53.7458 18.0844 53.1385C18.4457 52.0823 17.7976 50.937 16.7248 50.7358C16.3124 50.6585 16.0484 50.7439 14.6418 51.4102C12.2045 52.5649 9.63445 53.3209 6.73289 53.7368L6.19599 53.8138L6.27293 53.2769C6.68882 50.3753 7.44481 47.8053 8.59956 45.368C9.26137 43.9707 9.35102 43.6956 9.27522 43.2918C9.16064 42.6807 8.56103 42.0126 7.98347 41.8522C7.42781 41.6978 7.50902 41.6934 6.89205 41.9121Z" fill="#1096C9"/>
</g>
<defs>
<clipPath id="clip0_660_19">
<rect width="60" height="60" fill="white"/>
</clipPath>
</defs>
</svg>
