<svg width="48" height="48" viewBox="0 0 48 48" fill="none" xmlns="http://www.w3.org/2000/svg">
<g clip-path="url(#clip0_653_414)">
<path fill-rule="evenodd" clip-rule="evenodd" d="M27.6584 0.294545C27.4165 0.5363 27.3639 0.707868 27.3639 1.25437V1.91964H19.2493C13.2289 1.91964 11.0073 1.95731 10.6409 2.06553C9.98187 2.26026 8.98797 3.25415 8.79325 3.91319C8.70902 4.19826 8.64736 5.12004 8.64736 6.0933V7.77947L8.25743 7.86105C6.87157 8.15104 5.3277 9.41872 4.62235 10.8461C3.63277 12.8483 3.84357 14.9258 5.21828 16.7186C5.46363 17.0386 5.6472 17.3114 5.62608 17.3249C5.60508 17.3384 5.07502 17.4705 4.44814 17.6185C2.04643 18.1851 0.692243 19.3395 0.182458 21.255C-0.032542 22.0624 -0.0705747 32.5227 0.138666 33.2764C0.309514 33.8914 1.10389 34.7336 1.74385 34.978C2.0913 35.1107 2.51974 35.1618 3.05448 35.1344L3.84873 35.0934L3.84849 40.0807C3.84825 45.8749 3.86229 45.9768 4.79128 46.906C5.14857 47.2631 5.57233 47.5446 5.94342 47.6711C7.0375 48.0438 8.39576 47.8775 9.25516 47.2655L9.60718 47.0149L9.95919 47.2655C10.8186 47.8775 12.1769 48.0438 13.2709 47.6711C13.642 47.5446 14.0658 47.2631 14.4231 46.906C15.2563 46.0726 15.3661 45.5882 15.3661 42.7448C15.3661 40.4381 15.3641 40.4195 15.0716 40.1271C14.682 39.7374 14.1306 39.7374 13.741 40.1271C13.4483 40.4197 13.4465 40.436 13.4465 42.7786V45.1356L13.0385 45.5435C12.6792 45.9028 12.5562 45.9514 12.0067 45.9514C11.4572 45.9514 11.3343 45.9028 10.9749 45.5435L10.567 45.1356V38.5794V32.0231L10.2725 31.7287C9.88288 31.339 9.33147 31.339 8.9419 31.7287L8.64736 32.0231V38.5794V45.1356L8.23943 45.5435C7.8801 45.9028 7.75712 45.9514 7.20762 45.9514C6.65813 45.9514 6.53515 45.9028 6.17582 45.5435L5.76789 45.1356V34.1683C5.76789 23.3168 5.76537 23.1981 5.52458 22.9398C5.3908 22.7962 5.15373 22.6466 4.99764 22.6075C4.66818 22.5247 4.03182 22.817 3.92276 23.1011C3.88185 23.2079 3.84825 25.4235 3.84825 28.0246C3.84825 32.5939 3.84009 32.762 3.6083 32.9938C3.28028 33.3219 2.49419 33.3195 2.16401 32.9893C1.92405 32.7493 1.92021 32.6425 1.95405 27.2004C1.98812 21.7344 1.99232 21.6489 2.25507 21.1577C2.77589 20.1838 3.46612 19.8043 5.6436 19.2952C7.0165 18.9741 10.5738 18.8673 11.9181 19.1067C12.6564 19.2382 12.9298 19.2427 13.2378 19.1285C13.4516 19.0493 15.6041 18.0603 18.0213 16.9309C20.4386 15.8014 22.5007 14.8772 22.6039 14.8772C22.9074 14.8772 23.3993 15.388 23.4747 15.7815C23.5236 16.0374 23.4789 16.2241 23.3245 16.4083C23.2036 16.5526 21.053 17.6234 18.5455 18.788C16.038 19.9526 13.8649 21.0162 13.7164 21.1517L13.4465 21.3979V27.4413V33.4847L13.741 33.7791C14.1306 34.1688 14.682 34.1688 15.0716 33.7791C15.3553 33.4955 15.3661 33.425 15.3661 31.8594V30.2344H20.7051H26.0441L26.0373 34.5235L26.0304 38.8127L21.6652 42.592C19.2579 44.6762 17.2381 46.5153 17.162 46.6924C16.9108 47.2768 17.3862 47.991 18.0262 47.991C18.3834 47.991 18.4602 47.9286 23.4601 43.5725L25.9841 41.3735L26.0441 43.0136C26.1005 44.5566 26.1209 44.6672 26.3874 44.8827C26.5431 45.0085 26.8206 45.1116 27.0039 45.1116C27.1873 45.1116 27.4648 45.0085 27.6205 44.8827C27.8872 44.6671 27.9072 44.557 27.9637 43.0054L28.0237 41.357L31.7184 44.584C33.7505 46.3589 35.538 47.8593 35.6908 47.9183C36.0917 48.0731 36.5408 47.9225 36.7835 47.552C37.2417 46.8528 37.1474 46.7467 32.4029 42.6166L28.0237 38.8046L27.9922 34.5195L27.9607 30.2344H36.7366C43.2764 30.2344 45.6385 30.1972 46.0065 30.0885C46.6655 29.8937 47.6594 28.8998 47.8541 28.2408C47.9464 27.9284 48 26.9019 48 25.4459C48 23.1628 47.9977 23.1425 47.7055 22.8503C47.3159 22.4606 46.7645 22.4606 46.3749 22.8503C46.0828 23.1424 46.0804 23.1634 46.0804 25.4352C46.0804 27.7071 46.078 27.7281 45.7858 28.0202L45.4914 28.3147H30.4287H15.3661L15.368 25.3453L15.3699 22.3758L19.6429 20.3965C21.9932 19.308 24.096 18.2949 24.3161 18.1455C25.3903 17.4155 25.7076 15.7913 25.0217 14.5329C24.5065 13.5875 23.5571 12.9576 22.6477 12.9576C21.9962 12.9576 21.3785 13.2044 17.7213 14.9262C15.8163 15.8231 14.2423 16.5569 14.2236 16.5569C14.2048 16.5569 14.3697 16.199 14.5897 15.7616C15.4097 14.1319 15.4122 12.5042 14.5974 10.8582C13.8936 9.4366 12.2888 8.11288 10.9424 7.84365L10.567 7.76855V6.09846C10.567 4.48512 10.5771 4.41829 10.8615 4.13383L11.156 3.83928H28.3237H45.4914L45.7858 4.13383L46.0804 4.42825V10.3181V16.2079L46.3749 16.5023C46.7645 16.892 47.3159 16.892 47.7055 16.5023L48 16.2079V10.3074C48 6.02551 47.9599 4.27156 47.8541 3.91319C47.6594 3.25415 46.6655 2.26026 46.0065 2.06553C45.64 1.95731 43.4184 1.91964 37.3981 1.91964H29.2835V1.25437C29.2835 0.453755 28.9363 0 28.3237 0C28.09 0 27.844 0.10882 27.6584 0.294545ZM18.5401 7.97311C18.3544 8.15872 18.2456 8.40467 18.2456 8.63839C18.2456 8.8721 18.3544 9.11806 18.5401 9.30366L18.8345 9.59821H28.3237H37.8128L38.1073 9.30366C38.293 9.11806 38.4018 8.8721 38.4018 8.63839C38.4018 8.40467 38.293 8.15872 38.1073 7.97311L37.8128 7.67857H28.3237H18.8345L18.5401 7.97311ZM11.2168 10.0079C12.9923 10.8767 13.7753 13.0195 12.9522 14.7572C12.2881 16.1589 11.1166 16.9144 9.60718 16.9144C8.53422 16.9144 7.76348 16.6045 7.04182 15.8829C6.14738 14.9886 5.7583 13.7395 6.00461 12.5531C6.48752 10.227 9.07856 8.96184 11.2168 10.0079ZM26.5786 11.8124C26.3929 11.998 26.2841 12.244 26.2841 12.4777C26.2841 12.7114 26.3929 12.9573 26.5786 13.1429L26.873 13.4375H34.2626H41.6521L41.9465 13.1429C42.1323 12.9573 42.2411 12.7114 42.2411 12.4777C42.2411 12.244 42.1323 11.998 41.9465 11.8124L41.6521 11.5178H34.2626H26.873L26.5786 11.8124ZM27.6584 15.6517C27.4727 15.8373 27.3639 16.0832 27.3639 16.3169C27.3639 16.5507 27.4727 16.7966 27.6584 16.9822L27.9528 17.2768H34.8025H41.6521L41.9465 16.9822C42.1323 16.7966 42.2411 16.5507 42.2411 16.3169C42.2411 16.0832 42.1323 15.8373 41.9465 15.6517L41.6521 15.3571H34.8025H27.9528L27.6584 15.6517ZM46.3749 19.011C45.7797 19.6061 46.2014 20.6361 47.0402 20.6361C47.5334 20.6361 48 20.1695 48 19.6763C48 19.1831 47.5334 18.7165 47.0402 18.7165C46.8065 18.7165 46.5605 18.8253 46.3749 19.011ZM25.7388 19.491C25.553 19.6766 25.4442 19.9225 25.4442 20.1562C25.4442 20.3899 25.553 20.6359 25.7388 20.8215L26.0332 21.1161H33.8426H41.6521L41.9465 20.8215C42.1323 20.6359 42.2411 20.3899 42.2411 20.1562C42.2411 19.9225 42.1323 19.6766 41.9465 19.491L41.6521 19.1964H33.8426H26.0332L25.7388 19.491ZM13.741 36.2878C13.1458 36.8829 13.5675 37.9129 14.4063 37.9129C14.8995 37.9129 15.3661 37.4463 15.3661 36.9531C15.3661 36.4599 14.8995 35.9933 14.4063 35.9933C14.1726 35.9933 13.9266 36.1021 13.741 36.2878Z" fill="#219653"/>
</g>
<defs>
<clipPath id="clip0_653_414">
<rect width="48" height="48" fill="white"/>
</clipPath>
</defs>
</svg>
