<svg width="48" height="48" viewBox="0 0 48 48" fill="none" xmlns="http://www.w3.org/2000/svg">
<path fill-rule="evenodd" clip-rule="evenodd" d="M31.9219 3.10196C29.9904 3.44368 27.7755 4.40256 26.2031 5.57752C24.6089 6.76881 22.9925 8.69012 22.11 10.4424C21.6635 11.329 21.0887 13.0843 20.8917 14.1626C20.7786 14.782 20.73 15.5242 20.7322 16.6001C20.7357 18.3076 20.9139 19.4246 21.4176 20.8942L21.6843 21.6728L20.6156 23.8629C19.4495 26.2526 19.3777 26.5178 19.773 26.9776L19.9992 27.2407L22.9625 27.2679L25.9258 27.2952L26.6818 27.81C31.9535 31.3996 39.0357 30.8271 43.6751 26.4363C44.1742 25.964 44.8557 25.2136 45.1897 24.7686C45.6901 24.1019 45.7969 23.8965 45.7969 23.6007C45.7969 23.0974 45.3908 22.6926 44.89 22.6968C44.4429 22.7005 44.389 22.7447 43.6185 23.7382C40.5454 27.7007 35.2171 29.2929 30.5331 27.6484C29.4447 27.2663 28.2549 26.6444 27.3183 25.968L26.5492 25.4126H24.2668C23.0115 25.4126 21.9844 25.3981 21.9844 25.3802C21.9844 25.3625 22.3697 24.5504 22.8406 23.5756C23.8072 21.5748 23.7695 21.9002 23.2167 20.3301C22.7514 19.0082 22.6004 18.0489 22.6076 16.4595C22.6146 14.9255 22.7419 14.1347 23.2072 12.7354C25.1944 6.75906 31.7917 3.41312 37.8442 5.31221C39.716 5.89956 41.1677 6.79056 42.6215 8.24424C44.5419 10.1647 45.5663 12.2127 45.9804 14.9595C46.1825 16.2993 46.2113 16.3797 46.5536 16.5567C46.9001 16.7358 47.16 16.7299 47.4893 16.5353C47.8786 16.3054 47.987 15.9652 47.9091 15.2181C47.4079 10.4133 44.5036 6.27015 40.1954 4.21393C37.7311 3.03774 34.6356 2.62168 31.9219 3.10196ZM9.8715 5.70165C8.98275 6.62499 2.56369 14.2344 2.51709 14.4198C2.43984 14.7279 2.55375 15.0841 2.81203 15.3425C3.03459 15.5651 3.06666 15.5688 4.73016 15.5688H6.42188V21.0625C6.42188 27.0437 6.42112 27.0353 6.94641 27.2746C7.10831 27.3483 8.26772 27.3813 10.6991 27.3813H14.2176L14.4916 27.1073L14.7656 26.8333V21.2011V15.5688H16.4459C18.101 15.5688 18.1304 15.5653 18.4044 15.3347C18.7537 15.0409 18.8377 14.7196 18.6677 14.3274C18.5423 14.0383 11.7392 6.00859 11.2403 5.56102C11.0746 5.41243 10.8878 5.35009 10.6075 5.35009C10.2708 5.35009 10.1582 5.4039 9.8715 5.70165ZM13.1792 10.6704L15.732 13.647L14.6067 13.6938C13.7998 13.7275 13.4335 13.7805 13.3121 13.8813C12.8984 14.225 12.8906 14.3395 12.8906 20.0658V25.5063H10.5938H8.29688V19.9249C8.29688 15.0261 8.27897 14.3161 8.15063 14.1203C7.93444 13.7903 7.79203 13.7515 6.59878 13.6968L5.51006 13.647L8.05191 10.6737C9.44991 9.0384 10.6011 7.69899 10.6101 7.69712C10.6191 7.69534 11.7752 9.03324 13.1792 10.6704ZM29.5496 9.65293C27.5971 10.2988 26.6618 12.5582 27.6103 14.3376C28.2196 15.4807 29.2773 16.1385 30.5125 16.1423C31.2605 16.1447 31.5449 16.082 32.1427 15.7832C33.3084 15.2005 34.1209 13.7123 33.9382 12.4943C33.6834 10.7954 32.4339 9.61384 30.7869 9.51465C30.2667 9.48334 29.9579 9.51784 29.5496 9.65293ZM38.7335 10.061C38.607 10.177 36.6979 12.4235 34.4912 15.0532C32.2844 17.6829 30.0442 20.3521 29.5129 20.9847C28.6351 22.0299 28.5469 22.1697 28.5469 22.5153C28.5469 23.2425 29.3558 23.7016 29.9293 23.2999C30.1208 23.1659 39.753 11.7682 40.1053 11.2589C40.5199 10.6595 40.0806 9.85009 39.3406 9.85009C39.0802 9.85009 38.8924 9.91543 38.7335 10.061ZM31.2692 11.561C32.0879 11.9739 32.3297 13.0249 31.7613 13.7005C31.4311 14.0928 31.0702 14.2563 30.5342 14.2563C29.219 14.2563 28.6194 12.6629 29.5927 11.7541C30.0691 11.3093 30.6397 11.2436 31.2692 11.561ZM36.7899 17.3775C35.7498 17.8144 35.0439 18.624 34.7733 19.6905C34.4783 20.8529 34.8311 22.0336 35.7265 22.8804C36.4612 23.5752 36.9317 23.7571 38.0156 23.7652C38.8103 23.7712 38.9642 23.7435 39.4443 23.5078C40.1299 23.1711 40.7429 22.5581 41.0796 21.8725C41.3099 21.4034 41.3438 21.2264 41.3438 20.4907C41.3438 19.7734 41.3069 19.5697 41.0977 19.1313C40.7328 18.3669 40.2524 17.8703 39.5375 17.5181C39.0011 17.2539 38.796 17.2057 38.1117 17.1837C37.4468 17.1623 37.2247 17.1948 36.7899 17.3775ZM45.9772 19.2179C45.27 19.925 46.0129 21.1016 46.9274 20.7227C47.3074 20.5654 47.4844 20.2891 47.4844 19.8533C47.4844 19.3574 47.0794 18.9438 46.5938 18.9438C46.3402 18.9438 46.18 19.015 45.9772 19.2179ZM38.7653 19.2361C39.9855 19.9219 39.5896 21.7591 38.1876 21.9171C37.6432 21.9785 37.1726 21.7741 36.8327 21.3283C36.6142 21.0418 36.5625 20.8799 36.5625 20.4814C36.5625 19.3547 37.7659 18.6745 38.7653 19.2361ZM13.2839 30.3429C12.2478 30.8592 11.9197 31.6185 11.9688 33.3853L12 34.5066L6.86419 34.5064C1.24434 34.5063 1.42397 34.4896 0.761063 35.0716C0.0880313 35.6627 0 35.955 0 37.6001C0 38.9071 0.02025 39.091 0.201187 39.4289L0.402469 39.8045L0.201187 40.1789C0.0201562 40.5157 0 40.699 0 42.0063C0 43.3272 0.0189375 43.4948 0.20775 43.8479C0.470438 44.339 1.06341 44.8504 1.53356 44.9912C1.79025 45.0682 3.39159 45.0995 6.99525 45.098C11.9053 45.0961 12.1091 45.089 12.5106 44.9069L12.9274 44.7178L13.3717 44.9089C13.8007 45.0934 13.9915 45.1001 18.8906 45.1001C23.8435 45.1001 23.9763 45.0953 24.4244 44.9026L24.8837 44.705L25.2918 44.9026C25.6917 45.0961 25.802 45.1001 30.8499 45.098C36.6283 45.0957 36.4035 45.1209 37.1054 44.3981C37.667 43.8199 37.7528 43.4625 37.718 41.8495C37.6882 40.4724 37.6817 40.4344 37.4038 39.9854C37.0561 39.4235 36.4688 39.0432 35.7419 38.9088C35.393 38.8444 33.5396 38.8192 30.4919 38.8375L25.7812 38.8657V37.5532C25.7812 36.3892 25.758 36.1941 25.5754 35.8287L25.3694 35.4166L25.5723 35.0318C25.8471 34.5104 25.9243 32.5396 25.6999 31.7729C25.5093 31.1215 25.0682 30.5993 24.4754 30.3233L24 30.102L18.8856 30.101L13.7712 30.1001L13.2839 30.3429ZM23.8058 32.1224C24.0065 32.323 24.0175 34.0074 23.8201 34.2775C23.6914 34.4536 23.5303 34.4595 18.8906 34.4595C14.2509 34.4595 14.0899 34.4536 13.9612 34.2775C13.7637 34.0074 13.7748 32.323 13.9754 32.1224C14.1055 31.9923 14.6812 31.9751 18.8906 31.9751C23.1 31.9751 23.6757 31.9923 23.8058 32.1224ZM11.8406 36.4938C11.9949 36.6482 11.9949 38.552 11.8406 38.7063C11.6784 38.8685 2.10281 38.8685 1.94063 38.7063C1.78631 38.552 1.78631 36.6482 1.94063 36.4938C2.10281 36.3316 11.6784 36.3316 11.8406 36.4938ZM23.8561 36.5626C23.9821 36.7981 23.9821 38.402 23.8561 38.6375C23.7621 38.8132 23.6079 38.8188 18.8906 38.8188C13.2388 38.8188 13.8281 38.9607 13.8281 37.6001C13.8281 36.2395 13.2388 36.3813 18.8906 36.3813C23.6079 36.3813 23.7621 36.387 23.8561 36.5626ZM11.7447 40.8398C11.9381 40.9752 11.9531 41.0584 11.9531 41.9929C11.9531 42.6512 11.9141 43.0391 11.8406 43.1126C11.7561 43.1971 10.5247 43.2251 6.87516 43.2251C2.11847 43.2251 2.02022 43.2213 1.92188 43.0376C1.86375 42.9289 1.83281 42.4475 1.84828 41.8918C1.87378 40.9757 1.88541 40.928 2.10938 40.815C2.28853 40.7245 3.4275 40.6963 6.94003 40.6952C10.9499 40.694 11.563 40.7125 11.7447 40.8398ZM23.8201 40.9227C23.9796 41.1408 24.007 42.7616 23.8561 43.0438C23.7621 43.2195 23.6085 43.2251 18.9409 43.2251C14.6857 43.2251 14.1055 43.2078 13.9754 43.0778C13.8617 42.964 13.8281 42.7225 13.8281 42.0176C13.8281 41.1021 13.8973 40.8697 14.2031 40.7576C14.2805 40.7292 16.446 40.7138 19.0154 40.7234C23.521 40.7401 23.6918 40.7472 23.8201 40.9227ZM35.651 40.8398C35.8444 40.9752 35.8594 41.0584 35.8594 41.9929C35.8594 42.6512 35.8204 43.0391 35.7469 43.1126C35.5687 43.2907 26.0784 43.2731 25.9301 43.0943C25.8587 43.0083 25.8307 42.6166 25.8483 41.9485C25.874 40.9719 25.8839 40.9289 26.1094 40.815C26.2884 40.7246 27.418 40.6963 30.8932 40.6952C34.8606 40.694 35.4693 40.7125 35.651 40.8398Z" fill="#219653"/>
</svg>
