<svg width="48" height="48" viewBox="0 0 48 48" fill="none" xmlns="http://www.w3.org/2000/svg">
<g clip-path="url(#clip0_653_405)">
<path fill-rule="evenodd" clip-rule="evenodd" d="M7.04184 0.133496C4.36612 0.619028 2.09427 2.32097 0.907023 4.72922C0.327461 5.90475 0.0752731 6.88003 0.0100231 8.19797C-0.184696 12.1297 2.47649 15.735 6.35155 16.789C7.42227 17.0803 9.07377 17.1242 10.1982 16.8912C11.9714 16.5239 13.3906 15.7353 14.6619 14.4111C16.3404 12.6627 17.125 10.5738 17.0133 8.15109C16.9346 6.44531 16.5303 5.20922 15.5851 3.78534C13.7454 1.01362 10.3022 -0.458066 7.04184 0.133496ZM37.7598 0.176434C34.4002 0.886215 31.7736 3.49237 31.0926 6.79153C30.7562 8.42175 30.9321 10.3018 31.5627 11.8166C32.4236 13.8847 34.2681 15.6788 36.3738 16.4962C38.4143 17.2884 40.9703 17.2177 42.9639 16.3137C44.7874 15.4869 46.518 13.7182 47.2741 11.9085C47.5993 11.1302 47.8939 9.9749 47.8202 9.76687C47.7065 9.44615 47.4802 9.27609 47.1671 9.27609C46.7318 9.27609 46.5364 9.51168 46.3475 10.2637C46.1683 10.9768 45.6007 12.2761 45.4685 12.2761C45.4218 12.2761 45.3403 12.1812 45.2873 12.0652C44.9669 11.3636 43.8378 10.3572 42.7985 9.84693L42.0714 9.48993L42.2623 9.24731C42.3672 9.1139 42.5678 8.7599 42.708 8.46065C42.9305 7.9859 42.9624 7.80347 42.9595 7.02609C42.9566 6.25172 42.9228 6.06665 42.7005 5.60822C42.1356 4.44318 40.9978 3.62306 39.774 3.49875C38.7004 3.38972 37.5319 3.85734 36.7696 4.70109C35.7151 5.86828 35.5899 7.73325 36.4782 9.04115L36.7961 9.50934L36.0827 9.84675C35.1717 10.2773 34.4112 10.9022 33.8634 11.6698C33.6255 12.0033 33.414 12.2761 33.3936 12.2761C33.3089 12.2761 32.7981 11.1521 32.6053 10.5417C32.3248 9.65362 32.2511 8.07131 32.4473 7.15003C33.2543 3.36093 36.8047 0.892403 40.5723 1.50093C43.1594 1.91878 45.4364 3.86165 46.1999 6.30262C46.4476 7.09462 46.6432 7.33856 47.0308 7.33856C47.6671 7.33856 47.8581 6.888 47.5899 6.01931C46.3051 1.8555 41.98 -0.715222 37.7598 0.176434ZM9.89652 1.54959C12.7451 2.13506 14.8994 4.28447 15.5097 7.15003C15.7059 8.07131 15.6322 9.65362 15.3517 10.5417C15.159 11.1521 14.6481 12.2761 14.5635 12.2761C14.5431 12.2761 14.3316 12.0033 14.0936 11.6698C13.5458 10.9022 12.7853 10.2773 11.8744 9.84675L11.1609 9.50934L11.4788 9.04115C11.9295 8.37759 12.1035 7.71225 12.0533 6.84468C11.9561 5.16543 10.7793 3.85256 9.08943 3.53831C7.58399 3.25828 5.9788 4.11412 5.27296 5.57297C5.0324 6.07022 5.00052 6.23878 4.99752 7.02609C4.99462 7.80347 5.02659 7.9859 5.24905 8.46065C5.38921 8.7599 5.58984 9.1139 5.69474 9.24731L5.88562 9.48993L5.15859 9.84693C4.11927 10.3572 2.99015 11.3636 2.66971 12.0652C2.61674 12.1812 2.53959 12.2761 2.49824 12.2761C2.4569 12.2761 2.27699 11.9702 2.09849 11.5964C0.32868 7.89065 2.05021 3.46753 5.86593 1.91709C7.0993 1.4159 8.58627 1.28034 9.89652 1.54959ZM22.1504 3.98784C21.9957 4.00959 21.5316 4.07175 21.1191 4.12612C19.7953 4.30059 18.7433 4.58259 18.5877 4.80478C18.2679 5.26134 18.5677 5.90109 19.1014 5.90109C19.2508 5.90109 19.6605 5.83434 20.0118 5.75287C22.3564 5.20865 25.6007 5.20865 27.9453 5.75287C28.2966 5.83434 28.7062 5.90109 28.8557 5.90109C29.1929 5.90109 29.5098 5.57972 29.5098 5.23753C29.5098 4.68318 29.094 4.4925 27.166 4.16268C26.3161 4.01728 22.8111 3.89512 22.1504 3.98784ZM9.52002 5.1404C10.5518 5.66681 10.9589 6.96412 10.4271 8.03128C10.0358 8.81643 9.40752 9.19753 8.50096 9.19978C6.89905 9.20372 5.87943 7.54556 6.59755 6.10434C7.14515 5.00568 8.42699 4.58278 9.52002 5.1404ZM40.5594 5.2185C41.7163 5.93372 41.9454 7.57181 41.021 8.51747C40.5631 8.98575 40.0635 9.20109 39.4347 9.20109C38.1141 9.20109 37.2112 8.19272 37.31 6.82818C37.3943 5.66175 38.4245 4.80787 39.6244 4.90978C39.9589 4.93818 40.2748 5.04253 40.5594 5.2185ZM10.9701 10.9499C11.7824 11.2731 12.5644 11.9092 13.0386 12.6327C13.6298 13.5351 13.6291 13.5226 13.1225 13.969C11.2776 15.5947 8.36512 16.092 5.97046 15.1901C5.33755 14.9517 4.44637 14.4192 3.87149 13.9359L3.4484 13.5802L3.69177 13.1C4.18143 12.1336 5.27577 11.2053 6.33121 10.8608C6.79405 10.7097 7.11796 10.6888 8.6504 10.7105C10.251 10.7332 10.4863 10.7574 10.9701 10.9499ZM41.595 10.86C42.6683 11.194 43.7661 12.1149 44.2653 13.1L44.5086 13.5802L44.0856 13.9359C41.7576 15.8931 38.5771 16.198 35.9225 14.7187C35.5565 14.5148 35.0601 14.1666 34.8194 13.9448L34.3818 13.5417L34.6411 13.0384C35.1437 12.0628 36.1673 11.2166 37.2721 10.8634C38.0643 10.6101 40.7852 10.6079 41.595 10.86ZM21.5879 14.4684C20.9091 14.7761 20.6973 15.2481 20.6973 16.4529V17.3362L20.3019 17.5858L19.9065 17.8354L18.9803 17.3415C18.1646 16.9064 18.0051 16.8531 17.642 16.8939C16.9667 16.9701 16.7088 17.2575 15.5915 19.1798C14.6279 20.8376 14.5636 20.9801 14.5602 21.4636C14.5553 22.167 14.7909 22.4699 15.7781 23.0297L16.5711 23.4792V23.9948V24.5105L15.7781 24.96C14.8904 25.4633 14.5995 25.795 14.5337 26.3785C14.4815 26.8424 14.4753 26.8288 15.7153 28.9973C16.7245 30.7623 16.9787 31.0333 17.6778 31.0904C18.0356 31.1197 18.2166 31.0727 18.6348 30.842C18.9184 30.6854 19.3226 30.468 19.5332 30.3588L19.916 30.1602L20.2982 30.4015L20.6805 30.6428L20.7123 31.6717C20.7467 32.7834 20.8277 32.9914 21.3896 33.4109C21.6349 33.594 21.7715 33.6042 23.9785 33.6042C26.1856 33.6042 26.3222 33.594 26.5674 33.4109C27.1325 32.989 27.2104 32.7862 27.2439 31.6482L27.275 30.5959L27.6801 30.3809L28.0853 30.1659L28.9701 30.6429C29.9048 31.1468 30.2363 31.2117 30.755 30.9922C31.1774 30.8134 31.2447 30.7216 32.381 28.7761C33.3314 27.1488 33.3941 27.0098 33.3971 26.5261C33.4016 25.8226 33.1658 25.5196 32.1789 24.96L31.386 24.5105V23.9948V23.4792L32.1789 23.0297C33.1658 22.4701 33.4016 22.1671 33.3971 21.4636C33.3941 20.9798 33.3314 20.8409 32.381 19.2136C31.2447 17.2681 31.1774 17.1763 30.755 16.9975C30.2363 16.778 29.9048 16.8428 28.9701 17.3467L28.0853 17.8237L27.6801 17.6088L27.275 17.3938L27.2439 16.3415C27.2104 15.2037 27.1326 15.0009 26.5677 14.5788C26.3256 14.3979 26.166 14.3841 24.0891 14.3632C22.3794 14.3461 21.8045 14.3703 21.5879 14.4684ZM25.8689 16.8164C25.907 18.1125 25.9756 18.2351 26.9872 18.8142C27.9562 19.3689 28.2594 19.3593 29.3506 18.7389C29.8097 18.4778 30.196 18.2774 30.2089 18.2936C30.435 18.5762 32.0442 21.5095 31.9843 21.5297C31.9382 21.5452 31.563 21.7606 31.1505 22.0083C30.1036 22.6371 29.9785 22.849 29.9785 23.9948C29.9785 25.1407 30.1036 25.3526 31.1505 25.9814C31.563 26.2291 31.9382 26.4444 31.9843 26.46C32.0442 26.4802 30.435 29.4135 30.2089 29.6961C30.196 29.7123 29.8097 29.5118 29.3506 29.2507C28.2594 28.6304 27.9562 28.6208 26.9872 29.1755C25.9756 29.7546 25.907 29.8772 25.8689 31.1733L25.8374 32.2448H23.9785H22.1196L22.0881 31.1733C22.0501 29.8772 21.9815 29.7546 20.9698 29.1755C20.0008 28.6208 19.6976 28.6304 18.6065 29.2507C18.1474 29.5118 17.7606 29.7123 17.7473 29.6961C17.5328 29.4372 15.9105 26.4809 15.9716 26.4603C16.0184 26.4445 16.393 26.2313 16.8041 25.9867C17.8499 25.3642 17.9785 25.146 17.9785 23.9948C17.9785 22.8437 17.8499 22.6255 16.8041 22.003C16.393 21.7583 16.0184 21.5452 15.9716 21.5294C15.9105 21.5088 17.5328 18.5525 17.7473 18.2936C17.7606 18.2774 18.1474 18.4778 18.6065 18.7389C19.6976 19.3593 20.0008 19.3689 20.9698 18.8142C21.9815 18.2351 22.0501 18.1125 22.0881 16.8164L22.1196 15.7448H23.9785H25.8374L25.8689 16.8164ZM4.78846 18.604C4.64399 18.7053 4.53505 18.9735 4.39827 19.565C4.04587 21.0896 3.9629 21.9338 3.9629 23.9948C3.9629 26.0558 4.04587 26.9001 4.39827 28.4247C4.60124 29.3027 4.77027 29.5261 5.23171 29.5261C5.56452 29.5261 5.88477 29.2053 5.88477 28.872C5.88477 28.7226 5.81802 28.3129 5.73655 27.9616C5.17377 25.5368 5.19515 22.1528 5.78793 19.835C5.9548 19.1827 5.96034 19.0754 5.83959 18.8419C5.63259 18.4417 5.16984 18.3369 4.78846 18.604ZM42.2775 18.6547C42.025 18.8899 42.0214 19.1275 42.2537 20.2024C42.5046 21.3633 42.6348 22.6583 42.6348 23.9948C42.6348 25.3313 42.5046 26.6264 42.2537 27.7873C42.1539 28.2489 42.0723 28.743 42.0723 28.8852C42.0723 29.4057 42.7186 29.7008 43.1686 29.3857C43.3856 29.2336 43.6425 28.2911 43.8712 26.8073C44.0332 25.7569 44.0332 22.2328 43.8712 21.1823C43.6425 19.6986 43.3856 18.7561 43.1686 18.604C42.8887 18.408 42.5197 18.429 42.2775 18.6547ZM22.6445 20.3623C19.7906 21.4184 19.232 25.2554 21.6644 27.0938C22.978 28.0867 24.972 28.0932 26.2731 27.1088C28.3526 25.5358 28.3526 22.4539 26.2731 20.8808C25.3085 20.151 23.7984 19.9353 22.6445 20.3623ZM24.9629 21.7324C25.8999 22.1596 26.4174 22.9645 26.414 23.9898C26.4092 25.4237 25.4034 26.4323 23.9785 26.4323C22.5547 26.4323 21.5451 25.4211 21.5451 23.9948C21.5451 22.9903 22.0036 22.2328 22.8741 21.799C23.478 21.4981 24.3855 21.4692 24.9629 21.7324ZM37.666 31.1138C35.956 31.4751 34.517 32.2951 33.2511 33.6297C28.786 38.3374 31.0057 45.9955 37.3379 47.7296C38.4039 48.0215 40.4729 48.0203 41.5566 47.7271C44.0317 47.0574 46.0392 45.3952 47.1312 43.1108C48.9582 39.2893 47.6867 34.7245 44.1333 32.3477C42.26 31.0946 39.894 30.6433 37.666 31.1138ZM9.82227 31.0964C9.51149 31.2022 9.35352 31.4355 9.35352 31.7885C9.35352 32.2245 9.49162 32.3262 10.4785 32.6174C11.6913 32.9752 12.5861 33.5046 13.4889 34.3986C14.3942 35.295 14.9161 36.1353 15.3246 37.3542C15.5479 38.0201 15.5767 38.2513 15.582 39.4167C15.5871 40.5426 15.5567 40.8288 15.3681 41.4291C15.171 42.0568 14.6522 43.2136 14.5677 43.2136C14.5495 43.2136 14.4216 43.0428 14.2836 42.8341C13.6762 41.9165 12.6129 41.0305 11.648 40.6384L11.1444 40.4337L11.4541 39.9983C12.7153 38.2243 11.9777 35.6498 9.93646 34.7014C9.20512 34.3616 7.98337 34.3473 7.17412 34.6689C6.42327 34.9674 5.68321 35.6693 5.30109 36.4455C5.01946 37.0175 4.99415 37.1425 4.99415 37.9615C4.99415 38.7461 5.02668 38.9246 5.26255 39.4352C5.41012 39.7548 5.61055 40.0882 5.70787 40.1763C5.95274 40.3979 5.93474 40.4396 5.53321 40.5806C4.62487 40.8996 3.54234 41.7435 2.91646 42.6205C2.50424 43.1983 2.48146 43.2149 2.35284 43.0312C1.88493 42.3632 1.48696 41.0128 1.41365 39.8439C1.21096 36.6135 3.25199 33.6662 6.38549 32.6645C7.22502 32.3961 7.4038 32.2395 7.36677 31.8051C7.34634 31.5654 7.2628 31.4107 7.08065 31.2754C6.84243 31.0983 6.78702 31.0931 6.33065 31.2064C5.58777 31.3907 4.48677 31.8876 3.81374 32.3423C2.10843 33.4946 0.917336 35.1301 0.294742 37.1741C0.0658044 37.9257 0.0401169 38.153 0.0408669 39.4167C0.0418981 41.0461 0.203054 41.808 0.819367 43.0973C1.45884 44.4351 2.28449 45.4453 3.43584 46.2989C6.7724 48.7723 11.3726 48.4853 14.3941 45.6152C16.0369 44.0547 16.9145 42.1027 17.0121 39.7917C17.0908 37.9273 16.6447 36.2949 15.6369 34.7598C15.0345 33.8421 13.7129 32.593 12.7898 32.0687C11.7689 31.4888 10.1893 30.9713 9.82227 31.0964ZM40.871 32.4747C44.3301 33.2078 46.7661 36.3713 46.5396 39.8367C46.4597 41.0602 46.0825 42.3484 45.6042 43.0312C45.4756 43.2149 45.4528 43.1983 45.0406 42.6205C44.4254 41.7585 43.5509 41.0644 42.541 40.6367C42.309 40.5384 42.1014 40.4451 42.0797 40.4292C42.058 40.4133 42.1295 40.3055 42.2384 40.1895C42.3473 40.0735 42.5549 39.7256 42.6996 39.4164C42.9304 38.9238 42.9629 38.7439 42.9629 37.9615C42.9629 37.1425 42.9376 37.0175 42.656 36.4455C42.2738 35.6693 41.5338 34.9674 40.7829 34.6689C39.9737 34.3473 38.7519 34.3616 38.0206 34.7014C35.9794 35.6498 35.2417 38.2243 36.503 39.9983L36.8126 40.4337L36.3091 40.6384C35.3441 41.0305 34.2808 41.9165 33.6735 42.8341C33.5354 43.0428 33.4075 43.2136 33.3893 43.2136C33.3049 43.2136 32.7861 42.0568 32.5889 41.4291C32.4038 40.8396 32.3691 40.5296 32.3691 39.4636C32.3691 38.3988 32.404 38.0864 32.5888 37.4948C33.4146 34.8516 35.4924 32.9603 38.1418 32.4405C38.7966 32.3121 40.1856 32.3294 40.871 32.4747ZM9.17934 35.9162C9.37902 35.976 9.70715 36.1659 9.90852 36.3382C11.4355 37.6454 10.5208 40.1157 8.50977 40.1157C6.94687 40.1157 5.90934 38.5305 6.5489 37.1198C6.80596 36.5528 7.06059 36.2936 7.61915 36.0302C8.13627 35.7863 8.62649 35.7505 9.17934 35.9162ZM40.291 36.0027C40.858 36.2598 41.1172 36.5144 41.3807 37.073C41.7608 37.8792 41.6404 38.7454 41.0582 39.3911C39.9993 40.5656 38.1236 40.2852 37.4672 38.8542C36.6632 37.1016 38.5383 35.2081 40.291 36.0027ZM10.0098 41.6226C11.3436 41.8305 12.7555 42.8302 13.3225 43.9679C13.6185 44.562 13.6131 44.572 12.6058 45.282C10.9262 46.466 8.65555 46.8743 6.68165 46.3476C5.86293 46.129 4.70568 45.5364 4.03096 44.9902L3.44277 44.5139L3.74971 43.9369C4.35487 42.7993 5.68752 41.8288 6.91602 41.631C7.64109 41.5143 9.28668 41.5098 10.0098 41.6226ZM40.9473 41.6226C42.2682 41.8285 43.5821 42.7616 44.2081 43.9383L44.5158 44.5167L43.9268 44.9875C43.2324 45.5426 42.0647 46.1427 41.2754 46.35C39.2874 46.872 37.0294 46.4649 35.3512 45.282C34.344 44.572 34.3386 44.562 34.6345 43.9679C35.1826 42.8682 36.6112 41.8311 37.8535 41.631C38.5786 41.5143 40.2242 41.5098 40.9473 41.6226ZM18.6348 42.2761C18.4035 42.5074 18.3925 42.9408 18.6113 43.1985C19.1075 43.7827 23.4081 44.2361 25.9534 43.9724C27.1508 43.8484 28.7782 43.5406 29.1326 43.3711C29.6295 43.1334 29.6134 42.3196 29.1082 42.142C28.9191 42.0755 28.5839 42.1058 27.8443 42.2564C25.2296 42.7888 22.3591 42.7817 20.0118 42.2368C19.1685 42.0411 18.861 42.0499 18.6348 42.2761Z" fill="#219653"/>
</g>
<defs>
<clipPath id="clip0_653_405">
<rect width="48" height="48" fill="white"/>
</clipPath>
</defs>
</svg>
