<svg width="48" height="48" viewBox="0 0 48 48" fill="none" xmlns="http://www.w3.org/2000/svg">
<path fill-rule="evenodd" clip-rule="evenodd" d="M2.9211 4.75838C1.82956 4.97476 0.641846 5.95792 0.262908 6.9586C-0.762435 9.66685 1.34966 12.3492 4.2006 11.9593C5.31416 11.807 6.4326 10.9908 6.92975 9.96751L7.1391 9.53673H15.1668H23.1946L23.4103 9.99732C23.6814 10.5759 24.4388 11.3264 25.0683 11.6401C26.0012 12.1049 27.3222 12.1004 28.2855 11.629C28.9272 11.3151 29.603 10.6504 29.9236 10.0178L30.1674 9.53673H32.6433C34.0051 9.53673 35.4468 9.58229 35.847 9.63798C37.6653 9.89082 39.3275 10.8579 40.4266 12.3024C41.0235 13.0868 41.3208 13.6614 41.616 14.6016C41.8015 15.1921 41.8361 15.5015 41.8361 16.568C41.8361 17.952 41.6756 18.6806 41.1343 19.7528C40.2784 21.4483 38.609 22.8063 36.6798 23.3764C36.1738 23.5259 35.5372 23.5459 30.3394 23.5749L24.5616 23.6072L24.4971 23.2517C24.306 22.1983 23.4985 21.1618 22.485 20.6691C21.9172 20.393 21.7916 20.3686 20.9298 20.3668C20.0702 20.365 19.9417 20.3892 19.3829 20.6578C18.3737 21.1431 17.6473 22.0083 17.3836 23.039L17.2524 23.5524L12.9973 23.6035L8.74232 23.6547L7.94544 23.9013C6.80778 24.2532 6.31531 24.4812 5.45094 25.0564C3.54388 26.3253 2.15497 28.4425 1.757 30.6877C1.56378 31.778 1.67628 33.6844 1.99175 34.6617C2.99994 37.7861 5.37322 39.9462 8.53747 40.6195C8.92513 40.702 9.70138 40.7555 10.511 40.7555H11.8455L12.0549 41.1863C12.3531 41.8 13.1054 42.5559 13.7153 42.8546C15.1789 43.5713 16.8053 43.3035 17.9444 42.1584C18.2053 41.8961 18.5163 41.4731 18.6357 41.2185L18.8525 40.7555H28.1037H37.3549L37.6424 41.218C38.1861 42.0925 39.0157 42.5018 40.0745 42.4177C42.5781 42.2188 43.1871 38.8054 40.925 37.6513L40.5665 37.4684L40.5919 35.6198L40.6173 33.7711L44.1178 33.7242L47.6185 33.6774L47.7975 33.456C48.1132 33.066 48.0268 32.7987 47.19 31.5774L46.4034 30.4292L47.19 29.2978C48.058 28.0495 48.1363 27.7815 47.7465 27.3919L47.5165 27.1617H44.0874C41.4259 27.1617 40.6502 27.1355 40.6222 27.0445C40.6023 26.9801 40.5604 26.8102 40.5289 26.6668C40.4455 26.2865 39.939 26.0587 39.5423 26.2229C39.382 26.2894 39.2057 26.4279 39.1506 26.5309C39.0825 26.6581 39.0536 28.4407 39.0604 32.0943L39.0704 37.4704L38.7189 37.6515C38.2618 37.887 37.7892 38.358 37.561 38.8052L37.3791 39.1617H28.2046H19.0302L18.9182 38.7164C18.3643 36.5137 15.8909 35.3352 13.8156 36.2854C12.8405 36.7318 12.1429 37.5558 11.8368 38.6227L11.6821 39.1617H10.4382C8.94781 39.1617 8.10706 38.978 7.02791 38.4163C4.66006 37.1839 3.25503 34.8837 3.24556 32.2242C3.24116 30.9848 3.42435 30.1771 3.96069 29.0717C4.65791 27.6348 6.06406 26.3134 7.52956 25.7179C8.71307 25.2369 9.2136 25.193 13.5008 25.193H17.4703L17.5897 25.5231C17.7828 26.0573 18.6631 26.9312 19.3474 27.268C21.0905 28.1262 23.3379 27.3566 24.1858 25.6114L24.3891 25.193H29.9362C35.9533 25.193 36.3796 25.1645 37.7731 24.6691C40.3834 23.7412 42.4657 21.4829 43.2116 18.7711C43.5024 17.7138 43.5057 15.4535 43.218 14.403C42.3862 11.3651 40.0615 9.05842 37.0143 8.2472C36.1665 8.02154 35.9565 8.00607 33.1876 7.96595L30.2579 7.92339V7.66454C30.2579 7.25279 29.6428 6.12976 29.1873 5.70995C27.8416 4.46945 25.9118 4.36426 24.4359 5.45082C23.8733 5.86492 23.2712 6.77289 23.1245 7.42829L23.0094 7.94298H15.1604H7.31141L7.20228 7.50957C6.71525 5.57532 4.84916 4.37607 2.9211 4.75838ZM4.69944 6.57179C5.3076 6.92823 5.6331 7.48051 5.678 8.23239C5.72272 8.98201 5.52397 9.44157 4.93822 9.94295C3.59553 11.0923 1.56556 10.0839 1.57306 8.2711C1.57616 7.51154 2.19997 6.67792 2.98953 6.37829C3.44647 6.20485 4.22328 6.29279 4.69944 6.57179ZM27.6175 6.52885C28.9574 7.21248 29.1168 9.12357 27.9069 9.99995C26.3776 11.1078 24.2996 9.82407 24.6433 7.98385C24.9031 6.59326 26.3533 5.88385 27.6175 6.52885ZM21.7063 22.0573C22.4809 22.3809 22.9538 23.1031 22.9579 23.9691C22.9667 25.8185 20.7466 26.7349 19.4445 25.4193C19.0081 24.9783 18.8739 24.6388 18.8705 23.9669C18.8678 23.4414 18.9091 23.2825 19.15 22.8929C19.6686 22.0541 20.8075 21.6819 21.7063 22.0573ZM45.1495 29.4534C44.5207 30.3579 44.521 30.5237 45.1535 31.4296L45.6429 32.1305H43.1067H40.5704V30.443V28.7555H43.1025H45.6346L45.1495 29.4534ZM16.2892 37.7581C18.0492 38.6574 17.6171 41.3604 15.6667 41.6529C14.4611 41.8338 13.2969 40.8295 13.2913 39.604C13.2841 38.051 14.9069 37.0518 16.2892 37.7581ZM40.2901 39.1303C41.1152 39.6177 40.7787 40.8492 39.8204 40.8492C39.515 40.8492 39.3719 40.7901 39.157 40.5752C38.3857 39.8039 39.3497 38.5748 40.2901 39.1303Z" fill="#219653"/>
</svg>
