<svg width="48" height="48" viewBox="0 0 48 48" fill="none" xmlns="http://www.w3.org/2000/svg">
<g clip-path="url(#clip0_653_401)">
<path fill-rule="evenodd" clip-rule="evenodd" d="M20.7729 1.31438C20.6246 2.03728 20.4571 2.68547 20.4006 2.75466C20.3441 2.82394 20.0659 2.95303 19.7823 3.04153C19.4987 3.13003 18.8785 3.38522 18.4041 3.60872L17.5416 4.01494L16.3416 3.22922L15.1417 2.44341L13.0876 4.49475L11.0335 6.54619L11.4235 7.45172C11.638 7.94972 11.8135 8.39016 11.8135 8.43047C11.8135 8.47078 11.5076 8.52966 11.1338 8.56125C9.61837 8.6895 8.25994 9.43416 7.34016 10.6406C6.39741 11.8772 6.15075 12.8452 6.21712 15.0469C6.24637 16.0177 6.31219 16.6986 6.40378 16.9768C6.70275 17.8853 7.14975 18.6069 7.84219 19.2997C8.22178 19.6793 8.53228 20.0608 8.53228 20.1475C8.53228 20.2707 8.29828 20.3622 7.45987 20.5667L6.38756 20.8283L4.44834 19.6954L2.50912 18.5625H1.25456H0L0.0239062 26.5936L0.0479062 34.6247L3.79791 35.8767L7.54791 37.1287L8.34075 37.1034C9.10031 37.0792 9.13603 37.0683 9.18872 36.8438C9.21909 36.7148 9.28528 36.6094 9.336 36.6094C9.38662 36.6094 9.91359 36.8983 10.507 37.2515C11.5829 37.8916 11.5864 37.8948 11.6951 38.3528C11.916 39.2824 12.7327 40.0775 13.5839 40.1917C13.9268 40.2377 13.9509 40.2623 13.9981 40.6141C14.1108 41.4539 14.9075 42.2738 15.8213 42.4903C16.257 42.5934 16.3135 42.6345 16.3135 42.8475C16.3135 42.9799 16.4255 43.3129 16.5623 43.5875C16.8527 44.1702 17.3977 44.6013 18.1128 44.8139C18.572 44.9504 18.5947 44.9733 18.7049 45.4071C18.8675 46.0473 19.2767 46.5741 19.8708 46.908C20.5155 47.2704 21.3852 47.3066 21.9854 46.9959L22.3604 46.8019L22.7822 47.1766C23.3596 47.6895 23.8438 47.9183 24.4728 47.9753C25.6899 48.0857 26.7433 47.3228 27.0278 46.1249C27.1317 45.6876 27.1495 45.6694 27.5274 45.6127C28.3732 45.4858 29.163 44.6757 29.3651 43.7278C29.4428 43.3633 29.4843 43.3122 29.7039 43.3104C30.5641 43.3034 31.6795 42.1846 31.6865 41.3221C31.6881 41.1194 31.7422 41.0546 31.9463 41.0109C32.533 40.8854 32.9993 40.6612 33.3185 40.3513C33.7676 39.9151 33.9433 39.5539 34.0071 38.9356L34.0599 38.4235L41.0305 34.9386L48.001 31.4537V25.805V20.1562H47.1025H46.204L44.9422 20.8223L43.6802 21.4882L43.2391 21.3029C42.9965 21.201 42.049 20.9342 41.1338 20.7099C39.8066 20.3848 39.4698 20.2707 39.4698 20.1461C39.4698 20.0602 39.7803 19.6793 40.1599 19.2997C40.8529 18.6065 41.3008 17.8827 41.5976 16.9768C41.6856 16.7085 41.7558 16.0183 41.7845 15.1406C41.8406 13.4272 41.7077 12.6768 41.1469 11.5393C40.2761 9.77325 38.3618 8.53125 36.5107 8.53125H36.1084L36.5393 7.53956L36.9703 6.54797L34.9154 4.49569L32.8604 2.44341L31.6605 3.22922L30.4605 4.01494L29.598 3.60872C29.1235 3.38522 28.5034 3.13003 28.2198 3.04153C27.9362 2.95303 27.6579 2.82394 27.6015 2.75466C27.545 2.68547 27.3774 2.03728 27.2291 1.31438L26.9595 0H24.001H21.0426L20.7729 1.31438ZM25.9724 2.83791C26.1107 3.4965 26.2404 4.04766 26.2609 4.06284C26.2812 4.07803 26.7198 4.21209 27.2354 4.36078C27.7515 4.50956 28.6951 4.89488 29.3347 5.21794C30.6583 5.88637 30.4342 5.9025 31.7084 5.04788C32.1576 4.74656 32.5789 4.5 32.6445 4.5C32.8166 4.5 35.0642 6.76659 35.0602 6.93609C35.0583 7.01419 34.8755 7.5 34.6538 8.01562C34.284 8.87616 34.2169 8.97159 33.8369 9.17756C33.6092 9.30103 33.2174 9.5715 32.9663 9.77859C32.5664 10.1084 32.4989 10.1358 32.4222 9.99872C32.1819 9.56944 31.132 8.37478 30.5934 7.91784C29.1043 6.65456 27.5079 5.89931 25.6528 5.58056C22.1413 4.97719 18.4639 6.36609 16.2339 9.138C15.9224 9.52538 15.6272 9.91416 15.5781 10.002C15.4974 10.146 15.4547 10.1346 15.1416 9.88556C14.9507 9.73369 14.5581 9.45938 14.2691 9.276C13.773 8.96128 13.7212 8.89116 13.3411 8.01928C13.1197 7.51144 12.9385 7.02928 12.9385 6.94781C12.9385 6.77025 15.1796 4.5 15.3547 4.5C15.422 4.5 15.8445 4.74656 16.2937 5.04788C17.5678 5.9025 17.3437 5.88637 18.6673 5.21794C19.307 4.89488 20.2506 4.50956 20.7667 4.36078C21.2823 4.21209 21.7196 4.07916 21.7386 4.06547C21.7575 4.05178 21.875 3.56381 21.9997 2.98125C22.1243 2.39859 22.249 1.84706 22.2769 1.75575C22.3233 1.60341 22.4689 1.59169 24.0243 1.61513L25.7212 1.64062L25.9724 2.83791ZM25.5948 7.14141C27.8797 7.57228 29.9158 8.97834 31.2531 11.0489L31.5168 11.4573L31.2511 12.2677C31.0011 13.0305 30.9855 13.1719 30.9876 14.6719C30.9901 16.4997 31.1071 17.0945 31.6601 18.0906C31.8472 18.4275 32.2887 18.9881 32.6413 19.3365C32.9938 19.6849 33.2823 20.0445 33.2823 20.1356C33.2823 20.2719 33.0071 20.3696 31.7354 20.6853L30.1885 21.0693L28.6417 20.6853C27.3535 20.3656 27.0948 20.2731 27.0948 20.1319C27.0948 20.0386 27.3585 19.7155 27.6807 19.414C28.3676 18.7712 28.8933 17.9324 29.1837 17.0156C29.3647 16.4446 29.3917 16.1523 29.3914 14.7656C29.3911 13.4864 29.3571 13.0609 29.2189 12.6094C28.6102 10.6208 27.0561 9.10922 25.1623 8.66391C24.3215 8.46619 23.0516 8.53059 22.2457 8.81184C20.662 9.36459 19.3604 10.695 18.8354 12.2974C18.6317 12.9195 18.6104 13.1438 18.6104 14.6719C18.6104 16.1549 18.6356 16.4389 18.8183 17.0156C19.1088 17.9324 19.6344 18.7712 20.3213 19.414C20.6437 19.7155 20.9073 20.0386 20.9073 20.1319C20.9073 20.2731 20.6485 20.3656 19.3604 20.6853L17.8135 21.0693L16.2667 20.6853C15.0372 20.3801 14.7198 20.2692 14.7198 20.1447C14.7198 20.0587 15.0079 19.699 15.3599 19.3456C15.7119 18.9923 16.1535 18.4275 16.341 18.0906C16.8948 17.0958 17.0132 16.4976 17.0081 14.7188C17.0041 13.2583 16.9884 13.1269 16.7283 12.3664L16.4527 11.561L16.7347 11.0946C18.5645 8.06812 22.113 6.48478 25.5948 7.14141ZM12.9181 10.3336C13.8685 10.6832 14.7955 11.6135 15.2005 12.624C15.4013 13.125 15.4203 13.3123 15.4215 14.8125L15.4229 16.4531L15.105 17.1037C14.7547 17.8203 14.1395 18.4964 13.5218 18.8434L13.1209 19.0687L13.1468 20.2865L13.1729 21.5042L14.4368 21.8207C15.132 21.9948 15.7163 22.1528 15.7354 22.1718C15.7544 22.1908 15.6651 22.3463 15.5368 22.5173C15.0289 23.1946 14.7472 24.0346 14.6949 25.0287L14.6729 25.4481L13.5479 25.7041C12.9292 25.8448 12.4018 25.9621 12.376 25.9646C12.3502 25.9672 12.3425 25.5993 12.3587 25.1473L12.3882 24.3253L10.375 23.1548C9.26775 22.5111 8.41069 21.9578 8.4705 21.9253C8.53022 21.8929 8.90606 21.7902 9.30572 21.6972L10.0323 21.5282V20.2895V19.0507L9.5685 18.7532C8.93259 18.3451 8.47209 17.8101 8.12334 17.074C7.83572 16.4669 7.8285 16.4183 7.79784 14.8838C7.77206 13.5921 7.79503 13.2274 7.92787 12.8213C8.16628 12.0922 8.48991 11.587 9.03253 11.0964C10.1177 10.1155 11.5571 9.83288 12.9181 10.3336ZM25.1698 10.283C26.4405 10.7249 27.4511 11.8752 27.7493 13.2188C27.821 13.5415 27.8512 14.2428 27.8302 15.0938C27.7994 16.3453 27.7762 16.4972 27.537 17.0091C27.1938 17.7435 26.7151 18.314 26.0984 18.7235L25.5948 19.0578V20.2887V21.5197L27.8213 22.0702C30.1901 22.6561 30.7652 22.8763 31.1642 23.3505C31.6719 23.9539 31.7202 24.186 31.7281 26.0625L31.7354 27.7969L31.3852 27.8258C31.1593 27.8446 30.1612 27.6067 28.5722 27.1553C27.2176 26.7706 25.8986 26.4271 25.6411 26.3919C25.3836 26.3569 24.3081 26.0599 23.251 25.732C20.9005 25.0031 20.77 24.9697 19.8104 24.8512C19.0876 24.7621 17.9253 24.8148 16.6619 24.994L16.2133 25.0576L16.2787 24.646C16.4169 23.7741 16.8202 23.1869 17.521 22.8371C17.7592 22.7182 18.9562 22.3732 20.1807 22.0702L22.4073 21.5197V20.2853V19.0507L21.9435 18.7532C21.3076 18.3451 20.8471 17.8101 20.4983 17.074L20.2042 16.4531V14.7139V12.9746L20.5572 12.2603C21.4242 10.506 23.3893 9.66356 25.1698 10.283ZM37.5468 10.2889C38.5196 10.5953 39.3028 11.3079 39.8227 12.3598L40.1729 13.0684V14.7607V16.4531L39.8787 17.074C39.53 17.8101 39.0695 18.3451 38.4336 18.7532L37.9698 19.0507V20.2865V21.5222L39.8448 21.9844C41.2667 22.3348 41.6914 22.4722 41.6026 22.5525C41.4785 22.6647 33.4236 26.9062 33.3345 26.9062C33.3058 26.9062 33.2818 26.3473 33.2812 25.6641C33.2797 24.0606 33.0991 23.3642 32.4649 22.5173C32.3368 22.3463 32.2477 22.1908 32.2667 22.1718C32.2857 22.1528 32.8701 21.9948 33.5652 21.8207L34.8292 21.5042L34.8552 20.2865L34.8812 19.0687L34.4802 18.8434C33.8604 18.4952 33.2463 17.8188 32.9004 17.1037C32.5945 16.471 32.5849 16.4146 32.5484 15.0514C32.4926 12.9662 32.7417 12.1388 33.7097 11.1938C34.7684 10.1601 36.1233 9.84056 37.5468 10.2889ZM4.90022 21.7561C6.40612 22.636 7.64691 23.3647 7.65741 23.3752C7.68525 23.4029 4.90341 34.5039 4.857 34.5503C4.83553 34.5718 4.09275 34.3485 3.20634 34.0542L1.59478 33.519V26.8376V20.1562H1.87847C2.07609 20.1562 2.99222 20.6413 4.90022 21.7561ZM46.4073 26.18V30.5163L39.9121 33.7634L33.4169 37.0106L29.998 33.9269C26.0737 30.3874 25.8525 30.2344 24.6592 30.2344C23.7857 30.2344 23.5657 30.3222 21.8519 31.3551C19.9816 32.4823 19.8369 32.55 19.4537 32.4781C18.7747 32.3507 18.4059 31.5898 18.6917 30.906C18.8234 30.5907 18.9918 30.4897 21.3464 29.3118C23.97 27.9993 24.6079 27.7729 25.3412 27.8936C25.558 27.9293 26.9067 28.2912 28.3383 28.698C30.1171 29.2034 31.0965 29.4368 31.432 29.4354C31.896 29.4335 32.3155 29.226 39.0948 25.646C43.0393 23.5629 46.2982 21.8553 46.337 21.8512C46.3757 21.8471 46.4073 23.7951 46.4073 26.18ZM10.8101 25.2178C10.8652 25.2664 8.03269 35.4744 7.92956 35.5991C7.88681 35.6507 6.37603 35.1083 6.37603 35.0413C6.37603 34.9615 8.97834 24.5018 9.04659 24.3075C9.07294 24.2324 9.36994 24.3578 9.91106 24.6725C10.3644 24.9361 10.7691 25.1814 10.8101 25.2178ZM20.0167 26.4363C20.6617 26.5411 22.2198 27.0012 22.2198 27.0869C22.2198 27.1184 21.3253 27.5864 20.2321 28.1268C17.4242 29.5149 17.1149 29.8353 17.112 31.3594C17.1101 32.3514 17.2598 32.7376 17.881 33.3425C18.3522 33.8014 18.9549 34.0316 19.6818 34.0303C20.3156 34.0292 20.6728 33.8708 22.4542 32.8006C23.176 32.3669 23.8847 31.9601 24.0289 31.8967C24.3663 31.7482 24.9516 31.749 25.2846 31.8984C25.6781 32.0751 32.1791 37.9247 32.3704 38.2744C32.6839 38.8474 32.2849 39.4688 31.6033 39.4688C31.2785 39.4688 31.0557 39.3092 29.0539 37.6429C27.8475 36.6386 26.8393 35.8183 26.8135 35.82C26.7559 35.8238 25.876 36.9007 25.876 36.9675C25.876 36.9938 26.7726 37.7594 27.8682 38.6687C29.8835 40.341 30.1871 40.6522 30.1881 41.0463C30.1888 41.381 29.7033 41.8125 29.3259 41.8125C28.93 41.8125 28.9487 41.8258 26.5345 39.8129L24.5212 38.1341L24.029 38.6842C23.7583 38.9868 23.5358 39.2565 23.5345 39.2835C23.5333 39.3105 24.4438 40.0903 25.5579 41.0164C26.6721 41.9424 27.6424 42.784 27.7142 42.8866C27.9245 43.1867 27.8761 43.6254 27.6047 43.8803C27.269 44.1958 26.7424 44.1724 26.2757 43.8212C25.5715 43.2914 24.376 42.2591 24.376 42.1808C24.376 42.1368 24.2005 41.932 23.9859 41.7259C23.6187 41.373 22.9597 41.0625 22.5781 41.0625C22.4535 41.0625 22.4073 40.9914 22.4073 40.7996C22.4073 40.6551 22.2953 40.3121 22.1585 40.0375C21.8681 39.4548 21.3232 39.0237 20.608 38.8111C20.1515 38.6753 20.1256 38.6498 20.019 38.2301C19.9577 37.9887 19.7949 37.621 19.6573 37.4131C19.3916 37.0117 18.5674 36.4711 18.2186 36.4696C17.9329 36.4684 17.756 36.2604 17.6851 35.8422C17.5275 34.9121 16.4399 34.09 15.3803 34.1001C14.5371 34.1079 14.0735 34.3688 13.0058 35.4366L12.0721 36.3702L10.9554 35.7024C10.3412 35.3352 9.81787 35.0011 9.79256 34.96C9.74962 34.8906 11.7434 27.7888 11.8302 27.702C11.8664 27.6659 17.0864 26.5016 17.626 26.4094C18.0853 26.3308 19.4633 26.3463 20.0167 26.4363ZM15.7807 35.734C16.0971 35.9026 16.2136 36.1081 16.2168 36.5036C16.2195 36.8333 16.1485 36.9398 15.4463 37.6608C15.021 38.0975 14.5538 38.5169 14.4082 38.5928C13.8553 38.8808 13.201 38.4611 13.201 37.8182C13.201 37.4955 13.2808 37.3866 14.1335 36.5452C15.1084 35.5831 15.3104 35.4836 15.7807 35.734ZM18.2634 38.1589C18.5006 38.3798 18.6066 38.7233 18.5302 39.0234C18.5006 39.1395 18.0797 39.6288 17.5947 40.1109C16.8014 40.8997 16.6784 40.9875 16.367 40.9875C15.7665 40.9875 15.3777 40.4537 15.5649 39.8864C15.6251 39.7039 16.002 39.257 16.502 38.7749C17.2568 38.0472 17.3734 37.9688 17.6989 37.9688C17.9315 37.9688 18.1318 38.0362 18.2634 38.1589ZM20.6739 40.612C21.107 41.1267 20.9694 41.448 19.8493 42.5391C19.1207 43.2487 19.024 43.3125 18.6771 43.3125C18.3699 43.3125 18.2534 43.2583 18.0562 43.024C17.6252 42.5118 17.7057 42.2741 18.6338 41.3201C19.7584 40.1642 20.1753 40.0194 20.6739 40.612ZM22.9384 42.8596C23.432 43.3202 23.3045 43.7398 22.3814 44.6933C21.3862 45.7215 20.9878 45.8697 20.4457 45.4135C20.2136 45.2183 20.1573 45.0988 20.1573 44.802C20.1573 44.4683 20.2293 44.3581 20.9104 43.6486C21.9725 42.5423 22.4143 42.3705 22.9384 42.8596ZM25.3349 45.1406C25.424 45.2438 25.4978 45.4731 25.499 45.6502C25.5039 46.4153 24.6685 46.6631 23.9257 46.1168C23.7094 45.9577 23.5323 45.7969 23.5323 45.7595C23.5323 45.722 23.6581 45.5708 23.8117 45.4236C23.9655 45.2763 24.2043 44.9928 24.3424 44.7935L24.5934 44.4311L24.8832 44.6921C25.0425 44.8357 25.2457 45.0375 25.3349 45.1406Z" fill="#219653"/>
</g>
<defs>
<clipPath id="clip0_653_401">
<rect width="48" height="48" fill="white"/>
</clipPath>
</defs>
</svg>
