<svg width="48" height="48" viewBox="0 0 48 48" fill="none" xmlns="http://www.w3.org/2000/svg">
<path fill-rule="evenodd" clip-rule="evenodd" d="M17.628 2.7379C15.98 3.04772 14.2657 4.39612 13.5053 5.98098C12.9795 7.07643 12.8624 7.74468 12.8624 9.64761V11.1807H7.54696C3.6866 11.1807 2.11085 11.2164 1.79075 11.311C1.20249 11.4848 0.315334 12.3719 0.141523 12.9602C-0.0471742 13.5988 -0.0471742 43.0323 0.141523 43.6709C0.315334 44.2591 1.20249 45.1463 1.79075 45.3201C2.43159 45.5094 45.5684 45.5094 46.2093 45.3201C46.7975 45.1463 47.6847 44.2591 47.8585 43.6709C48.0472 43.0323 48.0472 13.5988 47.8585 12.9602C47.6847 12.3719 46.7975 11.4848 46.2093 11.311C45.8892 11.2164 44.3134 11.1807 40.453 11.1807H35.1376V9.64761C35.1376 7.74447 35.0205 7.07643 34.4944 5.98012C33.7086 4.34268 32.0211 3.0429 30.272 2.72783C29.478 2.58476 18.3956 2.59365 17.628 2.7379ZM30.8732 4.71932C31.8686 5.19085 32.4889 5.79806 32.9706 6.7725L33.3706 7.58158L33.4082 9.38116L33.4458 11.1807H32.5782H31.7107V9.72065C31.7107 8.88725 31.6548 8.07132 31.5804 7.81976C31.4066 7.2315 30.5195 6.34434 29.9312 6.17053C29.3043 5.98537 18.6957 5.98537 18.0688 6.17053C17.4805 6.34434 16.5934 7.2315 16.4196 7.81976C16.3452 8.07132 16.2893 8.88725 16.2893 9.72065V11.1807H15.4218H14.5542L14.5924 9.38695C14.6297 7.63277 14.638 7.5773 14.9689 6.87777C15.1549 6.48442 15.504 5.94896 15.7445 5.68808C16.2164 5.17607 17.1865 4.60409 17.8548 4.44377C18.0906 4.38723 20.8421 4.35189 24.2142 4.36228L30.1578 4.38038L30.8732 4.71932ZM29.7343 8.0167C29.9875 8.26987 29.9972 8.33273 29.9972 9.73018V11.1807H24H18.0028V9.73018C18.0028 8.33273 18.0125 8.26987 18.2657 8.0167L18.5285 7.75379H24H29.4715L29.7343 8.0167ZM46.0123 13.1571L46.2752 13.4199V19.3293C46.2752 23.6558 46.2403 25.3566 46.145 25.6793C45.9712 26.2676 45.084 27.1548 44.4958 27.3286C44.1682 27.4254 42.1396 27.4588 36.5977 27.4588H29.1404V26.438C29.1404 25.2292 29.001 24.824 28.4373 24.394L28.0327 24.0854H23.9894C20.0728 24.0854 19.9369 24.0923 19.6504 24.3062C19.0091 24.785 18.916 25.0234 18.8769 26.2883L18.8406 27.4588H11.3929C5.85833 27.4588 3.83182 27.4254 3.50422 27.3286C2.91597 27.1548 2.02881 26.2676 1.855 25.6793C1.75969 25.3566 1.72478 23.6558 1.72478 19.3293V13.4199L1.98769 13.1571L2.25049 12.8942H24H45.7495L46.0123 13.1571ZM27.427 28.3155V30.8857H24H20.573V28.3155V25.7453H24H27.427V28.3155ZM3.24934 29.0197C3.70706 29.1415 5.22584 29.1699 11.3269 29.171L18.8406 29.1723L18.8769 30.3406C18.9116 31.4597 18.927 31.5265 19.2422 31.9203C19.4615 32.1943 19.7344 32.3846 20.0601 32.4905L20.5488 32.6497L20.5961 33.9363C20.6341 34.9722 20.6887 35.3176 20.8767 35.7082C21.2395 36.4626 21.6759 36.9198 22.4124 37.3169C23.0332 37.6516 23.1657 37.6819 24 37.6798C24.7735 37.6778 24.9924 37.6347 25.4572 37.3932C26.2655 36.9732 26.601 36.6486 27.0025 35.8978C27.3443 35.2589 27.3658 35.1538 27.4078 33.9206L27.4522 32.6183L27.8112 32.5509C28.2663 32.4656 28.8054 32.0157 28.9944 31.5635C29.0829 31.3515 29.1404 30.8135 29.1404 30.1964V29.1789L36.9384 29.1488L44.7362 29.1187L45.5058 28.7367L46.2752 28.3546V35.7829V43.2111L46.0123 43.4739L45.7495 43.7368H24H2.25049L1.98769 43.4739L1.72478 43.2111V35.7588V28.3065L2.20519 28.5881C2.46939 28.7429 2.93931 28.9371 3.24934 29.0197ZM25.6961 33.7697C25.6658 34.7493 25.6239 34.9886 25.4391 35.2356C25.0901 35.7026 24.7045 35.9385 24.1964 35.9957C23.5747 36.0658 23.0372 35.8322 22.6487 35.3234C22.3597 34.9449 22.3377 34.8454 22.3039 33.7593L22.2676 32.5992H24H25.7324L25.6961 33.7697Z" fill="#219653"/>
</svg>
