<?xml version="1.0" standalone="no"?>
<!DOCTYPE svg PUBLIC "-//W3C//DTD SVG 20010904//EN"
 "http://www.w3.org/TR/2001/REC-SVG-20010904/DTD/svg10.dtd">
<svg version="1.0" xmlns="http://www.w3.org/2000/svg"
 width="700.000000pt" height="700.000000pt" viewBox="0 0 700.000000 700.000000"
 preserveAspectRatio="xMidYMid meet">
<metadata>
Created by potrace 1.14, written by Peter Selinger 2001-2017
</metadata>
<g transform="translate(0.000000,700.000000) scale(0.100000,-0.100000)"
fill="#000000" stroke="none">
<path d="M3005 6405 c-22 -6 -58 -22 -80 -35 -70 -40 -278 -156 -350 -195 -38
-21 -90 -50 -115 -65 -25 -14 -52 -29 -60 -33 -8 -4 -33 -18 -55 -31 -22 -12
-67 -38 -100 -56 -33 -18 -130 -72 -215 -120 -85 -48 -175 -98 -200 -112 -25
-14 -164 -91 -310 -173 -146 -81 -285 -159 -310 -173 -25 -14 -71 -40 -103
-58 -32 -19 -60 -34 -63 -34 -2 0 -21 -10 -42 -23 -20 -13 -75 -44 -122 -69
-47 -26 -132 -73 -190 -105 l-105 -59 -1 -1557 c0 -856 1 -1557 3 -1557 3 0
147 79 321 177 174 97 342 190 372 206 30 16 81 45 113 63 32 19 60 34 62 34
2 0 30 15 62 34 32 18 81 46 108 61 65 36 155 86 478 267 87 48 160 88 161 88
2 0 42 23 90 50 48 28 116 66 149 84 223 120 687 382 714 402 18 14 45 46 60
72 l28 47 1 470 c2 535 3 530 -75 579 -22 14 -45 26 -50 26 -5 0 -27 20 -49
45 -95 108 -72 275 47 345 64 38 101 70 114 99 7 18 12 196 13 561 3 589 1
609 -57 674 -58 67 -160 96 -244 71z m-310 -1103 l0 -308 -159 -90 c-88 -49
-190 -105 -226 -125 -36 -20 -103 -58 -150 -84 -47 -26 -110 -61 -140 -78 -30
-16 -120 -67 -200 -112 -80 -45 -172 -97 -205 -115 -33 -18 -135 -75 -227
-127 -92 -51 -173 -96 -180 -98 -11 -5 -14 51 -13 305 l0 311 50 28 c28 15
194 108 370 206 176 98 338 188 360 200 22 12 96 53 165 92 69 38 154 86 190
106 36 19 130 72 210 116 79 45 147 81 150 81 3 0 5 -139 5 -308z m0 -1246 c0
-191 -4 -309 -10 -314 -5 -5 -39 -25 -75 -45 -36 -19 -177 -98 -315 -174 -137
-77 -333 -187 -435 -243 -102 -57 -198 -112 -215 -122 -16 -10 -37 -21 -45
-25 -8 -4 -64 -35 -125 -68 -60 -34 -137 -77 -170 -95 -33 -18 -69 -39 -80
-46 -11 -8 -22 -14 -25 -14 -3 0 -6 140 -5 312 l0 312 410 228 c226 126 421
234 435 241 28 15 516 288 588 329 26 15 52 27 57 27 6 1 10 -107 10 -303z"/>
<path d="M3889 6406 c-62 -16 -122 -66 -150 -124 l-23 -47 -1 -718 c0 -797 -1
-781 63 -845 30 -30 285 -179 522 -306 19 -10 64 -35 100 -56 36 -21 90 -51
120 -68 30 -16 73 -39 95 -52 182 -103 233 -131 335 -188 25 -13 99 -55 165
-92 66 -37 215 -120 330 -184 116 -64 217 -121 225 -126 8 -5 38 -21 65 -36
28 -14 55 -30 60 -36 10 -9 15 -588 5 -588 -5 0 -25 11 -165 90 -207 115 -534
297 -645 358 -25 14 -49 28 -55 32 -5 4 -39 23 -75 42 -36 20 -141 78 -235
130 -93 52 -199 111 -235 130 -36 20 -130 73 -210 117 -154 87 -185 97 -260
88 -82 -10 -142 -53 -183 -132 -17 -35 -20 -60 -21 -184 l-1 -144 105 -59 c58
-33 130 -73 160 -90 30 -16 62 -33 70 -39 15 -9 445 -250 528 -296 65 -35 140
-77 312 -173 166 -93 248 -139 320 -178 25 -13 70 -39 100 -57 30 -18 87 -49
125 -70 39 -21 140 -77 225 -125 85 -48 175 -98 200 -112 25 -14 63 -35 85
-48 161 -92 166 -94 234 -94 98 1 169 44 214 129 21 40 22 44 22 765 0 722 0
725 -22 765 -38 72 -36 71 -568 365 -82 46 -166 92 -185 103 -19 11 -96 53
-170 95 -195 108 -195 108 -430 239 -290 162 -305 170 -380 211 -36 19 -69 38
-75 42 -5 4 -39 23 -75 43 -36 19 -92 50 -124 69 l-60 33 0 299 c-1 164 1 302
4 307 3 5 48 -15 100 -45 52 -29 115 -64 140 -78 25 -14 144 -80 265 -148 121
-68 240 -134 265 -148 25 -14 115 -64 200 -112 153 -86 232 -130 320 -178 25
-13 59 -32 75 -42 38 -22 116 -66 175 -98 25 -13 74 -41 110 -62 36 -20 92
-52 125 -70 33 -18 115 -64 182 -102 68 -37 124 -68 126 -68 2 0 3 125 2 278
-1 245 -3 281 -19 314 -23 47 -73 98 -122 123 -21 11 -104 56 -184 101 -172
96 -203 113 -380 211 -183 102 -210 117 -400 223 -91 51 -199 111 -240 133
-41 22 -92 51 -112 64 -21 13 -40 23 -42 23 -3 0 -31 15 -63 34 -32 19 -98 56
-148 83 -49 28 -117 65 -150 83 -33 18 -73 41 -90 50 -16 10 -52 30 -80 45
-27 15 -122 68 -209 117 -172 95 -205 105 -287 84z"/>
<path d="M3484 3041 c-16 -10 -49 -29 -74 -43 -25 -14 -180 -102 -345 -195
-165 -93 -320 -181 -345 -195 -25 -14 -166 -94 -315 -178 -148 -84 -324 -183
-390 -220 -66 -37 -221 -125 -345 -195 -124 -71 -250 -142 -280 -158 -209
-115 -640 -362 -640 -367 0 -3 79 -50 176 -105 97 -55 188 -107 202 -115 35
-21 178 -102 205 -117 17 -10 27 -9 52 7 16 10 48 28 70 40 22 12 90 50 150
85 61 34 133 74 160 90 28 15 95 53 150 85 55 32 200 115 323 184 l222 126
998 -572 c548 -314 1015 -580 1037 -591 26 -13 61 -20 100 -20 61 -1 86 9 220
86 22 12 107 60 188 106 81 46 147 84 145 86 -4 3 -315 182 -378 217 -25 14
-195 111 -378 217 -184 105 -338 191 -343 191 -5 0 -9 5 -9 10 0 6 -5 10 -10
10 -6 0 -40 18 -76 40 -36 22 -67 40 -69 40 -3 0 -858 490 -862 494 -1 1 73
44 165 96 92 52 213 120 269 152 56 32 106 58 112 58 5 0 86 -43 178 -96 560
-322 1063 -610 1098 -629 22 -13 144 -82 270 -155 127 -72 253 -145 280 -160
28 -16 86 -49 130 -74 95 -55 145 -70 203 -62 38 5 102 30 142 56 20 13 181
104 255 145 100 55 125 70 125 75 0 3 -138 84 -306 180 -168 96 -323 184 -343
196 -63 36 -675 386 -706 404 -33 19 -607 348 -920 528 -110 63 -216 123 -235
134 -19 11 -57 33 -85 49 -27 16 -71 40 -96 54 -45 23 -47 23 -75 6z"/>
</g>
</svg>
