<svg width="156" height="36" viewBox="0 0 156 36" fill="none" xmlns="http://www.w3.org/2000/svg">
<rect width="156" height="36" fill="#1E1E1E"/>
<g clip-path="url(#clip0_624_2)">
<rect width="1920" height="7234" transform="translate(-717 -5766)" fill="white"/>
<rect x="-72" y="-62" width="300" height="160" fill="white"/>
<path d="M22.4756 4.37848L26.6594 7.68658C27.2432 6.90821 27.7296 6.12983 28.3134 5.25415L24.1296 1.94604C23.6432 2.82172 23.0594 3.6001 22.4756 4.37848ZM36.2918 11.3839C35.8053 12.2596 35.2215 13.1352 34.6377 13.8163L38.8215 17.1244C39.4053 16.346 39.8918 15.5677 40.4756 14.692L36.2918 11.3839Z" fill="#B4241C"/>
<path d="M20.1406 7.10258L24.3244 10.4107C25.0055 9.72961 25.6866 9.04853 26.3677 8.17285L22.0866 4.86475C21.5028 5.74042 20.8217 6.4215 20.1406 7.10258ZM34.2487 14.3999C33.5677 15.1783 32.8866 15.9566 32.2055 16.6377L36.3893 19.9458C37.0704 19.2647 37.7514 18.5837 38.4325 17.708L34.2487 14.3999Z" fill="#C23F31"/>
<path d="M18.6813 8.27032C18.1948 8.65951 17.7083 8.9514 17.1245 9.34059L21.4056 12.6487L21.5029 12.5514C22.2813 12.0649 23.0596 11.4811 23.838 10.8001L19.6542 7.49194C19.3624 7.78384 18.9732 8.07573 18.6813 8.27032ZM31.8164 17.0271C31.5245 17.319 31.1353 17.5136 30.8434 17.8055C30.3569 18.1946 29.8705 18.4865 29.2867 18.8757L33.4705 22.1838L33.5678 22.0865C34.3461 21.6001 35.1245 21.0163 35.9029 20.3352L31.8164 17.0271Z" fill="#DA8C97"/>
<path d="M13.8164 11.1892L18.0975 14.4973C18.9732 14.0108 19.9461 13.5243 20.8218 12.9405L16.638 9.72974C15.7624 10.2162 14.8867 10.7027 13.8164 11.1892ZM28.7029 19.1676C27.9245 19.6541 26.9515 20.1405 25.8813 20.627L30.1624 23.9351C31.038 23.4487 32.011 22.9622 32.8867 22.3784L28.7029 19.1676Z" fill="#EDCDCD"/>
<path d="M10.1191 12.8434L14.2056 16.0542C14.3029 16.0542 14.4002 15.9569 14.4975 15.9569C15.4705 15.665 16.4435 15.2758 17.4164 14.7893L13.1354 11.4812C12.2597 11.9677 11.2867 12.4542 10.1191 12.8434ZM25.2975 21.0163C24.3245 21.5028 23.3516 21.892 22.2813 22.3785L26.3678 25.5893C26.4651 25.5893 26.5624 25.492 26.6597 25.492C27.6327 25.2001 28.6056 24.8109 29.5786 24.3244L25.2975 21.0163Z" fill="#DA8D8D"/>
<path d="M8.07544 13.719C7.49166 13.9136 6.90787 14.2055 6.42139 14.4974L10.6052 17.8055C11.4808 17.2217 12.4538 16.7353 13.5241 16.3461L9.4376 13.1353C9.04841 13.3298 8.56193 13.5244 8.07544 13.719ZM21.5998 22.6704C21.1133 22.865 20.7241 23.0596 20.2376 23.2542C19.6538 23.4488 19.07 23.7407 18.5835 24.0326L22.7673 27.3407C23.643 26.7569 24.616 26.2704 25.6863 25.8812L21.5998 22.6704Z" fill="#C52E1A"/>
<path d="M3.6001 16.9297L7.78388 20.2378C8.46496 19.4594 9.24334 18.7784 10.0217 18.1946L5.83793 14.8865C5.05956 15.4703 4.28118 16.1513 3.6001 16.9297ZM18.0001 24.4216C17.2217 25.0054 16.4433 25.6865 15.7623 26.4649L19.946 29.773C20.6271 28.9946 21.4055 28.3135 22.1839 27.7297L18.0001 24.4216Z" fill="#A6201C"/>
<path d="M1.55664 19.8486L5.74042 23.0594C6.22691 22.1837 6.81069 21.308 7.39448 20.627L3.21069 17.3188C2.62691 18.1945 2.04313 18.9729 1.55664 19.8486ZM15.3729 26.854C14.7891 27.6324 14.2053 28.4107 13.7188 29.2864L17.9026 32.4972C18.3891 31.6216 18.9729 30.7459 19.5566 30.0648L15.3729 26.854Z" fill="#A01F1C"/>
<path d="M0 23.1567L4.18378 26.4648C4.28108 25.9783 4.47568 25.2972 4.76757 24.6162C4.96216 24.227 5.15676 23.9351 5.35135 23.5459L1.26486 20.4324C0.778378 21.308 0.389189 22.1837 0 23.1567ZM13.3297 29.8702C12.8432 30.7459 12.4541 31.6216 12.0649 32.6918L16.2486 35.9999C16.3459 35.5135 16.5405 34.8324 16.8324 34.1513C17.027 33.7621 17.2216 33.4702 17.4162 33.081L13.3297 29.8702Z" fill="#791D19"/>
<path d="M28.5083 9.04864C29.0921 8.27026 29.5786 7.49189 30.1624 6.61621L34.3461 9.92432C33.8597 10.8 33.2759 11.6757 32.6921 12.3568L28.5083 9.04864Z" fill="#DFAF1F"/>
<path d="M26.1729 11.773C26.8539 11.0919 27.535 10.4108 28.2161 9.53516L32.3999 12.8433C31.7188 13.6216 31.0377 14.4 30.3566 15.0811L26.1729 11.773Z" fill="#F0D24F"/>
<path d="M23.2539 14.0108C23.8377 13.6216 24.3242 13.3297 24.8107 12.9405C25.1026 12.7459 25.4917 12.454 25.7836 12.1621L29.9674 15.4702C29.189 16.1513 28.4107 16.7351 27.6323 17.2216L27.535 17.3189L23.2539 14.0108Z" fill="#F6DA82"/>
<path d="M19.8486 15.8594C20.9189 15.3729 21.7946 14.8864 22.6703 14.3999L26.854 17.708C25.9784 18.2918 25.0054 18.7783 24.1297 19.2648L19.8486 15.8594Z" fill="#FFF8BE"/>
<path d="M16.1514 17.6107C17.2216 17.1242 18.2919 16.735 19.1676 16.2485L23.4487 19.5566C22.4757 20.0431 21.5027 20.4323 20.5297 20.7242C20.4324 20.7242 20.3352 20.8215 20.2379 20.8215L16.1514 17.6107Z" fill="#F6DE73"/>
<path d="M12.4541 19.1676C12.9406 18.8757 13.5244 18.5838 14.1082 18.3892C14.5946 18.1946 15.0811 18 15.4703 17.8054L19.5568 21.0162C18.4865 21.4054 17.5136 21.8919 16.6379 22.4757L12.4541 19.1676Z" fill="#E4A922"/>
<path d="M9.63232 21.5999C10.3134 20.8215 11.0918 20.1404 11.8702 19.5566L16.0539 22.8647C15.2756 23.4485 14.4972 24.1296 13.8161 24.908L9.63232 21.5999Z" fill="#C6972C"/>
<path d="M7.58936 24.5189C8.07584 23.6432 8.65963 22.7675 9.24341 22.0864L13.4272 25.3945C12.8434 26.0756 12.2596 26.9513 11.7731 27.827L7.58936 24.5189Z" fill="#C48422"/>
<path d="M10.216 31.2325L6.03223 27.9244C6.42142 26.9514 6.8106 25.9785 7.29709 25.1028L11.3836 28.3136C11.189 28.6055 10.9944 28.9947 10.7998 29.3839C10.6052 30.0649 10.3133 30.746 10.216 31.2325Z" fill="#B86821"/>
<path d="M30.5513 6.22701C31.0378 5.44863 31.6215 4.47566 32.0107 3.50269L36.1945 6.81079C35.8053 7.68647 35.2215 8.65944 34.8323 9.43782L30.5513 6.22701Z" fill="#D9A41F"/>
<path d="M32.3027 2.91892C32.7892 2.04324 33.0811 0.972973 33.373 0L37.5568 3.30811C37.2649 4.28108 36.8757 5.35135 36.3892 6.12973L32.3027 2.91892Z" fill="#D5931F"/>
<path d="M65.2864 9.24328H61.5892V7.68652H56.9189V9.24328H53.4162C49.5243 9.24328 46.3135 12.4541 46.3135 16.346V19.5568C46.3135 23.4487 49.5243 26.6595 53.4162 26.6595H57.0162V28.4108H61.6865V26.6595H65.3837C69.2756 26.6595 72.4865 23.4487 72.4865 19.5568V16.346C72.3892 12.3568 69.1783 9.24328 65.2864 9.24328ZM56.9189 23.0595H55.2648C52.9297 23.0595 51.081 21.1136 51.081 18.8757V16.9298C51.081 14.5946 53.027 12.746 55.2648 12.746H56.9189V23.0595ZM67.6216 18.8757C67.6216 21.2108 65.6756 23.0595 63.4378 23.0595H61.6865V12.746H63.4378C65.7729 12.746 67.6216 14.6919 67.6216 16.9298V18.8757ZM79.3946 19.6541L79.4919 9.24328H74.8216V26.5622H79.3946L86.6919 16.2487V26.5622H91.2648V9.24328H86.5946L79.3946 19.6541ZM106.346 16.1514H99.1459V9.24328H94.3783V26.5622H99.1459V19.5568H106.346V26.5622H111.113V9.24328H106.346V16.1514ZM151.103 9.24328C149.449 9.34058 148.281 10.4108 147.892 11.6757C146.822 14.9838 145.751 18.3892 144.681 21.6L141.373 11.5784C140.886 10.2163 140.011 9.34058 137.968 9.24328H133.686V26.5622H138.357V14.4973L142.346 26.5622H146.822L150.908 14.4V26.5622H155.578V9.24328H151.103ZM124.93 9.24328H114.811V12.6487L122.886 12.5514C124.93 12.6487 126.292 13.3298 126.292 15.1784V16.0541H118.995C111.697 16.0541 111.503 26.6595 119.189 26.4649H130.476V15.7622C130.573 11.3838 128.335 9.24328 124.93 9.24328ZM126.292 23.1568H119.676C117.146 23.1568 117.146 19.6541 119.676 19.6541H126.292V23.1568Z" fill="#060909"/>
</g>
<defs>
<clipPath id="clip0_624_2">
<rect width="1920" height="7234" fill="white" transform="translate(-717 -5766)"/>
</clipPath>
</defs>
</svg>
