<svg width="189" height="32" viewBox="0 0 189 32" fill="none" xmlns="http://www.w3.org/2000/svg">
<g clip-path="url(#clip0_640_207)">
<path d="M53.4114 13.8824C54.2349 14.2353 54.9408 14.5883 55.6467 15.2942C56.2349 15.8824 56.8231 16.5883 57.0584 17.4118C57.4114 18.2353 57.529 19.0589 57.529 20C57.529 20.9412 57.2937 21.7647 57.0584 22.5883C56.5878 23.4118 56.2349 24 55.6467 24.7059C55.0584 25.2942 54.2349 25.7647 53.4114 26.1177C52.5878 26.353 51.6467 26.5883 50.5878 26.5883H40.3525V5.52946H55.9996V9.6471H44.7055V13.4118H50.5878C51.529 13.4118 52.4702 13.5295 53.4114 13.8824ZM52.7055 18C52.2349 17.5295 51.4114 17.4118 50.4702 17.4118H44.5878V22.7059H50.4702C51.4114 22.7059 52.1172 22.4706 52.7055 22.1177C53.2937 21.7647 53.529 21.0589 53.529 20.2353C53.529 19.0589 53.1761 18.4706 52.7055 18ZM65.6467 26.4706H61.529V5.52946H65.6467V14.353L72.9408 5.52946H78.1172L69.7643 15.6471L79.882 26.5883H74.4702L65.6467 17.1765V26.4706ZM86.2349 25.8824C84.8231 25.4118 83.7643 24.4706 82.8231 23.5295C81.882 22.5883 81.0584 21.4118 80.4702 20.1177C79.9996 18.7059 79.6467 17.4118 79.6467 15.8824C79.6467 14.4706 79.9996 12.9412 80.4702 11.6471C80.9408 10.2353 81.882 9.17651 82.8231 8.23534C83.7643 7.29416 84.9408 6.47063 86.2349 5.8824C87.529 5.41181 88.9408 5.17651 90.5878 5.17651C91.7643 5.17651 92.9408 5.41181 93.9996 5.6471C95.0584 6.11769 96.1172 6.47063 97.0584 7.17651C97.882 7.76475 98.7055 8.58828 99.4114 9.52945C99.9996 10.4706 100.588 11.5295 100.823 12.5883H96.2349C95.9996 12.1177 95.7643 11.5295 95.4114 11.1765C94.9408 10.7059 94.5878 10.4706 93.9996 10.1177C93.529 9.76475 92.9408 9.6471 92.4702 9.52945C91.9996 9.41181 91.2937 9.29416 90.7055 9.29416C89.6467 9.29416 88.8231 9.52946 87.9996 9.76475C87.1761 10 86.4702 10.5883 85.882 11.1765C85.2937 11.7647 84.8231 12.5883 84.4702 13.2942C84.1173 14.1177 83.9996 14.9412 83.9996 15.8824C83.9996 16.8236 84.1173 17.6471 84.4702 18.4706C84.8231 19.2942 85.1761 19.8824 85.882 20.5883C86.5878 21.2942 87.1761 21.6471 87.9996 22C88.7055 22.353 89.6467 22.4706 90.7055 22.4706C91.2937 22.4706 91.882 22.353 92.4702 22.2353C92.9408 22.1177 93.529 21.7647 93.9996 21.6471C94.4702 21.2942 94.9408 21.0589 95.4114 20.5883C95.882 20.1177 95.9996 19.7648 96.2349 19.1765H100.823C100.47 20.353 100.117 21.2942 99.4114 22.2353C98.8231 23.1765 97.9996 23.8824 97.0584 24.5883C96.1172 25.1765 95.1761 25.7647 93.9996 26.1177C92.9408 26.5883 91.7643 26.5883 90.5878 26.5883C88.9408 26.8236 87.4114 26.5883 86.2349 25.8824ZM112.353 14.5883V7.76475H122.353V5.6471H110.117V26.353H117.411C121.411 26.353 124.353 24.353 124.353 20.4706C124.353 16.4706 121.411 14.4706 117.411 14.4706L112.353 14.5883ZM122.117 20.4706C122.117 22.9412 120.47 24.353 117.411 24.353H112.353V16.5883H117.411C120.47 16.5883 122.117 18 122.117 20.4706ZM125.411 26.4706H127.764L130.588 20.1177H140.47L143.411 26.4706H145.764L136.47 5.76475H134.705L125.411 26.4706ZM135.529 8.82357L139.647 17.8824H131.529L135.529 8.82357ZM148.705 26.4706H150.941V16.9412H163.058V26.4706H165.294V5.6471H163.058V14.7059H150.941V5.6471H148.705V26.4706ZM184.941 26.4706H188.235L175.529 15.5295L185.764 5.6471H182.705L173.176 14.7059V5.6471H170.941V26.353H173.176V16.353L184.941 26.4706Z" fill="#006DF0"/>
<path d="M16 32C24.8366 32 32 24.8366 32 16C32 7.16344 24.8366 0 16 0C7.16344 0 0 7.16344 0 16C0 24.8366 7.16344 32 16 32Z" fill="url(#paint0_linear_640_207)"/>
<path d="M16 32C24.8366 32 32 24.8366 32 16C32 7.16344 24.8366 0 16 0C7.16344 0 0 7.16344 0 16C0 24.8366 7.16344 32 16 32Z" fill="url(#paint1_linear_640_207)"/>
<path d="M16.0004 0.117676C13.0592 0.117676 10.2357 0.941205 7.88277 2.35297C7.64748 2.47062 7.41219 2.70591 7.29454 2.82356C1.88278 7.64709 2.58866 16.353 8.58866 22.2353C14.5887 28.1177 23.7651 29.0589 29.1769 24.2353C29.7651 23.7647 30.3534 23.0589 30.7063 22.4706C31.5298 20.4706 32.0004 18.353 32.0004 16.1177C32.0004 7.1765 24.8239 0.117676 16.0004 0.117676Z" fill="url(#paint2_radial_640_207)"/>
<path d="M30.5879 15.5294C31.2938 14.4706 31.5291 13.1765 31.4114 11.8824C30.235 7.64706 27.4114 4.11765 23.7644 2C23.6467 1.88235 23.5291 1.88235 23.4114 1.76471C21.1761 0.588235 18.7055 0 15.9997 0C13.7644 0 11.6467 0.470589 9.76436 1.29412C9.29377 1.76471 8.70554 2.23529 8.3526 2.82353C5.88201 6.58824 8.82319 12.5882 14.9408 16C20.9408 19.6471 27.9997 19.2941 30.5879 15.5294Z" fill="url(#paint3_radial_640_207)"/>
</g>
<defs>
<linearGradient id="paint0_linear_640_207" x1="15.9575" y1="32.3187" x2="15.9575" y2="2.5953" gradientUnits="userSpaceOnUse">
<stop stop-color="#4581E9"/>
<stop offset="0.4792" stop-color="#80ACF0"/>
<stop offset="1" stop-color="white"/>
</linearGradient>
<linearGradient id="paint1_linear_640_207" x1="37.4248" y1="32.5778" x2="10.0635" y2="11.5154" gradientUnits="userSpaceOnUse">
<stop stop-color="#4581E9"/>
<stop offset="1" stop-color="#4581E9" stop-opacity="0"/>
</linearGradient>
<radialGradient id="paint2_radial_640_207" cx="0" cy="0" r="1" gradientUnits="userSpaceOnUse" gradientTransform="translate(34.2383 24.8367) rotate(-143.994) scale(39.1785 55.4934)">
<stop offset="0.0969745" stop-color="#4581E9"/>
<stop offset="0.4599" stop-color="#80ACF0"/>
<stop offset="0.7942" stop-color="#F0F6FD"/>
</radialGradient>
<radialGradient id="paint3_radial_640_207" cx="0" cy="0" r="1" gradientUnits="userSpaceOnUse" gradientTransform="translate(49.396 4.85886) rotate(176.111) scale(34.8233 41.5213)">
<stop stop-color="#4581E9"/>
<stop offset="0.5368" stop-color="#87B1F0"/>
<stop offset="0.8057" stop-color="#CCE0FD"/>
<stop offset="1" stop-color="#F0F6FD"/>
</radialGradient>
<clipPath id="clip0_640_207">
<rect width="189" height="32" fill="white"/>
</clipPath>
</defs>
</svg>
